<mxfile host="app.diagrams.net" modified="2024-04-18T08:06:29.368Z" agent="Mozilla/5.0 (Windows NT 10.0; Win64; x64) AppleWebKit/537.36 (KHTML, like Gecko) Chrome/122.0.0.0 Safari/537.36 Edg/122.0.0.0" etag="saPJqWNSlgqPZA5vsb6N" version="22.1.16" type="github">
  <diagram name="Page-1" id="mRq67Squ5-0Opvw__wHU">
    <mxGraphModel dx="1426" dy="785" grid="1" gridSize="10" guides="1" tooltips="1" connect="1" arrows="1" fold="1" page="1" pageScale="1" pageWidth="850" pageHeight="1100" math="0" shadow="0">
      <root>
        <mxCell id="0" />
        <mxCell id="1" parent="0" />
        <mxCell id="ihhVtPH77ZfG2zRs3wzk-1" value="Data Collection" style="swimlane;whiteSpace=wrap;html=1;" vertex="1" parent="1">
          <mxGeometry y="170" width="230" height="460" as="geometry" />
        </mxCell>
        <mxCell id="ihhVtPH77ZfG2zRs3wzk-6" value="" style="group" vertex="1" connectable="0" parent="ihhVtPH77ZfG2zRs3wzk-1">
          <mxGeometry x="30.5" y="60" width="70" height="85" as="geometry" />
        </mxCell>
        <mxCell id="ihhVtPH77ZfG2zRs3wzk-4" value="" style="image;sketch=0;aspect=fixed;html=1;points=[];align=center;fontSize=12;image=img/lib/mscae/Non_Azure_Machine.svg;" vertex="1" parent="ihhVtPH77ZfG2zRs3wzk-6">
          <mxGeometry x="19.5" width="31" height="50" as="geometry" />
        </mxCell>
        <mxCell id="ihhVtPH77ZfG2zRs3wzk-5" value="Machine IPC" style="rounded=1;whiteSpace=wrap;html=1;" vertex="1" parent="ihhVtPH77ZfG2zRs3wzk-6">
          <mxGeometry y="50" width="70" height="35" as="geometry" />
        </mxCell>
        <mxCell id="ihhVtPH77ZfG2zRs3wzk-9" value="" style="group" vertex="1" connectable="0" parent="ihhVtPH77ZfG2zRs3wzk-1">
          <mxGeometry x="133.5" y="50" width="71" height="93" as="geometry" />
        </mxCell>
        <mxCell id="ihhVtPH77ZfG2zRs3wzk-7" value="" style="sketch=0;outlineConnect=0;fontColor=#232F3E;gradientColor=none;fillColor=#7AA116;strokeColor=none;dashed=0;verticalLabelPosition=bottom;verticalAlign=top;align=center;html=1;fontSize=12;fontStyle=0;aspect=fixed;pointerEvents=1;shape=mxgraph.aws4.iot_thing_plc;" vertex="1" parent="ihhVtPH77ZfG2zRs3wzk-9">
          <mxGeometry x="6.5" width="58" height="58" as="geometry" />
        </mxCell>
        <mxCell id="ihhVtPH77ZfG2zRs3wzk-8" value="Machine PLC" style="rounded=0;whiteSpace=wrap;html=1;" vertex="1" parent="ihhVtPH77ZfG2zRs3wzk-9">
          <mxGeometry y="58" width="71" height="35" as="geometry" />
        </mxCell>
        <mxCell id="ihhVtPH77ZfG2zRs3wzk-11" value="" style="endArrow=classic;html=1;rounded=0;" edge="1" parent="ihhVtPH77ZfG2zRs3wzk-1">
          <mxGeometry width="50" height="50" relative="1" as="geometry">
            <mxPoint x="65" y="145" as="sourcePoint" />
            <mxPoint x="65" y="195" as="targetPoint" />
          </mxGeometry>
        </mxCell>
        <mxCell id="ihhVtPH77ZfG2zRs3wzk-13" value="" style="group" vertex="1" connectable="0" parent="ihhVtPH77ZfG2zRs3wzk-1">
          <mxGeometry x="23.75" y="200" width="83.5" height="80" as="geometry" />
        </mxCell>
        <mxCell id="ihhVtPH77ZfG2zRs3wzk-10" value="" style="shape=note;whiteSpace=wrap;html=1;backgroundOutline=1;darkOpacity=0.05;" vertex="1" parent="ihhVtPH77ZfG2zRs3wzk-13">
          <mxGeometry x="11.75" width="60" height="60" as="geometry" />
        </mxCell>
        <mxCell id="ihhVtPH77ZfG2zRs3wzk-12" value="Files" style="rounded=0;whiteSpace=wrap;html=1;" vertex="1" parent="ihhVtPH77ZfG2zRs3wzk-13">
          <mxGeometry y="60" width="83.5" height="20" as="geometry" />
        </mxCell>
        <mxCell id="ihhVtPH77ZfG2zRs3wzk-14" value="" style="image;aspect=fixed;html=1;points=[];align=center;fontSize=12;image=img/lib/azure2/databases/Azure_Database_MySQL_Server.svg;" vertex="1" parent="ihhVtPH77ZfG2zRs3wzk-1">
          <mxGeometry x="91" y="396" width="48" height="64" as="geometry" />
        </mxCell>
        <mxCell id="ihhVtPH77ZfG2zRs3wzk-15" value="" style="image;aspect=fixed;html=1;points=[];align=center;fontSize=12;image=img/lib/azure2/compute/Azure_Spring_Cloud.svg;" vertex="1" parent="ihhVtPH77ZfG2zRs3wzk-1">
          <mxGeometry x="81" y="306" width="68" height="68" as="geometry" />
        </mxCell>
        <mxCell id="ihhVtPH77ZfG2zRs3wzk-16" value="" style="endArrow=classic;html=1;rounded=0;" edge="1" parent="ihhVtPH77ZfG2zRs3wzk-1">
          <mxGeometry width="50" height="50" relative="1" as="geometry">
            <mxPoint x="114.5" y="365" as="sourcePoint" />
            <mxPoint x="114.5" y="395" as="targetPoint" />
          </mxGeometry>
        </mxCell>
        <mxCell id="ihhVtPH77ZfG2zRs3wzk-17" value="" style="endArrow=classic;html=1;rounded=0;" edge="1" parent="ihhVtPH77ZfG2zRs3wzk-1">
          <mxGeometry width="50" height="50" relative="1" as="geometry">
            <mxPoint x="70.5" y="286" as="sourcePoint" />
            <mxPoint x="100.5" y="306" as="targetPoint" />
          </mxGeometry>
        </mxCell>
        <mxCell id="ihhVtPH77ZfG2zRs3wzk-18" value="" style="endArrow=classic;html=1;rounded=0;entryX=0.5;entryY=1;entryDx=0;entryDy=0;entryPerimeter=0;" edge="1" parent="ihhVtPH77ZfG2zRs3wzk-1" target="ihhVtPH77ZfG2zRs3wzk-3">
          <mxGeometry width="50" height="50" relative="1" as="geometry">
            <mxPoint x="149" y="339.5" as="sourcePoint" />
            <mxPoint x="249" y="339.5" as="targetPoint" />
          </mxGeometry>
        </mxCell>
        <mxCell id="ihhVtPH77ZfG2zRs3wzk-19" value="" style="image;html=1;image=img/lib/clip_art/networking/Router_128x128.png" vertex="1" parent="ihhVtPH77ZfG2zRs3wzk-1">
          <mxGeometry x="137" y="200" width="64" height="60" as="geometry" />
        </mxCell>
        <mxCell id="ihhVtPH77ZfG2zRs3wzk-20" value="PLC IO Entry" style="rounded=0;whiteSpace=wrap;html=1;" vertex="1" parent="ihhVtPH77ZfG2zRs3wzk-1">
          <mxGeometry x="123.5" y="260" width="91" height="20" as="geometry" />
        </mxCell>
        <mxCell id="ihhVtPH77ZfG2zRs3wzk-21" value="" style="endArrow=classic;html=1;rounded=0;entryX=0.5;entryY=0;entryDx=0;entryDy=0;" edge="1" parent="ihhVtPH77ZfG2zRs3wzk-1" target="ihhVtPH77ZfG2zRs3wzk-19">
          <mxGeometry width="50" height="50" relative="1" as="geometry">
            <mxPoint x="168.5" y="143" as="sourcePoint" />
            <mxPoint x="168.5" y="193" as="targetPoint" />
          </mxGeometry>
        </mxCell>
        <mxCell id="ihhVtPH77ZfG2zRs3wzk-22" value="Local Client" style="rounded=0;whiteSpace=wrap;html=1;" vertex="1" parent="ihhVtPH77ZfG2zRs3wzk-1">
          <mxGeometry x="1" y="330" width="80" height="20" as="geometry" />
        </mxCell>
        <mxCell id="ihhVtPH77ZfG2zRs3wzk-23" value="Local Storage" style="rounded=0;whiteSpace=wrap;html=1;" vertex="1" parent="ihhVtPH77ZfG2zRs3wzk-1">
          <mxGeometry x="11" y="418" width="80" height="20" as="geometry" />
        </mxCell>
        <mxCell id="ihhVtPH77ZfG2zRs3wzk-40" value="" style="endArrow=classic;startArrow=classic;html=1;rounded=0;" edge="1" parent="ihhVtPH77ZfG2zRs3wzk-1">
          <mxGeometry width="50" height="50" relative="1" as="geometry">
            <mxPoint x="139" y="310" as="sourcePoint" />
            <mxPoint x="169" y="280" as="targetPoint" />
          </mxGeometry>
        </mxCell>
        <mxCell id="ihhVtPH77ZfG2zRs3wzk-3" value="RocketMQ" style="shape=cylinder3;whiteSpace=wrap;html=1;boundedLbl=1;backgroundOutline=1;size=15;rotation=90;" vertex="1" parent="1">
          <mxGeometry x="290" y="520" width="60" height="140" as="geometry" />
        </mxCell>
        <mxCell id="ihhVtPH77ZfG2zRs3wzk-24" value="" style="endArrow=classic;html=1;rounded=0;" edge="1" parent="1">
          <mxGeometry width="50" height="50" relative="1" as="geometry">
            <mxPoint x="380" y="589.5" as="sourcePoint" />
            <mxPoint x="355" y="500" as="targetPoint" />
            <Array as="points">
              <mxPoint x="410" y="590" />
              <mxPoint x="410" y="520" />
              <mxPoint x="355" y="520" />
            </Array>
          </mxGeometry>
        </mxCell>
        <mxCell id="ihhVtPH77ZfG2zRs3wzk-25" value="Server Service" style="swimlane;whiteSpace=wrap;html=1;" vertex="1" parent="1">
          <mxGeometry x="250" y="170" width="210" height="330" as="geometry" />
        </mxCell>
        <mxCell id="ihhVtPH77ZfG2zRs3wzk-26" value="" style="dashed=0;outlineConnect=0;html=1;align=center;labelPosition=center;verticalLabelPosition=bottom;verticalAlign=top;shape=mxgraph.weblogos.java" vertex="1" parent="ihhVtPH77ZfG2zRs3wzk-25">
          <mxGeometry x="87.8" y="160" width="34.4" height="65" as="geometry" />
        </mxCell>
        <mxCell id="ihhVtPH77ZfG2zRs3wzk-27" value="" style="image;aspect=fixed;html=1;points=[];align=center;fontSize=12;image=img/lib/azure2/compute/Azure_Spring_Cloud.svg;" vertex="1" parent="ihhVtPH77ZfG2zRs3wzk-25">
          <mxGeometry x="19.8" y="50" width="68" height="68" as="geometry" />
        </mxCell>
        <mxCell id="ihhVtPH77ZfG2zRs3wzk-28" value="" style="image;aspect=fixed;html=1;points=[];align=center;fontSize=12;image=img/lib/azure2/compute/Azure_Spring_Cloud.svg;" vertex="1" parent="ihhVtPH77ZfG2zRs3wzk-25">
          <mxGeometry x="122.2" y="50" width="68" height="68" as="geometry" />
        </mxCell>
        <mxCell id="ihhVtPH77ZfG2zRs3wzk-29" value="Load Balanced Services" style="rounded=0;whiteSpace=wrap;html=1;" vertex="1" parent="ihhVtPH77ZfG2zRs3wzk-25">
          <mxGeometry x="50" y="130" width="110" height="28" as="geometry" />
        </mxCell>
        <mxCell id="ihhVtPH77ZfG2zRs3wzk-30" value="JAVA8" style="rounded=0;whiteSpace=wrap;html=1;" vertex="1" parent="ihhVtPH77ZfG2zRs3wzk-25">
          <mxGeometry x="60" y="230" width="90" height="20" as="geometry" />
        </mxCell>
        <mxCell id="ihhVtPH77ZfG2zRs3wzk-47" value="" style="shape=image;html=1;verticalAlign=top;verticalLabelPosition=bottom;labelBackgroundColor=#ffffff;imageAspect=0;aspect=fixed;image=https://cdn1.iconfinder.com/data/icons/unicons-line-vol-3/24/docker-128.png" vertex="1" parent="ihhVtPH77ZfG2zRs3wzk-25">
          <mxGeometry x="75.5" y="250" width="59" height="59" as="geometry" />
        </mxCell>
        <mxCell id="ihhVtPH77ZfG2zRs3wzk-48" value="Podman(Service Container)" style="rounded=0;whiteSpace=wrap;html=1;" vertex="1" parent="ihhVtPH77ZfG2zRs3wzk-25">
          <mxGeometry x="20" y="306" width="170" height="24" as="geometry" />
        </mxCell>
        <mxCell id="ihhVtPH77ZfG2zRs3wzk-31" value="" style="endArrow=classic;html=1;rounded=0;" edge="1" parent="1">
          <mxGeometry width="50" height="50" relative="1" as="geometry">
            <mxPoint x="460" y="290" as="sourcePoint" />
            <mxPoint x="520" y="290" as="targetPoint" />
          </mxGeometry>
        </mxCell>
        <mxCell id="ihhVtPH77ZfG2zRs3wzk-32" value="Database" style="swimlane;whiteSpace=wrap;html=1;" vertex="1" parent="1">
          <mxGeometry x="520" y="170" width="200" height="258" as="geometry" />
        </mxCell>
        <mxCell id="ihhVtPH77ZfG2zRs3wzk-36" value="TIDB(Distributed Database) Relational DB" style="rounded=0;whiteSpace=wrap;html=1;" vertex="1" parent="ihhVtPH77ZfG2zRs3wzk-32">
          <mxGeometry x="10" y="193" width="120" height="60" as="geometry" />
        </mxCell>
        <mxCell id="ihhVtPH77ZfG2zRs3wzk-37" value="" style="image;html=1;image=img/lib/clip_art/computers/Database_128x128.png" vertex="1" parent="ihhVtPH77ZfG2zRs3wzk-32">
          <mxGeometry y="30" width="70" height="69" as="geometry" />
        </mxCell>
        <mxCell id="ihhVtPH77ZfG2zRs3wzk-39" value="" style="image;html=1;image=img/lib/clip_art/computers/Database_128x128.png" vertex="1" parent="ihhVtPH77ZfG2zRs3wzk-32">
          <mxGeometry x="130" y="124" width="70" height="69" as="geometry" />
        </mxCell>
        <mxCell id="ihhVtPH77ZfG2zRs3wzk-38" value="" style="image;html=1;image=img/lib/clip_art/computers/Database_128x128.png" vertex="1" parent="ihhVtPH77ZfG2zRs3wzk-32">
          <mxGeometry x="65" y="80" width="70" height="69" as="geometry" />
        </mxCell>
        <mxCell id="ihhVtPH77ZfG2zRs3wzk-41" value="" style="endArrow=classic;html=1;rounded=0;" edge="1" parent="1">
          <mxGeometry width="50" height="50" relative="1" as="geometry">
            <mxPoint x="720" y="290" as="sourcePoint" />
            <mxPoint x="780" y="290" as="targetPoint" />
          </mxGeometry>
        </mxCell>
        <mxCell id="ihhVtPH77ZfG2zRs3wzk-42" value="Application" style="swimlane;whiteSpace=wrap;html=1;" vertex="1" parent="1">
          <mxGeometry x="780" y="170" width="260" height="441" as="geometry" />
        </mxCell>
        <mxCell id="ihhVtPH77ZfG2zRs3wzk-50" value="" style="group" vertex="1" connectable="0" parent="ihhVtPH77ZfG2zRs3wzk-42">
          <mxGeometry x="70" y="338" width="125" height="83.80000000000001" as="geometry" />
        </mxCell>
        <mxCell id="ihhVtPH77ZfG2zRs3wzk-45" value="" style="image;aspect=fixed;html=1;points=[];align=center;fontSize=12;image=img/lib/azure2/other/Grafana.svg;" vertex="1" parent="ihhVtPH77ZfG2zRs3wzk-50">
          <mxGeometry x="28.5" width="68" height="52.800000000000004" as="geometry" />
        </mxCell>
        <mxCell id="ihhVtPH77ZfG2zRs3wzk-46" value="Real-Time Service Monitoring" style="rounded=0;whiteSpace=wrap;html=1;" vertex="1" parent="ihhVtPH77ZfG2zRs3wzk-50">
          <mxGeometry y="52.80000000000001" width="125" height="31" as="geometry" />
        </mxCell>
        <mxCell id="ihhVtPH77ZfG2zRs3wzk-49" value="" style="shape=image;verticalLabelPosition=bottom;labelBackgroundColor=default;verticalAlign=top;aspect=fixed;imageAspect=0;image=data:image/png,iVBORw0KGgoAAAANSUhEUgAAB3wAAAPDCAYAAABYUXoAAAAAAXNSR0IArs4c6QAAAARnQU1BAACxjwv8YQUAAAAJcEhZcwAADsMAAA7DAcdvqGQAAP+lSURBVHhe7N0JfFTV+f/xJ2HfCSAmAQHFHStC2GLctVVpEUSttu5bxYILtbZWraLV1mot2sIPrVqt1mrVIoh/931hD7gruIJCArLvS0j+9zn3nJk7aybJZJnk887rvu46d+5MZrlzvveck1VUVFQhAAAAAAAAAAAAAICMkzTwraggCwYAAAAAAAAAAACAhiArK8tOhSUMfF3Yu2vXLjPW+Xg7AAAAAAAAAAAAAACkXzCjbdasmRlHZ7Yxga8LesvLy2Xj9gpZt6O5rNsusqWsmVRkZZt1ABJbu+Bp6dy5s50DAAAAAAAAAABAUxOvJeXgsnjr49m8ebN89tlnUlxcLDNnzpQvvvhCsrP9zNYFvxGBr+5Yh13lFbJiS7Ys2dTSrgGQqlXznpKuXbvaOQAAAAAAAAAAADQ1qQa+Ok61lWXd9q9//atMmzbNzOvtdAhV2dUNdNiyU+SDVS0IewEAAAAAAAAAAACgilyYGxRcFm99KjTcveqqq+See+6Rnj17hvLdiDaadYE237yt3G//GQAAAAAAAAAAAACQftUNfvv16ycFBQWh25vA16W/2mfvkk2tzAoAAAAAAAAAAAAAQPpUN+SNpjV9+/TpY/YXquFbXl4ua7dTsxcAAAAAAAAAAAAA0iVeyOuWVTcA1uadDz/8cHP7rKKiogoNe3ft2iUfrW4hW8pb2M2qaMm7IuU77UwtyPaOq3eRnQEarlXznpKuXbvaOQAAAAAAAAAAADQl0SFucD466NVxdnZEL7wpmzNnjvzqV7+KDHznrmwlklXNWr5fvyFXT3nczqTfHZeeIbLnUXYOaLgIfAEAAAAAAAAAAJqm6LBXxQt5g+PqBr7r1q2T4cOHRwW+37e1q6vBBr6P3HGjbFq90i6smY7dc+XM8TdonWQCX2QMAl8AAAAAAAAAAICmKZ2B72effSalpaWSm5sr+++/v10a6dBDDw334ZsupV8tkkNHnBYaCn9yqrTP6Sqb1q+V8h3b5dSTT5ZbbrpZJt39NzM+zZsv37ndrNftdHu93ZATRknpl4vl++Xf2T0DAAAAAAAAAAAAQOaIFwAHJVqvQe/zzz8vCxcuNGOdTyQU+FZ2Z1WRv9e+ZujYZTdZ8PoL0rlVc7n/vgflo48+kxtvuElGnjRKjjziKDO+wZv/6MPPzPrOrZub7fV2vfbrJ30HDJFXn/yX3SsAAAAAAAAAAAAANG47d+6U1157zc75dF6XR9OMN+01fJ3NG9bL8w9NluOPOlJmzHhOjj32OMnKyrJrI+lyXT/jmefM9nq7zRvXy6HDR8u3iz6yWwEAAAAAAAAAAABA4zZv3jxZsWKFnfPpvC6Pp1YCX+0TeMb9d8kZp50mt97yJ2nevIVdk5xup9ufcdpPZcZ9d6W11jEAAAAAAAAAAAAANASJctClS5fKnDlz7FwkXa7ro9VK4Pvem69ITof28rtrrrNLquZ311xrbq/7AQAAAAAAAAAAABojrUS5betW2bRpgxm2bdtqlqHpeuedd+xUfPHW10rg+9G7r8jjjz0pzZo1s0vCliz5Ri4Zc5EccWSRXHLJRfKNNx9Nb6e31/0AAAAAAAAAAAAAjcnWLVtk6ZKv5dOPP5Avv1gkS77+ygxffr7ILPt26ddmGzQ9Bx10kJ2KL976rKKiogq9UqCsrEzmrWpnF1fD12/I1VMelzsuPUNycnJk3tyFEYGvVku+5dab5eGHH5L9hxwhu/XoKSuXfSeL5r4l5513gVz7u+sj+vjdtWuXDB4yQNauXRvar+x5lF0LNFyr5j0lXbt2tXMAAAAAAAAAAAA+zcu++fpL2bJ5k12SXLv27aV3n74RGRoatuimmoPzblrHwel4lWhTVVhYWDs1fH9x8ZiYAysuni8PPviA/OQXv5JBxw2X3gccLIO9sc4/8MB9Zn2Q3v5ibz8AAAAAAAAAAABAVa1bt95ONQxlO3fK4s8+TjnsVZs3bZLPF31iKkqicQgGwOlSK4HvCSeeaKfC/nLn7TLwuBHSuVt3mfX8NPnXH672xk+b+YHH/cSsj3biCbH7AQAAAAAAAAAAQP147rnn5PTTT5exY8fKY489Jlu3brVrIunyRx991Gyn27/22mt2Td0Zf9VvZNr0Z+1c/aqoKJcvv1hsWtwNKikpkZnvzpRXX3nVDLNmzpKVK1batb6dO3eapp5rIyhE41ArTTp/8fk3MTV89+rbS8763R+lWfMW8tDNV8vUqdNl9OiRct4Nd5grGh697Vr56suldmufHtM+++5Jk87IKOlo0vnoo4+2U9Xz+uuv2ykAAAAAAAAAANJnwYIF8rOf/Uz22GMP+etf/yoHH3ywXRNLtx03bpysXr3ahMMDBw60a9Lvz7ffaafCPlu0WPbfb187F3b88T+UQ/onPu5006D26y8/l61bI/vk/e7bb+Wjjz62c2HafPNBPzhIevToYZf42rVrL3322tvOob6ccMIJ8vXXX5vpPffcU1544QUz7UQH88F5nXbzwXGDbNJ5w4YNdiqse/fusmbFCjPdPqeLjB59khmrtStLzPpomzdvtlNA03LUUUfVaAAAAAAAAAAAoDZ07tzZBEw6vueee2SFzX6iLV++XO69917ZfffdZciQIZKTk2PX1I54OVMw7NXw12ndurWdqhtbt2yJCXu1BnS8sFdpAPjhBx/Ktm3b7BLf5s2bYvZTmRkzZsiFF14o69ats0sixVuvy/bbbz8zRK/TaV3m1v/f//2fXePTIHTkyJGh9bqvIL0IwK1LtI3S7W688caY5yB4bDrodnXh888/l++++07ef/998xgXLVpkBp3WZbpOt6kvtVLDd/KkKTJ8+E/sCt9///uY3PiHm+T08TdI2c4dsnXTRmnTvoM0a9FSnvjrzXLTDTfK6af/zG7te/GlF2TMmIup4YuMko4avg2Bfoje/Idb5JTRo6WgIPKqq+LiBXL33X+Tv/3tLvOl3hB9+tkX8tniL+WoI4ZJTudOdmli06Y/IzfddLOdi3T+eefK5ZdfZueq729/+7sZp2Nf6aSPfemSJVU+rqo8x5u3bpcZr78n6zbGnozs2ydXjhl6gJ1ruNxj2G/PXBlwQG+7FAAAAAAAAGhatNKflh9rYHnzzTdLq1atTDCnwa6jYe9NN91kpnVd8+bNTcjasWNHs6y2abi7R88e0q6dn3s99K9H5M233pE/3HSD9PSW17Vvvv7C9MUbVFpSIu+9976di2/AwAERz6vq2Kmz7NGrj52rnAak06ZNk/33318uu+yyiLDb1dY+7LDD5M477zTl/bps8uTJoXm9/fz58+V3v/uduc2f/vQnc0y//OUvzetA5wcNGiQjRowwYfBVV10lo0aNipjXZr1d7W4NiIcNG5a0trc7rjPOOMPcrztmXa6vq7vuusvUrNWw9ZZbbpHrr7/ezNeWVatWmcp2+jzNmzfPBN76+JU+ngceeEAGDx4s77zzjrzxxhsxGZGryat0Oliz140bZA3fyf83yU6FnXTSKMn3XgDPPzxF1n6/QtrndDXjF/41RXrk7m7WR5syJfKqAABI1fKSFd6JRgtp7Z1spEqD3YUL5scM6QpodT8NLeytieo8x0MP3kvGnH50aDj1R4Nl6fLV8tqcT+0WAAAAAAAAABoyDW21Nm3v3r3lhhtukO3bt5t+fbVyodLxiy++aKY17M3Pzzfb11XYq7R557v/NtlMb9myxYS92oRzfYS9u3btigl71daomqvx7Nixw06FbVi/Tirsc52qnj17mvBb+wsOmj17tlxxxRV2zq8INn36dBPYuspehx9+uGzcuNHcVtdrTVYNbJUGsRr2fvvtt2Z+7dq1ZnzQQQeZse6joKBAli1bZub19tq6b6La3q72sIa6F110kV3qc8emy124q2MNW2sz7FV/+MMfTHCtNdqLi4tN2PvQQw/Jf/7zHzOty3SdbqPb1odaCXwXL14UUb1btWnTRl584RUZdfyPZOHzT8kjt/7WjEed8CN5wVu+ectm+fejj9itRdavXy+ffPKRnUsu+6gZknvF62Zo77+Golwt7e363PP/GnjQgeWJhpOvttsmcNBDcW43Q1pHXnCRoqjjiTjWKggcU+ejfmoXpkui5xLppB9m2o9vZYNeKRKkTWe4q6bqkn7QXnvd9TJg4CAzuJqsSj8LLrv8Cnn55Vdk+I9HmPW6bWlpqZxzznlmXpe79u6V1iB2+9JB56ti69Ztsn3HdunaJcf77Elv0xz62NxxPfbY4+axuOPTdcHHro/p7HPODT224Hodu9vrvoLPQXWeM72NW6dD8Di0Bu8f/3RbxP9Il7l1WrP5wYf+Zdbr/zIV6XqOu+W0l175XWXDpq12iXdMry6Qe/77emjQeUenX3z3I7n/qTfN8MXSFbLw0yUR2z/09Duyaq1/AqXrH5kxU95ZsDhif7pcbx+9vdLw2W3r7iNYQ3nOB1+FAmpd/vhzc0Lb67QuU3q7p16cZwZdp/er96P357YPPjYAAAAAAAAg02jo+/e//13OOeccyc72EwMdn3nmmaZ/Xw1768OInwyXz7/4Ut54822Z/sz/M8uOO+4YM1b33f+gGerCju1+eWG0dm0rb3W3dav4Za/xguDK9O/fXz76KJy7aZmyZgraLLLjAt1g38Ea6nbo0MHcVqc1PNagWOn2WvtX+3NWLsh196P3oWGo259uv2nTJrnyyitDTTJHN+d8wQUXmGBXayQHaeCsx+bC5LqkFzEEX8t63G+++abMmTMn4vnTbXbu3Gnn6lat5HXtu+wmf/vbxIgqyqpFixZy7bW/l1kz58nXX31rxtdcc5289dabcswxR8jUqU+Z7fR29947RdrldDPz9arXcMm94iFpYWeDWpz8uuQeG69Zz/bS+YxqhK0H9fNuGdBxH2lZreAYTdFLL73kvY+OqfO+r/UDWpt+zt19d1MbdtbMd6TU+5IIBo7r162X1994Q6b+70l5/bVX5Ltvv5MLLrxYbrrpRnObE47/kfeh/qzZ1jUXrdvpOr3NXXffHRFuVub7Vatly5Zt0tH7EkonDUfnzy8OHdv3338vzz8f2Rl7Vdx+x19Mk9m6rz/cfJOMHXd56HFW5TnTL83LL79SrrjicrPO/Q9cqKuefPKp0H3df98/5B//uM/c16iRJ8mNN95gajf/8dZbIprzSKbWnuNXF8i27Tvl7JMONTWAtUZw6ar1JtR1Slauk1HHFshFpx4pGzdvk+KPv5HjCg8M1RhWGvA62739adCq63W7VWs3yjvFn5t96P20btVCPljsX4GmQe7K1RtC91/Qr4/Zduu2nTLi6EOkc4e25pi0CWoXAnfv2tFsq4Pu6+WZ4X43NCDu0rm9WffDQ/vJK7M+NgG3zut96GOldjMAAAAAAAAyWdu2bWOao23ZsmWoOeX6oIFv+/bt5X9Tp8lLL78ihxUVSr8D/W7lFi/+XGbOmm2Gr7/+xiyrTWW7yuxUpE6dO4VC8nh0nW4Tz86yqoeKffv2NTVxXaWfr776yjTNHF3btlOnThHLtMzYNSut067SmQadGiJrf73afLPSGr3aHLSGwLr+3HPPNc0tu+abtQbwe++9Z2p+a/+3Gphqc9Mu9NXbFxUVmel49Nh0H66PYB1XJTuoLn0M+riU9kutfVI/+OCDcvfdd8vZZ59t1qvLL79crr32WjNdU9oVr1b605rEelGFjjVk1uXx1Erg++Pzx8nD/35Y3nnnbbskPv2njLvsUhkz5nyT6P/h5lvN8tmzZ8k/7v+H2U/D0Fu6RtdmPegh6drLTifQuv/ZVarp22Kf6PC4vbQ+IN01dGvqDtl099FSqsODv5KqNRqAVOmH3euvv17poG3Gq7/85S9y/PHHyyeffGLm0+mii38RqhXqBl3mfPzxJyaMPOecs828fuBffNGFMs/7QA9+0GrYqOv0A3vQoAITWLpmFvQDXANKDS7/N3WqCS5dcxG6zSmnnBIKN1OxebNfW7RduzZmnCqt5Rr9WHXQEFq/BOfOnSujTxkdOrYRI34ieXl5Zro6NGR1/SP363egHHJIf3n/gw/NvErlOdPjeuPNt8x6ty/3P3j11VfNc6pOPPEEcx+qb9+9pFvXrrJmjd+8RnVU9zmOprVgv/p2pfTO9/s0GHXsQDlj+FBp18ZvJnqP3K7SumXkJTedO7Y1NYOV9qWrwe/evfwPW12u64P0ZPOgffwryPJ26yzt27Y2oatuq/ejga3WMNZQeNnKtTLooD6h+9f96/5cIBy0+JtSM9YA2Dls4L6yccs287iU3nevvC5mOprehz7WTOi/GAAAAAAAAMgkWgHxp6eNNtmTGnmSH0iqWbPn2imRefOL7VTtyfL+4tG+jwcMHChZWbHrNewdNHiQCc7jib/H5LScWcN516yz1tJ1TTOnSsubtcllrdGrge37779vauNqP7ZKM4HTTz/dBLG6/l//+pfpY9cFulq+rdu7AFiPSfv31dDXlWUn8+WXX5rb//e//zX71yxFawvXRegbpGXwTvBiBw2h9bVXU9ra56OPPioLFy40WaqGvDrWPoy1GemVK1faLcNqJfBt4b1Ijzz1XDn3vLNk7rzwGydIU+hBgw+RNd+8Lu1aZMuVV4yXfv0OkvfeWyhnnnWGHHnaOWY/dWbDQlnpgkw3vBquUSYdB0jbQC3xYDi77f0pEbdbvdSu0Jq+h1bSJHTI1dLKBchLl4hrXLT1nsNoNhn1SmuDaq3Q4KDLnG+/+0567tEz4gNOr/5xoWgivXrH1o7ftm27CY+jQ2ZtcrgqNmzc6H1xtZbdukV2jF6ZRH34apCqwaoe2x49e9qtxYS9GtJWV/A50OdPa0kvXRL43IkS7zlTepvosHr0KaeZWsK1pbrPsTaH7Joz1uGVWZ/IXnt0N8FqkGtW+amX5sm2HZVfrRZsollrBFcmJyoUVus2bja1gfWYgseYaH9rN2wxNXgfeWZmaFs9Xt1HPBrw7rdnrgmKddtg888AAAAAAABAptLmhV3/vY7OV6fZ4XR67nm/H2E1/Rk/cNQWMmfPmSMHHrC/5Ofn1Ung27x5czsVa7fdusnhRxwuXbp2MV2j6tC1a1d/WZf4FUlUsyT7TObggw+W559/3oSr2pzzXnuFK7M42uWqhouOlo3rtkprBSvt11dpufZ5551nmm3W0FWbcj7kkEPkwAP9ykepBLqaJ2jN3VRoLeXx48eH8gi9H72/YFPVtUFDa30c6pJLLpG33nrLhM2TJk0yNW91vdJt3HRNfPPNN7JmzRo7F2n16tWh/0NQrWWJvfY9QI4YfZace+6ZcvMfbgo176xtV593/tky/vLz5OnbDpArf9ZbNmyvkAsv/IX86bY/ys/PPN3crtc+DaDG00fnRYS+7feJF94ukc1vPGGnfTtnLpRQL5id81J7kgPNOW/6/DzZ8r6NfKOC5hi7/1U6uz51dUjY53C4713T1HR038Oh21XWj3D8Pnyj+1EOzuuQ/r6EG7eq9uH761//2nSC7z5EM128kPnyyy+za5PTvmVXr1krrVq2Snv/vQ1ZvLD64YcfqjR4r46aPMdaG9Y1f+yGYA1XF/QuXb7aNM+sQ3QN3yAX9GpIq80v6/5yu6V2chCPXo3lmodOdIxB2sSza/7ZDcEax9E02NZt9D42bdlmwmL68QUAAAAAAECmWr58uVx22WWmJqcLfXWs81rz0gWFdUlr9f7flH9IaekKOe3U0aZ27zvvzpJp05+V1994y1Q8OvaYo2XokMGyatVqmTN3nr1l7WhZSeVGDXkLCgpksHc8OgwsGBhRwSqeli2rV2FSA179n2hAq800R5cf6/1qH73Lli2zS/zAd+PGjWnpO1dr+mpQqvt0NFzWPoIre8yumelgGF1XtMa1vtYdrV2s/RLrceu0o9ska6Y7VcF9xqOBcLRaC3zVnv36y3Fnj5FnX35Fig4bJr/57VVSeOhg6dHqY5n3z0FyYJ/2cuGti+TAA/vJ8SccK08/97wce9Yl5nYNxkcfh2rbBsPbXWvd0t7SNbqP3xW/knWuxm+KzR6HawxvkrLvvQ/ETz8Phcbxg2aPhrZnDJCIt4D2ORy3X+Gw1v0vjd1Gb3f+DOl8xfCofoQHSPeY0De59se+Lt37R+zF3KcGwag9P/rRj+S1116r834RtMar1nyN/oBOpfmFaK1btzK1hbXWcHVt277d1LDMz0tvB9jmiy7q2Fyt3+oK1ubVfWkTzYlq8Sajt3HNO9eF2nqOtbar9p+rofB5Jx8WarY5maUla7ztOpgQNbqWcFV17tDONIWi/QKnQmsJax+82r9vVWkgrMGwPtZ1G7aY5qQBAAAAAACATLBhwwbTpKyGW64/V+1y0AVdOtb5Xbt2mfUaMOr2ervapjV2b/3THWZ8/nlny/ATj5dRI39ipocMLjD99ubl5Urbdm1l3333MbeZOWuOGdcWfT7ad+ho58I0GP/k44/l9ddel1defkXeevMtM+i0LtN10TWnVQdvX9UNFTXg1aD3l7/8ZdzmnLUcXJtjDtbIffvtt02wqS1euhrBukxpmbTWcNXAWptr1lBY++h13U/qPrTv21GjRpn7TrRe77OywFdvrxXh9P5cWbjuR/eXjjA6md///vdy5513ypgxY8xj1Sasf/GLX5g+inVal+k63Ua3ranK3ivxav/WSuD70M2/Dg3fff6ZHHXKWbJx23Z55fmn5K5fdpN/XHOg5HVrJX/451dS3rKjbG/RVvY/4gQZfv4vpVteuLnU6tCwMViz1B+iQswqWSJl7nnt2EVcS9zlb7wVDoJN6Bu+v6rXZg0057zhc9mhF7ysmC3b3P326hcZKBtXe481HG5setUGzI8HahcnEWqGOrh9x/bSeoNr2nqKrAs97n2kZZVynU2y7nH/eFa6msqehME1YlS1D19HP6j1tnVJ+4XVIPThhx8x8/pBe9/9D8jgQYNC/c2mSj/Qtd/af/zjvlCb+7q/a6+7XqZNf8bMV2bjRn3NVdS4b9lo7tim/m9q6ItOH/OHgaYiNHid751IuPXa7/Dq1fGbXVAvvPhS6HG6vpCPOvIIM18Vehu9re7P0edLn7faCIFr6zl2tKlkpQHwK7M+rrRJZw1dXdPIWkM4lSad49GAWfv2ff+zb0MBrI4fevodWfhpbFPb+/bJldatWsg7CxbbJWK20+3jBbh6jNqMsx6js2T56og+iQEAAAAAAICGbtWqVfKb3/xGLr/8cjOvZdL5+flm2tF5Xa6hrzZz+9vf/tY0RVvbXnvtDSn37nPc2DFyxOGH2aVipld5919SUmqGP99+pxnUBx98KOvX124Y3b17ZMiilabefuttWbr0W9P0tWslV+m0LtN1uk10jdbduufaqerRoPewww6L25yz0v51NaAdOnSo6ZNWw1/XjLKGrhpq6jJd17+/X4HzggsuMGPNBO666y4T9Ot63YeGoSNG+H0ox1uv9+X69K2M7mfQoEHmfvX2uh/dX1WziKrq1q2bPP3003L99dfLP//5T7n77rvtGjHTukzX6Ta6bU1pn73JbN8e21VgrQS+JU/vb4Z/X58nX897UZ68+xY56oAK+frpIhl9TK5o/9Mvz10lj7+xSU4Z+1s57KSfyh77HOAtr5XDqSV3yKYE4aqpQavhb6o1YwPNOW/7eratEfyE7PjaBQa9pVX0xQmB28jS52STy5xW/Eo2BELW+ALNUAeDZQ1qn3M1kp+QXaEKmu2l+W52MgXb3n9EttlWGiKC8VSbt0ZG0Q/5G35/valhqn3HFh56mOmLNtUmmKNpf7m/+MXFpg9at78hQ4bIqJEn2S2SKynVzsqzpEOHqgdo0f3guuGcc84zIa4e2+hTRsvRxxxnlutj/kHgyqETjv+RCb/d+gMOOED69o3/pam0/98bb7zJbPv7G270vpxujGlCIxV6G72tBuXumOfOnWv+L5VdFaX6H/wDExa7x1mZmjzHyWgft4MO6iNffbvSNOuszR3v2XM302yyBqPxaA1Z5frR3bBpqwliq1trVptu1gBW++J1ffL2338PU3tYj697146mH2JthlnnjyvsZ+5Lt9VBw+KfHHVI3AA3+vHpoGH1Dw/tZ7cAAAAAAAAAGj4tQ5w1a5ap4av9mUaHvY4u1/W63cyZM+ukKd7f/uYq+fNtt0jBwAF2SZg256x0m+Cg3nl3phnXljZt2krbtn7rnBvWr5eFCxbK1q1bzXwyuo1uq7dRbdq2NUNVaEiqwagrK9Zw9YEHHgiVRUfPK72NNiusQ/Q6ndZlbn1w30rD1+nTp4fWa23ioOj1LgyOFn3cTvDYdD+1HfY6++yzj2nuWsNmvU8NzXXQaV2m63Sb+pJVVFRUoVXCNS2et6oGTcF+/YZcPeVxuePSM+wCkf/d3FMO/UF76fPTz6T4oUGyZ76//51l5VJ44Vxp1fdY2af/QPEOwCwPata8hbRp38HUEg7td8/I2oyO9hcb3YRwQhsWyspQM8vaH62t/RuxPOin0vr8S6WzqW2/RFbffZ7E1jULbhMl4X7DWpz8unQ1NXy1ZuyIUFhq+ud1TTYvfU5Kn77DLFbBx6y1e0OBr9Kmnm3tX63Ju86Eu4kea+LHF/8+4u8n8fGk8hw3LqvmPWU6Va8J/RCribqu5dtU6YnN5ZdfKVdccbkJg6vib3/7uxlXNxgHAAAAAAAAgPrw3HPPmT56NfgrKiqS0047zfRDG03DyieffFLeffdd06Sz9vV7zDHH2LV17/wLLzE1fbV556AHH3rEHJ8Lf2uL1txd/Nkn8sbrr5t+hquiffv2ctQxR8u++x0oWVqrEvXqiy++CDWr3KVLF9l7773NtBOssa2ia3C7+eC4WTPXxrDIxIkT7VRiWuvaKSwsrJ3A96zf/VGe+9e9cumxm2Tc6N1k8v++l9seWyOtWvj1O8u9A2/ZqbucfMlV8tAtv9FHYpYHdcjpKqdc9rsqB74x4aeRKHRMJYwMbJMw8I0SDGqjQ9xoEdsmE7kfAt+GKx2Br7ZD/8Ybb9i5qtFmnrW5Z9Q+Al8AAAAAAAAAyAyfLVos+++3r52rHxqCP/zgA9UKfM85/8K4wToanmDAq4LzOh0Met24poFvrbSwq7VzDzvpNJn45Br5bMlWGXNyN3l1Ym954qaeZnjq5j1k/cpSEb0KwXsQhadfJIee8YvQcMARx4ceZL2LaDr5Yz8M1ZDW9dl7cpx+aSOaVU7eHHL2AfukEPaq9tL6gKr2DYxMpYGte9NXdSDsBQAAAAAAAAAgUn2HvUoD24suGSM9eu5hl1ROt9XbEPYimbQHvm06dJbvly2VLt1zZf+i4TLy2qXyizuWyT3PrJV/v7wuNASrnH859235Yu6boaFk8cdmuYZX9UqDXVtTVm363DapvKJEQt0l9xounY+KCmK923W0tV2T+6m03DOV7Xyt9xwW+oeVrwr3Z9l+n8jQObtbzWqXAkiNNlny8MMPVbl2r9KavdTuBQAAAAAAAICmpVmz5nL6z34uPzvrbNkrqingIF2n2+i2ehsgmbQHvoUnjpLXn/q3lO3YIQcXHS1HnjVevm0+TN7f1D9iOGzkz8z2hxx9onTbfXfp1j085PfZS/oderTMfG6q7LHfQWa7WtdxgHR3tXbdEGxqecNC2RJqpvgO2RKqwSvSuv+liW8nS2R7TBPT1u7DpLXr91ebO777aCmNGabIug12m477SMvd7fRHH0voCHodIa3d8pTDZgAAAAAAAAAAANQ1rRSZn99DTh59qlx25a/k7HPPl9GnnmYGndZluk63oc9epCLtge/BRcdIh8458tSkP8vn782T7Vs2SV6fvaTn3vtHDG3at5flXy2W7j32iFmnQ7sOHeXLhXPl2NPOtXuuT0tkdVTfs+VvPBIOYhPSfncT9/kbbM5529ezE/Rt+4Ts+DrcPHS4Wec7ZNOrS+x0e+l8RrywGQAAAAAAAAAAAA1Vy5Ytpfvuu8uee/U1g07rMqAq0h74tvBehOf+7o9y9Klnyadz3pGZM56s1jD3hWmS23d/2S2/p91z/dj2/hQpvTteaPuEbHvwaCkNha5Rlj7n3W6EbFth52MEm3PeJNs+fcJOxyr/9HPZZqdb9x8uLey0fHSelD6+MLTO0PtNdEwAAAAAAAAAAAAAGpWsoqKiivLycikrK5N5q9rZxdXw9Rty9ZTH7Uz63XHpGSJ7HmXngIZr1bynpGtX+lEGAAAAAAAAAABoaioqKuyULziv024+OG7WrJmZVhMnTrRTiY0fP95OiRQWFqYx8F3yrkh5osaL0yC7hUjvIjsDNFwEvgAAAAAAAAAAAE1TMOBVwXmdDga9btxwAl8ABoEvAAAAAAAAAABA0xQMeFVwXqeDQa8b1zTwTXsfvgAAAAAAAAAAAACAukHgCwAAAAAAAAAAAAAZisAXAAAAAAAAAAAAADIUgS8AAAAAAAAAAAAAZCgCXwAAAAAAAAAAAADIUAS+AAAAAAAAAAAAAJChCHwBAAAAAAAAAAAAIENlFRUVVZSXl0tZWZnMW9XOLgZQXV+/9qB06NDBzgEAAAAAAAAAAKCpqKiosFO+4LxOu3k3zs7Olq5du5ppNXHiRDuV2Pjx4+2USGFhYVTg+80muwpAda369O2INyYAAAAAAAAAAEB1FRcXS0FBgZ1reDi+SFUNfPX4Bg8ebKZVdQJfmnQGmpjoDxoAAAAAAAAAAJoyys2R6Qh8gSaILy8AAAAAAAAAACgvR+NA4As0Me7Liy8xAAAAAAAAAEBTRnk5Ggv68AXSrKH34avvde0APCsry8zrWL/MduzYYdY1pi82fWzNmzeXli1bhh6vs2vXLtm5c6ds377Dez4i16H+ZGU3lxbNs6VFixbmdQoAAAAAAAAAtSEY9mpOpmXJDRV95NZMU+jDl8AXSLOGHvhqsNusWTMTgLqwd/Xq1bJt2zbJzc01QVtjoYFuaWmptG7d2vxPXICoYW9p6QrZvKNcuu7e0yxDw7Bj+zbZtH6NdGzbUnbr1oXQFwAAAAAAAECtcMGbDlpmrBWHGioC1ZppCoEvJelAE6MXeOjgaCi6detW2WOPPRpV2Kv08ejj0senj9PRacLehqllq9bSpXu+rN24JeJ/BgAAAAAAAAC1IbrMHMhEBL5AE6NfXMErSDRUy8vLM9ONlT4+bcXA0WacCXsbtk5dukf8zwAAAAAAAAAgXYI1LHUg8EWmI/AFmhgX+Cr3ZdbYavZG08fnHrOiz96GT2v6cpIFAAAAAAAAoLYEy8kpi0SmI/AFmhgX8gYDUAAAAAAAAAAAmhrKy9FYEPgCAAAAAAAAAAAAQIYi8AWaGK5UAgAAAAAAAAAgjHJzZDoCXwAAAAAAAAAAAADIUAS+AAAAAAAAAAAAQCM3e85c+etdf5fzL7zEDJdf+Wv596OPyapVq2Xa9Gdl2fLldkuo++67T+68887QkEhwG71NfSDwBTLAzp07pby83M7Vn23btsntt98uCxYssEvCdNnvfvc7WbdunV3SeDy4UOTU/8YOv35RZNMOu1ED9+pXmXW8AAAAAAAAAJBptBxfy/Mbov+b8g958cVXZOCAQ+TBB+6Vv9zxJ7ls7BhZu3ad/PmOO2XRokWyceMmuzXUhg0b5KqrrgoNiQS30dvUBwJfoIErKyuTp556Sp599ln6EahHh+SKPHV65NC5tciE1wlRAQAAAAAAAKCp0/L7GTNmyNNPP23K9RuSfz/6uKnQdeMN18pRRx5ulnXt0kX22WdvOe3Uk+VHxx0rS7/9zixHrGAN3mRDfSLwBRow/VJ48sknZfny5dKiRQvJysqyaxo+Vxv4kksuMUOwGQOtBXzTTTfJq6++KldeeaVZr9uWlJSYWsI6r8u//vprewu/BrHblw7xahnXtRH7eY/T+952ga/Wog3WAL5oukipvSBKawnfOdNfput0W72d1roN3ka3U3q7cf9P5L8fiZz5P3+dbvvlmvA+dPn7pf72Kvr+dd4tnzJP5Jt1Ilc+H3lMbtvgvnS93pcer65zNYNveTO8ffCxJaLbvR7+F5ppXQYAAAAAAAAAjY2W37ds2VK+/fZbU67fUELfr79ZIl98+aVccP45dkmkqU8/IwsWvie99ugpHTq0t0vr1meLFtupxObNL7ZTiIfAF2igtNkHF/YefPDBcuKJJ9o1DZ+GvX/7298kJydH7r33Xrn77rtl7dq1EaGvblNcXCy33Xab/PnPfzbrdfyLX/zC3KZfv37yyiuvmG013NXnQtfrumuuuUaeeOKJiEC4vmmo+s+FIr8/0q/9O+nH/vL7A99BC0pELhvqrx/a068drLWEXY3hH+8r8oq3Hxe8apg8b5nIvSP8/a3bJnKDdxu3jwO6icxY5G+r9//Yh/52uk6P4z/evO7r2L1ELh0s0qezyF3eyyjX+87WsPfjlSIPnexvf8EAkb/PCYe4el9bd/rr/nK8yJMf+8vc9kW9vOXvhsPueMYOEZk8V2T6Z/6g07oMAAAAAAAAABojLcfX8nwt128ooe/8+cUybOgQ6dy5s10S6ZeX/kJ++5urzNAjP98urVtPPPk/eezxJ+xcrPvuf1CKi21tqToU3YxzsOnm4BAUPV9XGkzge8zhQ80AwA97NdDUL4UBAwbID3/4Q7umYdDQNVjbVgdd5nzyyScmwD3ttNPMfOvWrc30l19+GRHSHnfccWadftHstddeJuTdc889zbqCggKzD60NrMGv3t59Iek2hx12WCgQrg8adD7yvh+e6qCh6qOniPTP9dfrMg1Yg/K8ZX27+NPtW/pB6vVH+vNqYJ73XDW3M9aJ+/jbuv1pyOvuo3APP4RdsUnk+c9FfvYDfzul2xzWKxwIB2moW7xc5Oz+/r6VHr/uX/fj6P4TOX+Af/zu9vEc7f0r9T70edJBp3UZAAAAAAAAADRWWp6v5fou9K3vPn1Xfr9KcnLih70NxQ3X/06WLv1W7rv/n3ZJ2KTJ98iaNWtkzCUX2SWIp0EEvmecPFwuPPNUM+g00JS5sLe0tFQGDRokxxxzjF3TcLiANzjoMke/yLR2r4a5js63adPGzsWXl5dnp8K2b99ugl93H27QvhDq0nul4eaMdTjvaX/5lYX+2NEata4JZr1NKlxTyX/wxlqrN5keHe1EwGbvfEGDX222OXiM/y9BKxgaEK/1ttf7C26f7Hg1eNb70Mcd3ZR0MsFup+mCGgAAAAAAAEBToOX6Wr6vZeVa3l+foW/rVi2lU6dOdi65m//wR1m3br2dq1taw3jNmrUy8a6/2yUif/nr3bJ582azDsnVa+DboX07ufzis2TE8UfbJWKmdZmuq45+++0tk267Xi4+269ZGKTLHrjrFjls6EC7BGjYtN9e+OKFzBdffLFdW/sOyfWbMg4OwRquLujVEFWbR9b1eptkXNDrmkrWZpija/hWhTbbHH2MwRrEQXo/rvnp4KA1d+PRmsP3j/SPU2sq6+OsrB9fbWb63x+InHWwP+i061cYAAAAAAAAABqz5s1rUNibRnvttafMnj3XziVWUlIqK1aslM6dUwuHa4MGuzt27JA/336nGXaVlRH2pqjeAt+9+uwhv73sIhla0N8uCdNluk63AZoaDXl/+tOfSm5ursyaNcv0c5tp8vPzTa1c7afX0fmtW7faudS1atXK1A7WK6EaMu2fV5tb1tBUm0eujAalOmjoWlnTyJVp18LvC3hpihde7d5eJMsbr9riz1eFHqcer+ujWPsBTkRrHGsIPeoAf9BpXQYAAAAAAAAAjZmW68+ePduUlWt5f31W7tqzTx/55NPP7Fxib771tgwZMsjO1Z9gwFvfYe+dd95pp3w6H28Iip6vK/US+A4r6C/XXH6R7Nm7p10SS9fpNrptbXG1gR+dcrsZbr/x13aNmFrA99xxo1x16Xnyr0l/Mut12xOPPdzUEtZ5XX7qiB/ZW/g1iN2+dIhXyxhIhQt99cvgjTfekPfff9+uyQwHHnigCWm1fwKlwa9O9+3bN9RHb6q0WWjt61f763X9/+r+br/9dnn22WfNfEOhNXW1b1/14MLKm3TW5ptd6Krh79/nVN6kczztWvpNLr/yVbipZT2OX7/oH0c0ra1b1EvksQ/DNXR1rDV2E9XA1f3o/tzjc0Fvv+7+OJ7o8FundRkAAAAAAAAANFZanq/l+lq+f9ppp9V7S559+vSW/gf/QP5vyj/skljFCxbKiy+9Iueec5ZdUr806KVmb9XUeeCrTTZfdvFZ0q5tW7skMd1Gtw02+ZwuGvZeev4ZsmXrNjnz0t/IH+/6h7Rt0zoi9NU3oQbPt//9AZny0OPSpnVr08fw86++ZW6z4vvVMmTgwWZbDXc1nNbtdN3Tz71i5oOBMFAV+vrTLwP9UtCw86OPPrJrGj4NaS+//HJTq1ebYr7iiitMAFzdJpgHDhxoQt/bbrsttD8NlX/yk5/YLerfaf38sfZxq800L9sg8uN9Rb5ZFw5VgzR0/dkPwv3uXvWiP9+muV9buKo0TD3OG1y/vHocGsa6Jpp1WgPpS2b4obAu79NZZNz/87fXsd5/otrJ0Y/vnwtFLhvqPw4AAAAAAAAAgJhyfC3Pd2FvQ2nW+cyfny7du+9mQt/Zc+ZJaekK03TykiVL5f5/PiRPP/2M3PqHCXZrRLvqqqtSGupTVlFRUUV5ebmUlZXJvG/ipBJpdv2vxsgB+/a1c6n5dPGXcstf77FzybkgN6dTR7sk0rbtO+TBx6aaY9BAVqffmbPArNNw9sRjjzCBbunKVXL+z0bL7OL35b5H/FqKLgz+zU1/MWMNefv3209eev1d+dHRRfL+x4tC26prr/yFdPaOw22PpmHVp29L165d7VzNaWfuU6dOlYqKCjn99NMlK0sb462+DRs2SMuWLc0XTXZ2tunwvEOHDnZt47Vp0yZp395PJzdu3Cg7mjX+x5zpWu7a2CRemwAAAAAAAADqlpa36+DyMQ0/O3aMnyulSvf3+OOPm7L3UaNGpbVmrzYRXVBQYOeq7/PPv5C33nlXvvrqa1mzZq3stWcf2XvvvnLyqJPsFtWTruOrLdU9vvvuu89kKk6iUDfYjLO+ji666CI759PXhuNee25a6fENHjzYTKuJEyfaqcTGjx9vp0QKCwvrrw/f2vbGzHmmpm1w0GXObl1zZOu2bbJ2XfgfpSGvhmvJrFsf3t7p1LGDqf171KGDI5p01vAZqCn9Uhg9erS5GqimYS8AAAAAAAAAAEg/Lb/XrhrTHfam0z777C0Xnn+uqc07ZfLdcvWvx9c47G3MtNXSVGrwBrepbkunNdVoA9/6EC9kpnYv0kG/HJo1a2bnAAAAAAAAAABAQ6Pl+A017EXjVu+Br2uuOTjostr2/eq1plZuTudwFf3c7t2q9UZcv2GjqS2stYaBho5awgAAAAAAAAAAhFFujkzXIGr4asAbHOrCzLkLTUh70gnHmHltfvmooiGyeu06eWrGS2ZZqr785lvTf+9+e+9p+gFWur9Jt11v+vEFAAAAAAAAAAAAgNrQZJt0/njRFzLlwcelbZvWpr9dDWa3bN1W7SaY73vkSVn0xddy8vDjQvtbXrpS/njXP+wWQMOgVyq5AQAAAAAAAACAporycjQWWUVFRRXl5eVSVlYm877ZZBfXnut/NUYO2LevnQs36RyUyjZAQ7Xq07ela9eudq7h2bJlizRv3tz0JZCdnS2bNm2SDh062LWNlz7O9u3bm+mNGzfKjmaN/zFnupa7NjaJ1yYAAAAAAACAulVRUWHGmo/t2rXLZGRt27Y1yxqi4uJiKSgosHMND8cXyb2+nOC8Trt5N9bjGzx4sJlWEydOtFOJjR8/3k6JFBYW1k/gGy1e4BuNwBeZoqEHvtu2bTNhrw561dLmzZtDQWhjFh34nvQUQWJD98ypBL4AAAAAAAAAaocL3jTw1aF169Z2TcNDoFozBL4AqqyhB747duwIhb06aI3fdu3a2bWNlwbb7nHq9E+eaPyPOdM9+9Pw/wwAAAAAAAAA0skFbzpo4NuyZUu7puEhUK0ZAl8AVdbQA199r2tTzsE+CTT0jf4Aakz0sWpzHO4x62PVx6yffWiY9DUa/J8BAAAAAAAAQDoFQzctK9auEBsqAtWaIfAFUGUNPfDV97sL0QjTAAAAAAAAAABNVTB400ooDRWBas00hcC34b56AdQKwl4AAAAAAAAAACgvR+NB4As0QXx5AQAAAAAAAABAeTkaBwJfoInhywsAAAAAAAAAgDDKzZHp6MMXSLOP3pgq7dp3sHOViGq33Yz1z7bhXlHuj8sryqVcp7X/3WYtZPduncy26bJ2wzbJ6djazmWWTD52AKgMn3EAGhM+0wA0JnymAWhM+EwD0JjUxmfailXrpWLXTsnKzpbs7CzJzso2FwlkedNmrIP3p3Ta5T3ejBmF5j1m2s67pbrP3nv0sHPV68OXwBdIs6/nvyw5OTl2LrmYN7kdu0Hfm27shuxmLaVHbhezbbqsWrvFTgEAAAAAAAAAAGSubjlt7VR6LCtdI+W7dki2CXz9QYNdN3aDCga+bpmbVy7/cdNu3KVzuCIhgS/QAGRq4JvuD8C6ksnHDgCV4TMOQGPCZxqAxoTPNACNCZ9pABqT2vhMy4TAlz58AQAAAAAAAAAAACBDEfgCAAAAAAAAAAAAQIYi8AUAAAAAAAAAAACADEXgCwAAAAAAAAAAAAAZisAXAAAAAAAAAAAAADIUgS8AAAAAAAAAAAAAZCgCXwAAAAAAAAAAAADIUAS+AAAAAAAAAAAAAJChCHwBAAAAAAAAAAAAIEMR+AIAAAAAAAAAAABAhiLwBQAAAAAAAAAAAIAMReALAAAAAAAAAAAAABmKwBcAAAAAAAAAAAAAMlRWUVFRRXl5uZSVlcm8bzbZxQCq6+v5L0tOTo6dS66iosJOhad17AZ9b7qxG7KbtZQeuV3Mtumyau0W6ZbT1s6lz2eLFsv+++1r52pH+o99oUy68B6RsffKuIF2UUK67XTpfcsEGZFnF6kF98j5kxfamTwZHb3eWj5jglz33Uh58NIBdkllSmTG9RNkaomdDcgfNUFujboTs/9pgY3zRsqttwyXfDubjH/bXBn3wBgpsMvC/OOYPdTeZ8lzct3102W5XasKIp4//zkttnNhkc9N8ZRLZNKyxMdY2fpIqd1nekW+dszxypgq/H+rq2qPNeZ1IQOi/s/2dSZxnmvz2pbQ9rH7sgZFPm6z3Zwhof35t5M4xxf5HIZEvKd88V7zlYvzHoo61oamtj6fAaA+8JmGtDLnoHNlmDmfSHAOEZd/PrBkdCrbAonxmYaqifwtEvt7Jup3XcLf71G/xy3z+3O+nanCb3/A4TOtOqLetzHlC5Hro9/3kWUqycqrUj3PSX5/YfE/RxJLcO4UVR6YcjmNlvFM7RXzORVdxhRZthgt1ceq28Upu40S8RkaLCeLUx7lq/z/lfDYIvYZXSYX/TzErkdqauMzbVnpGinftUOys7NDQ1ZWVmjsBqVjl/e4ZW5eufzHTbtxl84dzLSaOHGinUps/PjxdkqksLCQGr4Aas+fb79T3v/gQzvX2ER+eYfoyc7kUu9L/1558AFvGJsrU6+P3S76JKYq9ITH7Ds0jJG8ad7+Zrj96YnYJX7AFthuXI/pcl28Y44jf8RI72RiocxaYBcELZju/UjNk2GDvJOVUEFb4HhuGSklk737Dx2P0hOhwDbecOsoifPczJXJU2JPpPT5Cp94pSrV+6wdBZd691lnQWIqj9W+LkyQH9h2rHivZe/ENvp/XTJdJkf8DxPQHzTB/T0wQUYv805e4/wfI5XI1MnPRVwoEI+edPshc/A+/Nd85fcRoK/VCyfI1B6RxztOvGNN8X0BAAAaKi0Mq6wQFADqix+WhH+L+L9nwr/BdL33myTw28r8fo/72/jemIvA/aDC/xw0tx+91PudXvlvLQA14ZcLloyaYN+3fllIZNlccH3k+94vFwyUzyQoP1TFU1Ips0h+f0HxPkcSs59fMdt7j//66SIp3F+ERAGqt9yvGGCfD1O2OEHiF0ul+lgTlN1GMZ+hWsHE7EvL00q9x2Y/QwfGKfPS7HbQyARhbyXHZh5/uNw44r6UeR7Cr4uY9UAlCHwB1Br9Yrrr7kny2WeL7JKGwQRIET+c9Ms4KqCcoyGQt50OUV+s5vZ6UjdoQMwVs8XTpsvy4Jf+wJHeiUAgODWhkx+6FQyyy2psgIwelSfLvys1c+bELU7tzIJL9aRkoUxNJcTz9lnoHV/x1NiTiuI53nNnH+Py+XNled4QKQie5OQNl7F6PN52yU5I8gcNib3iuMcQGbZsTtTJWIl3n97xa8BcQ7H36f/vQ//r4OvC/K/ukRneSXii14KeoIdv6x1kQPB1Zrab8lzEfUUG4pHHMWmGH06m9K9KIPqxhl4X3slmxJWBevI6doAUT448CS7wXt/Lp91bjWPIkxG3ePcx/57kJ/re/gsqC5W9E12/4CL6akZvmXfynz8/+rWSiPf8TrY/RKJCeA3mxw3yfgRUJTwGAAD1wj8Pt+dS05bapUoL9NwFbDrtnUfNCJzPhwr79JzLL7QsjrlAEQBqSclCmV2S5/1ud79F7O9t/W2tzEXV3m+cwG+VuBcQe79RJ8/Jjfz97X3mzZrvbT828JtJyyHE22ey32MAamaBlkcMkNGhAsA8GTF6QLgszL6vw+v9sjv/fa/lXCWSP0orW1jR5YeOlot4t620hmfS+wuI+zkSn1/mpRerxLn/khLvUdjKIIb/uVayLNG5lX+upmFnbPmed342daH3fFwSLk/NGy63PuBq0PplZqHzthQea7KyWxO6hs4N7Wfo6HAZqqkEUzJXiuM8FD8sj/y8jlDJsZlxoNzYlN2F7ss9D+HXRbJjAeIh8AVQqzT0/fMdf5WvvvraLql/BUO9L+VgUGR+fAW/jL0vYO/L3l1NZa6sDQZ9Pf2rvm4d1csucEpk+TLvy7hnrp1XeZLfI/BDzjPM1NAdI4V2Pr3sSaP3GGNOaEwQ5x134HEmU+CdYIRPOhx7IqTPoSe/h/dYS2J/SOaPmCAPVtKElIbFEjy5NfK8fZdGnuDq/0eGSGFPO18DkfdpC/xCV1nHq5m6UKZqs9tmvfcDOhBQRl+NOc7bNmn4OH+6af7G7GtsZJhaPMU7DhPG+sfRe05kE9nVEf1YE78uPPF+WAwdI+MGpVYLN1ZlJ/pqqIyLeh6i6fsm4gdQkDn5jw6CE7AFLOEfIpHMaz3l8BgAANQHLbgL176YIMOWJbu40DuHmdMrtK2e5/gXd+n5sF8zQ1vNSfW8GABqJCK4UJG/q/0AYGglv22836+T58qwsSOlt10Slie943ycJf89BqBGTM3PyDKJ5cv8ihjKTOf18t6dYaYMzZQ9xCufK5UlMW9Z7/xFWzy7dKidTyz5/TnJPkfiGeKXecW7/7w8775KZPZ8d9D+51pejzgfRlZvU+vVOw+LLt+rpMxGP+OCz1dKjzVh2a0n4n/nt44Q2VS1htnxLJSp00oiL7CJUtmxRV/ME1mRxn8NRD6Hud7ne/B5BpIj8AVQ6zTg+sOtt8mCBe/ZJfVsoP6QCodb5ss16sdV8Ms7OvgsGJE8yIw+ucnrGZj3fuiNSHdTc3p1np5wmB+L8U4OqilvgAyLOqlYPmO6FOeNlNHuMXgnSbfqlWqTXe0Jb4jb1EiJTA3WpPUGbdLa1UoO0qvbSgIBuQkuvcdW9UdUyX3GXEXtnUB6J73586cHAsjYq7D928dejVlwaSXhY8Tzpq+3EnsyryfF3v2Mda8r7zhGh0/+UlPZ81vZ68K/MCG6QMA8plSbdo6ir/t4/98I3usncajsHf+yZMdcBSVLvf3nSn7Ch68/VEpledUfJgAAqBM2HAnVvrDnbWY6vuC2BUO9kwDvPKemF9QBQM2U2Jad7jHNNwcDBr1wPNiKQUz3Nfr7tUe8JkT1d2rUbyrzW9dOA6gjNgwM1BSVHnmR5yp5vRKeu8SUt3l0WUmii+Djqez+En6OxJc/YniS+9agdIIMm+NavtN+cqOC0wgDZETSO871jtVvFdHfXyWt3lXyWCsru00mpvVGK97/KK5U/u+mlrGW3UmgPFBFX8Djl9cBqSLwBVBnKry/hiGy9mHJdy4sdaK+XO1Va7FX2tWPiHBVB9tnRvr7LPODx+XeiY5/hVz8WqKmNq+pPaFN43oLSrSv4EBTK0ZsH7Nay1VrvcacwGnQHGrWWe9Tklzll0zy+4x31Z3/v05Foqvu7GRVmCsHo8LIJD8C4qvC81sl3gl8JbVwa6pqobJtAigwVNo/DAAAyHy22cDYc3QAyCR+LTX9vXZrz+kRF0svnzZBZg11v+eiW59ytfziXxhsum8S/3e4+Z00Z6j/2xxAHdGyitgLOVLltyAXFfyZppeHyNhU09lKJf8cqTLTDdqEcEt2D4yUJcFml6vMP76xoTIt7dO4ktC3FpgWZbRrsZjnqZKW86rK1DIOP2+UbSFdCHwB1Dr9wfGbq38lBQPTdFKRBhrw+v1qaG2BAVKYxrA0upakBsrppM3P+ScF4SHcDIwfOqat6aZgbeg4TV9HM02T6DGZkNAFxQmYZoTjNUviN+ts+hq2zTmn0rdIShLeZyMU8Vgre10kqU2btBZuYvq6j2zePJFEobJ/FWPkMesVpO51X0mN6iAToCepwRsvdAcAAACAWhLZb6M3H3ERt231yTYBWjzlHpEkTYia7YMXAF+am77WkgBUIhz2xvS7vSyqdRHT+likUNh7S7DZ9xLb9HL8Wqp+37pxLoRPcn9JP0dMeBveX0wLA3H4TREHa7u6sp1KygIT8m4f7BqusvK7FJ7bqgqFvfHKmyptdjqgSsfmV0oKdwUYXeHI25f3eQ6kisAXQK3SE4XLL/ulHLD/fnZJA6FBpv64muH9gIrpKyfqyzVejYK4/IAqshlb/4s5sgZxbfKbrPPD7FimiagUTtzCBshobbLZ25/fpEnwuSoxzVHFvXqvsoAtIN6PUP3xK3qftjnntFw9F6D36fc/vNR7FAEJ++mIFi9AjdffSgriNSechhNVx39+k78uXPPWiS58CNXCnVpJE80hfrOLKRcwhELl6RHPv7kwo9o/FgLiNE8eFPvaBgAADUq8FndSPm8DgHpmmu68J+HvmuTd4fi/rcItfU0wzTVrjeCEv+1tMFF5GQaAGjFB6T1Son3TRoW98cqcTEtzgbIHLaO7blquaRo5om6FeQ8Hu+7yPz/0c0DL4IIt7emgF4skv79KPkdMP+PBi0bquMJOvHKxJFJ5bqvGL9+ctEz7/Y0fikf2tZtY8mNLUo5qJCprTDFoBjwEvgBqjZ5EXHLxhTLgkP52SUNi+7mZtjBuGFs81dVm9L6MJ2sYlFofF6a/32AzupUEabUhf8QlfnNOUX3p+leqBfukTY258nj+PXFu65p8nhDT9Eii/i4iJHtuNKDzHsOkadVtzjmB4H2aqwUXyqTQj+Sq/K+jm7vW5zfxD/jk7GsxVIPWO46pVQnlE4h6fkOvi+iCBi18mOy9D5JeMW6v1PR+cFROT2D9q1ur0pSRHyqXRAbSJgi2V8vaRT57H3auct7/a+xIkTiFIomb6wEAAA2HvQgx+hzdTANAA2d/e5pWrAz7GWZ/e+aPGCkF+ps79LvaW6+/CU1AoLXNAkGMNvestwkETJEXdkfuG0BtWSiTbBdr4Vb3AmLe97aPX1sGqbV0E9YmjQ5g7Tba4l/c+1JJ76/yz5Gq8lspmC5TQ59b2iTzQm+fVehzOETP8yROX+QJgs5KntuqKp4yQabKSLk1WMM4imm9USuP2PmEkh5bbFmilsmFy1tj1/v9Bqex5UM0egS+AGrNFZePlWHDhti5hsed9MQGjt4X7dCltjkT+6Wf6gmQnpSZfibsVXOTS2X0LcmCtNrgnSDccq+M6xHow8cb/CvVoq4aTIX3mEZr/z/xTjC0z4lbRkpJVL/CU3tGnzQGr0y0Q9Lnxq+RGvc+U1bZferzZPtGMuu9/3WPOE3wJOI99ltHlYb6lJ3aszontb7IPpcmyJKhI72TyKo0MZzK8+u/LoLH7G8n5sS/0nDWhK92Omi+e/7cMEFmD63OjwY/VI5mmgkfK5HH7P5XqRy3Y34wBf/f/jBJdD+Rr8OYmvC2b5rQ+brHXIkbXAAAAGqV1mYJn9+686Xq8M8zTS2XqAvBAKB26G+xMZKnF6AGf8+EfjP5oY8Ea99V4bep+T0Z/F1blTIMANVigjgdh97XbnAXp0e/7/2awH4Zhh8CmpA04rY1KWdIdn+1QMtYIsoD/Qv/EwbSldDzvFuHzg2XY5oyLVeGqRf9B5+bGj7WYKsLJc/J1Pk6jixD1SF4EY623hi/2zL/fxjetpJjiypLjHycsetNDfAkQTQQLauoqKiivLxcysrKZN43m+xiANX19fyXJScnx84lV1FRYafC0zp2g7433dgN2c1aSo/cLmbbdFm1dot0y2lr5zJLjY5dv+DnDK1GMAXUMg0Yr18qoxM0JYOmI5M/nwEgGp9pABoTPtMANCZ8pgFoTGrjM21Z6Rop37VDsrOzQ0NWVlZo7AalY5f3uGVuXrn8x027cZfOHcy0mjhxop1KbPz48XZKpLCwkBq+AJou7Ze2us19AOkTfTWg99qkT1kAAAAAAAAAQIqo4QukGTV861a1jt3UntRArQrN99Y6bZ5kgkxN0nKL9tWRrqZY/H5L7Uwc2o9HdZthqXW2z9mE8pL3u9EgRT8m99p0r1W7OFaC/l6alLp979Q1rrIG0JjwmQagMeEzDUBjwmcagMakNj7TMqGGL4EvkGYEvnWLE1IAjRmfcQAaEz7TADQmfKYBaEz4TAPQmNTGZxqBbxyvP/2Qnaqao08+z04BDRuBb93ihBRAY8ZnHIDGhM80AI0Jn2kAGhM+0wA0JrXxmUYfvgkcVTSkSgMAAAAAAAAAAAAAIFa9BL616ZjDh8p3778uFSs/iTvcP/EPdsvqO/u0k2TDV/PSsq90co+9oR0XAAAAAAAAAAAAgNrR6AJf54FH/ydZ3Q+MGS4a/3u7RfU98uQz0nGvwWnZFwAAAAAAAAAAAABUV6MNfCsTXRP4mUcmy/efvSs3//ayuDV4X/nfP832ervgep3W2+ntt3/3vtmX207p/tx6d18fvz3DLHfb6750P47u122rQ/A49LbFrzxlbhNcr/f38KTbpEfe7nLhmaeY423K+u23txkAAAAAAAAAAACAxqzJBr5//+P1ZnzsKeebYeDBB0rH9u3Nsqpq1bKl6WtYa/xqLeL1GzaZ8NWFvrrfvn16mXV/uHOK7L1nL7nyknPM9nrfGzZuknPPGGW21fD2pyNPkHPGXhPaXuc1IHYO2n8fueveh836V9+ebdb3yN1dzhl3jSwrWWFqNx93ygV266anoH8/+ejtZ+R/D95tpgEAAAAAAAAAAIDGqtEGvlrLNVhLVgdXk1aHPXrkyguvvSOvvT3HDDpdE09Mf8E09az+9+xL0rFDeznq0CFmfvuOHWaZemPmXPl+9RqZu/BDs73e92dffC153XczAfEJxxwWsa8b/vx3s+0pP/mRmVdffL3ULFcz5y4043326m3GTd2hgwfI/JeflJ9eNF5+f9vfTOhbNGSgXQsAAAAAAAAAAAA0Lk2qD1/td1eDVBeOLi9dacbqzZnzZMOmTXauajTQDe7r86+WmHF+bnczjuebpcvsVJjW0tWgODqsPvbwYXYLJKOB+bv/71ET9j75zItmuHrCHSb05TkEAAAAAAAAAABAY9Rkm3RuyOKF1f0OH2HXIp4Tjz1cXv3fg6Gw19Hpy353i0x96G8y/Lgj7FIAAAAAAAAAAACgcWiSgW+8Grha61f74q0OvV30vlSw1m8qlpWuMP359unVwy5BKkb/+Ify3GP3xoS9ji7T/pKffujvZlsAAAAAAAAAAACgsajzwFebTr7pjslVGt7wbpNO2qyz9our/eVqM8A6XPDz0aHA1wWvhYMOMfPa5++QAT8w04m4fSntb/fbZaWhfnZT5foSPnxogdz828vMMt3nd++/Lq/8759mHrEuu+jMhGGvo+vO+uVvzLYAAAAAAAAAAABAY5FVVFRUUV5eLmVlZTLvm+r1YZsOE64ea8Ya7r7x7lwzXR0akD486Tbpkbe7XRLpk0VfhppH/vjtGXLgfn3N9FdLvpXdunaRu+592AS1Grj+9rKLpGXLFrJx02ZzTAMPPlDOGXeN6Wt38p9/L09Mf8EE2DqtAa/b17KSFWY7DXB1P1deck5ov+74NNjVWqdKw9y87ruFjkvng33Ovvr2bDnulAvMtB6zcttG79/dNvg4Ube+nv+y5OTk2LnkKioq7FR4Wsdu0PemG7shu1lL7zXYxWybLqvWbrFTAAAAAAAAAAAAmatbTls7lR7LStdI+a4dkp2dHRqysrJCYzcoHbu8xy1z88rlP27ajbt07mCm1cSJE+1UYuPHj7dTIoWFhfUX+B5VNMRO+V5/+iEzPvrk88zYqUn4WxXRwWmqtPavC39dgIumLVMD33R/ANaVTD52AKgMn3EAGhM+0wA0JnymAWhM+EwD0JjUxmdaJgS+9daH71GHDpYbf/3L0KDBrg7BZboNAAAAAAAAAAAAACC+egt8J9wx2dTmTTboNgAAAAAAAAAAAACA+Oot8G1otBnnjnsNrlJzzuqRJ58xt6M5ZwAAAAAAAAAAAAB1jcAXAAAAAAAAAAAAADIUgS8AAAAAAAAAAAAAZCgCXwAAAAAAAAAAAADIUAS+AAAAAAAAAAAAAJChCHwBAAAAAAAAAAAAIEMR+AIAAAAAAAAAAABAhiLwBQAAAAAAAAAAAIAMReALAAAAAAAAAAAAABmKwBcAAABAnVs+Y4Kcf+ElyYfrn5PldnsAAAAAAADER+ALAAAANAHFU6LC1CkL7Rqr5Dm57sJ7pNjOyoJ7YrcJ0u1dIBvYVu9n0gKdWiiTgvuLI3/UBHnwgXvjD2MH2K0AAAAAAACQTFZRUVFFeXm5lJWVybxvNtnFAKrr6/kvS05Ojp1LrqKiwk6Fp3XsBn1vurEbspu1lB65Xcy26bJq7RbpltPWzmWW9B+7XzgtY++VcQPtooR02+nS+5YJMiLPLlJa6D3ZFZDnyejo9ZbWbLruu5Hy4KWpFmiXyIzrJ8jUEjsboAXmt0bdidn/tMDGeSPl1luGS76dTca/ba6Me2CMFNhlYf5xzB5q79MU+E+PqIFVEPH8JSrwj3xuTECwLPExVrY+UuKQIfLYkon+/0bOm+dozpCUn9Pq85/vJaMrO+7YxxzvdRH3dTRoTOh1aJ7n+WYyjsSv5xgR7wMVfdvo5zdKzO2tKryOlf9aljjH7T9fofe63t/UXnH2HfV6r2OZ/PmMSDHvrajXcvLvhMSf/9Gfacnew5V9/sUcg74v5gxN/j3lthk6x4zHyT0ya6i9H/1+mJYntya4vf/+jPOggqr4nkfDxmca0sqcg86VYeY7Pup7PalUz62A5PhMQ62K+D1Uhd9hQDXxmVYdUeUwgbIVX+T66DKayN9Dyd7nqZ7nJL+/sKqWcyQ4d4oqD0x8f1Hilr/E+807IEG5pKey+45an9JvYfe/iPkNmurz6qS4fYJyqOjfyamXYyKoNj7TlpWukfJdOyQ7Ozs0ZGVlhcZuUDp2eY9b5uaVy3/ctBt36dzBTKuJEyfaqcTGjx9vp0QKCwup4QsA1RP55R2iJxSTS72TNFc7KVemXh+7XUqF3AnoF31kLagxkjfN298Mtz89SbrEDyMD243rMT2y5lYS+SNGeidUC2WWqaEVZcF07wQsT4YN8k5WQgVtgeO5ZaSUTPbuP3Q8Sk9cA9t4w62jJM5zM1cmx6lNps9X4hAykdj7dMfm1zyrmfwRE7z9NZAQQk8Svf9tiXcSGX68E2TYnAlRzaGGT+qD241e5t3ebldwqVvuDVq7Tk90A9um9FvAFE6Id2Ie3Je+F6r43Efctz+Y13GVm3gtkamTaRYW9ceEsOL9+I9+Laf4mezEfP7H+UyLeA/b4dZReeZHZmWFA1P1e2m+fp7YGsBayBicd4N9D+pnc2gbO9bP6mJ7TMvnz/WGqNtHvX/1uKKPNzRQwxdAyrRAkMIwAI1EiuUKAOqTXy4YLofxy1Yiy+aC6/2yO/fbzS8X1IoWlb/Pi6ek8v5Pfn9By2fcG/di4vjiBbHKe/zXTxdJ4f4iRFzMElCyUGZLdBlQ8rA3L/T7OOq+7frwsU2Q3lMTl0dF/y/Mb/VQ2aQt/9Uw364f/V2wDDZaiv+HRM+Dt9yvtODfl/+bf4IkvDsgCoEvgCZHC94jm6jUL+OogHJOoIA6qnDa3F5P6gYNiAn7iqdNl+WDRoZDsYEjZXReIDjVkw5vn3oiUTDILquxATJ6VJ4s/67UzJkTNz1JigojCy71Tj69Y5ma0lnCACn0jq94amxIVjzHe+7sYzSF+XlDpCAYAuYNl7F6PN52yQK2/EFDYsPSHkNk2LI5USeyJd59esevAXNNecc22ntcJcvcc+D/70P/6+gTOm+9H1JGz/snhKHXhvm/3iMzdFnS140/XDfjOW9/iU82q8Y7Nu8kUYOgyCsG82TELd7/XKbLZPc/1xNoF9aHeNuNHSn5JXOlOE0nkP5rZGjkifnAMTJOX1O6rgbM6zj4mFLhvVcLSqp4GyBtvO+A+d5rd2hkeFlwqf54TXBhTaq8z7Rbxw6Q4smuACDqM8195kwrkeXej8zo5cHPKS1EiLxoxBs0cA38sA0N9vvFXPjitlOBbccN1AA58odqvr1SWuxnZcLjcoP+APbeu/q9Gf2ZCqBpijifmrbULlV6rubOrXR6gndeFrzgJPg56Rda6sUpiQvrAKD+VFquAKD+LdCyqwEyOvRGzZMRoweEy8JMZYnger/szi8T0XKuEskfpZUtrETv8wX3yCTvtnGDz6Ck9xdQ8pxMnpMbWY6XgCn38s6ppvaIc/8lJd6jCJYv+eWI4fK2aP652vmTS+OX75UsleU98hJUqvB/57rzNr8s0nu+Qhf6RT5Wt35s1P8mVMapYWvg3DD6f2F+u8+3ZZP2/zwuUHO7wNtWvM/pyLJLq9L/Q7LnwXucUxd6x3JJ+PNff/OnWvkC8BD4AmhyIr64lQnBgl/G3g+s+eHaiTE1Cnv6V5zdOqqXXeCUyPJlIvk9c+288k5Wenj7C5xgDTNXoI2RQjufXvZExXuMsSdJGgBGh4KJ6QlMbAgYGVzk9/Aea4l3MhN1QppK7Vc9AZPgya2R5+27NPIE11zlN0QKe9r5tLEFfj1cQGFruprQ1zUb49cSHjcwet7fQ6SFMlWbQjX78rYNBIx6kjxpvl/zRNeP/i7BiWF12JPPwrjHFPWDIy/PW1IiU6dFnfCn+QQyr6e3o/nTY65ANDUPkzUNmxJ9jYQvcEjNUBk31nsept3LVZGoB7nS23tLxF5Ak6baaAP14opSWW5e2/7nvP85FB5cDd/o5aHPae9H/9RlwR/EvuXLKn+fmfBFa6CM0u9W/eE8wbzPls+YIyXB3QV+wLugWC8CCR6XHmdEwOxCYjPdQFpUAFBv9PPGdO9hPiMmyLBlyS4u9M535vQKbasFqJPMOZ5+Tuq8d14Sc7EcADQEqZUrAKhnA/V3S2QN1ODvJzOd18t794aZMjRTHhmvfK5UlsSUV3jnL9p62qVD7Xxiye/PKZEZk+fKsLEjpbddktwQvxwr3v3b8qXZ891B++WFed5vvkR6m99+3nlYnPI9Pf78ZdPthXrBi/VU5PMVr8yx5LuoJy9eeOz9JjVbRfzvYv8X5rM2WIkh6nn1ud/gkVL5PyR8HuJW0gCqhsAXQNpNf+ZZOxVfZetrnSkcD181Z678iqqNWDA2fNIWHXwWjEhe6Bx9cmPCLydvuIxId1NzenXetBIbwvoniMlOsFKWN0CG5QVP3rznasZ0KQ5eReedJGkBvdaQCJ2Uxa2F5deMDZ+42ZpdcUI7rflbEvgha4Jh77Gl5XRHr4ycb0+e7FV34av0vJM8rekaJ6hMTZ4feBj+lY3+4/ND+JjXlJ2uqXgnkxG8dfnupFYDJg1QIppY9cOZdNKT73GDov7nEbXqa8acLC/zXj92PiWmhrF3TDTtjDqnPyD9i0BMTVU7pKeGv9JAucR89gdrvgWHpDVp9b2pF30kCFQjCxsjmfDFNFU9QUb08BZoWHvLEJmtV19r7d7RuaHvEP3RHG9fweMyXR0EP58CfS4BaOrsRYej3WeVPW8z0/EFt9WLxap87gAA9ShpuQKABsjvIid8/uGJDh21fMZORospb/PospKYihJJVHZ/Wg7WI9B6QCXyRwxPct96AbPtSsz8fpsuvRNWkFADZESSO9bAdrmEu6a7dVSpxO1KLx69gHl+uEzOtCio3Q2FfnOXmJqzlfFrNHu/cbXChisr1DLkqBbjTCsMdjqupP+H5M+D/r7PF791SP95TX+ZHRo3Al8AabdHz55y6x//bOci6XJdX78imxnRk4rIpjbzTG2sEHvVWuyVdvUjIlzVwfZLkf4+y/L82qGhZkri1x4ONenpDVpbyzW/GdlEXpz+dLUJ0HjhqgbNoWad9T6lmle3xYbM2jxowVi/JmvcoNT8r9NNQ/h4r6l6YmrzBv4H7nlKc3Op4X5E/Vo0LsRJX8hVdaYJ3agTdaBu+LV5zXtCL7rwlvif5Sn+gE1RbP+9/vsvaT+53g9Z98M2ekgWFOtnvKu1b24/Z6hfgz/0GeO937zPWDEtDGhQE/9K5Upr+NrtADRxttnABnM+BQAAEKLN9Hq/7bzfMtUpm9PfU+aC2bGBsNg0vTwkphWm6nO1hYPlnzXgHd91F06QJaPtb7cHRsoSvfC3muUt5rdl4CLk/BGXmBZaKu2WTo/DlItGNYM8Vrs+cr9f7/We3Mp/W4bKN2/pJVNDQatfcUICv4tnDQ1X6Eg///801v0mNn07E/oidRGBb6c1ixkYGGo4QGTgwENk5MgRcsX4q+0Sn87rcl1f3zTg9Zu51ULoRM3hVk90fxUxzYrUkDY/FyoMt0O46RG/6dDEfWZUUbA2dJymr6OFwgbTfG4lzRab/kkiaxD7/GadzUmdbc45lb5FYsUJmb0h/cF4/fKb1XY1eOPQZlSjg23HNGOjz4sfhEY3zZ0efvM4ej+mNnicfqGryoT10VdMpsQ7UadpZ9S3UCCqYWyq/aonE+eiEqt4it9sfeg7QvsqilPbPnjhTniwP2KDAWxg0H26GsWxNXPt+1wv4NE+t70f4MXR/b1b1PAFAACIVdvlCgDSJRz2xnRhFd26iJbP2EknFPbeEuxmq8Q2vRwIgAOiL9gNXVif5P6Kp9wjEmh5LoIJb8P7S6WFtnj96PrlLZWUBaYsT7Qp+6RCYe+EiCaZjVB5lw7ecytJysaiRbd4GKw44Q3jvHUlWhM30c5S+L8npgFz4P+esOwUiI8avgBqxUH9DpRxv7xExlx6mZnXsc7r8gbBNMkxV4pnzPFOyiKbc9YTq4javPFqFMTln4xENlPsfckv8wPmumH7NzVhdixTOF+lpnUHyGgN6bz9mSZLIp4r7wQ00dV7prmS+P1ZRIvX/LQ2v6K1woptc85VD/YqFzcoNf/rdAs3txqSzvuJaqI8kvc/mrowVCvb/CiIW5M3nRcK6I+d+DV5Kw2nU2JrmidpZjapUNPO0yOPQ1+zcY8tjc2ko2nSkDVuTd543xnVYPrxjv2xqe9309dlsNBBX/8SP/SNpgUCJVr7duichFdpF1zq1yAOXohk+uUNfW7bliK8m0dcrW5F10iOqeGrA333AlDxWtyplfM2AKhvDaFcAUBKTFBqfzdFhb3xyj/MxeuBcjUto7tuWq5pGjkirzQVLoKt1vm/J7XGqv42i75gVys2JL8/rezi397f3wSZ6m1oLr51XfwE9hcTXNe6eOVI/udewrIY/Z19/XTJ836LxoS9cZh+eeNWHEhchpWIH3bHD49T+b8nZM53UytLBRIh8AVQa/bZZ2+58opx5mRCxzrfcGizzt7J07SFcX80hWshlsiMyRp0ptbHhembNdhMse0nNp01iCtjmj2R6XJdVLBn+loM9GmRqlDfFzG3dU0+T4g5MfLD4Uqes2TPja0VNmladZtzToG5Ss47sQsFH1X7X6fOD+GLJ4cDn0r7+6gS/ypKd+If5j2e672TeBkZagIof8RIvx/R6LDH/i+S1d5Onb1IYHJ0kzPe8Wj4XJX+Z+IwNRYDj6k6/KadvR8Pdt4wV3AGXw8+04+Ofl40sprhqEPusyb6YouSyH6GqkULGExT9ZFXapurxOcMSdgvr6lFmzD01c8O7/tCbM3ggWNkrNwbP/QtKZX8sROk91RXcBC4neE9bu/4dJ/6fRvm34e7jRtiaviGhujPEwBNjz2/iD5HN9MA0Lg0hHIFAJXR33gJapcq+zsw3KKT7ePXlkGaC3S1r1jXslJQdABrt9ELbROGm0nvT+8nuL9A1z/VDHdNWWFES3H+b7/qlfloGW2wLFafn3tN2U+wT+OQ0O/gBK34mSA+8BtyQbwyTSf6HNPed6iMzHtc3m/SULmnt+/J+rwG+2oOquT/npwei8jUyYGyA/P5H797JCCerKKioory8nIpKyuTxQuqcCkDgLje+2qJ5OTk2LnkKioq7FR4Wsdu0PemG7shu1lL6ZHbxWybLqvWbpFuOW3tXGap0bHr1WDaf0XEyZV+kU+X3qNyw4XTeSPjF5rrCcT1c2VYRLMrHrNfV7CtzQpHrbdMACtxmnxJSAvI/f4xUmmW2A947YxK9DhSYPalNcUSPg+RBW560hhR4J+gdlvwuYl+PqIDi0oDjAj2/5jguQ/zn1O9stGIaoLHPYfu8QTnTQDijifOayH68bjbKj0Bzps2N4XjU1HHGBB5chv7PEf+H5w4+0v02tDX8tReKT7nUSLeB77KjtdnXxclsbc34jWTlIR53Xw3MvY29viifyAE/09GzHPjH7cEbhf72kz19Ve5TP58RqSY15b50R3+/jGvIw08o5nXfG6Cz4HY75iE+7Hcaz76M0q5Y4z3w9ntN3Zd+L1cMGiAFM/XH/neZ0+P6eY95n8OiX/83g/2ZJ8nCd+vaDT4TENNBT9LNRAp8c6n/POv4Pdz5d/Voc/KKp5XAEF8pqFWpViuAKQLn2lVk/h3V/B3Xvi3kgqX0UQuD4pfjhN7bhNfovuL5pcLzR6aaH20BPcfXR6Y4nlV9HmZE/mbOfg8Rh5v7G9rK1h+E1UmFfE71qyLLA9OfN+eqMcZ+bzGe25S+z8keh4iX1t8/ldXbXymLStdI+W7dkh2dnZoyMrKCo3doHTs8h63zM0rl/+4aTfu0rmDmVYTJ060U4mNHz/eTokUFhYS+ALpRuBbt2p07PoFP2cohTyoB3ryl55AEI0bP7pRq7Sme16elCQJeqOFfgh7P+a1eWhzpXTc0Dm6H6rwD9qf95gu/4n3Az2pqB/dyEh8pgFoTPhMA9CY8JkGoDGpjc80Al+gCSLwrVs1OXYttJ41tPLCbaBmYq+cTHQVHxCNH90AGhM+0wA0JnymAWhM+EwD0JjUxmcagS/QBBH41q1qHbtriqNBNeEWp5ndKKnUvEpVwuZPrMTNvjQAUc2yxKhB09W1JrqZm9Ax1u3/PR0a0msno1/HKeJHN4DGhM80AI0Jn2kAGhM+0wA0JrXxmUbgCzRBBL51ixNSAI0Zn3EAGhM+0wA0JnymAWhM+EwD0JjUxmdaJgS+2XYaAAAAAAAAAAAAAJBhCHwBAAAAAAAAAAAAIEMR+AIAAAAAAAAAAABAhiLwBQAAAAAAAAAAAIAMReALAAAAAAAAAAAAABmKwBcAAAAAAAAAAAAAMhSBLwAAAAAAAAAAAABkKAJfAAAAAAAAAAAAAMhQBL4AAAAAAAAAAAAAkKEIfAEAAAAAAAAAAAAgQzXKwPfq666LGAAAAAAAAAAAAACgMcoqKiqqKC8vl7KyMlm8YIFdnNk05N1v//3N9KLPPpM7br3VTAN14b2vlkhOTo6dS66iosJOhad17AZ9b7qxG7KbtZQeuV3Mtumyau0WOwUAAAAAAAAAAJC5uuW0tVPpsax0jZTv2iHZ2dmhISsrKzR2g9Kxy3vcMjevXP7jpt24S+cOZlpNnDjRTiU2fvx4OyVSWFhI4JuK/Q88UC4cM0Y62xBv27Zt8p+HHpJZ775r5p1fXXONHNCvn50TeefNN+Vf999vpm++7TbJ69HDTDu7vOf8+Weflen/+59dElZYVCQ/PfNMeePVV0PrddnPzztPWrdubebXrV0rD9xzj3z2ySdmPnp9ouNE7crUwDfdH4AAAAAAAAAAAAB1qTbyjkwIfJtMH777HXBAxJAqDVHHek9ayfLlcvHZZ5th/pw5cu5FF8nIU06xW/lh7559+8o/77nHbKPjQUOHmu2ckmXLQvvQYfGiRXLYkUeaQLkyLsz9+ssvQ7fXY9IgWm8fb71O6zJdBwAAAAAAAAAAAKDxaVKB79XXXmuGk0aPtksrV3j44bJ29Wr562232SViau1qWFsweLCZ10BVw14Ngl1tWh3r/EEHH5ww0P3y88+lefPmKdUG1ePYtnWrPPfMM3aJhKaHHnqodM/NNdO6T2fW22+b8b5VCLgBAAAAAAAAAAAAZI4mE/hWhwa1efn58uUXX9glYatXrZKcrl1N2OsC1cWffmrGjgbDV19+eajJ5Wh999nHNKW9du1auyQ+dxxaoze4L53W/ev9LPLuWwPhn4waFapVrKHzZRdfHGpWGgAAAAAAAAAAAEDjkvGBr/bXe/8jj5hBp+uK9p9btnOnnRMTtlYW3Gofvvd5x+kGrRU89b//TRgIR9OQOREX/mq/wdpMtLuPYJPSAAAAAAAAAAAAABoXavimSes2bSptmtn14Xvnn/5kAmPtY9c1AX3zbbeFQlqdjqdrt252KjGtzev68H122jTTj3Cwr2EAAAAAAAAAAAAAjQeBbxJaa1abUe679952SZg2x7xxwwYT2LqmnKP7ytWg9U933hnTh6/uV2vi7rvffqEauDdcc00oqNXpIHcc2qxz9L40HNZ96BAdFLtmnjun0EcwAAAAAAAAAAAAgMxD4FuJWW+/bfrq/VUghNVwVcPa4nnzzLyGvlpbV2vTap++SsfHnXCCfP/993GbbJ7+v//J4kWL5KCDD44JcePR49BaxMNPOskuEXNMemwaOOug08EmnIceeqh06NDB1CYG0HBUVFRIeXmFnQOQDvqe0vcWAAAAAAAAADQ1WUVFRRXl5eVSVlYmixcssIszh/bbu9/++5vpRZ99JnfcemvcZSeNHi0nnXxyxLJUaSB74ZgxoZqy27Ztk/889FCoOWZHA9gD+vWzcyKffvyx/NXWunW1b4O1dzUU/vl555mw2G3n6LqfnnmmvPHqqyYcdst0+9atW5v56OOIXr/L+58+/+yzodujbrz31ZJKm/d2guGEm9axG/S96cZuyG7WUnrkdjHbpsuqtVukW05bO4fatHXbDtmwcYts2rzVLgGQLu3btZGOHdpKm9Yt7RIAAAAAAAAATUlt5B3LStdI+a4dkp2dHRqysrJCYzcoHbu8xy1z88rlP27ajbt07mCm1cSJE+1UYuPHj7dTIoWFhQS+QLoR+CKRzVu2yeq1G6VTx3bSoV0b78vA/7AHUHNaw3fj5q2yfsNm6ZrTQdq19S9+AgAAAAAAANB0NNXAlyadAaCObNq8zYS9nTq0JewF0kzfU/re0veYvtcAAAAAAAAAoKloFIGv1tjVISjVZQBQF7T24fYdO03NXgC1R99j+l4DAAAAAAAAgKYi45t0BhoamnRGIl9+UyJ9++TZOQC1hfcaAAAAAAAA0DTRpDMAAAAAAAAAAAAAIKMQ+AIAAAAAAAAAAABAhiLwBQAAAAAAAAAAAIAMReALAAAAAAAAAAAAABmKwBcAAAAAAAAAAAAAMhSBLwA0UCu/X22Gjz5ZZAadXrFyVcRglnvjld+vsrcCAAAAAAAAAABNSVZRUVFFeXm5lJWVyeIFC+xiANX13ldLJCcnx84lV1FRYafC0zp2g7433dgN2c1aSo/cLmbbdFm1dot0y2lr51BbvvymRPr2ybNzlXv2+VelbGeZ7PQ+n3fr1kVatGjhfWp7K7yXinmNeH/Ll68w27Zv304GF/SX7rt1NfPJLJ8xQa6bVmLn8mT0LRNkROCwItcPkHEPjJECOyeyUCZdeI8U2zkZNEYevHSAnYlk9jNniNx6y3DJt8viSX5/AQvukfMnS+L10XT7qb1i7r94yiUyab6dSXZ/yFhVfa8BAMLc92TB2Htl3EC7MAH3HR6zrfnOXmhnYs81fPacIm9kpecKISXPyXXXT5fldjYo3vFGfud7Ur6vEplx/QSZ6p2exO7XnQtFPq7I8xmR/FET5Fa3MslxRxxTxPMWeY4Ssf8k519BMY/fqcpzbun9T5ZLwo/JPA9zpNAeozu+iMddy1J+rcZ7/hM9h9HbRjxX4ddFfKmfV6b0eknyf0r4v03xteGE9hN1u+j/Z6LnOtF2RsQ+I587fz9RvysiRD6XCR+vss+TRD2nQXX5ugQAAED9q428Y1npGinftUOys7NDQ1ZWVmjsBqVjLb9308rNK1O2b+eD4y6dO5hpNXHiRDuV2Pjx4+2USGFhITV8AaCh2rlzp4w66Xg5bfSP5agjCqWocJAUDfMGb3zYoYOlcGiBnH7qCDO0bdPa3io5v1AmV8Y9cK88qMPYXJl6faCgZcE9EetvHVUqk65/zhZ6+YUyJaMm+Ld9YIKMXuZtPyNOwUrJczI5QYFLhKT3F+Tdd6gANAURBaZh+vgnzdcCpMruDwAAJKbhzSXxw5WY7+CSyHMNpdskDHqqp3jyJTIpdP2yf3wxAVHJdLkupfvNk4KhfjhUPCfqfGLBHP/2g0aGQ2xzPhP5XCyf5p1zxTtHiqbHNCXeOU6pLA/dvMQ7jhT2lSq9zyqc/0SHk+HQOyx/hH9+2OBCNX2txQvb58d7DXqPK3rbKj5XKanJ66Uy+riqc7ze7cLvnzRZVhI+jpKFMrtKD0//F+l73vX5TfvjAwAAABoYAl8AaKB27iyTWXMWyNx578n8BR/Igvc+kvc++EQ+/Ogz+fiTxbJo0ZdmrEOqtLAwf9TIcM2DgSNldN5CmWUKQEpkxtSFEevzR3jTJXOlWAtoTAHnABkdKsjLkxGjB8jyOQujCmO8/UyeK3mDKivwq+T+Aoqn3CMyKJXaCloAeYmcP7lUCuLcf8l33o4HDQ3f36Ahkl+y1DsSAAAaPw3uzve+J4PBUrxlxrLn5Dr9TjVDMBjT71q/pl5+Xux3rQtItQafBoDjBumcO9ew96eBsHfbqtQwjaA1+uzFW/4FXP5xlCzzH8PyGff6NQkjtnO1BRfK1BSCNXOOoBPzbcBrhR7f0PB5SfRjfnCsvy7mHCnquB+8ZWTc+/CVyOz59jirHJZFCh2XGezzEHH+4wfk/v868v8dDHs1NDv/+gfkL6H1/nmXBmnRr6Pw/HP+uZkZJkjkU2/P23TQcM9cCBDntVht3v7txQdawzPmOYh+LYTC/DFRz5U7N/XOfW9x+5jgnUP7y0aHloVrpCaT8uslBfH/t9NlcjWew+LJ0QF4DQXO6ZfPn5vksYUvxox8HLG/CSIfrx2iakFH/q+9wT6/MRdvAAAAAI0MgS8ANGA9e+RKXl532b17N9Osc9cunaVz547SsWMHM+7izXfzlqdKC6kia16UypJQQYo/ndcjuD5XeufZAseBWvgVWZC1fFmpnQrTQtbZQy+R0T3tgoQquT9nwT0yScbIuKF2vhK9TSHPhLj3n9fTu69AoaopfMrrJcEjAACgsXIhZjhYcjVH82RY1IVSxdOCNR0XRtW28wOasTHfzSXeuYGOB0ihbfbVBaMujFUmkLllZC19/4Yf0+ixwSDIO2YNfgaNSa0Wat5wGW3D6lAoWPKcTDW1hsOPT5nzC08oMDPnTLFBVELR5yKDBpjzrdD/qWSpGRekdPFbVWnYG91MsR/qpyN3Xe69jsIhYolMnexeR3q/gYBRQ8qpseeVNRIIcCP/595rwYbtEcfn/R/M/ytU29UFkfGaJK++Gr9eErKvcc/y76rzXKZ2MUQq/Ndq+JzeXHTpHV+BeU+lKlfy0/i8AwAAAI0dgS8ANFDavv8ePfMTDHnSIz9X8nL9MLi6ls+YbvrOGx0qtMyT3hEFK3mS38NOxlgoU6eVSMHoYOGULssN1AKuTGX3p7WAS2X0qFQLOAfIiCT3bZobHCuh2iTXfTcyDYVrAABkiLwBMky/Jl3tTldzNG+IFER/fSas5aghWKKajMELySK5AEq/i2vc7K82s+tqhur3uamB6kJrewzxHpMGa1Xo39SF1S54DdVSDLQWokK1gU1Qao8rXjPNUcftNzUcHUyroVKowZj9P/k1EwdIYYoXv0XT5q5D9+lq57rHsGB6TG1ov8Z0iXdOt9D/f9ka1H5Qf6H8OvT/9wPRpP3nuv262szutefu1+5DQ9Vh/pq0cRcm5vfMNeMI7r0QFFgWfs7SXOvVk/LrpTpcaB1sTjkFBWP9/+nyafemJeiXof7ry3/fL5RZeqGE95or1HUxAs9D4Dl3xxQU+Vr2h+ga4aYmenAbU8vbe5+l/HsCAAAAyEwEvgDQQGVn+x26f/TJIvnvUzPk2++Wy+tvzpTnX3zdmy4xy3RddflN9EmcQsZUaMHMPVI8aExEIZ9pejlO4Ux1udrC6apVUTzlEjl/aq9wgWbP6VIbBXkAADRMrm9a28SyrTmaP3RA1LlAMBwZ4IePUpIwzK1/2qxuVC1MFyzWxEAbipqwO1BzODo4yhvunVtEnf+k3JdqnD6OPX4tUP0/2bAsnS2SaJhvg+9Q88KBC/hMFxs6UcXQMJ7QaysqYA2FsaGuPfyuQuqX32Sz3wy5k77aziE1er3UlgHe61r/QX4t7Jo/XG21xxtpyzq2pnXc4D2J4slpet7NRQfpraUNAAAANEQEvgDQQGVl+R/RBx24n5x+6ghTs/foIw+VE48/2tTw1WW6rjpCYW904WhMYW6JbZoxKBz2RtSScU0vJ6jlYcLW0NX2rgAnyf2VPCeT5wyRsQlKZ1zfcG7wm95Lxi8wjSzQvMT0YZyu5usAAGjoXO1CDfr8sC+2OefY7+dU2ZAnjqqGPUlF94UbEea4YyiV5dGPQfuIrVKoFg67Z0+bnrg2tOFqqnqDbVY3pg/SOMft9wNrA/iA0P9p6nTv3r35mFA+dTH9ngbO31zzwo1Rfg//NRe3eeMk/SIXXOqeKxfKRnU3khYpvF6qw17EIT2q3ke2f17sTZRMl6lz/GXVF764ZKppqjve54wTeC7s4Ifusc97vD58o1sMcH34uprpaXleAQAAgAxA4AsADVR2ll/Dt6ysTFZ+v9pMay1fN61jXVdVGrxeNy1XxsVc6e4XkAb72PObRQwU0JQ8J9ddeI+UaEFKVJOIptBYayfYANY0r2iaLrTNsoUKz3TQ+05+f6bZxGDTh6Y5tnAtC9M8c2h/lTQnCAAAfK6mpfZTamqOxg8wXc1Pd8GUBjaJwtww1zVDOMB0+4nss782uaAp2F+s8s4h9FxCzy2q0HxuqFnn+X6zzrHBa4nMuF7PVQK1EQeOtEFuDeTleY/EU+LXsq2t58+FosVTw8+V6fJDJ6oRGqYqFMaG+tD1nsepqf9fUuJqaHuv9chmf73XgmlO2xNonttdTBje1tV6Tadaer0Y4efQvW6rJk9GjLV9G3uvu6BQv8OB14k+j9q9i4r3+gz9j82+6r4/Xv2t4ILjyM8CAAAAoHEi8AWABirLNum8efMW+eLLb8z0hg2bQtM63rp1m5lOlRZkTZqvV9HHa3bZb0ovXPCm22sfv64g2C8ck1Hx+96LDHTtVfWmJkuiJp6T3190oOvXftBjr26TbH4tncgCzXtlasmAKvQ5DABApnOBqC9hzdHQRVy2ueGENVsjuaDJ9bVpQmX9Dq7DC7NCTRJH9Jnrmk32ziWq0I9vZBgX75whEDCbIE+HCbZf3KjnLOJ4AtvFfX5c7WJVi8+fe3yBY3N9Ikc3Xe33jRpsflovxIvtQzUloefV34c+F7O9+6yOeP26+i2/eP9rW3s2sl/X+K8FV6s6uG1k/9DpUJPXizdE1VCPfOxuP95zW93XS95wGRsn5A71O5zgPRX39ekCdxXV73Uk9xoID/7nRuzzHu9/HfmajFRwqf0d4h335Oq8TgEAAIAMQuALAA1Ulq3h26lTRzl0mF9E0u/AfUPTOu7Qob2ZTpV/FX5soUqooG7gGLl1VGlovakJfIvfBLKr7RFZYKZD4kKWSiW5v9qgofS4HsECTW3WOlEgDQBA4xQKb5IEWQWj/Jp+vgGpfz973+2hJmoN7V+3rr9r9QKx6L5YPUkvREskEJAnCK30IrVQ87GO3ldKz5kea/xjCtXSTBqW1ZT2W+ualnb0mMIX2IUC9JB01HzV+w087kHeOeHoNDb77ejr8Zbga9nSrkmin3ftWzdm2zj9Q9dQzV4vldDHVcP9xP6/PfH6HVZJ31PhixaqXuM4Xc+791oOhf73pqdPYAAAAKCByioqKqooLy83zYIuXlBpB4gAKvHeV0skJyfHziVXUVFhp8LTOnaDvjfd2A3ZzVpKj9wuZtt0WbV2i3TLaWvnUFu+/KZE+vZJvdTi2edftVNhfgSsvKnwjDG4oL90362rnQOarqq+1wCgydEuGrRJ23SFTEBVuddgINjTlmi0Rq32wRqvNRkAAAAASEVt5B3LStdI+a4dkp2dHRq0wpYbu0Hp2OU9bpmbVy7/cdNu3KVzBzOtJk6caKcSGz9+vJ0SKSwspIYvADRUQwYdEjMMDg39TcAbHAh7AQBAKkw/+d44YXPOQG1zfRQHmjZOf/PJAAAAANB0UMMXSDNq+CIRah0CdYP3GgAkot062K4YGlrt3lCNzwTSerwlMuN6139uPOlvxjfdiqe4fk7jKxh7r4yrw36TqyXO/9wddyY+voZ2zI3iNQIAAABUQ1Ot4UvgC6QZgS8SIYQC6gbvNQAAAAAAAKBpoklnAAAAAAAAAAAAAEBGIfAFAAAAAAAAAAAAgAxF4AsAAAAAAAAAAAAAGYrAFwDqQHl5hbRo0dyMAdQe914DAAAAAAAAgKaCwBcA6kB2dpa0atlCNm7eapcAqA36HtP3GgAAAAAAAAA0FQS+AFBH2rdrLes3bJb1G7dQ0xdIM31P6XtL32P6XgMAAAAAAACApiKrqKioory8XMrKymTxggV2MYDqeu+rJZKTk2PnkquoCId+blrHbtD3phu7IbtZS+mR28Vsmy6r1m6Rbjlt7Rxq09ZtO2TDxi2yiZq+QNq1b9dGOnZoK21at7RLAAAAAAAAADQltZF3LCtdI+W7dkh2dnZoyMrKCo3doHTs8h63zM0rl/+4aTfu0rmDmVYTJ060U4mNHz/eTokUFhYS+ALpRuALAAAAAAAAAABQ95pq4EuTzgAAAAAAAAAAAACQoQh8AQAAAAAAAAAAACBDEfgCAAAAAAAAAAAAQIYi8AUAAAAAAAAAAACADEXgCwAAAAAAAAAAAAAZisAXAAAAAAAAAAAAQINQUVFhp5CqrKKioory8nIpKyuTxQsW2MWZY78DDrBTVbPo00/tFJBe7321RHJycuxccsEPLTetYzfoe9ON3ZDdrKX0yO1itk2XVWu3SLectnYOAAAAAAAAAABUx4wZM+TII4+Ujh072iW159VXX5X27dvL0KFD7ZL0ePbZZ83jSKRbt25yzTXXSIcOHeySmvnqq69k1qxZsmjRIvn+++9NLqI5y7777iuHHnqo7LfffnbLytVG3rGsdI2U79oh2dnZoSErKys0doPSsR6/m1ZuXum0mw+Ou3QOP5cTJ060U4mNHz/eTokUFhZmduCrYe85F15o50RyunSRvnvvLfPnzrVLfIOGDJG1a9bIl198YZeIPPzAA4S+qBUEvgAAAAAAAAAANE1XX321/P73v6/1wFfD3jfeeEPGjh0rubm5dml6aOCr2cSIESPskrAPP/xQnnjiCRM0jxs3Ttq1a2fXVM/jjz8uCxculGOOOUZ+8IMfSF5englKNfj96KOPzOPUwPess84KBajJNNXAN+ObdF63dq1c9+tfm+HuO+6QV158MTTvBl32n4cfDs3rbQAAAAAAAAAAAIBMU5thbyp233132X///WXy5MmydetWu7Tq7r33XtmyZYvccsstcvzxx0t+fn4oJN1tt93k6KOPNus0WL3rrrvk/ffflylTppj1iNSsV69eEzQ51pqDq0tK7OLM0M37Z2st35lvvx133ik64ghZvWpVqEavzuu0LqvMzbfdJgMGDZJZ77xjl4j86ppr5IJLLpGTRo82Q5euXeX9QO1ovc3Pzz034fpouv3wk06Sb5cskVXff2+XJjbylFNkzGWXyYZ16+S7b7+1S1Ojtx3/m99IV++5SnRM+x94oPz297+XH/TvL929N21170vpc3XiT34ir7/yil3S+I25Yry0adPGztVM8OoON2RlN5OO7dOzf2fLtp3Stk0LOwcAAAAAAAAAAFKlzR8vXrw4NGirul9++aWZ7t27tzz//PMR692gTRhreNq6dWu7p8pp88f333+/qUH8wQcfyNtvv510eOmll0wTzHo/qdJjU/GaUl65cqXMmTPH7G/16tXmsQ0aNKjKucj//vc/2bZtm1x00UXSrFkzuzS+gw8+WL755htTu1jD3yFDhtg1sWoj79i4aatUVOwK1eRNNCg3VsHpyrRp3cpOicyePdtOJaa1ep0HHngg82v4HnbEEXL/I4+Y4eprr7VLY5108smh7TQYri4NMPfs21f+ec89cvHZZ5vxoKFD5VzvBak0vG3Ttq3c+ac/mfXPTpsmhUVFofXRNIDV7VV1+yOuioLBg2XlihWm6etUTPfecON/+UuZ9e67dgkAAAAAAAAAAACceKFfovng8O2338rTTz9ttklVnz59pEePHqY27JlnnlnpoDVxNSytjgcffFDGjBkTGq688krT7PIRRxxh+u8dOHCgqeHbvHlze4vUfPfdd/Luu++aZppTobWZtSvNJVpxMoXKnE1Rxtfw3aN3b5l8112mVq8OiWr46rJnvDeNjrXG7sLi4pRq+B593HHmCgOt4avB7RHHHCPz58yRZ6dPN+u11qvWgj3o4IPNC3pf741Tsny5zLBvUK1JPKSwULp06RK3luuPR46UTRs3mmGvvn1D20TX4tXA+KzzzjP7Oco7prbt2skBBx0k69askYIhQ0yt3ZGnnio/Gj7cLItXG1eP/+ABA2SO9ybS50mvGAn2Y+xqJh98yCHmCokN69dH1PA99vjjzTG4msjB2ruu5rAew49POkmaec/FMO/+NGDu0LGjDB46NO7jb4yo4QsAAAAAAAAAQNOx7777hobXXntNzj//fBOM6rzJjgLrg4PmT5s3bzY1WFOlQfFhhx0mM2fOlLVr15rpzp07JxyWLl1qbhevtm4iroZvkeZiRxwRGg499FBTs7hv376hQR/vUUcdJa1ahWuoVkZrHe+9997Sr18/uyQ5Daw3btxoHvtpp51msrJEqOGboTR41NAyGFwm4rZLpdnkePa1NXAXR93Xv+6/X66+/HJ5fsYME/Ye4L1ANTx1brjmGjNE06aTtQ3yLz//XGa9/bap6auhbDLvL1wor7zwggmI//PQQ2bZcSecIIsXLTI1iteuXi2jTz/d7DuaHv/WLVtk+tSp8q33Bu+7zz52jV9zOadrV1Nj+Y1XX61SYKn3ddiRR5pawHoMOtagV5+XTz/+WEqWLYv7+AEAAAAAAAAAAFA1Wmlv3Lhxpnnlxx9/3C5Nv549e8YM6aCBcqphr9JA+eSTTzY1jDVkRqyMD3w1bHR95WqtVeXm3eC4+Zo06bxt61ZzxUQif73tNhOaanh63yOPmCEY/ga549UQWkNSDWNdqJyq7rm5UrZzpwmMVfG8edK6TZu4zUNrM85ffvGFmdaQWcNmFwzrVR5ff/mlOQ5txlmbfa4uDXoJeAEAAAAAAAAAQFPzwx/+0E7VLhf6/vSnP7VL0k+bUn7ooYcSDlrrtjo0Z9N+hZE+GR/41jUNU7Wd8GQ0NL3s4otNbVfty1dr7moN2mhaw7Zb9+5y1e9+Z4LhvB49Uu5b1+nsHUvzFuGq6StLS00AHE1rDmsIrTVx9b5+MmqU5HTpYoJhDX1dP8LV8dknn8jU//7X9GWs+/77ffdVWlMZAAAAAAAAAACgsalK08nV8cEHH5jmnJWGvjrUFm2mWR9PoqG67rjjDtM0dHVoX8KIlfGBr4aNz0ydagbXrLObd4Pj5qvbpLNryjm6Fq72X/unO++U0888U+74298iwk49Pm3mWWvQBuk2e/btK++8+aYJhnXQmsHa363uL1rXBFc6rFu7NiLg1Rq/wQDYKTz8cFM7WQNod3/aDLQ2vazHqLWLqyr4mIIht/ZxnKhZaQAAAAAAAAAAgMZq0qRJdqr2LFy40E7VLu0nNtnQoUMHu2Xd0CasK6uU2VRlfOCrzTNrLdV4TRhHc9tVt0lnDTW12WOtyepCXR1rH7rff/+9/PfRR01weuKIEWadcsHuunXr7BJfvP6AtQp7WVlZqG9d7UdXt9PgNC8/3yyLpjV6NeDVQFdpgKvBbrBPY3d7DZ413HVWr1plav3qMWpTz3qcOq2Bc/fdd7dbRdI3rz6Hup3eVun0xP/7v4igWp+H4H0BAAAAAAAAAAAgc8yaNSvpUN0mnZctWya33367PP300zJjxgy7tHIff/xxjWoWN2aZ34fvAQfI1ddeGxoSOenkkyvdJhXaR6+GvheMGWOaL9axzuty5fqu1XXx1jvadPPa1atNiOy42sAavGqQqzVwtQnmK6++2oSzjgt5f37eeWb+lRdekH29F7jen4aw2rxyMGzVgFabotZ+e4Nc2Kxhsfa7q8ejx6sB9rLvvjPrgnQb7dtXm4PW+9bjUPoY3luwwCzXY9BA/Hn7BtXj1qaqE/VjDAAAAAAAAAAAgIZn+/btsmjRooRDdT322GOyZMkSadGihRlS9dprr5maxYiVVVRUVFFeXm5qli5esMAuzgwaZJ40erTcceutceedq6+7ztR4dc0767xOB2vBIj6ttXvUscfKE48+GhFOI7H3vlqScpMCFRUVdio8rWM36HvTjd2Q3ayl9MjtYrZNl1Vrt0i3nOr34wwAAAAAAAAAAESuvvpq+f3vf59SH7VvvfWWfPvtt3LmmWfaJZXTPnzffvttGTt2rF2S3LPPPmtyhhGB1mkrU5Xb/PrXv5Ybb7yxSs07//Of/5TNmzdL27Zt5cILL7RLk/vPf/4ju3btkrPPPtsuia828o5lpWukfNeOUJ/JOmRlZYXGblA61ufOTSs3r3TazQfHXTqHn7+JEyfaqcTGjx9vp/ymtzO+hi9qz6+uucbU2v126VLCXgAAAAAAAAAAAKTFkCFDZOfOnXL//febmsTJaNir/fdWFvY2ZRkf+HbOyZFb//IXM1xx9dVy3PHHh+bdoMt+fs45oXm9DSqnzVBf7L15opujBgAAAAAAAAAAAKrjggsukKFDh8qYMWNMTegbbrhBXnrpJSm1XYlqjVedfvXVV806DYavuOIKsw7xZXSTzkqbca4OmnNGbaFJZwAAAAAAAAAAmqZJkybJhx9+aOcq98Mf/lBOPfVUO1c5bdL50UcflXXr1tkllfvxj38sJ510kp2rnDbpPGPGDDuXXJ8+fWTcuHFVatI52ldffSUzZ86UTz/9VFavXm2aQu7SpYvsu+++MmzYMNlvv/3slpVrqk06Z3zgCzQ0BL4AAAAAAAAAAADVo7mIC0urij58AQAAAAAAAAAAAKAeuaAUqSPwBQAAAAAAAAAAAIAMReALAAAAAAAAAAAAABmKwBcAAAAAAAAAAAAAMhSBLwAAAAAAAAAAAABkKAJfAAAAAAAAAAAAAMhQBL4AAAAAAAAAAAAAkKEIfAEAAAAAAAAAAAAgQxH4AgBq3ZIl38ptt98t69dvMINO6zIAAAAAAAAAAFAzBL4AAAAAAAAAAAAAkKEIfAEAdapTp45yzW+ukN6997BLEgvWDAYAAAAAAAAAALEIfAEAAAAAAAAAAAAgQxH4AgDSbtu27XL33+6VK8Zfa4a/3jXFLFPBPnzd9JtvzZRrfnez2VZvp9u+//5H5nYlJSvkhgm3yUMPP25uDwAAAAAAAAAAwgh8AQBp9/gTT0unzp3k7ol/NMOJJxxn18TScPe99z6UCTf+Vm6ecI2sXbdeFi36XPr3P0h+deWlkpe3u1l+3jln2FsAAAAAAAAAAACHwBcAkFZaa7e0dIUcfWSRXSJywP77SOvWrexcJF0+auRwM9b+ffv06SUlpSvtWgAAAAAAAAAAkAyBLwAAAAAAAAAAAABkqKyioqKK8vJyKSsrk3ZnvWUXA6iuB0etlpycHDuXXEVFhZ0KT+vYDfredGM3ZDdrKT1yu5ht02XV2i3SLaetnQNqRptovvcfD5kmnV0zzNr/7jffLJXxV4wx81PufVB+dvpo6ext46Z7997DrNNtc3fvLiccf4zp5/ex/06VSy8539T+BQAAAAAAAAAgkdrIO5aVrpHyXTskOzs7NGRlZYXGblA6dnmPW+bmlct/3LQbd+ncwUyriRMn2qnExo8fb6dECgsLqeELAEgvbZr5vHN/ZgLeK8Zfa4bOnTombNI5md137y5tWreWGybcZoJgAAAAAAAAAAAQiRq+QJpRwxcAAAAAAAAAAKDuUcMXAAAAAAAAAAAAAJBRCHwBAAAAAAAAAAAAIEMR+AIAAAAAAAAAAABAhiLwBQAAAAAAAAAAAIAMReALAAAAAAAAAAAAABmKwBcAAAAAAAAAAAAAMhSBLwAAAAAAAAAAAABkKAJfAAAAAAAAAAAAAMhQBL4AAAAAAAAAAAAAkKEIfAEAAAAAAAAAAAAgQxH4AgAAAAAAAAAAAECGIvAFAKTVCy++JhNuvl3Wr99glwAAAAAAAAAAgNpC4AsASBsNeWfPmW/nAAAAAAAAAABAbSPwBQCkzdPTn5ND+h8krVu3sksAAAAAAAAAAEBtyvjA99yhzWXi6JZVGvQ2AID0ev/9j2T9uvVywP772iUAAAAAAADIFE+88K1c/seFctZv58jvJn4os95bbdcAABq6jA98D+mRLe8tK5eH55bJv+eXyX+Ky+TxqGHuknLp2DorNK+3AQCkz5Il38rzL74q5537M2r3AgAAAAAAZJi3i1fJky9+JyXfb5PtO8rli6Wb5K//Wiybt5bZLQAADVlGJ59H7dNMcjtmySE9s2XtlgopXlou85aUy5yo4dMV5bJXtywzvX2XvTEAIC22bdsu06Y/Jycef6x06tTRLgUAAAAAAECm+GDxejM+e0Rv+b/fD5TduvgX9H+/ZrsZAwAatqyioqKK8vJyKSsrk3ZnvWUXZwYNfC8pai6lGyvk7td3yjdrKuyaSBoIa1POR/9tm5k+d0hzGT91h12b3ENntZLeXbLsnG+Ld9O739gpL33WcNLjO09uKV3bZcl5/+YLuL49OGq15OTk2LnkKirCr1k3rWM36HvTjd2Q3ayl9MjtYrZNl1Vrt0i3nLZ2Dqgabcr5nw/9x85FuuC8n0v//gfZuVgbvQ/UNeu32TkAAAAAAADUh6kvl8jMhWtk7M/2lp65beTv//5Cln+/Va46v6/k7dbabgWkpkun1tKhbUs7B9St2sg7lpWukfJdOyQ7Ozs0ZGVlhcZuUDp2eY9b5uaVy3/ctBt36dzBTKuJEyfaqcTGjx9vp0QKCwszO/BVGuRqk87/mpO4aYmaBr4qGKQ2xHCVwLfhIPBFU6fNOz/236ly6SXnU+MXAAAAAAAgA2h/vdqEc7R//WmItG3dzM4BQMPXVAPfjG7SuU+XLGnfKss061yXSjdUSLuWIgN6ZsuP9m8m/29Ma3n9cn9wAfH5w5qb5W7Q7a4+tkVoOx10Xun4yQtayX/ObWWW6/a67OWx/nYa5jrBfeht9Bh02cA9sk1NZHf/8bZTun76L/z70f3qcbr70bHOAwAAAAAAAACajoJ+OdKyRWQ5uzbvTNgLAJkhowPfnw5sLnvvliUnHNBMTu5fd188/fKyZbOtIHzxoc3lsxXlpvbww3PLZLf2WaHQtKV3SG98vkt+fM826dE5yzRBrdvotgu+LZchvbNDQWw373YLvyuXX03dIVt2VJht73h1pzz38S7Zf3c/WNb9un3oduqKo1qY7XR/S9ZUmBq+ibZzdpSJWf7veWUy/MBmpmlqPSYdH7k3X+AAaqZ37z3kmt9cQe1eAAAAAACADPHanJWyY2eFdO/aSkYd28Ms27glcauaAICGJaMD39tf2SnvfVcuD80pk6ffr73+dLXmrKstq4PW7tU+fDWgPe2f2+Wqp/1Qddm6Ctm5K1wte4d3SKs2+/MPzi4zwa+OldYSDtJ+gd9fVm72qWGyhsgawOrt3T4Pyss2YbA+Zt1u7pLyUE3joMq20/3r8mgaHNMkNAAAAAAAAAA0Hdqi6Iw3lpvpk4/tIUUDuprpt4u/N2MAQMOX0YFvXdGas1oD1g0a8rrANNh08u9+1ELatQw3e6FBrYbAjjan7LYd3i+yJq0GtN9vigyB49GawH8d3TK0j7be/Wmt4mjJtlttQ2h9DPfNLDO1gXU71/Q0AAAAAAAAAKBpmP3+alm5ert0at9CjhrSXfr0aCe53VrL6nU75PMlm+xWAICGLKMD33OHapPO2aZJZw0t65qGo3q/2uyyBsF/emmnbN4RP7TVYFgDV91Gt9XbVEd0+Ky1hrUmcLRUt9Nluk630eantYnq6BrDAAAAAAAAAIDG6ZnX/dq9Jx6eK82b+ZWGDivoZsYzF64yYwBAw5bRyd6bn+8yTSO/t6zchJX17fgDmkXU8E1EA1Xtv7eqPiopj+gjWGsMP3lBq5iANtXtNLCednGr0HYqUXPPAAAAAAAAAIDG5ZMvN8gXSzdJyxbZcsJhuXapyJGDdjPjtxesMk0+AwAatowOfL9ZUyGbtlfE9IdbV7R2rPa1q00ma5PIrZqLrNtaId3axYa+ryzaZZpt1mafbx/ZUhZ/XyEtmknc5pgT0f5/Ndg+Z0hzc396W22SWQNafQ60r2ENd5NtF6TH/+5X5aHttLbyf+bTET8AAAAAAAAANAUzbO3eY4Z1l3ZtwxWDtEnnXnltZf3GnfLZ1xvsUgBAQ5VVVFRUUV5eLmVlZdLurLfs4sygAeUlRc2ldGOF3P36ThMAx3NIz2yZOLqlabZYp88d0lzGT91h1wLp9eCo1ZKTk2PnkqsIXB7npnXsBn1vurEbspu1lB65Xcy26bJq7RbpltPWzgEAAAAAAABo7Jav3CpX3vaemZ503UDp3rWVmXamvrxMHntuqan5e+Epe9qlANCw1Ubesax0jZTv2iHZ2dmhISsrKzR2g9Kxy3vcMjevXP7jpt24S+cOZlpNnDjRTiU2fvx4OyVSWFiY2TV8cztmSftWWZLbIUu6VqGmLAAAAAAAAAAATdn015eLZg3D+neNCXvVkYPDzTqXl4fDCgBAw5PRge/jxWXyxffl8sKnu2TXLpFDemTHHfbulu1tV2Gmhe8lAAAAAAAAAEATtn7TTnlr3vdm+qSj8804WtfOLWWvPdrJ5i1l8vEXNOsMAA1ZRge+6rt1FXLe0OYy8ZSWCYexRzSXvXfLCs3rbQAAAAAAAAAAaIqee7NEynZVyIF9O8revdrbpbGKDulmxu8uXGXGAICGKeMD3ztf22n65q3KoLcBAAAAAAAAAKCp2bGzXF6cucJMJ6rd6xQN9APf2R+soVlnAGjAMj7wBQAAAAAAAAAAqXll1grTTHN+9zYy8MAcuzQ+bdZ53z4dzPbvL1pvlwIAGhoCXwAAAAAAAAAAmoCKCpHpry030yOPzpesLDOZVNGArmZMs84A0HAR+AIAAAAAAAAA0ATMem+1rFm/Qzq1byFHDN7NLk2uaEA3EwzP/WCN7NpFs84A0BAR+AIAAAAAAAAA0ARMfeU7Mx5+ZJ40b5ZC9V5Ppw4t5IC9OsrW7buk+JO1dikAoCEh8AUAAAAAAAAAoJH7+IsNsmT5FmnZIluOP3R3uzQ1WstXzVy42owBAA0LgS8AAAAAAAAAAI3cM6/7ffceV7i7tGvb3EynSvvxzc7OknkfrZEdO8vtUgBAQ0HgCwAAAAAAAABAI7Z85VZZ+Ola0xfvyGPy7dLUaUB80D4dTdg7/2OadQaAhobAFwAAAAAAAACARmzaq8ulokKk8JCu0qVTS7u0aooOcc06rzJjAEDDQeALAAAAAAAAAEAjtX7TTnlr/vdmevRxPc24OgoHdJVmzbJMDd+t23fZpQCAhoDAFwAAAAAAAACARurZN0pkV3mF9Nu7o/TOb2uXVl2bVs2k/36dZdeuCpn34Rq7FADQEBD4AgAAAAAAAADQCGmfuy++U2qmT6pG373RigZ0NeOZ7602YwBAw0DgCwAAAAAAAABAI/TyzBWm+eX87m1kwP45dmn1Df5BF9Os83ufraNZZwBoQAh8AQAAAAAAAABoZCoqRJ55fbmZHnVsvmRlmcka0WadCw7MMc06z6KWLwA0GAS+AAAAAAAAAAA0Mu8uXCVr1u+QTu1byBGDdrNLa65oYDcznrmQwBcAGgoCXwAAAAAAAAAAGplpry4z458clSfNstNQvdca1C9HWrbIlg8/Xy+bt5TZpQCA+kTgCwAAAAAAAABAI/LR5+tlyfItJpg9/rBcuzQ9dJ+DD+oi5eUV8i7NOgNAg5BVVFRUUV5eLmVlZTLvm012MYDq+nr+y5KTk2PnkqvQjjQsN61jN+h7043dkN2spfTI7WK2TZdVa7dIt5y2dg4AAAAAAABAJvvjPz6VhZ+ukx8fmSfnjepjl6bP3A/XyB3/XCQH9u0oN43rZ5cCQP2rjbxjWekaKd+1Q7Kzs0NDVlZWaOwGpWOX97hlbl65/MdNu3GXzh3MtJo4caKdSmz8+PF2SqSwsJAavgAAAAAAAAAANBbLV241Ya/mDCcdnW+XplfBgTnSplUz+fSrDbJ+4067FABQXwh8AQAAAAAAAABoJJ5+xe+7t2hAN+nSqaWZTrdmzbJkyMFdRCunvbtwlV0KAKgvBL4AAAAAAAAAADQC6zftlLeL/QB21LE9zLi2HDqgqxm/u5B+fAGgvhH4AgAAAAAAAADQCMx4fbnsKq+Qg/bpJL3z09uHZbRD9uss7do2l8XfbJTV63bYpQCA+kDgCwAAAAAAAABAhtuxs1xeeneFmR55TO303RuUnZ0lww7uYqbfXUCzzgBQnwh8AQAAAAAAAADIcBr2bt2+S/K7t5FD9u9sl9auQwd0M+N33yPwBYD6ROALAEiLF158Ta4Yf60ZdBoAAAAAAAB1Q5txnvHGcjN98nG123dv0EF7dzTNOn/17WaadQaAekTgCwCosfff/8iM7574R/nVlZfKrNnzZMmSb80yAAAAAAAA1K6ZC1fLmvU7pFP7FnJ4gV/rti5os86H2Vq+b8773owBAHWPwBcAUGP9+x8kJxx/jJnefffu0iWns6xbt97MAwAAAAAAoHZNf22ZGY84Ol+aZWeZ6bpy6ICuZvzuQpp1BoD6QuALAEirFStWytZt26RPn152CQAAAAAAAGrLB4vXy5LlW6RNq2byo6Ld7dK6c8BeHaVThxaytGSLlK7aZpcCAOoSgS8AIC0eevhx03/vg/96TC695Hzp1KmjXQMAAAAAAIDaMuN1v+/eYwu7m9C3rmVliRw20DbrPJ9mnQGgPmQVFRVVlJeXS1lZmcz7ZpNdDKC6vp7/suTk5Ni55CoqKuxUeFrHbtD3phu7IbtZS+mR28Vsmy6r1m6Rbjlt7RxQM+vXb5CJd98jJ48cbpp6Tmbjlh2yZj1XfgIAAAAAAFTH92u2y5/v/8L0pXvdmH1MH771YWnJVvnbI19Jt5yWcs3F+9ilaKq6dGotHdq2tHNA3aqNvGNZ6Rop37XD+6zNDg1ZWVmhsRuUjl3e45a5eeXyHzftxl06dzDTauLEiXYqsfHjx9spkcLCQgJfIN0IfAGRF158TUpXrJTzzjnDLgEAAAAAAEC6/f3RL+St+d/L4QXd5PKz6jdoHXNTsaxet0Pu+PXB0qdHO7sUAOpWUw18adIZAFBjjz/xtCxZ8q2Z1hq+s+fMlwGV1O4FAAAAAABA9a1Zv0PeXbDKTI88pocZ1yfXrPO7C1ebMQCg7hD4AgBq7MTjjzV992ofvjdMuE2GDR1UaXPOAAAAAAAAqL7/92aJ7CqvkIP37SS98+u/9b4iG/i+XUw/vgBQ1wh8AQA11qlTR5lww2/k7ol/NMMJxx9j1wAAAAAAACDdtm7fJS/PXGGmTzom34zr25492klut9amWecvltJ9JADUpXoNfAcefKD84pzT7FzYRWedatYBAAAAAAAAAIBIGvZq6JvfvY3036+zXVr/ws06+01NAwDqRr0Evhrm/vqX58tVl54nRxYOlsOHFcgB++5lhsJBh8jRRUPMOt2G4BcAAAAAAAAAAJ8246zNOatTflj/ffcGHTl4NzN+u3iVVFSYSQBAHaiXwPfbZaUy4AcH2DmRMeeeLtePH2OGcRf+3C4Vs83XS7+zcwAAAAAAAAAANG3vLlgla9bvkC6dWob6zW0otEnnPXLbyvqNO2XR1xvtUgBAbauXwPf71Wtk6v97xc4lptusXbfBzlXN7Tf+Wh6dcntomHTb9dJvv73t2uq79spfmH0DAAAAAAAAAFDXnnl9uRn/+Mg8aZadZaYbkqIBXc343fdo1hkA6kq9BL67de0io398nJ0TWfLdcnlz1nx5+c2ZZtrRbbrkdLJzqXOB7JmX/iY0bNm6TX516Xly2NCBZh0AAAAAAAAAAJnk/UXrZMnyLdKmVTP54aG726UNi6t1POu91TTrDAB1pFmvXr0mVHifuuXl5bJ83Q67uHaNOe90yd/db8tfa/H+45EnZO6CD+W9jz6Tt+cUe8dSYfrzVV1zOsucBR+Y6VRooHvo4AHywSeLZMEHn9ilIlu3bTNNRG/fsUMK+veTsRf8XNasXSdLl/l9HWjN3dNHnShLvl0uRx46SH57+UVy2ojj5ZSf/FD232dPeXt2sdlGawl3bN9Ojjl8qNlWayvrcm2WWrcdeeIx0rxZM/lk8ZfmWHTdfnvvaR6z7k9vp8/3767w7m/kCRHbo3G48hfnSJs2bexczehrxY3dkJXdzHsNpmf/zpZtO6VtmxZ2DgAAAAAAAEBDdN9TX8mK1dtl+BF5UtAvxy5tWNq3bS7zP1orpau2yYF9O0r3rq3tGgCofbWRd2zctFUqKnZJVlZW0kG5sQpOqw0bNsiaNWtl06bNJpdt1aqVXSPSpnV4evbs2XYqscLCQjsl8sADD9RtDd/rfzXGNK9ccPCBZv7Tz7+S/z37kuzYsdPMK53WZR999oWZHzrw4FCzzKnQJqA13O3fb7+IJpzfmbNALrzyernvkSflUxuuHrBvXzPW7fJzu8v7Hy+SnM4d5cRjjzDba83gKQ89Ln379JKLzz5N/njXP+TjRV/IstKVMu6aW8y0Brp6W12n2+vt9PauJnGLFi1kz9495fa/P2D21aZ1aznj5OHy/Ktvme1XfL9ahniPEdWnryt9nVRGt9FtAQAAAAAAACDTaM3eDxatN804a3PODZmr5fvuwtVmDABN3br162X9+g2ya1eZlJWVyYYNG2X9hvV2bc3VS5POqfhueamdqhoNYR9/+jkTrGoY68JiDWwdDWVXr10n++zV28xrbWKtZeuC4KBgUBxNQ91ePfLkjXfnmvtVup3u+4jCQWZeaZCs6939asj71IyXzLrPv1oibdu0Tkv/wk3Vi6+/I4/94y9JQ19d98sLfma2BQAAAAAAAIBMM/21ZWasYWqXTi3NdEN1mGvW+f3VpkVPAGjqNm/abKfCNm/aYqdqrsEGvp06trdTVedCWq1B+/Rzr0jZrl1y1KGD5YG7bgnVvA0GrTmdO8kG74nW2+nw5TdLzfYaFLv+gOPJ7d5N2nj7OHn4caFgWYceud3tFvGtW7/BTiEd5i38SE4+9zJ59J474oa+ukwD/4n3/MtsCwAAAAAAAACZZM36HTLT1pY96eh8M27IunZuKfv27iCbt5TJB4vTV4MNADKVNuEcLd6y6qrTwPfTxV+ZPnt37PSbcO7bZw9p366tmQ5q1bKlHHLQAWZa+9zV2+hQHVqT9txxvzNNLmtTz67mrdbm1Vq9WrtXa/pqAOy45pnfmDnPhLca4mpt4XjKynaZUFm3Dw66D9QdrUU98uyx8sj//Tki9NXp8352sgl7tY9oAAAAAAAAAMg0M95YLrvKK6T/fp2ld35smXpDdOiArmb87oJVZgwAqD11Gvhq37w6PDb1OTPfskULuXrsBdIzf3czr7Tv3T9dPz7UOfHDTzwTul0qtCZnsCavo00qb9m6TTp36mjmtSav1uod8IMDTU3feM05a/PMGt7qbbWf3uhml0tX+l9UWkMY9U//Tz8581L516Q/maBXh5+f8hMT9romtwEAAAAAAAAgk2zdvktenbXSTJ90TMOv3etos85ZWSJzPlgju3bRrDMA1KZ6adL5pTfelSXfLTfTe+/ZS/78+6vkLxOuNs0n/2bchbL7bv6VP18t+c70j1sVM+cuNDV5zzh5eERAe+qIH0nXnM4yd8EHdonfrHOfPfJNEKwBsNKgWANj1+ev7kPD3uWlK2NCQ9f887CC/qGAOfr2qFuLv/xGTjzjEnnwb7fKaScdL3fd+7BZBgD/n737gI/ivhP+/5UEAgRCSAhQQ/RmwPQqsA3uBYNxi3uLz/Fj3z9H7nItuTtfnuTuyT3PheQSYjuJe2zHDYNxwcb03jumN6GCEBJCQr385/vbGWm1KghYCc3u5+3XemZnF+1+d3ZnfvP7/goAAAAAAIAbfbP2tEn6as/eawe6p/NRVGRbGdK3s3nv2787Z28FADSHqzaHr+9E7fE9utWZ+1aHc75UmpR98R9/bpK4OgyzM6/u7TdeJ2+8P98M8ezQXr3FJaW1hnPWJO6GrTur5/DVv6F/yxmiWZOHmpB2ehHr9rO55+T5J79nnq9L/ffaOxhXx7GTp+SWB74vv/7D22YdAAAAAAAAANxIh3FetNzTeWrm9ESzdJPqYZ23M6wzADSnkJSUlCqdFLi8vFw2Hy+wNzev6VMnyDMP32vfE/nu0FF7zWPIgL72msgrb30gqzdste/5lyZstSfwXz79srqHL3Cljm1ZItHR0fa9xlVV1TR8cNZ16dz0t+ksnVtoWLgkxsWY5/pLdm6hxEa7Y+4PAAAAAAAAIFis2HxG5r13WGKiwuX3/zpawkJD7Efc4UJhuTz9L1ukTViIvPGLcRLe9qr1QQMQJJoj35GWmSOVFaUSGhpafQsJCaleOjelSyff42zT+6mpTgdFzf/Ya9ZKUlKiWcZ0ifRstMydO9dea9icOXPsNZFJkyZdnR6+y1ZvlNfe+0QyTp+RouISefWtD+Xnv3rF3Oa9/p51EiiSk2kZ8vKbf2m2ZK8aMrBfreGcAQAAAAAAAABoLT79Ns0sZ9yQ4Lpkr+oY0UaG9e8spWWVsnVvrr0VAOBvV605jSZ9//k/fi1fLV0tZ87m2FtFcs+dl6+Xr5V/+6/fNVsiVufl/d3/+amZe/ezxcvsrQAAAAAAAAAAtA479p+T9Kwi6dAuTG6cVHs6RDeZPCrWLNftOGuWAAD/u6rjJ5SWlsknn9fMqevQbfpYc3Hm+X3mb35K714AAAAAAAAAQKuzcJln7t5bUnqYpK9bTbw2RkJDQ2TznhzT0xcA4H8MmA8AAAAAAAAAQCtyIr1Q9hzKM8M4z5iWYG91Jx3WeeSgLlJRUSUbd9WM9gkA8B8SvgAAAAAAAAAAtCILlnrm7p06JlaiOrU16242eVRXs1y3PdssAQD+RcIXAAAAAAAAAIBWIievVNbaidF7bko0S7cbf22MhIWFyPb956SopMLeCgDwFxK+AAAAAAAAAAC0Ep8tT5eqKpGRg7tIQvcO9lZ30zmIx1wTbYZ13rDzrL0VAOAvJHwBAAAAAAAAAGgFtPfrknWnzfrM6e6eu9dXyqhYs1y3nYQvAPgbCV8AAAAAAAAAAFqBr9dkSmlZpfRKiJBhA6LsrYFh7LBoCW8bKrsO5smFwnJ7KwDAH0j4AgAAAAAAAABwlVVUVsnnKzLM+qwbA2PuXm+a7B07NFoqrTjX7aCXLwD4EwlfAAAAAAAAAACuslVbzkheQZnERIVXD38caFJGM6wzADQHEr4AAAAAAAAAAFxFVVUiC5amm/W7pyVISIhZDThjromWDu3CZO+RPMnLL7O3AgCuFAlfAAAAAAAAAACuou37cyU9q8gkQ2+e3MPeGnjCwkJk3PAYk+BmWGcA8B8SvgAAAAAAAAAAXEWfLfP07r11SpyZ6zaQpYzqapZrt2ebJQDgypHwBQAAAAAAAADgKjmRXih7D5+XsNAQueuGeHtr4Bo5uIvpyXzgWL6cPVdqbwUAXAkSvgAAAAAAAAAAXCXzvz1llteN7SZRndqa9UAWGhoik+xevut20MsXAPyBhC8AAAAAAAAAAFdBTl6prN9xVkJCRGbdmGBvDXwpI2PNcu025vEFAH8g4QsAAAAAAAAAwFWwcFm6VFWJjBocLQndO9hbA9+wAZ2lY0QbOZJawLDOAOAHJHwBAFesuLhEfvM/r8oP5/yzub359l/sRwAAAAAAAFCfC4Xl8u3602b97unB07tX6bDOKfawziu3nDFLAMDlI+ELALhiK1aulRuuT5HfzP0P+eV//pvkncuTxV8vsx8FAAAAAACAr6/XnZbSskrplRAhQ/t3trcGj5RRnmGd121nHl8AuFIkfAEAV+y2W6fLiBHDzHr79u1k0KABknk6y9wHAAAAAABAbeUVVfLlygyzPvumJLMMNkP6dpaoyLZyIr1QMrOL7a0AgMtBwhcA4Fc6vPOBA4ckrkd3ewsAAHCrU6eL5F9+u0ee+Zct8txLW+VXbx20HwEAAMCVWLX5jOQVlElMVLhMGukZ2jjYhITU9PJdxbDOAHBFSPgCAPzqLx9+apY6xDMAAHC3Vz84IvuP5sv5gjLJySuV9TvOyuvzj9mPAgAA4HJUVYksXJ5u1mdOTzCJz2DlzOO7eivDOgPAlSDhCwDwi7y88/LSz/7LrP/w/3vODO0MAADcLS2ryCxfemGouant350zSwAAAFye7d/lSrpVzuoY0UZumtTD3hqcBvaOlK5dws2Qzjq0MwDg8oSkpKRUVVZWSnl5uWw+XmBvBnC5jm1ZItHR0fa9xlVpcz6bs65L56a/TWfp3ELDwiUxLsY811+ycwslNjrCvgdcuhMnUuX1N9+Tp598WHr16mlvvbj8wlLJyWOOFgAAWquXfndACgrLq5O9L83bKz1i28mPn+5v7gMAAODSvfz+cTmSekFunNhNbr+OKbE+X3FaVmzKlukTY+WO64I7AR4oYqLaS2REuH0PaFnNke9Iy8yRyopSCQ0Nrb6FhIRUL52b0qWT73G26f3U1FNm3bpn3bfXrJWkpESzjOkS6dlomTt3rr3WsDlz5thrIpMmTSLhC/gbCV8Eozff/ouZs/e2W6fbWwAAQCD42//aKSczave0mD6huzz/vX72PQAAAFyKI6kF8o+/2m3W//SzsRIV2dasB7NjaRfk7//fLunRtb387qej7K0AcHmCNeHLkM4AgCtSXFwieefy5KvF38oP5/xz9e03//OqeQwAALhTUXGF5OSVmfX27UKlXVvP5ePx9AvVF6cAAAC4NAuXeebunT6xO8leW5/EjhIX215Ony2WwyfplAYAl4OELwDgiuhcvTpn72/m/ketG/P4AgDgbn/46KgUFJbJyMFd5J3/M0He/M/xkti9gxxNvSALl6XZzwIAAEBTZZ0tkQ07z4p2+Jo5LcHeCjV5VFezXLf9rFkCAC4NCV8AAAAAQC2b9+TImm3Z0jGijfz1I575etuEhcicJwaaCsoPvkqVtKwisx0AAABNs2hluhkpZfQ10ZLQvYO9FSplVKxZrtp6xiwBAJeGhC8AAAAAoNr5gjKZ9/4Rs/7CQ/2kc6eaoQZ7JUTIvbckSXlFlcx966BUVDK2MwAAQFNcKCyXZRuyzPrd9O6tIzk+wgzrnJdfJvuP5dtbAQBNRcIXAAAAAFDtt+8eNhWS143tJuOGxdhba9x3S5JJ/J5IL5SPvj5lbwUAAEBjFq/JlNKySumf3Emu6dfZ3gpv14/rZpbrtmebJQCg6Uj4AgAAAACM5ZuyZMf+cxLdOVy+f28fe2ttYaGeoZ11iOf5S06ZOX0BAADQMB0d5avVmWad3r0NmzLaM6zzuh1nzdDXAICmI+ELAAAAAJDc86Xy2ifHzPoPHxsgHdqHmfX6JHbvIA/dmWwq4n719kEpK6+0HwEAAICvFZuyJK+gTLp3bScTR3S1t8KXDuncO7GjGdZ575E8eysAoClI+AIAAAAA5DfvHJKS0kq5JaWHDO1/8WEGZ9yQIIP6RMrp7GJ59/OT9lYAAAB40wZyi1ZkmPUZ1ydISIhZRQNSRnkS4uu2nzVLAEDTkPAFAAAAgCD35aoM2Xv4vMRGt5MnZ/W2tzZOKyv/5rEB0i481Pz7A8fy7UcAAADg2Lo3V9KziqRjRBuZPrG7vRUNmTrGnsd3x1mprGRcZwBoKhK+AAAAABDEtIfunxedrE7gtm3T9MtETRA/PrO36bnya7uHMAAAAGosXJ5mlrdNiZPwtlTHX0zXLuHSP7mTXCgsl10HGdYZAJqKMwwAAAAABCnvOXhnTPMM0XypbpnsGQI6O7dEXv/UMwcwAAAARA6fLJD9R/OlTViI3D41zt6Ki0kZHWuWa7dnmyUA4OJI+AIAAABAkPp0aZocTb0gid07yEN3JNtbL90PHxsgHdqHybINWbJj/zl7KwAAQHBbuCzdLG8Y312iOrU167i4qaNjzegzG3fmSEUFwzoDQFOQ8AUAAACAIHQivVA+/CpVwkJDZM4TA03Pk8sV3Tlcvn9vH7P+23cPmyH4AAAAglnW2RLZuOusSVzOuCHe3oqmiIpsK4P7dJaikgrZTmNCAGgSEr4AAAAAEGQqKqtk7lsHzfK+W5OkV0KE/cjlu25sNxk3LEbOF5TJHz4+am8FAAAITp8tTzfTZ4wZGi0J3TvYW9FUk0d1Ncu12xjWGQCagoQvAAAAAASZD75KlbSsIunbs6Pce3OSvfXKvfBQP+ncqa2s235WNu/JsbcCAAAEFx3tZPmmLLM+c1qiWeLSOMM6b9qdI6VllfZWAEBDSPgCAAAAQBDROXsXLE0zQzj/6PGBpiLNXzpGtJG/fqS/WZ/3/hHT2xcAACDYfLU60yQp+yd3ksF9I+2tuBRarhw2IMp8jtv25dpbAQANIeELAAAAAEGirLxSfvX2QTO84CMzekmP2Pb2I/4zcnAXuX5cN9OzRefzBQAACCblFVXy+aoMsz5zeoJZ4vJMHmkP67z9rFkCABpGwhcAAAAAgsTbn52Q09nFMqhPpNx5Xby91f+emd1HojuHy47952TZBs9whgAAAMFg+cYs0/Cte9d2MuFaT8ISl2fSiK4SGhpievgyrDMANI6ELwAAAAAEgb2Hz8vi1ZnSLjxU/uaxAX4dytlXh/Zh8kPrNdTrnx6T7NwSsw4AABDIdBSVBcvSzPrd0xKatbwVDHRY5xGDPMM661y+AICGkfAFAAAAgABXVFwhv3nnkFl/6p4+Ehvdzqw3p6H9O8ttU+KkpLRSfm29tlaAAgAABLLNe3Ik62yJSVROG9/d3oorMXlUrFmu3Z5tlgCA+pHwBQAAAIAAp71sc8+Xmvl1b5zYcpWPj8/0zBN84Fi+fLXaM5cdAABAoPpsebpZ3j41TsLbUvXuDxOujZGwsBDZ/t05KSqpsLcCAHxx1gEAAACAAKbz6K7YdMb0NPnrR/rbW1tG2zah8qPHB5rhDP+86KSZPxgAACAQHT5ZYBq5tQkLkbuui7e34kp1aBcmo4dES0VFlWzcybDOANAQEr4AAAAAEKAuFJbLb989bNafva+PdO7U1qy3pL49O8rM6YlSVl4pv3r7IEM7AwCAgPTpt565e6dN6G4a2sF/Jo/qapYM6wwADSPhCwAAAAABat77R+R8QZmMGxYjKfb8Z1fDg7f3lMTuHeRo6gWZv+SUvRUAACAw6Ly9On+vjmoya3qivRX+Mn54jBkie9fBPNOgEQBQFwlfAAAAAAhAq7dmm4pH7dX7wkP97K1Xhw5tOOeJgRIWGiIffX1KTqQX2o8AAAC438JlaWYUE21k171rO3sr/EWTvWOGRktlZZWs33nW3goA8EbCFwAAAAACTO75Uvnjx0fNus7b2xqGFeyVECH335okFZVVMvetg1JewdjOAADA/bTH6bKNWWb97mkJZgn/c0arWbudhC8A1IeELwAAAAAEmN+8c0iKiitk+oTuMnJwF3vr1Tf75iQzp29aVpF88FWqvRUAAMC9vliVYRqy9U/uJIP6RNpb4W9jh0ZLh3ZhsvdwnuTll9lbAQAOEr4AAAAAEECWrDstew+fl9jodvL07D721tZB57X70eMDpW2bUDP0oc7pCwAA4Faa6P1ydaZZv+cm5u5tTmFhITJ2WLQZOnv9Dnr5AoAvEr4AAAAAECCyc0vkrYXHTWL1bx4bIO3CW98lX4/Y9vLojGRTWfertw9KWXml/QgAAIC7LNuQZYZ01nl7df5eNK/qYZ13ZJslAKAGCV8AAAAACACaQP31O4ekpLRSbp8a36qHFHTe3+nsYnl74Ql7KwAAgHto2Wvh8jSzPnN6omlwh+alU5XosM4HjuUzrDMA+CDhCwAAAAABYNGKdFP55fSgbc28eyAvXpNphqAGAABwk027cyTrbIl0jGgj0yd0t7eiOemwzpNGdjXJ9tVb6eULAN5I+AIAAACAy6VlFcn7X5ysNUdua2fmGL7HM8fwb945JEXFFWYdAADADRYs9fTuvfO6eGkTRvfeljJ5VFezXLudhC8AeCPhCwAAAAAuVlFZJXPfOijlFVVyz02J0rdnR/uR1m/6xO5maL7c86Xy2vxj9lYAAIDWbf+xfDl8ssAkeu+YGmdvRUsYPiDK9KrWz//suVJ7KwCAhC8AAAAAuNgn35ySE+mF0ishQh64rae91T3++pH+ptJu5eYzsmP/OXsrAABA6/XZsnSz1MZrWo5BywkNDZGUkZ5evqu3njFLAAAJXwAAAABwLU30zl+SZnqXzHlioISFum84wc6d2soLD/Uz679997BcKCw36wAAAK2Rztu7ZW+OmUpj5rREeyta0uRRsWa5dhvDOgOAg4QvAMBvFn+9TF762X9JXt55ewsAAGguOoSzDuWsQzo/eHtPSezewX7EfcYNizHzsZ0vKJN57x+xtwIAALQ+ny5Nk6oqkfHDY6R713b2VrSka/p1lqjItnI8vVAys4vtrQAQ3Ej4AgCu2M6de+SHc/5ZTpw4Ke3bc7EDAEBLePfzE5KWVWTm7J053f29S/7qvr6mt+/mPTmyagvD8wEAgNYnr6BMVmzKMuuzbqR379WivatT7F6+q7fSyxcAFAlfAMAVGzFimPxm7n/IbbfeaG8BAADN6cCxfPliZYa0bRMqP3p8oKn0cjud/07n81V/+uSY5J4vNesAAABX2+5DebJ80xn5n3cOmVFWBveJlP7JnexHcTVMtufxpaEgAHiQ8AUAAAAAFykprZRfv3PIDCX4+Mxe0iO2vf2I+40c3EWmT+wuRcUV8hsrRgAAgKtt/Y6z8rPf75Pfv39Ydh3Ms7fiahvUJ1K6dgk3QzqfzCi0twJA8CLhCwAAAAAu8vbC45KdWyLDB0bJbVPi7K2B46lZvU3l3d7D52XJutP2VgAAgKtjx/5zZjlldKzMuCFB2oWHyv5j+ZKVU2K24+pJsfaJWrudYZ0BICQlJaWqsrJSysvLZfPxAnszgMt1bMsSiY6Otu81rkq7ZdicdV06N/1tOkvnFhoWLolxMea5/pKdWyix0RH2PeDynTiRKu9/MF+ef+4piYrqbG9tWH5hqeTkFdv3AADAxRw4ViB//OiEqWj8+2f6S1RkW/uRwHLsVKHMe++YtG0bKj9+up/ERIXbjwAAALSsl98/LkdSL8hLLwyVof07y0vz9pqGac8/1Fv69exoPwtXw6nMIvn120dNWfGfnxtgb0VrEBPVXiIjKMPj6miOfEdaZo5UVpRKaGho9S0kJKR66dyULp18j7NN76emnjLr1j3rvr1mrSQlJZplTJdIz0bL3Llz7bWGzZkzx14TmTRpEglfwN9I+CKYXWrCFwAANJ0Oc/zD/7NDcvNK5cWH+8v147rZjwSmNxccN/MU63B9P///htlbAQAAWk5xSYX8+P/tMsMGj74mWjp3aiMbd+ZIkbX95X8dLbHR7exn4mp58Rfb5bS1f375t9dK3yQS8ACCN+HLkM4AAAAA4AJ/+OioSfbqPLeBnuxVj9yVbOYnPnAsXz5bnm5vBQAAaBlHUy/Ij/5rp0n2qm37cmXFpjMm2TtpZFeSva1EirUv1NptDOsMILiR8AUAAACAVm7znhxZsy1bOka0kb9+pL+9NbC1bRMqP3p8oGiD6Pe/OClpWUX2IwAAAM1He119tixd/vk3u+VMTomMGNRF/u6pQfLsfX3k4TuT5W8eGyA/emKg/WxcbczjCwAeJHwBAH7Tq1dP+ce//yHDOQMA4EfnC8pk3vtHzPoLD/WTzp0Cc97e+vTt2VFm35wk5RVVMvetg1JRWTMlCgAAgL/lXyiXn/1+n7yz6IToIJxPzOotP/3BEJlwbYzckhIn99yUWJ1gROuQHB8hcbHt5ey5UjMyDAAEKxK+AAAAANCK/fbdw3KhsFyuG9tNxg2LsbcGj/tvTZJeCRFyIr1QPv7GmfMIAADAv/YczpM5v9xhlt1i2sl//mi43HV9vP0oWjMtJ6t1O86aJQAEIxK+AAAAANBKLd+UJTv2n5PozuHy/Xv72FuDS1hoiMx5YqC0CQuRT745ZRK/AAAA/qIjiLz7+UnTszcvv0wmj+wqv/r7EdI7oaP9DLR2U8fUDOusQ3IDQDAi4QsAAAAArVDu+VJ57ZNjZv2Hjw2QDu3DzHowSuzeQR68vaepwNOhnXWIZwAAgCulwwD/8693y4KlaRLeNlReeLi/aWjWvl3wlrvcSId07p0QYRL2+46ct7cCQHAh4QsAAAAArdBv3jkkJaWVcktKDxnan/nxZ05PNHP6pmUVybufn7C3AgAAXJ5Nu3PkR7/cIUdTL5hk4X//eITcMM4zNDDcZ/IoTy/fdduzzRIAgg0JXwAAAABoZb5anSl7D5+X2Oh28uSs3vbW4BYSIvKjxwdK2zah8sXKDDlwLN9+BAAAoOnKyivl1Q+Pyv99/YAUFlfIHdfFy//50bXSI7a9/Qy4kTOP79odZ6WyktFgAAQfEr4AAAAA0Iqczi6Wdz47YRKcf/PYAJPghIdWxD4xq5cZ2vnXdg9oAACApkrPKpK/+7+75Nv1p6VjRBv5p2cHy1P39JawMKvgBVfr2iVc+id3kguF5bL7UJ69FQCCBzUHAAAAANBKaCLzV28fND1PZkxLkEF9Iu1H4Lg1Jc4McZ2dWyJvLjhubwUAAGjcknWn5cf/b5dJ+g7uGylz/2GEjL4m2n4UgSCleljns2YJAMGEhC8AAAAAtBKfLk0z88gldu8gD92RbG+Frx8+NkA6tA8zvXN06GsAAICG6LDNOnzzHz46KuUVVfLAbT3lZy8Ok+jO4fYzECimjok1o+Ss33FWKqx9DQDBhIQvAAAAALQCJ9IL5cOvUiUsNETmPDFQ2jC0YIO0gvaZ2X3M+m/eOSRFxRVmHQAAwNvBE/nyo1/ukE27c0z54d9fGCr335pkkoIIPFGRbWVQ70gpKqmQHfvP2VsBIDiQ8AUAAACAq6yiskrmvnXQLO+7JUl6JUTYj6Ah14/rJiMHd5Hc86Wmxw4AAIBDp8n49Ns0+df/2Stnz5WaoZt1CGcdyhmBzRnWee32bLMEgGBBwhcAAAAArrIPvkqVtKwi6duzo9x7S5K9FRfz14/0l44RbWTNtmzZvCfH3goAAIJZXn6Z/Oz3++S9L05KaGiIPD27j/zTs4NNmQGBb9LIrqYH95Y9uQzrDCCokPAFAAAAgKtI5+xdsDTNDOH8o8cHMsTgJejcqa288FA/sz7v/SNyvqDMrAMAgOC088A5mfPLHbLncJ70iG0vv/zb4XL71Dj7UQQDHdZ5aP8oM6zzlr259lYACHwkfAEAAADgKikrr5RfvX3QDDv4yIxepmISl2bcsBi5bmw3uVBYLr9997C9FQAABBOdFuOdz07IL179TvIvlMsN47vJf/94hPSMY5qMYJQyqqtZMqwzgGBCwhcAAAAArpK3Pzshp7OLZVCfSLnzunh7Ky7V9+/tI9Gdw2XH/nOyfFOWvRUAAASDMzkl8s+/3i2fLU+XduFhMueJgfLCQ/2tdaq+g9WkEV3NcN5b9+ZKaVmlvRUAAhtnPQAAAAC4CvYePi+LV2eaysi/eWwAQzlfgQ7tw+SH1meoXvvkmOSeLzXrAAAgsK3bcVZ+9F87zRQZvRMi5Fd/P0Imj/T07kTw0vmarx0YZZK9m/fk2FsBILCR8AUAAACAFlZUXCG/eeeQWX9yVm+JjW5n1nH5hvbvLLdM7iElpZXVny0AAAhMOi3G798/InPfOmid+yvkrhvi5f/86FrpFkOZCh4po2LNcu22s2YJAIGOhC8AAAAAtLDXP/X0Qh05uIvcNKmHvRVX6sl7PMlz7T391epMeysAAAgkqZmF8nf/d5eZxiGyYxv5yXND5ImZvSUsjOFSUGPCiBjzndj2Xa4UlVTYWwEgcJHwBQAAAIAWpPPMrth0xgxD/NeP9Le3wh/atqkZHvsde35kAAAQOBavyZR/+O/dkp5VJIP7RsrcfxgpIwZ1sR8FanRoFyajhnSRiooq2biLYZ0BBD4SvgAAAADQQi4Ulstv3z1s1p97oK907tTWrMN/BvWJlBnTEsxQj796+6BUVdkPAAAA19Iy1H/+cb+Zq7+yskoeuiNZfvbiMImKpCyFhjnDOq/bnm2WABDISPgCAAAAQAuZ9/4ROV9QJuOGxVRXQMH/tBI4sXsHOZp6QRYsTbO3AgAANzp4Il/m/HKnbNuXK127hMvP/r+hMvvmRDOiB9CY8cNjJLxtqOw8kGcaDQBAICPhCwAAAAAtYM22bNm8J8f06n3hoX72VjSHNmEhMueJgRIWGiIffJUqaVlF9iMAAMAtdJSOj78+Jf/yP3sl93ypSd796h9GysBekfYzgMZpsnf0NdGmV/j6nWftrQAQmEj4AgAAAEAz00rKP3x01KzrvL0dI9qYdTSfXgkRct8tSVJRWSVz3zpolgAAwB207PSvv9sjHyxONQ24nr2/r/z46UES0T7MfgbQNCmjuprluh0kfAEENhK+AAAAANDMfvPOISkqrpDpE7rLyMFd7K1obvfekmQSvyfSC01PXwAA0PrtPHDODOG8/2i+JHTvIL/82+Fyy+Qe9qPApdEevtrTd88hhnUGENhI+AIAAABAM1qy7rTsPXxeYqPbydOz+9hb0RJ0bj8d2lmHeNa5fHVOXwAA0DpVVFTJG58el5+/8p1JzN04sbv8vx9fKz3jIuxnAJdOk706HLgOEb56W7a9FQACDwlfAAAAAGgm2bkl8tbC42b9bx4bIO3CuQRraYndO8gjd/UylXy/evuglJVX2o8AAIDW4nR2sfzjr3bJl6sypH27MDN88w8e7Cdt21B2wpVLGR1rluu2M6wzgMDFGRMAAAAAmoEmGH/9ziEpKa2UO66Ll0F9Iu1H0NLuvN7z+Wtl8jufnbC3AgCA1mDl5jPyd/9vlxxPL5S+PTvKr/5+hOmRCfjLqMFdpEO7MNl/7Lzk5ZfZWwEgsJDwBQAAAIBm8PnKdDlwLF96xLaXR2ck21txNejQzk4P669WZ5ohtgEAwNWljeLmvnVQfvfeYWu9QmbdmCj/8TfDpVtMO/sZgH+EhYXIhBEM6wwgsJHwBQAAAAA/S8sqkvc+P2kSjT96fCDDEbYCOofyk7N6m/Xf2D2vAQDA1XE8/YL87f/dKet2nJWoyLbyr//rGnnkrmQJC7UKT0AzSBnlDOtMwhdAYKLWAQAAAAD8qKKyyvRWKa+okntuSjRDE6J1uGlSDxk5uIvkni+V1z45Zm8FAAAt6YuVGfJPv9ptploY1j9K5v7DSLMEmtO1A6OkY0QbOXSiQM6eK7W3AkDgIOELAAAAAH70yTen5ER6ofRKiJAHbutpb0Vr8deP9JcO7cNk+aYs2bH/nL0VAAA0twuF5fLzV76TNxcclyrr/qMzepmevZEd23ieADSj0NAQmTyyq1lfvfWMWQJAICHhCwAAAAB+oone+UvSpE1YiMx5YiDDErZCnTu1lb+6v69Z/+27h03lMwAAaF77j+bLnF/ulJ0Hzpk5ev/jh8Nl5vQEM/0F0FImj/IkfNduP2uWABBISPgCAAAAgB/oEM46lLMO6fzg7T0lsXsH+xG0NlNGx8q4YTFyvqBM5r1/xN4KAAD8rdIqF33wVar86+/2mCkVxg+PkV/9/QimvMBVMbRflJkz+njaBcnMLra3AkBgIOELAPCLxV8vkx/O+Wdze/Ptv9hbAQAIHu99flLSsopMBebM6Yn2VrRWLzzUz/T23bwnR9Zsy7a3AgAAf9EE77/8z175+JtTEt42VH7wYD/58dODpH27MPsZQMvSHuXOsM6U/wAEGhK+AIArtnPnHtmwcYv87KV/lF/+579J3rk8kwAGACBYHDiWL5+vTJe2bULlR48PZHhCF+gY0cbM56v+8NFRUykNAAD8Y9u+XDOE88ET+dIzLkL+62+vlRsndrcfBa6eyaNizXLlZubxBRBYSPgCAK7Y9p17ZOKEsRIV1Vnat28nN1yfIgcOHJLi4hL7GQAABK6S0kr59TuHpKpK5PGZvaRHbHv7EbR2Iwd3kWnju0tRcYX8xtqHAADgypSVV8prnxyT//zjfjNP/i0pPeSXfztcEpjqAq3E4D6RZlhnHdL5ZEahvRUA3C8kJSWlqrKyUsrLy2Xz8QJ7M4DLdWzLEomOjrbvNa5KawVtzrounZv+Np2lcwsNC5fEuBjzXH/Jzi2U2OgI+x5waTSp+9bb78ttt94ovXr1NNtOnEiV9z+YL88/95RJArcG63eclQXL0uRo6gXTunjiiBh54DbP+w0kGudny9MlNbNQYqLCzRyFxOle3nHqsKP9kzvJj54YaD8aOIIlzlOni+TVD4/KifQL0imiDXG6nHecYhXjikoqZGj/zvLSC0PtZ8AtNGH/v/73NjOfb4d2YdKhfZgM6hMZwN/bI5KepXPWVZnK9+ce6CdJPQKrEr4mziLrXogVZ/uAjFP96q2DZoQBnUOcON1P4zx8skAKCsulV0JHK86+xOliwRannke7x7STouJKyT5XIhHW+fSFh/ubOXuB1uYnv94tB08USJuwEOmd2FHunpYgk+yhngPJh4tTZcPOHHOtrdPOzJqeGJBxAr6aI9+RlpkjlRWlEhoaWn0LCQmpXjo3pUsn3+Ns0/upqafMul6L2Q+b7UlJiWYZ0yXSs9Eyd+5ce61hc+bMsddEJk2aRA9fAMCVKSkpkdxzefa91ikrp8RchGqyV2lB96OvT8mWPbnmfqC4UFRefbGtldcZZ4pNnKu3Bta8NMEa5xnre6yJ0T8vOmk/IzAES5zq9+8fkf1Hz5uehMTpft5xarJXBWIlbjBoFx5qenko3Zc5eaXme/v6/GNmWyB59QP93uabSvnzBeVmXbcFmpo4y02sgRqnfkf1u6rfWeJ0Pz1Xapx67tRzi55j9FwTaIgzsHjHqWX51Mwik+zt17OT/OofRpLsRaukdQea7FXakEivRfWaVK9NA4nWeWldidaBKa0T0zi1jgxAYKKHL+Bn9PBFsHFDD9/lm7LMxbW2YtTeOlrA1YvSQNUtpp38+wtDTYzvLDphbw08xBlYiDOwBGucWqn546cH2Y/CTZ7+6RbJv1BW3UP7pXl7zTJQEWdg8Y5TOxDYl5YBJ1jifGxGL3Pd8m9WnJpEC1TEGVh84/y/f3et6TUJtEbz3j8iKzZlBc3vU2P0rgv7Xw/1M1OaAIEsWHv4kvAF/IyEL4KNJnxf/cObZt7eESOGmW07d+6RFSvXynN/9aSZ07chP5zzz/Za8yqSBMmVMXLTpB5mGC0dgvPb9aftRwNPQrcO8teP9pdTmUXWhcxhe2vgIc7AQpyBJVjj7CDpEi1b7UfhJqdDbpWKqnASoQGGhG9gCZY4X3iovyTFdZDf/vmwpJ/RYckDE3EGFt84u8lKaSvn7UeB1iVPhssF6R00v0/fujC9XtHrlpbwm7n/Ya8BLYuELwlfwC9I+CIYeSd4lW8CuCGa8G2Jwt/Zc6Xyg3+vWwH/T88OltHXNO33eiVaKs7C4gp54p822fdqaEtObdHZ3IjTvxqKc9aNifLIXcn2veYTLHGqlor1J7/ZIweP59v3PIjT/4gzsLRUnP/y2z1mmFhvd10fL0/M6m3fa15XM87BfSPlf/9142U2fyFO/3prwXH5fGWGfc+DOP2vpeJ89/OTsmBpmn3PY2DvSPnFD4nTn4jTv+qLU731n+PNHL7NraXivNqI07+0l6v2dvUVaN/bbfty5T//uN++V+OVfxsjXbuE2/eaT7B8b9E6BWvClzl8AQBXTBO7UV2i5B/+6d/NbdCgARdN9rYkLchqMrBXgudEn9C9g9x/a1KLJHtbkl6YaJx9EjtKu/AwiYttb+JsiSRoSwrWOPV7rDG2VDKppQRLnOr57/WTQX0izXyhxOl+wRJnsHjugX4y2NqfkR3bmPl8dX+2VLK3JTlxdu7Y1tx0XbcFmmCJU7+j+l3V76x+d4nT3fQconHqOUXPLXqO0XNNoCHOwFI7zjBTpteyfUskzYDLpd9ZrUPQuoRA/t5qnZfGqXVgSuvENE79vQIITPTwBfyMHr5A09FKNbAQZ2AJpta47NPAQpyBhTgDC3EGFuIMLMQZWIgzsBBnYCFOoPnRwxcAAAAAgCDhNKgEAAAAAMDt6OEL+Bk9fIGrT383O3bukb379kuXqCiZOmWiREV1th8NLIcPH5XNW7ZLu3btZPKkcRIX18N+JLAQZ2AhzsBCnIElv6BAVq5cJ/n5+TJu7Cjp37+v/UhgKSoqljfefE+GDBko026YYm8NPHl552X5ijVWvEUydOhgGTZ0iGmBHmiIM7AQZ2ApKSmRZcvXyNmcHBlgnVNGjbxWwsPb2o8GDuIMLBrnmrWbJCMzU4ZeM1hGjhhW3UMrkDhxZmVlBfxxKBjiDKa6MOBigrWHb1hycvJL+oc0kZR+rtR+CMDl+pu/elw6dPDMjXClnIOCLp1bSGiYdO7kn7/vKCwuk4gOgVdAR/D6dulKWWsV5ocPHyLf7T8kX361RGJju0qPHt2qT7KBQAvyn3z6ublgOX36jCxc9JWEhYVJ7149idOFiJM43Yg4AyvOs2dz5OVX35SY6C7Stm1bWfTF15KQECfdusXazwgMTrK3u1UuuO2W6QFZ4adyc8/Jq394S7p2jZaIiAhTHjp2/KQMHjQgoCrniZM43ShY4iwuLpE/vfaOVFRUWOeTeFm6bJVs27ZLBg3sb8Xt33qNq4k4AytOLSf88U/vSGlpqcTFdZcvvlxiykVa7gsk3nHGx8fJ198sk917vjPHofbt29nPcr9giVMFS10Y0BTNke/ILyiSqqoK83tq7KacpfJeP3/+vL1WW+fOnsYZHbyOSxs2bLDXGqZJXsdrr71GwhfwNxK+wNVVWFgkS5eukgfun2labY4fN0o6dewo8z/93LRsTLAK+N4nWrfSi+zFi5fKTTdeb8U4WkaOHC7JPZPks0WLrQuZMunXtzdxughxEqcbEWdgxak+/+IbGTJ4gNx2640y2FpqUnvnzj2mV0ugJEVLSkrlzbfel+joLnLv7LtMjIFq5669ZnnfvTNk4MB+psf21m07Zfv2XTJs2JCASSoRJ3G6UbDEqUls7cny6CMPyID+fWTSxLFy/ESqLFu+2iRbOnYMjJHGiDOw4ly3fpP1/xB56HuzpV+/PtKjR3dZs2a9jLDKQ5r4DRT7DxyU06ez5fHHHrTi7C0Txo8xo9ns2r1Prh0+1Iq1jf1MdwuWOIOlLgxoqmBN+AZmU2YAQFArKy+TwqIis64n1UmTxsl9994tCxd+ZS5SA4UmIQoKLtj3xFTOP/PUo7Ju3SZTYRQoiJM43Yg4idNtdIofbQR8zZBB9haRvn16mW1lZeX2Fvdr1y5cxo0bZcoD587lmSH+Pvxoofztj/9Vfvqv/2GSME6jy0CgQ3PrPlRa2ffsM49p4Ug+mb/IfK8DBXESpxsFS5x6XabnGKXTIjzy8H3Sq3dPeff9j03Pu0BBnIETZ35+gYwaNdz6OXoq6HsmJZgGYmVlZeZ+oLhwociKyzMkqerQob0Zpru4uFg+XfBFwByHgiVOFSx1YQAaRsIXABBQdCipfn37mPkHvQvuo0ddK1OnTpRFn39thqJyO73g1BbGa9dusC5gapIQffoky6xZd8iSb1dKTk6uvdW9iJM43Yg4idON2rRpI/ffd7cZXtRxoVArjEKszyCwLhu1TDB61HB546335fcvvy4F1n79+797Ue68/Wb5+JPP5NDho/Yz3a1/v96SlZUtR44et7d4KjkfeeheOZWWUd3D0O2IkzjdKFjiTEpMkMqKStnlFY+eV++9Z4ZZrly1zt7qbsQZWHHecftNZgQXx4XCQtMYIzTAykM9eyaYHtpbtu4wjd10ag9NCs66+w5JS88wjwWCYIkzWOrCADSOIZ0BP2NIZ6DlHT581MzDcujQUYmOjjI9klauXGuGtHGG2tRb926xpieWzr2jrejdxjfOXr2STWWQXqwMGTzQXGSr2K5dZd++AxId00V6dO9mtrkJcRIncbZewRJnXt55Wfz1Utm+Y5cpfw0eNNAM+xZocWqFl/ZWceYv054PTm8WpYkI7QF77bVDzeewbv1m2bRpq+nh7P281k4rt15/412ptGJwhrPr0ztZTp5MlU6dOpneSZGRkdKzZ6KcP58vp05lyLChg+1/7R6+39teVnlH56tbsmRFraE2tUJQe2cdOXpMRlj71m2IkzjdGKceS7WB0EbrGKq9IHtb50+NJ9Dj1HleO0V2MnPf90pOkpgYT6MiHUK1Y8eOZr+PuHaYtGnjOa+6BXEGVpyaHPvo48+s83+a9O3bu055KPN0lkkMjh0z0pQB9313UD7/4mszKoqbYvXdn5ocjLHKsB9+tEBWrVovq9esl8mTxsuY0SOsY3O+GXbUO/HtFjrliiZ3d+zYY+au7dYt1tT/BFqces7csXOPmUv75Mk0E6uWZQOxLgy4HAzpDACAC2kB9/0PPpX4+DhTSfvfc38v27bvkkceuc9USn8y/3NT4Ffae8mtc+7UF+fadRvl4e/NlsyMLHnz7fflwoVC81ztiRUeHm7W3YY4idONiDOw4szNPSevvPqmqUTRi673/zJf/vzeRzJ71p0BFafS8+W8l183id/66JDHWimkn4Ume1etXi/XTZ3syvl8tWLzL9b31+ndoRW233twtpmfz0ngO3TYZ7ep73v7p9f/LOPHjZFBgwfIy6+8LseP1wzl18FPDVRbGnESpxtpo5M//ukdOXMmW+Lj4uSrxUvlN//zqpk7MhjiTEyIl+nTpsrrb75nyhK6v5Uea914PiHOwIpT6fvWZOjir5fJ198srx5q3VFolfu0HkFvmuzVYdevmzrJVeWFhvZncs8k+dlL/yTPPvu4/MtP/k6m3TClOjFRUVH7c3ADLe+9+oc3zbQrhw4dkXm/f82ca7SXayDFqb5dutI0GtIkrjZK/c9f/lpOnDwljzxyf0DVhQG4NPTwBfyMHr5Ay9GWuIutC5Wbbrxexo8bLSNHDjcXLJ8tWiwd2neQ22+/SZYuXSWr12wwPQW00N85spNMmjjOVRejjcWpldR3z7jNVNprrzu9wNm+c7cZnvLGadeZ1tZuQZzESZytV7DEqbTHsrrv3hkycGA/GTd2lGkR/913B+Shh2bLrl37AiJO7dm7YtU6E8fWbbvkmiEDTc8yb4ePHJPCwkLJyTlnzqXPPPWIdO8eaz/qHlrJpT0feiYlmqR1pFUW0J6+WhZwKvvUsWMnZdnyVXLnHTdb5YVIe6s7NPS93Wl9R2ffM0PKrd/wRx8vlPSM06ayd936TXLHbTebnvpuQpzE6cY4tSI+NfWUPPrIAzKgfx/rWmSsGUJ0xYo1MnPG7dY1fmhAx7l8+Wq59Zbp0i22qxk2/+ChI6bhlPZKmzploumR5ibEGVhxKi0LnMs7LxEdOsiBA4dq9Y5Up09nyQkr9nbh4WbOV23s2K9fH/OYWzS0P5dZ+3PY0CGSmBBX3YhRGwIu+XaFXH/dZOnSxV3HIR0xItb6bj76yP0yfvxoMypRp44REhfX3ZQHu0R1Dog49TuqdV0P3D/T7L/x40ZZcXaU+Z9+LsnJSXL99SkBURcGXIlg7eFLwhfwMxK+QMvR38S2bTslOrqLJCUlmG1auO/Tu5dJQiRYFy1aWaRDpJ1MTZM+fXrJLTdPd12l/MXi7NY9Vmbdfbt069bVDEMVZRUS7rnnTutY1N481y2IkziJs/UKljiVzp2oFWKa1NYKER3uWHthaUI73XrsqScfMkOmuT3O9PRM2bFjtzz7/cdMgmHZ8jV1kr7h4W3ls88Xm8/k2Wcec2Wy11FSWioFBQVy683T5IOPFpik75kzZ00lbtfYGFlkfY+1kvCB+2aZqSHcprHv7YkTJ63y0J1meFidM1Qr5rWRRnKy+yrliZM43RinzvO+77sDMmrktdZ1SFuTdBg2bIikpqXLps3b5P77ZpreZ4Ecpw4he9edt5phVHUI1ZycHJl+w1QzfL53JagbEGdgxVnNKutq78j77r1bvvxqiUmoaaPGPXu+k/79+8qqVetk245d8sRjD7ou2asa258bNm6VkSOGWdvbyP4Dh+SPf3xHUiaPlxHWNjftT71eOWt9F68dfo2pA9LzSkbmacm3yn/btu82+1iHd9aY3BynKisrl81btpk6rq4x0eb9a2MLvVZbsOBLMx3L7bfd5Pq6MOBKkPAl4Qv4BQlfoOVoAV57na1Zs8FUBjktNbU1vA5B+c2SFaawP8C6QNPKI50TTC/a3KYpcerFde/eyTJ8mBXvgL7S1rqAcxviJE7ibL2CJU6lCQed3ys+IU66do0x27RypH+/PrJ8xVrrQixSRo4Y7vo4O3XqKIlJCRLXo7tcc80gOXUqvU7SV/etznU7JWWiSea7mfZu0GEYdQhGjem9v3xi5si8cfr1Eml9Fr169zRxxsf3sP+Fu1zse6sJ7gED+skQa//qb1XvuxFxEqcbaa/BzZu3mXOn02hKz6sD+veT7Tt2S0HBBZP0DoY4NT7tza3nUN3n3hWgbkGcgRWnQ9+7jjAwbtwoU3ew6POvZcP6zTJt2lTTkFyPSzqHr5Z13agp+7N/f53TN1omTx5vbe/ruv2p71eTnhERnjnRdeSWL75aYhpo6lzFuk812a1DILs5TqVxaMPFvXsPyIgRQ82+VPFxPcw88DoVi85RrLG6uS4MuBLBmvClDz8AwNW08Brerp3MX/BF9fwkSi86dbietPQMe4u7ESdxuhFxEqcbac9lHQLuo48Wmt5WDq3I1OHv9u7bb29xN6306ZWcVL3+4AOzzP0//OmdWnP69u3b2/pMPIkYN9Oh+oqLi6W4pMQM26gVYzqc9bHjJ0yjyg7t27uyp7YjWL63xEmcbqTHlunTrzOJhyNHjtlb7e3TpprGJyUl7u+AQZzE6WbtrDKuJtHy8wtMT3tNmoWEhsiBA4dNJylN+jqJUjdq6v7U8pGWidxO99nuPXut8u09pox78003yKyZd8iu3fsCJs4pKROsc+cZ0/BW41WaVNJhm7Whro7gAyD4kPAFALhScXGJvPf+x2ZIzUcfvk8yM7LkzbffNxdnKiws1LRedTstqH/+xTeyY+ce4iRO1yBO4nQjJ04d1k4rvgYNHiAvv/K6HD9+0n6GVor5d5SVllJUXCx5eTUtiXVIvw8/WlArcd9Y0tetvOPUitz21m3Nmo2mYmzOD38g33/6UVm7bmOtz8aNnDhTUiYG1PfWF3F6EKe7OHEOGTzQnFtef/M9cz51RvNq1y68umeWm51KS5c333pf+vfrTZzE6RpOnBcuXDAjDnSM6CC7d++TP7/3kTz5+ENWWeF52b//oJkGw000+aflWkcw7k+N5+4Zt5uRaxx6vaJJ3jZt3N3T1YlTp1559NEHZNOmrfLJ/M+ry/U6XLc2XgAQnBjSGfAzhnQG/E+/+3pBsnTZKjl5Ms3MnaiF2B279pqK6cTEeDOclA7B9PU3y0yPne07d0uBVdC/cdp1Zmg4tzh8+KiJ4dCho2aoVJ1zZd++AxIZGWmGGyJO4myNiJM4Ay3O5J6JMmhgfym04vvo44WSnnHatJJft36T3HHbzeb5bqGJ21f/8JYUlxSbOedCQkLMfGans7LlmiGDTKLXoZVjOryzzlunQz3rZ+IWGmdZWZmpsHV4xxkaGmLmyjxy5Lj84K+eMD0IdTi/cWNH1Zq3uLXT5LTONbx9xy5TPtK56DJPZ5k4h10z2FRsBsL3ljiJ041xlpSUyJJvV5r5TfX82L1bN8k6c6b6ONSvb28zrOrHn3wmBw8dMQ2n9Ppm6pSJZhhSt6gvTh0OVs+nw4cPMcNwEydxtjaaAP3o489Mg3EdvUTLQ3psMnEOG2KSgTr1g34OTz3xsPTpk2zKQePHjTajhLiFxvnBhwvk4MEjMmTwgNpxBtj3duWq9bJx45bq88r58/m19qe33Nxz8sn8RTJ9+lTp0b2bvbX109h868JKikuq4+wW29UMq7506UpZvWaD6BQm69Ztks6RnUxP30BI5AOXK1iHdA5JSUmp0mSvDlWx+XiB/RCAy3VsyxLrojTavtc4PXE7nHVdOjf9bTpL5xYaFi6Jcf4dVi87t1Bio91ToYfgs+TbFbJ9+26ZPHmcbN+xR9LS0uV7D84280h6nzT1N7Jn73eyd+9+iYqKkmnTprhqmB4tyOu8MnqxpT0cdBi72269UabdMKVWQZ043YE4iZM4W6+mxqkyM0+LzoNVVlZunq9D+rmFVvq98+5HMvSaQSaxGci0rLB5yw557tnHTTK3ProvtWGmzk3sRlpZ+Yc/vm0q9rQic83aDdKnTy955KH76iTn3fy9JU7idGOcOvrQn157x8zznpiYIKvXrJeOERHy1JMP1xkWX5MvWjGfn58vY0aPFJ0P3vuapjUjTuJ0Y5xK69be+fOHsm37Lrn1lunWbVqdMl+OdbzS+vHu3WLtLe7iJHu14d4jD99nlXkaLpu7eX9qwwT93mp5zvneaiO+Jx57sE4ZT/fnV4uXyqZN2+SO22+SiRPHuup729S6MO3dq42qDh0+Ksk9k2TihLHWOZeOPQhuzZHvSMvMkcoKz7Dwzk1/i87SuSld6rnHWVd6PzX1lFm37ln37TVrJSkp0SxjukR6Nlrmzp1rrzVszpw59pon+UvCF/AzEr6Af+nFyhtvvmfmW9GevPqb2LBhi3z2+WKZfc9dMnbMyOoTp5vpxdlbb/9Fxo8fY3rPqf37D5nhpFImT6j3gtSNiJM43Yg4idOttDJPh3x78omHTAWY9oY4fOS4tG3TRvr1612rd6+bac/eN619mp3tGYb6r77/WINJXzfT4ca1gYIOva1lH92/b73zgV5AyDNPP1oneeZWxEmcbqSV7MuXr7aOtw+bSnY93mriJTU1TZ79/uPSvbs7E0i+iJM43WzlqnVy4kSqiW/06BEBVebT+kLttZt9Nsf0UG4s2et2u/fsk40bt8lTTz5kyrKaAH7lD2+a9WefeaxO7NqLuaKyQjpH1iRR3CBY6sKA5hKsCd/AOKsBAAJaWXmZFBYVmXU9SU6aNE7uu/duWbjwKzl23DPX14EDh+Xff/ZfpmeAW2kSQofPcgwePECeeepRMySPDp+qND6NU+N1K+IkTjciTuJ0Iz1nlluxXigsNEMe/79fzZMPPvxUXn/zXVMxphVkmizVIZ+1ktCtMjOzpCC/QJ5/7skG5yAOhDiV9sTRSl2lSXyt2LR2tBmmUL/XxOkuxBlYcer1inamUDpvuPaw69W7p7z7/scBc7xVF4tTaYwaq8bsVsQZWHEqLSOop596RLZZ5b2vv1kuR4+dkNWr15tKdjfHqcmGcWNHW+WfXFMu0mOr9g79h3/6d3NbvmJN9XHY7fvzwoUiCQvzJFqUJnh12pni4mL5dMEXJnblxKmNGdyW7HU0pS4sUH6fAPyDOXwBP2MOX8C/2rZtK2fOnJW9ew/IiBFDqwv18XE9zIWpDvs2csQwM79XQmK8JMTHmfl93Ubj0guTNWs2mOF5nDlnNC6tGPtmyQozJKcOVZSQYMWZGCft7Oe4CXESJ3G2XsQZWHEqPR9qwlorxo6fSDXny0cfvt/0ZN6ydaekp2ea+b/i4rtLUlKCGdLRjTp16iiJ1vvXeYd1DuJTp9Jl2fI1Zl5QZ35e7fURF+fuOHV+4lWr1kt8Qlx1D2adN7t/vz6yfMVaiYzsJEmJ1udAnK5AnIEVp86JuXnzNnNO0TiUnm8G9O8n23fsNo2MdG74YIizf/8+Zp5JHZJb97nTq8VNiDOw4nToe9eGfePGjZJrhw8103tsWL9Zpk2bKjHRXVwfp5ZltUz06cIvTP3J6awz8sRj35NBgwbI4sXfmulXdD+7Pc6Q0BBZumy1iVXrf3Jycs3w1HfdcYts3rpd4q1tgbA/m1oXpr1/A+H3CfhbsM7hS8IX8DMSvsCVO3z4qHz9zTI5dOiouWjp26eXrFy51gxp069v7+oTqM6toxdsvXv1NBXz3WK7uirZ6xtnr17JsnPXXtNSc8jggdVDbcZ27Sr79h2Q6JguEmcV7nU+JTclH4iTOImz9QqWOHUI0cVfLzVzW2l5avCggbJr976Ai1N7tWrrfk2wKK0Y0sqfhZ99JeVl5XLd1MkmAarJFj1v7tnznanw1HU3JR/yCwpkyZIVVhlgh6m8jLXO/12iPBfIGnNDSV+N0U1x+n5ve1nlndLSUhP74EEDqofC1fi04u/I0WOmEQNxtk7EGVhx6tC3S75dKRs3bTW9ILWBUKfITrJw0VemF6EeV5Uebzt27Gg+jxHXDjNJiGCIUxP5+ph3BWdrRpyBF+fKVetl3fpNUlFRaRqEOe99z9795rik8et8vlof3smKVesZ9Pjk9jjj43uY2HT+9O8//agpB+rQ3O2t8tI2a39qgrBTJ3fvT+3Nq400P/xogWlQpHP4Tp40XsaMHmGdg/JNMkX3p55n3BSnnjN37NwjS5etkpMn00zCumfPxIvWhek1i5viBFpKsCZ8GdIZANCqaAH3/Q8+Na0yz5/Pl/+e+3tzIfbII/fJJuvC9JP5n0tpqWeoGk3uaqtHN6ovzrXrNsrD35stmRlZ8ubb75u5ZpQOV+T0QHMb4iRONyLOwIpTK7xeefVNU4miF1Hv/2W+ma939qw7AypOpefLeS+/Xms44+TkJDP314mTp8ycZ/o5qJKSUiveMBOzm2hsv5v3mklsd+jQQV57413Z990B+1EPjUvnC9XK6/qGd3aD+r63f3r9zzJ+3BgZNHiAvPzK62ZeVId+Fm5EnMTpRsXFJfJH69hy5ky2xMfFyVeLl8pv/udVSUyIl+nTpsrrb75nzrHO8bZdu/DqnlluQpzE6cY4Ndn5hz++LWlp6dKjezf56OOFsmr1evOYNojrGNFBdu/eZ8qCTz7+kMz54fOyf/9BM+qJmzQUpyYVbrl5mvzguSetY2ztuWzbtmnjun3aUJyjR10rP3vpn+TZZx+Xf/nJ38m0G6ZUJ1Q0KexG3y5daRpHaRJXG6X+5y9/bcrvjzxyf0DVhQFoXvTwBfyMHr7A5dMhNhdbF5433Xi9jB83WkaOHC7JPZPks0WLpUP7DnL77TfJ0qWrzHA92lNA51rsHNlJJk0c56oLl8bi1Erqu2fcZirttdedXuBs37lbCi5ckBunXWdaW7sFcRIncbZewRKn0h7L6r57Z8jAgf1k3NhRpkX8d98dkIcemi27du0LiDg1Abpi1ToTx9Ztu2r1bNWh37SXgPb03bt3v+w/cFg2btoi98y6y/T8cJPPv/hGhgweILfdeqOZe1m/rzt37jE9VrzLArquPX21R4T2eHF6FbpFQ9/bndZ3dPY9M8zczFrpmZ5x2lTea6+XO2672fTUdxPiJE43xqkV8ampp+TRRx6QAf37WNciY82w+cuXr5Zbb5luRh3SORUPHjpiGhRpb62pUyaanlpuQpzE6cY49bgiEiIPfW+29Ounw1F3lzVr1ssIq5ygCbJ93x00PZyfeuJh6dMn2ZQPtCzcpYu7jkONxalz1jrJT6UN3zRZePPNN5ikqZs0FqcmtHWEF6expsap8xZff91k1+1PLa9qXdcD98+UYUOHWN/JUabn+fxPPzeNN6+/PiUg6sKAlsSQziR8Ab8g4QtcPv2Ob9u2U6Kju1TPIaTDNPbp3cskIXReEq0s0ouyk6lp1gVaL7nl5umuq5S/WJzdusfKrLtvl27dusqpU2kSZZ3077nnzjotdFs74iRO4my9giVOdSotw1RwalJbK0S0d4cOY6wJ7XTrsaeefMgkQ90ep/ZM2bFjtzz7/cdMIsV7OGO9wNR5I7VyV+c90/hm33OX2eYmOvzr3n0HZML4MdUJ3FArtkOHj8pwa5/6Tuug+1vnHnRbslc19r09ceKktf/uNMPgZmVlm4p5baSRnOyuSnlFnMTpxjh1vkgdWWDUyGtNAkmPPcOGDZHUtHSTSLrrzlvN8KI6tGhOTo5Mv2GqDBs6uFZlnxsQJ3G6MU6drkLjchq0aU/lXbv2Wseia8wxSesUxo8fLUmJ8eZxpccrt7lYnErr+tes2SDvvveJ3HzT9da+Hx5w+9Ox/8Ah+eMf35GUyeNNMthtcZaVlcvmLdtMHVdXe3hmbWyh12oLFnwp11rnzttvu8n1dWFASyLhS8IX8AsSvsDl0wst7XWmFyVaGeS01NRW/zpHyzdLVpiCvc7ZopVHOveO9uxxm6bEqRfXvXsny/BhVrwD+prhl9yGOImTOFuvYIlTaWWQzu8VnxBXXVmklSP9+/WR5SvWWhdWkTJyxHDXx9mpU0dJTEowvVkbmsNW97P2EtA5wLwrydxCv7dDvJLYSnsKnjx5SsaMvtaVZYKGXOx7q/MpDhjQz3we+lvV+25EnMTpRhHW9f7mzdvMMdVpNKXHpwH9+8n2HbuloOCCiU97Oeu5RT8L74o+tyBO4nRjnNrQS+fKdt57Tq4mug/KaKuc0M6KXRu9ubEhmK+Lxan0MZ26ZeKEMaZ3bCDuT4fOYTt58nhTV+TGOLURxpkzZ2Xv3gMyYsRQ89tUOkqPNnhct36zmaNYh3t2c10Y0JKCNeFLn38AQKuihdfwdu1k/oIvqucnUXrRqcP1pKVn2FvcjTiJ042IkzjdSHsua0+Ojz5aaHqVObQiU3u87t23397iblrpo3PWOutun8O2IRqbUwmmdP5pHbZPK8q0ceTadZvMkJTaoNnNguV7S5zE6UaaMJo+/Tr54qslcuTIMXurvX3aVDly9JiZJ93tiJM43UjLCN7lBB1NQBuKtbfKvEqThW+8+Z7rY21qnFo2cmvjGtXUOLWHbIf27huhx9uUlAnWufOMaXjrlGM1SaTDNmtDXR3BBwAuhoQvAKBVKC4ukffe/9gMqfnow/dJZkaWvPn2+6ZAr8LCQk1rZLfTgrrOP7hj5x7iJE7XCOQ4tcW0VoSoQI4zN/eclJSUmPVAjlPnr12xcq1JYDtxbti41VRkDho8QF5+5XU5fvyk/Wyt5PTvqCktxTtOpUM0fvjRglqJ+0BI+jYlznPn8kyvdP0da++HVavXy3VTJ9eqHHQbJ86UlIkB9b31RZwexOkuTpxDBg8055bX33zPnE+dsoQON+rm44/jVFq6vPnW+9K/X2/idGGcmizScpAj2OK8cOGCvUWk0CrfaqMwvWly8JP5i6xywiQTs1sQZ2DFqb+77Oyc6lidOHXu5UcffUA2bdpq5lx2yrs6/LrGCwBNwZDOgJ8xpDNwcfpd1gvMpctWycmTaWbuRC3E7ti111RMJybGm+Gktm7bKV9/s8xU+G7fuVsKrIL+jdOuswq77hlu88TJUxLZqWP1BbTGvm/fAYmMjDTDDQVKnMdPpFoxLJfDh49KfHwPkywKxDgzM0/Lt0tXSWlZqXTrFmu2BWKcqalp8sZb70nfPr3NkGeB/L199Y9vmTh1WN9AjVPnTnz3vY8kKSnR9LIK1Dj1vWsLfx2WcNDA/mafOnEm90w02wqt53z08UIzDLC2kl+3fpPccdvNZihrt/CNU3u3ZljHptNZ2XLNkEEm0evQc48O71xYWGSGenbTEIZNjfPwkWNWfIWSk3NOVq/ZIM889Yh07+45PrtBfkGBLFmywsSpQxZqLxwnzmHXDDZDcgfC99Y7Tu2Zo/tTz6mBFmde3nlZ/PVSK85d5lirZYXM01kBF6c2ICkrK6s1NHwgfm+1odTKVevNe6+oqDTHUed7q8chHR5fh8nVUQUOHjpiGk7p9c3UKRPN3ItuoUmFLVt3yI4de8x1me5X/S4fOqTzow8xw3AHQpyaXPno489MA+O+1r4LCQkJ2Dg/+HCBHDx4RIYMHhCccQ4bUt148bR1DD5hlfl1+N9PF3whD39vthne2C2IM7Di1LLBt0tXypdfLjG/RZ2SxTvObrFdzbDqS63naLm2tLRU1q3bJJ2t8qH29A2EhjZASwnWIZ1DUlJSqjTZq70bNh8vsB8CcLmObVliXcRG2/capyd6h7OuS+emv01n6dxCw8IlMc4zH5K/ZOcWSmy0++cwgXss+XaFbN++WyZPHifbd+yRtLR0+d6Ds808kt4nQf3O79n7nezdu1+ioqJk2rQprhqmR4eJ+sOf3pauMdGml5V3Jbw3t8epiaIvv/rWVBLs339Ics/lyQv/62nroiTSfoZHIMS5YMGX0qt3Tzl69LhMu2GK3HzTDfajNdwep9KL6JdfeUM6Whegzz37RL3JE7fHqcned/78gcy8+3YztHFD3B5ndvZZeff9T+SRh+6T2NiGyw9uj9NJDnbv0c3c1+Ou/kbro5X12hNUh37T41ZCQpz9SOt3KXG62aXEqfP3vvKHN02Dy4aOV62V9rz/02t/Fp07WpPxGzZukaefekQSE+LtZ9Rw8/dWk4Pay3zwoP6mwnbtuo3W+gBTNmpnD8nocHOcuj//8Me3TUWtxrlm7Qbp06eXOf76NrZwc5xKy/Kbt+ywfnOPm4ZEDXH78fZPr71jnRM7m8aMy1eskVtvmS7XXzfZfkYNrazXivn8/HwZM3qk+U17X9O0Zk6cWifo3H/+B09JdHQXc9+bm+NUWrfyzp8/NA3hdF/eesu0epMnbo7TSZppQ69HHr7POjc2XJYLljj12Pz7l1+XC4WFplGYG5OgxFnDzXGqI0ePy9dfL5Onnny40Ti1IY42Hjt0+Kgk90ySiRPGWmULOuoAl6I58h1pmTlSWVFqyg/OTc+dztK5KV1q2cNZV3o/NfWUWbfuWfftNWtFG+jrMqZLTV3q3Llz7bWGzZkzx17zJH9J+AJ+RsIXaJwW4rUSd9bMO0xPXv2Ob9iwRT77fLHMvucuGTtmZPWJ0O3SMzLlnXc+lKLiYhk4oF+jSV+30h47b7z5vtw7+y5TQa0XJn/809syxtqPEyeMsZ/lfr5JM20Nry1zn37ykVq9WwKF7lf97moPrGPHTsiz33/cVUmUi9Fhs157/V2ZOeM2GTlyuL01MO3cuUe2W7cnH/+euZ+Tk2tGHoiP62F68QTC8dY7OXiPdW45an1nly9fLU8+8XBAVYwQZ8NxaiMcbRHdWKOG1mjlqnWm4lLLRGrBwi+lT+9kGTFimLkfKDQ5qD3InDh1GMPfv/Ka6WH30IOzA6ZspMPH6xDGWt7TY6smU9565wO9wJNnnn7UVT3sG6M9e998+y9mP6q/+v5jjSZ93Up/n6dPn5H777vb7M89e/fLN98skx8895TppR4oFn3+tRlp6bZbp5v6Bi3Xjxs7MuCOQw7dr9qwUUezGT16RINJXzfS/ae9drPP5shT1jmzsWSSm11OnOnpmebfJSUl2FtaP+JsmBvjdCz+eplZ6jFX68L0PKMjZOhIdzExTatLBtA0wZrwZUhnwM8Y0hlonLbw37xlm+nxoD129KSnQ0dpK3LtPanbdf3AgcMy7/d/Mr1BOnXqZP9rd9GeOtpz5aEH75Fly9fIqVPpZmhN70oF7fnw37/6vUm+uK2iWunciTpM34Rxo01cWmmrw2rqnMz9+9e0tnV7nJqA0KFtBw8eYO5XVlaZyqKMjNNm+KX4hB5mWCm3x+kIb9vWDKc1duxIad++vXzxxTdmf65dt8n6fUaZIWjcHKdWuqelZ0iW9d0des1gycrKNkM769CT3+0/aIY51srcQNifZ7KzTTJs5IhhZih97cWjLcVXrV5njr99rWOuDo3m5jg3bNhsjj+aTNJjkPZM3rhpq8TFdTdD5Drcvj+bGqcmY7TXqCae9JzjNpcTZ0rKBFcmYA4dOiL5+QUydOhgcz2+ZcsOk4xYbpUZzubkSP9+fUz53837U+3evc/0eNXeY0rn2cvIyLTOo6fMUIU6LK7bv7fqVFqGqcDRhkT6HdYGYTqChPYm1MZTw4YNMb2Y3B6nVrTv2LFbnv3+Y6YMqGVcHcLZ+zcYCPtzz57vzD5zktn6vd21a6+1T6+pbuzn9jj1+KLHGo1Jy0b6vdXEgzb827Z9tz7BDEuu5QVNyGhvUB2RydWNNKyYtOHbfffeLV9+tcQ0RtZ4dH8nJyeZ+UDdGqfup4iICHPO9ExX0skM1fwHq4yrDVU1sa9JJbfvz8uJc4pVTqiv13prRpyBFafj2PETpg5lqHXO+GbJcvngw09NY3It/+n5RkeUCJjjLXCVBeuQziR8AT8j4Qs0rm3btnLmzFnZu/eAjBgx1FQsKK2A19EmdNg3TUxoUikhMV4S4uNMId+NYq0Ce+/ePU3BXSvC6kv66vEiIcGKMzHOJAzdplPHjmZuRe99pEMf6/7r3aunvcX9cWolplYCKa2sXfDZl5KRftoMIaXJtFWr15vvs/aIdXOcDi2M6px7Onfd9GlTTWXY2+98YBVAI2X8uNGmUtDNcervb0D/fmY+JO2xs3zlGjNM1uzZd8mZrDOyxr7A1mEc3b4/w6xYde7BrjExZn4+7ZV+5x03m/j1e6xJNP1uuznOXtaxZoh1jHWOq8555vjxVJNIcy6u3H4camqcWjGk+1V7Pehv1m2CJU7VxTrGLF22WrZs2W4qOotLis2w1NddP9ncP3kyzcznFhfv7jgrqyrlq8VLq3uvaKJXh5C/4/abZcWKtaZxn85d7Pb9qUnAVavWS3xCXHWSUBuLaeJ+uRWnxpiUmOD6OHW+wUTr/et8tlqm1bKtb9I3EH6f2tBNG5k4x5yc3FzZ991BGT362upziNvj1Ni04a0mW9SxYyfli6+WSFTnztZvtYvp/avHYC3T66ggOiS3fredz8SN9L3rtcq4caNMgwyNcYN1/TnNKu/q/nZ7nHoNpr/RTxd+Ya63T1vl2ice+54MGjRAFi/+1jSi0u8rcboDcQZWnA6d2kJj2LfvgLz4wvfllptvMOWjzxYtNtNCaOPjQIgTuNpI+JLwBfyChC9Q1+HDR+Xrb5aZnpBamNceZStXrjVJJO3V4ZwQu3eLNRfgWqmgBd5usV1dlez1jTPWev9OxZcu60v66k17mrkp+eAbpybFHJoM3bxlu7k469atq0kYvv/BfAmzjl0as5vjdHqaa8+W9PTT8uQT3zMJX01AbN++y1yQxdk9BwMhzgsXLph5bvV7u2nLNtMLrfBCoQwZMshUWrs9Tm0VrpXwmvS9/bYbZfKkcSaR3a9vH9m6dYf1/e0mPbp3c32c3a0YiouL5csvv5XknokyZswIc7zVx86fz7f2c5EZct5tcepQqYu/XmrmttLykdMDyaGNUbQXszZIcYZRdePx9nLiVJp4cFPyIVjj7JXcU1ImjzfnkWPHT8pNN14vPZMSzeggWgbavmO3SUjoiChujnPI4IGmvuG9v8w3PVa2bN1uGp5oueDwkWMS2bmTOd66bX/q3MTaw9Pp7alJMy33LFmyQnSOYue7qmVAbdR45Ogx05jI7XHqsVQbKzjrDSV93RanlnP0vOjsNz0GeR+HMk9nmdFBdPoZTfRq8vfzL742Dca8Rx9o7XzjdOhvdM3a9XLd1Mky7YYUc42m5T3toa6NcXVdr8+8P5PWrKE4lTb208ZFOoKPxqex63lGY9bnuz1ObUitsemUAd9/+lFzjaJTs+ioPdus47LuTy3vE2frEyxxap1BqnXeiLLOEc57DpY4dV3PmatXrzejSAwa1N9s13LQEatMFN2lixn1zk1xAq1VsCZ8Pc2mAQBoJjqE6PsffCrx8XHm4uW/5/7eXFg/8sh9smnTVvlk/udm3lelyV1tRe5G9cWpQxFpBYJDL1p0njMdRuyDDxeYCwC3uVicOmS3Vgp2jOhgKj21cldpAthNGotTWxc/cP9MUyGvtOCmF6J6c5vG4tTeyoVFRfLuex+b5/7rT//OzHW2fMWaWt9rN2goTk36/u2P/peMHnWt/UyP0LBQ0yvLbRqK84brU2TQ4P6ya/c+02BBaRJGh1534/xuWhH0yqtvmhj0ouh96zjzp9f/bOYIdWiPK50nfsXKteZ5bkScwRGn/g41QaZloZKSmgbYBVb8WiZq08ZdQ/nVF+drb7wrkyeNl5+99I9mTvh/+5e/N4lspc+rrHDXOcWh5dl5L79uEqIOHRVj0OAB8vIrr5thfh0d/NQg+GqoL05vmvzUeYu1B/cf/vROg89r7Y6fOCm/+e2rprFbfbTRm/4m9abJXh3697qpk8xQz27SUJyavL97xu0mae/Qodi1Z53bjkOqoTi14YJep+hQ839+7yN58vGHZM4Pn5f9+w9Wl5HcpL449drklpunyQ+ee7JOOa+tdb2t+9ptiDOw4tQyno4epUM2O+W6YIlTz5n3zLpTomOiTWcHLTepCqssVF5RIW1d1DAVQOtED1/Az+jhC9TQhObixUtNjxUdBlbnNEvumWSGqunQvoPcfvtNsnTpKtPbQ+dw0552nSM7yaSJ41xVoG8sTq3AdXoxK6enr85z27t3sinwu0VT4tQLlW3bdpne2t98q3PuhMmD998j4eHuOcZcyv7U47L2Oss7f15uuC4loPanzkusPUW1ZfVDD8629qVnWEqnd7pbXCxOHbLRe38uX7FaCvIvyLQbpgTM/iwvr5A7b79Z8vLyZeFnX5pKpE2bton24p5x162uS27v3LXXLO+7d4YZ9mzc2FGmwkR72mtLeT3e6HdUe/Mu+XZ59ZBobkOcwRPniGuHSWlZmXz11RLRHpE6h+bXXy+Tu2fc5rpYG4tTGw3p6B/O6C06TLf22rn+usl+u35qKdq4bcWqdaY30lar3OP0bNXvqvZEL7S267zwOj2CznOrQ+vfcdvNZnQFN2koTl8at5YPdPQeHeq5vl6VrZ0OL67XI+s3bJa+VllPG7550/nuT1jnTx0l4tMFX8jD35ttRnpxm4vF6dAkhCa1p0+fanqeuU1jcWrCXofNf+qJh6VPn2TzfdWyU0OfRWvWUJxatnXKt0obYmhD65tvviGg9idxujPOI0dPyIH9h6zlcXMNoyPAOTEGQ5x67TVs6BAzyomOiHIyNU1WmTl8o02ZSM+pAK4cQzqT8AX8goQvUEO/s9u26XyuXUyvSKXDHPfp3cskIbTSdvY9M8xFthZydeiaW26e7rrkw8Xi1MrbxIR4s11pRZnOy+KmZJJqSpzau+NcXp58+PFC6znxrkv2qqbuTx2K6dU/vCXnzuXJIw/d57rKzYvFGR/fQ6ZMniBTUiZWf1e9C69u0dT9mZN7Tv74x7dNY4xHH7k/4PanJhk0GTx82DWm9+/gwQPM/JnOEJ1uciotQ1JTT5mktlaIaAzaW1B7oR07dsIkCXV7ZKdOZj+6NflAnMEV5x2332Qu8pcsXSHZ2TlmJInk5ET7X7tHU/fnmrUb5OOPP5MZM241DeDcRnsC7tixW579/mMmoes9nLHGp0PlXzv8GsnKyjY9fDR578b92VicvjRubUTlxt+nluW0Aer3HrzHxLZg4Zd1koTak3flqnWmkcITjz3oymRvU+LU4ce/+HKJfPzJIrlx2lQZZf2W3Vb2u1iceg06fvxoSUqsuT7T76/bNGV/al3vGus57773idx80/UBuT8VcbqHxvCtVdbR8oDOna1xeidDnecEepxaR6JxaR2YDuU9fvwYMyqT2+qIgNaMhK91ICLhC1w5Er5ADb1w1kKtFtZ1zjIdFkxp4kHnff1myQpTGabJT60M1LmU3FjAbUqcQ68Z5LreK76aGqfO1dczKUGuvy7Fdcle1dQ4dW5UrdDVCzM3Dot7sTiXfLtSpqRMcGXFrbem7k+dJ0m/uylWzG78rTYlzmFDB5u5UbXXXUJ8nGsrFDSBtGrVeon36umpDYW0B/ryFWvNPIPaYEEvqjSZ79bvMHEGV5za+ETn2NZGNtorVuN2o6buTx2ie8qUiWafulGnTh0l0SrraAOEhuaw1bkGh1j39djr1v3ZlDgDgU7TkWB9F/XcqIlcPZ/6Jlu0rKffY53D142NFFRT4tTyRFJigkyaPM7E611B6RYXi1P3pdvLt6op+1P3n071MXHCGPOcQNyfijjdQ99zXFwP6dkz0fTa1fg0To3Xu6dvsMSpjXV1Hl8dAcWNcQKtGQlfEr6AX5DwBWrTyj4d3u/Y8ZMmmeIkGGK7dpV9+w5IdEwXVw7P44s4a+LUC5sePbq5NpmkmrQ/7V5m3gU3t+F7Wwwpi1gAAP/0SURBVDtOTVRoRadbBcv+jIiIMHOEL1myQgYPGlBdaavJB+2ZdOToMZP0djviJE43amqceqx147ygDn3/XaI8lTK6HqjJ0GCJU8tyGqfGqOtaGV9fskUT99o4w62aGqc22NTkk1s1NU63a2qcWh5021zT3ogzsOJUWjZwYtC4ND6NU+PVuDX+YIkTQPMJ1oQvg8IDAJqVJlAeffg+yczIkjffft8Ma6fCwkKre6AFAuIkTjciTuJ0q+nTpsqgwQPk5Vdel+PHT9pbtQdW4PQ4U8RJnG4ULHF604rpBx+YZaa2+MOf3jHzDgaiYIkzJCTETINw3dRJ8trrfzZz3wci4gwsxBlYgiVO1btXT3nm6Udl1er18u3SldWdXwJNsMQJ4Oqihy/gZ/TwBerSYbN0OLut23bK198sk6KiYtm+c7cUXLggN067zgz1FwiIkzjdiDiJ042098Oggf2l0Irvo48XSnrGaTO/5Lr1m+SO2242Q1kHAuIkTjcKljh9adzaA7awsMi1c003RbDEqckW7YHVtk0bM7R1THQX+5HAQpyBhTgDS7DEqZwesAUFFyQ5OcnEHoiCJU6gNQjWHr4hKSkpVZrs1eGVNh8vsB8CcLmObVki0dHR9r3GOQldVV9yV3+bztK5hYaFS2KcZz4sf8nOLZTY6MC8UEfL2L//kLz3l0+sk1a+DB92jTz80L0m6eBLv8N79n4ne/ful6ioKJk2bYp1InPP3KfEWRtxugNx1ub2OPPyzss7f/5QDh85ZuYdfvKJhyS5Z6L9aI1giVNlZp6Wdes3S1lZuUydMlESEuLsR1o/4qyLOFs/4gwsOgT3hx8vlG3bdpmRIvT8qefRQEOcgYU4AwtxBhatx9ywcYsZvri0tMyc/2fefbsZJSKQBEucgFs1R74jLTNHKitKTQNI56bJXGfp3JQu9TjhrCu9n5p6yqxb96z79pq1kpSUaJYxXWqmD5k7d6691rA5c+bYa57kLwlfwM9I+CLYZGeflXfe/Ujumz3DzGn6/l8+kd69k+X66ybbzwgMxEmcbkScgRWnzvekcWpL/ykpE2Tzlh2yY8duefqph6Vt28AZqYM4idONiJM43WrR51+beO+4/WY5eTJVPrPuP/v9xySyUyf7GYGBOInTjYiTON3oyNHj8uWXS+SRR+6XduHhZkjqm266wcz9HkiCJU7ArYI14cscvgCAK5KWliHR0V2kZ89ECQ9vKyNHDJNz5/LkVFq6FBeX2M9yP+IkTjcizsCKU4f+yrPiGnHtUHNBMXhQf2nTpo1kZJw28ToXE25HnMTpRsRJnG6k58j09AwZNXK4OX9qRVN0lyjJOn1GsrNzTIPjQECcxOlGxEmcbnXo0FEZMKCfGYJah/0fOLC/5OTkSnpGppSVldnPcr9giROAuzCHL+BnzOGLYHOhsFA2rN9setNpRdinC76QEydPSWpqmnz2+WIzBF58fA/72e5FnMTpRsQZWHFqOWDz1h0m+ZCUlCArVq6Tbdt3ivZw/vrr5ZJ5OsvMq6iPuxlxEqcbESdxupH2Nti95zszfHXfvr1k1+59smr1eivOHFm5ep3s3bffDDfq9vnfiZM43Yg4idOtcnJzZat1Dh00eIDk5xfI5198bRroHjx4WL76eqkVf28zl63bBUucgFsxhy9DOgN+wZDOCHTO99Op4NL1LVYh9+tvlpneENcMGSSPPHyfmbdkj3VB8+VX38rzzz/lumGKiJM4ibP1CpY4lQ77pnE4MjOz5IOPFsiZM9nSrl24PP/c0xIbG2Mqj1559U2ZMeM2K373DSNGnMRJnK0XcQZ2nBrPJ/MXyfETqaZH0rPff9wMZa290V5/810Zes1gV06RQJzESZytV7DEqXV43pX/wRKn7t9ly1fL+g2bTSJ0+rTr5LZbp5vHVqxcK/sPHJLvP/2ouG2KhGCJEwgUwTqkMz18AT+jhy8C3eEjx2Tx10tl0EDP0HZ60kpMiJfrpk6Ws2dzZdjQwRIfH2ee265dO9m5a68MHzpEIiL8+71tbsRJnMTZegVLnIWFRfLOux9KXFx3iYz0JKs7deooEyeMsbb1kKKiIpk0cazZ3r59O/O5dInqLImJ8WabWxAncRJn60WcgRWnVk6//8F869zZVrp162q2aTyjRl0rgwb1Nz3NpkyeYM6tetNzqsau51s3IU7iJM7WK1jiVJs2b5ftO3ZL/359TDIgWOLUW7++vWXypPGSnnFaJowbbXq66jVbqHU7cOCwjBgxzHW9mYMlTiBQBGsPX0+3CAAAmujUqXTZtm2XvPeX+VJSUntuzKioziaxohdx6uChI6ayLDKypnWSWxAncRJn6xUscebmnpPjx07Kn177s5kLylvHiA5mLkmtLFK61DmjEhI9iW43IU7iJM7WizgDK84LFwrNdAd/fvcj2ffdQXurR0SHDpJz1jP3oCoqKpZDh49Kv369zX03IU7iJM7WK1ji1A4bx46fkOUr1pjRhpxrExUscZpkdliY2c9OJxZd79Yt1iS/3SRY4gTgfvTwBfyMHr4IZKWlZbJs2Sq54/ab5NChI3Lw0FEzlJ0WcFV0dJRVAF4rK1etk23bdpqLlkcfvl+cnhJuQZzESZytV7DEqbZa71/j6dWrp3z+xTcyYEDf6jh0qZVlny78wrQeX7p0ldx+242u7BVAnMRJnK0XcQZWnIcOH5NzuXkydcpEmf/p56b3stPDTkfEKCoulg8+/FQOHjxipkkYM/pamTB+TK1eCW5AnMRJnK1XsMSpQ/yuW7dJ7r3nLnNdct667/QMDZY4NZaoLlGy8LMvZcuWHbLWep6OqPHgA/e4bpjjYIkTCCTM4cscvoBfMIcvAtHOnXukfYf2ktwzyQyjetutN5rv42uv/1kiO0fKw9+bbS5alLZ0PHLkuFnXFqrec/M0prSsUs7kFktZeaW9peWdP59v3q+2wsw6ky3du8Vav0ERnV9Bk0k6bJ8W6JX+NrUQr3SYWO+Td2un77u0tNRUYBIncbpFsMWpw4GdPZsjHaxjrzYkO5N9Vs6dy5NeyUnVx1ulc37p8zt2jGjy8bY1IM7AilPP/Tk556Rr12jTU5I4PYizdQvGOPMLLphtUVb5XWM8fTpLEqzzp/cc9xpjcUmptG8XLuHh4fbW1o84AytOLctlW+fNaOv8ecEu0xEncbZ23nFWVlZZ55Zc6dGju5RYsZw8eUo6d+4k3bt3q742CZY4te5Iy8R67tS6FrdcmwVLnC2hU0Rbie1SU6YCWgJz+FoHJXr4AleOHr4IRCetk5H2fNBWp9dcM8jMQRIe3laGDRsiGzZsqdXDTk9yXbvGmJuuN1VeQakUldQMi3M1aCvbvLzzpmJeLzidk7cOBXvu3Dkz/JQmm5wTuH4GenNO3G5RVlZuEg869G1n60KbOInTDYItTo2lY8eOplW4xqCJay2vnz59xgxRrcdbpUtNSOhn4SbEGVhxahk1O/usee/6GyVO4myIVvhpI7/wtqFSUWnXcFwlwbg/I6142ltL1b59exNTZsZpade+nbSzkw1aUd2uXbirktqKOAMrTv0t6tDputT5somTON3AO05tHKTnENWmTZhZz8rKNh2u9DF9TrDEqTdNaGs9kq67RbDE2RK07BfRvo31XedzQcthDl8AABoweNAAkwjNzMyyt3howfaZpx+V/PP59c6leSkqq65upZ/q1LGTqZzXHhzetEDfs2eSKcynpWWYSkA3c1qbautTb8TpTsQZHHHqtm6xXU2DlBMnT13R8bY1IM7AilMrKjWprT11vBGnOzVnnF0iPZX5umzfLswsnW0tLdj3p9IYtbdSunX+zC9w94hvxBlYcaouUVGSd+58nbIdcbpTsMepid3k5CQ5f75AsrLOmMYbbkacgRVnS+AzAloGCV8AwEVpbzqdn2Tb9l32lhrVSV+d02T9ZnurO2niqGNEB8nLq1uB4p1U0mH/3Ex7pkR16SzniJM4XYQ4aychtAGOb8WDmxBnYMWpNAFRXFxshif0Rpzu1FxxtrF7doRaf6c1CPb9qTRGTbY4PZXcjDgDK07tba8JAt/GuIo43Yc4a5KE+fkXpMAekt2tiDOw4gQQOEj4AgCaZPSoa+XwkWNmnltfmvR94fmn5frrJttb3CsqyjOvUHl53eGlNanUu3eyxMQ0bZ7u1qyh3syKON2HOIMnTicJoZULmkx0M+IMrDh1CDsdmlEbgPkiTvdprjjLKzy9O1rDyC6K/emhyZa+fXpZ51LP8NVuRZwegRJnY72ZFXG6C3F6aJKwX7/e5jluRpwegRIngMDh7qsWAIDf7dy5R15+9Q0zH6a3uLjuZn6z/QcO2Vtq04KwmyrDNHF94kRqncSuDr+pc64UXKi/AkUr//TmFtr6/+ixE1JSUrsHgCbHGurNrIizdSJO4lTE2ToFS5za0/HEydR6K760slYTEBUVdRtNEWfr1NJxnsv3/D50WVxSYZbOtubE/mw8TkWcrVN6eqZknck2Pcy8BUucmkTR82t9vZkVcbZOxEmcijgBoOWFJScnv6QHMi0wp5+r/8AFoOn+5q8elw4dOtj3roxTyNClcwsJDZPOnfzz9x3NMYk53CvzdJYsXbpKjh8/KcOGDZHwcM93Q5O5bdu2lQ0bt8iIa4eZBK8/ZeWUSNrpXFMprl/95r6VlJRJTu55M69iRERHq5AeWv1YSEgbOZeXLx07aivNkFr/zm230rIKyc3Nk/yCCybOUOsY4jwWGtZGcq04feN34404idONN+IkTjferMtGybNi0fNkmzZtrbJBuFglVPNYaGgbK/5Cq4yg29vW+bduuhFn88RZUlppltrT1/ex5ryxP4nTjbfKyio5b8Vy7ly+ud++vXWdZF2d6HqwxKnnzOLSMuuYUWl6NXv/O7fdiJM43XgjzsCK82rczp0vlJy8AukR21natiE5jpbTHPmO/IIi63tdYR0XPI1CG7opZ6m818+fP2+v1da5c2ez7NC+nVmqDRs22GsNmzRpkr0m8tprr0lISkpKlSZ7dY6Ezcfr780EoOmObVki0dFNG07SSeiq+pK7+tt0ls4tNCxcEuNizHP9JTu3UGKjI+x7CHbpGZmyYOGXpuKgqLDIzM+rQzaroqJi+dNr78gdd9ws/fr2Ntv85dSZItm2+5iMG32NtEQR8Ez2WVmxco20CWtjemPNvPt26dChvXmspKREPl3wpUyZMkGSEhPMNre6UFgoX365RCIjIyUtLV1m33OXdYzqYh7TY8qiL76R/v16y9BrBpttbkWcxOlGxEmcbrXk25XmovXQ4SNmOochgwdWX8Tu3bdfDh85LjPuvEXcPgwucRKnGxFnYMW5bdsuycjMNHNJDxkySCZNHBt0cZ6yzqlr1myUe2bdIe3a1VSCuhFxEqcbNWeclVUihSVVEhEeYh3H7I1XSbDsz5aWkZkt2bl5csP4ftLWv/1GgEY1R74jLTNHKitKTbnLuelxwlk6N6VLJ9/jbNP7qamnzLp1z7pvr1krSUmJZhnTJdKz0TJ37lx7rWFz5syx1zzJX3r4An5GD1+4XZu2bWTf3gNyx+03md6+69ZtMnOSLFu+xsypU1pWJgcPHpGhQwdXn7Cu1IXCEtl/OMN8FyurKiWqc/PPf6JzAx09ekJSUibI2Zxc2bVrr3VyTZAtW3ZIYmK8aQh18sQp6du3t9/ivBraWnGeOHlKrrlmkLkwWb16vfTsmSg7d+41Q3R37NhR9uz9Tgb07ydhYe6tKCJO4nQj4iROtyorK5fCwkKZNGGMfPPtCiu2CMk9lyc51vm0Z88k2b1nn8TH9TDb3Yw4idONiDOw4tQ6gMzM03Lj9OtlzdoNUlxSKqHWOeTokePWtVlvc14J9Dh79+4lh44clYiICImJ8TSkciviJE43amqcXaK7SFmFSGl5lRSXihSVVsmFEpGCIpHzhSI5+ZXWTST7vPX3cislI6dSss5Vmccyz1XKmbxKyS3Q+9a/K/YkgkvKreO99fcqq0JEewZYL9tsgmV/tqSCC0Um4avDYes0NzFR/q3PBhoTrD183V3TAADwuw7t20u79uFmmLQH779Hoq3C7P/+xX+LDuGs89sOHzbE9AI+ezbH/hdXTgvR5/KL5NYpAyUry39/tzHtwsMlvF24mav45htvkM5RkfKn1/9svZcwCbce69+vj+kFnJdX/4nYLbRQoXN8nc3OMS1UtaXq2+98ILk5udKpU0fpmRQv5WXlcjory/4X7kScxOlGxEmcbhXVOVLyzudLXFwP07Ns+fI1snLlWunWrZtJOujoGN/tr3/OfzchTuJ0I+IMrDg7d+4khUVF0iGivRk5Yt93B2T+/M+lW/dYc24Jhjh1iqEhgweYHs3aWcXNiJM43ULfsiZuNWnbpl1nKSxtKyVVHeSGW2bKgRP58sXSPVLRLlGOnwmTmJ7jZMeRUtl1tFwOplXKkYwKOZWtyVyRnIIqKSgWKS6rtMrKIuFtRDq1r5LunUMkqWuo9IwNkYQYMcu46DDp0jHUek6IVFSFmIRv7oUqyTxXJSeyKuVAarn1OuWy92SF9ToVcvx0paSdtV4nr8q8Tn6R9X7LqqS8/qnNLypYvrctSRtntW8XKqOHJkrmmbrz7gPwPxK+ABCktPXi9h275c/vfSSff/FNrcRmt9hYOXMmWyoqKuRcbp5V8I2UQ4eOiM5327VrjCTEx8n+A4ftZ7d+qalpsvjrpbJs+epaieouUVGSm3POKrBXyPk8nbM3Qk6ePCXFxSWmN1a32K5y/ESq/ezWr6E4u8XGyNmcHHNhci4vTyIiOpje2+fP55teaP3795EDAbA/iZM4WzPiDKw4CwouyIqVa02sOpyonlNVIMWpITUUZ2RkRyktLZGS0lIzh2RIaIiZHiE9I8M8RyvE0jNOS1FRkXl+a0ecxEmcrVewxFlWVibr1m+WLxd/K3v2fGcqyVV4eDszBY1eh+n0OjoKkTYwOnHiVFDF2btXsunRnWNdu7kBcRJna4rTeium521xmSZfqyTvQpWcza8yvWvTzlbIiTOapK2UfSdK5as1J2X+0iOydPNp2XeyTI5mVsrp821E2sdKVm6pnCsolyppY+LMPZslnTpUSd+enaW8IF06tyswyduEmFDp0SVEYjuLdO0k0qVjlURFhEin9iES0U6kXdsQCQvTxpL2G7SFhVZJeJsq85zI9lXWvwuRmI5W+bpziPX3rL/bNVSSu4da963HO4RYn71Yn7lIQVGVZOdVSvrZSjmqcaRWyM5jFfKdtTxs3T+RVeHpTWx6EFu386WyZv12a38uC+jvLYDgxJDOgJ8xpDPc4tulK2Xt2k0yfPgQ0yr8y6+WSGxsV+nRo5sUXiiUI0ePW49vlIED+8kTj39Pjh4/YXr99u3bSwYM6Cu9kpPMHAX+UF5RKcdSc6wLha5y1FomxHezH7lyBw8dMYmHfv36WAXzXFm5ap3praxJ65LiYjmVliE7duyRXr2S5K47b5G09AxTsZSUGC/JVoxxPbr7Lc7m1FicpaVlciI1TY4eOWYqwx64b6Zn24lUM0x3926x0ttaEmfrQZzESZytlyZv53/6uWkYpKNi6Lk0PT3TVAJVVlZd9TitU6q5lZdXSWl5iJSUeXpnFFmXeoUlIhdKqiS/sErOF1XJuQIxFV9n88W6eYbVy8oTUyl26kyJrNlyRELCu1q3GNlzMNM6R5+TNu27SFFZW8nKKTTzIn13KFVuvuUW6dm7r+zYdUC6dY+TDhGR0n9Afwlv116qdHI20aGtPO+vtWlsf7Zt21aOHz8p+fkFsnPnHnnw/lnWfkyWjZu3mv2p/0bLSe2tf9faESdxEmfrpeeJBQu+sI7dFaINbzdv2S779x+0rk+STYNUPYdokkETTnfdcYuMHn2tbLGeo9cpev0WDHHqnPg6AlNUVM28dq0VcRJnc8ap1YTldu/bEi3bmVuIKdtpme7chRCT/NRer9ozNv1slZy2ltn5Wu7z9ILVpG+xVTYstQqMlZUhYhVZLRWyfesmkcoiie3cVo4c3C1nT6fKwL5xEtulvZxOPyFV5cXy3b7dkjJxlAzsn2x9Dt9J99gY6RLVSZJ6Jkgn6/NoCaHWG9Zkb9s2mjwWaR8uEtEuRDq2DzGJ4M4RIRIVESrtrcetSxHrMwsxw0KXlIVI3oVyWbd5vxRXdJC2kQly6MQ5+e7IaQkN7yzlEi5ZZy9IXkGxbN62R26cPk1GjbpWtm219mdcN1d9b1uL4uJSKSoqlJioCMnNK5LkhGj7EaD5BeuQziEpKSlVmuzVViubj1tX/ACuyLEtS6xCQNNOYE5CV9WX3NXfprN0bqFh4ZIYF2Oe6y/NMYk5WjdtsfjGm+/JrJl3mPlq9Xu2YcMW+ezzxWboGp2X5PU33pVbbr7Buk0zJyb9/nmfuPypqKRMlq47JDdNHiDfWsuxo66xH7ky+p619/I11wy2Cua9zTatGNKWuSNHDLcuwrrJZ4sWy4QJY2TihLEmNv0sVHPE2VwuFqf2KPv448+kd59kudXan5qAIc7WiziJkzhbtz179kt6eobcbJ0j9b1rI6HPv1xiauCmpEww55VLiVMfrqj0zE2myyp7qUlbzZVWVljbJETKraX1MZvt5eb5+rnrkHeeoes8f8d6HevZWhGmlXfOur50qHl9z7lc10NCqsw8aLquz9UctPl31rNCrP8dPXZMzmTnyrgxI3WLFBQWy6bN2631UBk1aoTs2LVXiopKZczoEdKuQ4T1DE0yWxe/oRqzvhctx1rlB+uOLq13aP6+5zU9c7C10dcLtd5HmPb00NfW5+hj1n3rOfqWrY/QWtfn6f0qaaPP0z/nJ43tz7vuvFm++nqpafB2/713iyaQlH7f3dA4wRtxEidxtl4nU9NMgmjGXbdJ27ZtTG/Cb75ZbkaI0GuzLVt3yMGDR+SeWXdKQkKc+TfE2XoRZ3DHaRWBTHkoVMtDVrlMi0Da+E3LbVqe03KhrusTdaFlN0PLf9Y/KC4NkbZhVaZHrt60AZ8meLWs5ykbWmUlU47ylIecMp8pT1nHSV06ZSUta5nyVBM+8tOnz8i+fQfkuqmTJKxNmJSVl8vGjVvl7NlcmXbDFPlu/0GT3J52w1Tp1s1TJ+l5L9YLuIhvnCWl5bJpy07JPVcg48aPlaNHT8rprLMyYsS10iky0pS/K6zPvk0b3S+aZA4xw1LrumdblXULNclnTUKjttxz+dZ3KFv6JXeVIyfPypQxfexHgObXHPmOtMwc6/q81JzLnJuWUZ2lc1O69K0L0PupqafMup4F7IfN9qSkRLOM6VLTqGTu3Ln2WsPmzJljr3mSv/TwBfyMHr5wAx2yZvOWbdKnTy/pGhNtTjw9eyaaFosLFnxpWjFOmjhOxowZUetE5az7W3P18NXfjLa+1VZS3bvHmm06v2JiQrzpeRYfHyfjxo6SIYMHtkiczeVicXbr1lVGjhhq3YaZ5IMiztaLOImTOFu3rKxsybRu/fr1k/JK6/2HtpVevfvKkeMZkn2uUEaPmyD9Bw61e1uI5Nk9aXPyKyX7vMiZvCo5nVspp89VSkaO9rqwtmsP2/PaK8N6fmGVFFi3C8VVUlRSJcXaS7fUU9lnfczWB6eJUk9FU/vwEImwblo0jLJuXTqFSFRHT88G7eGgNx0+T3s86PB42vtBbx3CPf9Wh9QzlVZ2JZVJxlo33S25uXmSczZHevfuaSoV27drY+YhPn7sqJw/d1ZGDh8oA/smStcuEfbfFut9hFqvpXOzeYba8/Sw8LwnvXWytnUMD7X+lvXabaz9b15Lk8Keiswyu0ey6Ylsxa+9UHTYwVz9/LQn8nlPLxVnWD79LHVIwhy718r5IpHz1meXX1QpF6y/UWRunvncdLQ+U3Fq3UyyvEovwK39eSbb2qdZMmhQf/NedB7/Af37mKkrMtIzJWXyBBk1crj13a658Hbr9/b0aeIkTncJljh1LuKjx47L4EEDpE2bNuY82a9fbzltHZ/27P1OpkyeKCOsc6iOEuEgztaLOJs/Ti0O6agqpmGZJkJNOcLTAM5zrveUJ0rLREqsskVRaaUZzliTqTovrOcmpqer52aVH6zyxnmr/HBey27W7Zx1X8sWZ86VWWWPMgnv2F1yC0OsMkmoRHXvLRfKO8h3x3IkPnmoJPQZLqUSJem5Wsaz/o1VPjlj96rNri6r6HDC1t+0/q6WbfLtMosOR3zBev2C4kpTbtH3pvPXahklNESHOLbKbW095aouVpnKlPXscl4nLVdZZS4tg3WwynXa01XLdiYZad2cMl1TXLhQaEY769W7l7UvQ62yX6hJPuTk5srRo8dlxLXDZMDAfhITHWX/C3d+b33jbGPdeibGy9mzWZJ64riMunaQ9OsTL/HdIk0Z2pRlrTKslp91X2hjSi2Tl1jlSh09R8vtWk7VcmnGWR01R8vznjKs9r7Wcmip9Vz9bmrCXz8yTcYHC6eHb3TnCMm1Cur08EVLoocvPXwBv6CHL9xi0edfm9aNTz35kLk4U/p9+2bJclOJ8tyzT0h7r5NMc9Ievht3pcv5/ALpHBUjVeHd7UeunLa8TU87LcOHDxYd+s2hFUjaWnfo0MG1TqYtSXtwaSW6P7TmOP3JbXFqUuFydrGb96d1GLEKs/adiwiU7+3FYg7E32d9x69APg7pPja9bK24i4pK5MCBg9KvT7JEd4kSpwdtcXGR7Nq5R/r2TZaEuB5SFeLp9aAfk35SpgertU2fq9ucHhn6l1sjHSZ12fI1MmH8aImLqzkva0XZ0mWr5dprr5HevXraW1ue7hPtFKM9oPVYqwlcrfzVde1RU6mVatbj2lumqirU83zrf56ytVbXeZ5fVFxs5lXuZ+23LlGdTeWo0rnb9u47IMk9E6sbMbiZxrln93cyYEA/6dLFU5mgiopLZO/e/YEfp9f+7Brb1W/lr6ulKXEGy/6sL049DrhpF2tvwF2790m8dayNj+9hb/Vs32P9PrtER0nv5CR7a/30GNfU8tfV4o84vbXWmP0dpzd/Xj9eqeaM01ulNnizls55XHvC6rlcy1HWWd2c7Z2PRL8Pus0zkknNNt0aGqK9r/TvaFnMelzP99bn6VTOawW+6a1lPVefqH9dX6O0rEzWr98kfXonW7eepmyh/9OevmvXbZQe3brK8GFDvN6PO5WWlcu3S1fIwAH9q0frUbp9xYo1ZohqLfu5XXPHaX39TU/sCqus6YzOU279T+/rucnp0W0aWbr1y3IJysuKzPzO+rvr36u7DOxNwhctJ1h7+JLwBfyMhC/cIjf3nLz8yhumN++tt0wzJyelc2X96fU/m6HRtNdvS9l/4oIcOHxCevcdVH0i9Icyq8S9es16iejQQcaOHSlt7OR2eUWFrFm7UQb07yuJ9hBTLa3MugBoq2Ms+UFrjtOf3Bbn5e5jN+/PS4k5UL63F4s5EH+f9cUc6MchPTXpmVIrCHWYUZ3rXoe469y5k+cJFh3uLifnnKRMHm9vcbfgivOkTJ4yRaKjasrEBw4eNj2dJ04YY29xNx3C8NjxkzL1usnSuVNHs01/y0ePHAn4OJWzP8eMHe238tfVdLE4g2V/1hfn5Za/rqaTp9Jk+/bdMmnC2FpJ7LS0TDl09KhMmTRB2jQyXqhbYr7SOL215pj9Gae31hZzc8XpS8tgGrVZXoXwteGiTmsxdcoE6dG9ZjSyU2kZ8t2BQ3LD1Mmiwz27HXG2TJxa/Vtc6hlhJxiczzsn58/nynXj+ppe00BLIeFLwhfwCxK+cBMt6L7xxrtmzsWZd98u4eFtzfy+r1nbZln3WzLheyq7TDKzciQ5qaZ1sL/kn8+X+Qu+kE6dIuT2226WiIgO1gm6QhZ+tliGDRtseg0EAuIkTjciTuJ0o8ryClm6Yo0cPXJMZtx1qyQkxpvtu3btMxdwd955i7nvdsRJnG5EnMTpRnrdv2Xzdtm4aZvccvMNZuhUrRxMPXlKNmzcaq7N2rYLt5/tXsRJnG5EnMSJy5eTe14KLhTJkH7dpWM7Er5oOSR8SfgCfkHCF26TnpEpb7zxnlRY369JE8daJ540M5Tzgw/cUz3UcyDIyzsvb73zgWRlnTHzE+cXFEhOTq489cTD0qFDe/tZ7kecxOlGxEmcblRRUSGLv14mK1aukaFDh5jey1u27pDvPTBb+vRJtp/lfsRJnG5EnMTpRnrtv2HDFlnw2ZeSnJwk1wwZJJu3bJcbp18nY0aPsJ/lfsRJnG5EnMQJwF1I+JLwBfyChC/cqLS0TLbv2CWHDh+V5J5JMnHCWNPbN9Dob2jP3u/MXHVRUVEybdoU6dA+cJIPDuIMLMQZWIgz8GRmnpZ16zdLWVm5TJ0yURIS3DtsdWOIM7AQZ2AhzsCiDadWr9kg+fn5Mmb0SBkwoG91RWEgIc7AQpyBhTgBuB0JXxK+gF+Q8AUAAAAAAAAAAGh5wZrwDbXXAQAAAAAAAAAAAAAuQ8IXAAAAAAAAAAAAAFyKhC8AAAAAAAAAAAAAuBQJXwAAAAAAAAAAAABwKRK+AAAAAAAAAAAAAOBSJHwBAAAAAAAAAAAAwKVI+AIAAAAAAAAAAACAS5HwBQAAAAAAAAAAAACXCklJSamqrKyU8vJy2Xy8wN4M4HId27JEoqOj7XuNq6qqstdq1nXp3PS36SydW2hYuCTGxZjn+kt2bqG9BgAAAAAAAAAA4F6x0RH2mn+kZeZIZUWphIaGVt9CQkKql85N6dLJ9zjb9H5q6imzbt2z7ttr1kpSUqJZxnSJ9Gy0zJ07115r2Jw5c+w1kUmTJpHwBfzNrQlffx8AW4qb3zsAXAzHOACBhGMagEDCMQ1AIOGYBiCQNMcxzQ0JX4Z0BgAAAAAAAAAAAACXIuELAAAAAAAAAAAAAC5FwhcAAAAAAAAAAAAAXIqELwAAAAAAAAAAAAC4FAlfAAAAAAAAAAAAAHApEr4AAAAAAAAAAAAA4FIkfAEAAAAAAAAAAADApUj4AgAAAAAAAAAAAIBLkfAFAAAAAAAAAAAAAJci4QsAAAAAAAAAAAAALkXCFwAAAAAAAAAAAABcioQvAAAAAAAAAAAAALgUCV8AAAAgCGx9+Tl56hmv28vb7UdsGV/KT555Rbbad2XbK3WfU0uGLPrpc/K7bfbdatvld8+8JIsy7LsN0df76ZeSbt+tX0OvAQAAAAAAAEdISkpKVWVlpZSXl8vm4wX2ZgCX69iWJRIdHW3fa1xVVZW9VrOuS+emv01n6dxCw8IlMS7GPNdfsnMLJTY6wr7nLv5/71pJ/YrIC6/Ki6PtTQ3S5y6UXj9/SWbE25uUVpDPcyrI42W27+O29EUvyU9OzZQ3nh9lb7kYrfR+SebXU4GeMOsl+YXPi5i/v8DryfEz5Rc/v0MS7LuN8fzbOHnxtR/IGHtbDc/72DDBfk1TYb+wVoX9mFqfn+czrU4gVKv92Wgi4ndpDb/Hiz1eW0Ov6fveGuO7f2vfN5/RxvFN/kwvn+fzPjH7Yu+7bsz1fS/q/R6N/UH199B8zlvMaj0a/j7XUet3oHz/re/n66POv7ddwvdY1fkdVGsoFufzGdXA979lufn4jNrq/LZ8vsuNnxMaPv77HtMa+w1f7PhX5z3o73DjhEbOUw0dny7y+7Y5r/eivFLnPdccv5p6DIQbcEyDX5ky6CaZaI41nnJQ08rwHFfgHxzT0KyaWK8A+AvHtMvhUw/jVbfiUftx3zqa2vUVjf3Om1rOafz1anjKQtX1ehfVQNnJpz6w4dfzoce3+ck+dTue16h9zdtIvczFXtvn8SZdCzv7ok69U1M/V0cTn1/v5+D7vbiUekx4a45jWlpmjlRWlEpoaGj1LSQkpHrp3JQunXyPs03vp6aeMuvWPeu+vWatJCUlmmVMl0jPRsvcuXPttYbNmTPHXhOZNGkSPXwB4PLUPnlX0wLFvEyrkPaqvPGadXshTub/tO7zfE/el0JP9OZvV99+IPELrL9X3ZVKC0nPeZKRXs97MXFh7Z5bjUiYMdMqUG2X9fX1qNq20CqAxcvEsVZhpbqizev9/HymZMyzXr9W1y4tuHo9x7r9YpbU89lsknn19CbTz6vhJGRD6r6m89780VMsYcZL1t9reuKxWWkh0dq3GVYhsibel2TixpfkqVq952oK9d7Pm51m/Xv7eWOed7ZbtxesCxUt6Ho9t0nXAqZyQqyCufff0t/CJX72tV7bczPf44v2CPShF10+f6f+759Fv9/WRcWY+O0y/6LdE4GmMUlYqf09vJRjsqPO8b+eY1qt37B9+8WseHORebHKgfl6XtqixxO7B7BWMnrfd26X+hu0mc+h+r1myNaNIrNnWb83fc9WLAnmgt5+z0062ACAw3P8oDIMQEBoYr0CgKvJUy9YUw/jqVupXTfn/bin7s65HvLUC2pHi4v/zre+3JTff+Ov5y190av1NiauX32JWGXF/9OFIk14vVpqNWbxkrFdNohvHVDjyd746utjn9e2H695by9Jr/kN10f57gtzrV5dN2nX/3rVK80+5V0H66uJ+6Ghz8Ha/pMF1nWyc/w31/xNGD0LsJHwBRB0tMK59hCVejL2SVBu9Krg9qnYNv9eC3VjR9VJ9m1dsFDSx86sSYqNnimz470Sp1rosP6mFiTGjLW3XbFRMntWvKSfyjT3TMFNC0k+ycgxz1uFzyYnsUbJJOv9bZ1ft1J/60brs7NjTN+ySdLjx8sY73r5+DvkBX0/1vMaSwgkjB1fN1maOF4mpm30Kch6kgJjNMF8paz3NtuKKyPN+Qw8+756X/sW6KzHPUlK3/ueAmH1d8Ps11dkkW5r9Hvjuf1k0ZfW32u4sHlprPdmFRI1EVQ7QRIvM35u7XNZKPOcfa4FaCdZX8163gszJSFjk2z1UwHS8x2ZULtgPvoH8qJ+p/SxK2C+x94xXaaGGjXo+0uYYP1uJ1z8Oww0jfU922J9dyfU7iU75nm9eG2gYU1TWce0X7wwSrbOcyoAfI5pzjFnQYakWxeZvtu9j1NaiVC70Yh100Yf9TSYuJzGLk7SuzoZYxoPxUmCfTgy5xPv44a5SK97DgIQ3GqVpxactLcqLas5ZStdf8kql3k3WPE+TnoqLbfWaaAIAK3DResVAFx927TuapTMrv6hxsuM2aNq6hHM9Y734566O0+diNZzZUjCLK2XsDX0O9/2inUdNap2/Up9Gn09L9Z11ryNcbXr8Rpg6r2sMtX8xHpePyPDisK7fslTj1hT3+bLU1Z7al5m/fV7GSclPTG+gevM2vW2nrpI6/OqbuhXO1bn8Rd89k11HacmW73Khr77wly7b7HrJu39/KJXz+0x1nPFOk7Xrru0XXQ/NPY5WHHO3269l+dqjv96zd/UzheAhYQvgKBT68StTBLM+2RsXWBtqemdWKdHYZKnxdkvZiXbGxwZkp4mkpAUZ99XVmEl0fp7XgWsiaYF2g9kkn3fv+yCihVj3UKSJgCb3mtKCzB1k4C1ExcJiVasGVZhxqdA2pTer1oAE+/CrRFv/e3M2gVc08pvvExKsu/7jV3hl+gkM+yeribp6wwb4+kl/OJo3/uev1DbdpmvQ6Gav2U91/pcnKSkp4dyTc+12acaKBheDrvwOane9+RzwREfb23JkPkLfAr8fi5AxidZf2jLwjotEE0vvgaHhm0q/Y7UNHDwL/1+ey5YTIMEPybBEczipJf1k6jbgMZPvdFGa5I0U9LNd9VznPcch2puTg9f3+3Vx2nron9+mvcFsUd6WtN+Z5o0qUmqvFTnt+8ke2t+/54L2Rqec1dNb2Ln4hsAaphjiU7vYY5hL8nEtMYaZlnlnY3J1c/VCtTfmTKeHif1vlUuqdNYDgBag6bVKwC4ykZrXVLtHqje109mPT7Z+vXWMHVopj6yvvq5TDlRp/7BKr/o6GnPT7DvN6zx13NY12HzNsnEF2ZKL3tL48Z76rHqe327fmnDFudNe+oL4xMbLlv1MtekVjmsnvo9ff8JaQu9riu9rwlrf1711TlmnPL58OpLHmectN6xpda+q7svzLHWuzGyz+fq4VyD19aU/dDg51BvJw3g0pDwBeB3Cz/73F6r38Ueb3amcrym1VydXkWWMS/UFNp8E59jZjSeyPQt3JjklyP+DplxpZX7vrR13oIMOwnrKSA2VsBqsvhRMjHeu/BmfVaLFspW71Z0ViFJEwm1Kvvr7ZHl6RlbU3Cze5zVk7TTRFuG14WsSQxbsfmluKMtI+2EntPqrqaVnlXI056u9SQqmyZedGhSD0/LRk98nkRGne+UvX6l6itM1mI9luAUajXBpMOm1hqitW5y5kpp4fvFsT77vFav+itjCstp1vfHvn85zHfZJ1Hu+X7bPdZNb/B6kuPAJdMLSE8jEB3hwflN+KeHv9KEcoY59nv3fPO+NdjDV2/629RGHw000qld2Vi/2kNNezceyTAtsecnWRe0Xo09zEgU3q3EneOx/ns9RjV2TAMQpOxGh7OdY5VdbjPr9fN+rjYWu9KyAwC0pEbrFQC0Qp4pcmrKHxbfpKPWz9irvurUt1l0W0adjhKNuNjr6XVXotfoAReRMOOORl5br9/sqcTMteVC6dVgBwk1SmY08sKasE2XmqnpfjErU+qdSq8+2oB5S02dnGnAv+UVr2tu67q0VoPj+nl6NFvX6tphw7l+1Tpkrw4dyozCYK/Xq9H90PjnoNf3CeIZHdLzufq/zg6BjYQvAL/rmZRkTkr10e36+NVVe5gRLVTUHmoz3vTGqma3Wqvb0u7qqN2TyrrZ81L4f86yeE/v0OphSurvPWxa1tkFMh2yV3v8mmGra5VI6plPV4cKrS+5qonm6mGd9TXlMlu31U0y6/wYY17wJCPqTZSafe1vmoSv7zt1lZjevF77wPmc/Dx0as08op5eNE7PPf8luS5BPXOQeuZn8W6NayfmvS7O6owGAFw2O5mpNzNXrXMs929P1rrz93p+f/X27nVu1oWsc2Fb93fScKL44sOg6rHlVZF6etBlnLJ+f9WtxJ2Lb09DLNMIy/cCGQDsYQNbTXkKAACgmg7Ta13bjfWawuYS6PWYmbf1Ba9ksRl6eXydUZgun9Nb2Lv+8wpY7+8nz7wkJ2Y715Yz5cRPm3KdWD9zLevVCDlhxnNmhJaLTkun78PUi/oMg2ymPnKuX63r0tkX73hRXb/582SZX51o9XScEK/r4vUTvOuS/M2zn15wrtfN3M4kfdF0JHwB+N3o0SPlb3/0Q3MS9Kb3dbs+frVpIsczzK32FmhoONzL4ztfRZ1hRa5Q7Z5UnltNZbpn6NCG58y4RN69oesZ+tpXdbLBKljVJIobYOYnqd2D2MMzrLMp1NnDOTdlbpG66kkyWzf/J8avLs+w2k4P3nroPCgN9ZYzw9jo5+Lpfeg7NLd/eIbH0dcxvcHrmRf6Uplk/aUkhLznILWTbbXmylGmh6FPg4p5niRU0+a9BpqoutGFJmP98f2qp1GJbevLnmHrq88ROldRPb3tvRvu1Nzsi9j65vC1br5J3Lr0GFz/UPGe+YttppW5Z0gtsX5/mmSu3QgLAAAg+DR3vQIAf6lJ9taZwsp3dBGtn7FXHdXJ3lrXThn20MteCWAvvg12qxvWN/J6W19+RcRr5LlaTPLWqy6kCSO0OfPkes+j+2JT6gKbLF50KPtGVSd7X6p7fVpd36U367OVRurGfPmOeOjdccK6vWg9lqE9cRv6Y03Y7w3TBLPXfm+w7hSoHwlfAM1i2NBr5J//8cemoKB0qfd1e6tghuTYJFsXbbQKZbWHc9aCVa3evPX1KKiXpzBSe5hi6ySf5kkwtwx7flNnzlYfZrjPSxpad5TM1iSd9ffMkCW1PiurANpQ6z0zXEn981n4qm/4aR1+RfQ17eGcm5zYuwT1JkrNvva3muFWq/nzdXyGKK/N2kfzt1f3yjYXBfX25PVnQwG92Km/J+9Fk9NNYvc0b8Iws/WyW3pqr0Xv9+iZo6VuYkt7rTf0ewKaRJOs9fbkre+ccRnMPN51Lzb1927muvSudLAuel+U+pO+vrRCIEN7Bk/YeNmttOuoL+GsF+LmPXoqCMRnGDMAMOobcadZym0AcLW1hnoFAE1iEqX2dZNPsre++g/TeN2rXk3r6Dyjj/k0lDUdLrxHrfNcT2oDdb02822wqx0bGn897ezi+feev/eSafBuRnPS6zOfhGadxHWzq68eyXPca3DKOr22/OlCia9nRKn6mDqfejsONFyH1RBPsrv+5HFT9nuDTHm3aXWpQENI+AJoNgMG9Jd/+PGPTGFCl3q/9dBhnT3zc9Z30VTTCzFDFs3TRGfT5rgwc7N6D1Nsz0vozx7EF2OGPZGF8hOfxJ4WJHX+2pp5Zpumeu6LOv/WGfK5duJMeZLDF/nMGvtstDWdFcPvFlzucM5NYFrJWQW76uTDpe3rpvMk4bfOq0n4XHS+j0viSZI4Bf8aVjw/tQrxMrN6CKCEGTM984j6JlzsfdFY7+2msxsJzPMdcsZ6P5p8vpT5Z+pheix6xXRZNOk11vpb1e/Rc/FT37HAdw5v4JI5xxrfxhYZtecZuixawWCGqq/dUtu0Et84vsF5ec0w5w0mffXYYZ0vxO4ZbP1eXpBXm5b0tSs8GmrRrRe6DTbWMLFk1gxjppUODb1/AEHILl/4ltHNOgAEltZQrwDgYvQar4Hepcq+DqwZ0cme49eudzANdHWu2FpTTdl8E7D2c3TEvwaTm42+nr6O99/zmvrnMpO7pq6w1khx1udhXZteXp2P1tFKrRHh0he9aup+6m0MXH0d3MAofua61KtOalt9dZoO3zKm/drVdWQ+CWHrb8/znavZ20X2e+P0vYjMn+dVd2CO//HNVzeKgBOSkpJSVVlZKeXl5bL5eIG9GcDlOrZliURHR9v3GldVVWWv1azr0rnpb9NZOrfQsHBJjIsxz/WX7NxCiY2OsO+5yxW9d20NpvNX1Cpc6Yl8ofSaFWeSwUb8zPornbUA8dNNMtF3yErzd52K9IaHtDQJWKlnyJcGeRJ4Oj9GU4Yl9iR47TuqoTiawPwt7SnW4OdQu8JNC401hVD9TOvv3eb92fh+Hr4Ji4smMGqx92MDn30NOynqlMN8huBxPkMnHu/7JgHivJ96vgu+8Tj/VmkBOH7Bpia8P+XzHr3ULtzW/Zxr7wdHPX+voe+GfpfnJzfxM/dR63fgcbH362F/LzLq/nujvmGSGmG+N6dm1vNvnM9hlDwyK1PerTOnr8N+XqKnZ2St32wD+31+UgMXfJfBzcdn1OZ9DPCofXFvvqvWhWAd5jsf18BxoO45psG/Y3N+h77HKOW8x/ounJ2/W/sxn+NJ9bGk/mOw/v31E5x/r8/ZKJP0M7DPI9o62/d1Pa+hcwE35XiJ1o5jGq6U97FUEyIZVnnKcx72lCt03vAXR3uve57rW46sPlZeYrkC8MYxDc2qifUKgL9wTLs0DV93eV/n1a73qKmjqb3dW/31OHXLNvVr6PV8ea7jNkxoat1FA6/vWx/YxHKVb7nMUfua2ftzrP1+az/Pi3fdlk+dVK3rWPNY7frghl/b4hNn7c+1vs+mafuhoc+h9neL4//lao5jWlpmjlRWlEpoaGj1LSQkpHrp3JQunXyPs03vp6aeMuvWPeu+vWatJCUlmmVMl0jPRsvcuXPttYbNmTPHXhOZNGkSCV/A30j4tqwreu96gt84gUoeXAVa+GtKQhrBjotuNKuMDEmPj5cM++K2vkSvr+oLYb2Yn5XRYKK2/otw38oPTfhOkPUXrTzwueCGa3FMAxBIOKYBCCQc0wAEkuY4ppHwBYIQCd+WdSXvXSuja3oaAc2lbsvJhlrxAb646AYQSDimAQgkHNMABBKOaQACSXMc00j4AkGIhG/Luqz37vQaalVDuHmSgvUN2+toSs+rpmpw+BNbw8O+tAL1DBVcyxUMXd1sfIe5qX6PLbvf/aE1fXdc/T1uIi66AQQSjmkAAgnHNACBhGMagEDSHMc0Er5AECLh27IokAIIZBzjAAQSjmkAAgnHNACBhGMagEDSHMc0NyR8Q+11AAAAAAAAAAAAAIDLkPAFAAAAAAAAAAAAAJci4QsAAAAAAAAAAAAALkXCFwAAAAAAAAAAAABcioQvAAAAAAAAAAAAALgUCV8AAAAAAAAAAAAAcCkSvgAAAAAAAAAAAADgUiR8AQAAAAAAAAAAAMClSPgCAAAAAAAAAAAAgEuR8AUAAAAAAAAAAAAAlyLhCwAAAAAAAAAAAAAuFZKSklJVWVkp5eXlsvl4gb0ZwOU6tmWJREdH2/caV1VVZa/VrOvSuelv01k6t9CwcEmMizHP9Zfs3EJ7DQAAAAAAAAAAwL1ioyPsNf9Iy8yRyopSCQ0Nrb6FhIRUL52b0qWT73G26f3U1FNm3bpn3bfXrJWkpESzjOkS6dlomTt3rr3WsDlz5thrIpMmTSLhC/ibWxO+/j4AAgAAAAAAAAAAtKTmyHe4IeHLkM4AAAAAAAAAAAAA4FIkfAEAAAAAAAAAAADApUj4AgAAAAAAAAAAAIBLkfAFAAAAAAAAAAAAAJci4QsAAAAAAAAAAAAALkXCFwAAAAAAAAAAAABcioQvAAAAAAAAAAAAALhUSEpKSlVlZaWUl5fL5uMF9mYAl+vYliUSHR1t32tcVVWVvVazrkvnpr9NZ+ncQsPCJTEuxjzXX7JzCyU2OsK+h+ZUWFQiBReK5EJhidmfAPwjNDRUOka0k04dO0hEh3b2VgAAAAAAAADBpDnyHWmZOVJZUWrqIJ1bSEhI9dK5KV06+R5nm95PTT1l1q171n17zVpJSko0y5gukZ6Nlrlz59prDZszZ469JjJp0iQSvoC/kfBFQzTZe/rMOYmJjpTIjh2sk4HnYA/gylVWVkn+hSLJyc2XHt26kPQFAAAAAAAAglCwJnwZ0hkAWoj27NVkb1RkBMlewM/0N6W/Lf2N6W8NAAAAAAAAAIIFCV8AaCE6jLP27AXQfPQ3pr81AAAAAAAAAAgWJHwBoIWYIbnp2Qs0K/2N6W8NAAAAAAAAAIIFCV8AAAAAAAAAAAAAcCkSvgAAAAAAAAAAAADgUiR8AQAAAAAAAAAAAMClSPgCAAAAAAAAAAAAgEuR8AUAAAAAAAAAAAAAlyLhCwCtVNaZs+a2Z98Bc9P101nZtW5mu7XMOpNt/ysAAAAAAAAAABBMQlJSUqoqKyulvLxcNh8vsDcDuFzHtiyR6Oho+17jqqqq7LWadV06N/1tOkvnFhoWLolxMea5/pKdWyix0RH2PTSXI8czpF/vePvexX3+1VIpLyuXMuv43C02Rtq2bWsdta0HrK+K+Y5Y/6WnnzbP7dSpo4wbM0K6d+tq7jcmfdFL8pMFGfa9eJn985dkhtfbqv34KHnxtR/IGPueyHb53TOvyFb7noz9gbzx/Cj7Tm3m72wcL7/4+R2SYG+rT+Ov52XbK/LUPGn4cV/6/PnJdV5/68vPye+22Hcaez241qX+1gAAl885r4554VV5cbS9sQHOOb/uc2uXLxJmvSS/8C6cGBmy6KcvyfyMSzl3+5RbvNT3GrXLCJb4mRctxziqyzP1lI2cv+v9mrXLP77vp+H3XavskvGl/OSnCyXdbPcp05ly03bPehPj8H1PNS69vKR/a5485xWT7r9XRV6w36Pz3i/hM75STnz1f7+81fP5N/g+fZ9b+7Nq+DP1aMrvRjXt+9LwfmrwfVzi599YPPV/rl6fj+9reX9H65Ew60GJX/BBA7+Dhl4PAAAAaJ58R1pmjlRWlEpoaGj1LSQkpHrp3JQutf7eWVd6PzX1lFnXCn77YbM9KSnRLGO6RHo2WubOnWuvNWzOnDn2msikSZPo4QsArVVZWZnMuvtWuX/2nXLDdZMkZdJYSZlo3azllMnjZNKEMfLgfTPMLaJDe/tfNc5TSRMnL772qryhtxfiZP5PvSqptr1S6/FfzMqU3/30S7si0VNhkzHrJc+/fe0lmZ1mPX9RPZU+GV/KvEYqt6o1+nrerNdupEKojgYqkDT+323RyrCLvR4AAPAfTfY910CiyDdhZp2vF1jn6232HaXJwWc02Wvf9wN9jZoyjOf91Ur2qoyF1uvWfm8NSRg73pPI2rLR5/nbZb35u6NktpOcMuWf2sHUfj+NsT6vessuGXLC659v3XgJ5aaLqruPGlM3Kegk6+27Kv4O+YWWx1oo2dtk5rtWT6zmu/CS1N5FGpfvcy/ts2qSK/q+XMQlfMcvps7vVm3z+j1kbJKtfnjLAAAAAOpHwhcAWqmysnJZv3GbbNq8Q7Zs2yXbduyRHbv2ye49+2XvvoNy4MARs9RbU23dqL0aZta0/B89U2bHb5f1pnImQxbN317r8YQZ1rpTOWMqbLwqKyVeZsweJekbt/tUOlp/Z94miR97sRb3F3k9L1tffkVkbP09iWvTSrbn5Kl5mTKmntfPOGX94bETal5PK2czTlrvBAAA1KENqPS8+rJX8rC+bSpNE2XWdnPzTiDpudmT7EuIr6ds4CSEtGesJgBf8JzvqxOW+nqmF2u89e89my5dTWMv79dIP5XpWS561ZOM1B6I1c9zekpul/lNSazFj5KJ5v055SpbdXw15Q8nNu3dWev91ClT+bzv6p699SfOapK8TpL58mjPyZrXfMkqK+rWTEmvfk1NdDr7uvb+9k72agLwqZ9+IO9VJ3szZL4m/vXzNIlV69/ayWv9d/q3frLoS09Zztx8E6xaJvR+zC73+a3xnpZh7R7Tzvex1mdgvf8FXt976/U36Pur/t44z6v5DiTMqPksfzHL8wX2/nyb0ru36d+Xi6t/31qfo+/v+SJq/52a91S7oYGnrK/XDJ5yeYZs2OK1Q0d7fcb2v/f+3H8xwxk1y/d34Dzu+TwBAAAAeJDwBYBWLCkxTuLju0uP7rFmWOeuMV2kS5fO0rlzpFnGWPdjre1NNePnvpUjmV69QTzr8Ynej8dJr3i7csZUytQeJi49zVNR6k0rTTdMeE5mJ9kbGnSR13Nse0V+Jz+QFyfY9y+il6mAeqne149Psl7Lq+dN+pZNkh6fLFQXAQBQj9F2ktLr3FmdfJpgJ2hsWxc4Qwur7T69UD0JmxfqOZc7ZYnqv+e8ZlpGzb83SaDnZKJ9178yrJi03BEvs1/w7m1qvWdNQlmv3bTEkqchnNo634ndSXjV/rxMecSydZ6dKHUSX03u7RpXO/kdP0rG6H1nP2VkWK8skjB2VDP0ntVkr29va09S3x8dTtOt75HzXdPXmj+v5nvkGanFvmMeW2ji9BvvBG6tYbmtfftzuwy8ZWFNnPHxnjJkxkKZZzbq8zzJyKYkcpvqyr8vDbHe7wszPX/D+/fmL9Wf53iZPcvTA/5yktQAAAAAmoaELwC0Ujq+f8+khAZu8ZKYECfxcZ5k8OVKX7RQtsbPlNnVlVLx0su7AtG6n5Bor9axXeYvyJAxs70rm3RbnFcv4Iu52OtpRWmmzJ7lXenWmFEyo5HXNr0sXpDqniM/OTWz9Q0lCABAqzFKJo3VpdO7s2Z44km+Ca3qnnm+vVA12Vu7wZg3M/pGfZwRODS55TMn7qWze4I6N3vaB08S1m78Fj/ekzT1dqmv7SSrndidhJfP51U9/LP3+6q3h6XP+7Z70o55wffzTJZJE/TNe/aTadBmlakmTkj2PHyJTM/c6te0k7vO57NtYZ3e0J6eq57er1rWqtWT9ecPysM/d3qS6jzDF+mZ6fzdn9uJyOqRWDzlTuX0dP3FBOu9mi1+Yr2W+XuJVnnUbPDm/Ba81Wyr+cz8k/j21vTvy2WoTlpf2og3tb8j1s38pqz961Vm93wPrfdv/c4SnB7wDfROb5zv70Bv/v+cAQAAALcj4QsArVRoqGdC9z37DsgHHy+S1FPpsnzlOvnq6+XWeobZpo9dLs+Qe+LTm6WptOLlFdk69ge1ejCYoZfrVEJePqe3cJPzxxdhhgGcn1xTQZm0UGoPOwkAALx5kqL26Bt2z1Hv4Yk9vBM9ThKs9pyyrY0mDWv1wvTLFA81sevnVZ3w8p5OQ5n5a33KS1t06OqmDU28dV7dZFd8Ypz1f33d7XaPZZ9ewFdCk7B2A7nqHt5eDf7MlBy64odeoiY5qCvVQ2TbnO+eV0PF6te9isY87yS8HZ5hq+vMZXslrvD70iJMov4lrzJ7Tc/5iWY453jrWKJLn5F8AAAAAPgNCV8AaKVCQjyH6GHXDJIH75thevZOu36y3H7rNNPDV7fpY5ejOtn7c++KGeVbOZsh6Wn2arWaZG+tXi/O0Mu+PX5sNXOuebfKb+T1Mr6UeRvHywsNZHudud6c28Ur1jy9kmpXUD4nOodxk+bmAwAgGNm9VnUo1q12AtN3OOe65/Omc4arrcOvUy7UnQO0pryi00no0nuOWpuZP/jSkmrOZ5O+caHMr5Xw8uX1npz5S+v0fqznfXsllGup3k8LPb2K6yTlm67O/Kxeo6E0uL8CgfWdM3HWm7hueF7kmnl6nZ7MNYlx/2nK9+UyVCfSL+335nxHqpPdvu+lune7JwGuZfWauZ29h+1uirq/A/2s/dUgFAAAAAgUJHwBoJUKDfH08C0vL5esM2fNuvbyddZ1qY9dKk28/mRBnLxYp6LEU+GZkeZdW6PDHHpVVGZ8KT955hXJ0EoenyEOTcWW9jawE7CmUidjoXm+GX7wed9KmsZfz/SKMf/eTuqaoeI02exJFtdUrnlu/pwrDQAAOOxeq9Y5+XcmYWPdr+ecW5PgchJjvtM21C/B9Ez1+vfb7Hlo6x1WtznU9Dz0ni/WlDm07KFlkUsZPrd6WOftngRYnaGiM2SRSYB59dIdPbM6UXj57MR1hidZmZDk+Vz9rXp/Vc9TrI3w7ARec+4zr/ly59uN/Kpf11+qhx323ee6z+wRYbz3pzYI0DJq9XNr5nH2n+b6vng4c29X96y+RFoedxoheP9+as/p7cs6RvizBzQAAAAAg4QvALRSIfaQzhcuFMrhI8fN+vnzBdXruiwqKjbrTaW9Yn+3RVvJ1zfssqeSyrvVvWeOX6dia7v87qcLRWa9VO/ca7UTunaLfzO8W0NDPDf+er4JXU9vBn3vl9ui31NhXbuC8lWZnzHqEuYcBgAg+NTq0dtQz9HqRl/1JMYa4yRInX9fa37dllE9NLB3Q7PqKR+sssclzSFslSu8hvj1HlnEwyvBbPd81GRerXlyq2lDN+c5ntvv7GR63V7Dzt/1rNffq9gPnGSj12fl6blZe/5W5Znn1fkclR3zZc0/W/O5bp1nv+5Ga9+ZLZemzvyz+rf+f/buA76K60r8+FHvEhKSEJLo3WDTq7ApNjbuveIeZx1vknXIf0uS3U2c7P6TTfa/Id7EcYntYDs27hXbYEyvpnfTQQgJSQgJ9S7951zNCNEFPIk37/2+n0xm5r4nrKNX5s49t5hsqlU3/b69dnCLTozNr4/G2HIplJPfu7p5/P17ce+Xk5cuOTn2pvfTxdWFhz9l1/Wt98Rz5u94vNOHrtncsj7vjAg+vxHQp4vL2jy1jjEAAADgI0j4AoCXCrBH+MbFxcq4MU1NqwMv69t8rPuYmGhz3Fofmga5UxtNmhq5LMO+J//3ttzmx81IYHsaP2cUxamNZCc2JJ2Xs/z32oImpX+Q1rKBUqe1PlNCGgAAGE5iy3KmRNbw2+xEmTH0PK7np3ZE0+li23fmDv0dnOmSWzhrx7UzSx0xyo799KOhtVPbieu+Wlqsk3t2mkQ7fee35v9ua5PtF6Sz3Gz9908cYXpih7xT19b1zMjX46NJlb7HbrX+ZQ873Xq56pQ1atWp7111yvrQF+ni3i/ncIHv8RNZfwd7mumcj1+Uz+bbo/RP8z5sfo+utZ8DAAAAwGMCMjIyGhsaGsy0oGsOlNnFAC7U/rXzJD4+3j47u8bGRvvo+LHunU0/m87e2QKDQiUtJcE811MKiiokMT7SPkNb2XvgsPTq3vpmqdlfzrePjmtKASvr6PiJMXL4YElO6mifAf7rfD9rAIBz0c5i2sHr9AkuoO3p1MZNI1u1Q4CZbUaXGvm3TyTHU8lPAAAAAD6hLfId2bmF0lBfI4GBgc2bDthy9s6mdO/ke5wyPc/KOmSOrTPr3D6yDtLT08w+oUNMU6FlxowZ9tGZTZ8+3T4SGTt2LCN8AcBbjRox5JRtZPM22CR4W24kewEAQJtw1tU903TOQJvrLKlpTUfNs81ostc6v9D1ZwEAAADAlzDCF/AwRvjiTBh1CLQPPmsA4CnHR1WeafraS6fl73Y6Z576+EKse95Z7/T0PD2Nr8etf6F5fdnTGvE9+et5rVV8KZzmNXd+bzfG52W/s+vf4wAAAIDNX0f4kvAFPIyEL86EJBTQPvisAQAAAAAAAP6JKZ0BAAAAAAAAAAAAAK5CwhcAAAAAAAAAAAAAXIqELwAAAAAAAAAAAAC4FAlfAGgnOp9/Q8PxdZsBeJ5+xvSzBgAAAAAAAAD+ghZRAGgnUZFhUlpeaZ8BaAv6GdPPGgAAAAAAAAD4CxK+ANBOoqMipLCoVIpLKxjpC3iYfqb0s6WfMf2sAQAAAAAAAIC/CMjIyGhsaGiQuro6WXOgzC4GcKH2r50n8fHx9tnZNTYeT/o5x7p3Nv1sOntnCwwKlbSUBPNcTykoqpDE+Ej7DG2porJaysorpbyi2ryeADxDp3HWkb2a7I2MYIQvAAAAAAAA4I/aIt+RnVsoDfU1pg3S2QICApr3zqZ07+R7nDI9z8o6ZI6tM+vcPrIO0tPTzD6hQ0xToWXGjBn20ZlNnz7dPhIZO3YsCV/A00j4AgAAAAAAAAAAtD9/TfgypTMAAAAAAAAAAAAAuBQJXwAAAAAAAAAAAABwKRK+AAAAAAAAAAAAAOBSJHwBAAAAAAAAAAAAwKVI+AIAAAAAAAAAAACAS5HwBQAAAAAAAAAAAOAVGhsb7SO0VkBGRkZjQ0OD1NXVyZoDZXYxgAu1f+08iY+Pt8/OruWXlnOse2fTz6azd7bAoFBJS0kwz/WUgqIKSYyPtM8AAAAAAAAAAMCF+Oyzz2TChAkSGxtrl7Sd+fPnS3R0tIwePdou8YzZs2ebOM4kMTFRfvKTn0hMTIxdcnH27dsnK1eulJ07d8qRI0dMXkTzLH379pVx48ZJv3797GeeW1vkO7JzC6WhvkYCAwObt4CAgOa9synd6+/vHCs9z8o6ZI6tM+vcPrIO0tPTzD6hw/G/5YwZM+yjM5s+fbp9JDJ27FhG+AIAAAAAAAAAAACesGTJEvuobWmyd9GiRdKtWze7xLNuuukmefHFF0/ZfvCDH5hE55///GcpLy+3n33h3n77bfPvahL5e9/7nvl3X3jhBfnxj38s3bt3lzfeeMNsThIVp0fCFwAAAAAAAAAAAHAJJ9n7/e9/X1JSUuzS9tOpUyfp37+/PPfcc1JZWWmXnj9N9FZUVMh//ud/ynXXXSepqanNo2KTkpJk0qRJ5jFNMP/hD3+QTZs2yfPPP28ex4mY0hnwMKZ0BgAAAAAAAADAf7Sc/njevHly1VVXSVhYmDmfMmWKKTsdbf/X53bo0MEuOTed/vi///u/TaI3JCTELj0zTcjefffdcsUVV9gl56ZTOuvvdvPNN9slx23ZskXeeecdGTp0qOzevVsKCwvlpz/9aavzIo4PPvjA/Ox3v/tdu+TsZs2aJbm5uRIaGmoS3WfClM4AAAAAAAAAAAAAzsvpkn5nOm+5ZWVlyUcffWSe01o6zXFaWpoZDTtt2rRzbjoS98CBA/ZPn5+//vWvZpplZ/vRj34kl19+uUlS6/q9w4YNMwnl4OBg+yda59ChQ7J8+XJ58MEH7ZKz09HMmlDOzMyUgoICuxQtMcIX8DBG+AIAAAAAAAAA4J/+6Z/+Sf793/9dYmNj7ZIz0/V+NemridnzobmCP/3pT5KcnCz33XefXXp6ZxuteybOz+go3pOlp6fbR03+8R//UX7xi1+YBHBrvf/++2YEdGt/J034FhUVmYSv/kyvXr3sR07FCF8AAAAAAAAAAAAAXk0TjT/4wQ8kPz9f3n77bbvU8zS5e/LmCbt27ZKBAwfaZ+c2ceJEuf32280I47Mle/0ZCV8AAAAAAAAAAADAA3TN3vbgJH3vueceu8TzdGTtzJkzz7iVlpbazzw/Olo3MTHRPoMnkPAFAAAAAAAAAAAAPKBfv372UdvYvHmzrFixwhw70wu3FZ12WeM503ah/vu//7tVU16fjq4ljFOR8AUAAAAAAAAAAAA8QNfWbWsbNmywj9qWrg17tu181u31BJ3COj4+3j5DSyR8AQAAAAAAAAAAAJxg5cqVZ90udErn7Oxs+d3vficfffSRfPbZZ3bpuW3btu2iRhb7MhK+AAAAAAAAAAAAAE5QXV0tO3fuPON2oWbNmiWZmZkSEhJittZasGCBGVmMU5HwBQAAAAAAAAAAAHCCiRMnyqOPPnrG7UKndE5ISJD+/ftLXl6eTJ061S49u7feekv69u3LCN8zIOELAAAAAAAAAAAAoN2MGjVKamtr5eWXXzYjic9Gk726fu9DDz1kl+BkJHwBAAAAAAAAAAAAtIvHH39cRo8eLd/73vckNjZWfv7zn8tXX30lubm55vHGxkZzPH/+fPOYJoaffvpp8xhOLyAjI6OxoaFB6urqZM2BMrsYwIXav3aexMfH22dnp19aDudY986mn01n72yBQaGSlpJgnuspBUUVkhgfaZ8BAAAAAAAAAIAL8ac//Um2bNlin53blClT5K677rLPzm3z5s3y5ptvyrFjx+ySc7vxxhvllltusc/Obfbs2fLZZ5/ZZ2fXvXt3+cEPfnDB0zurffv2yYoVK+Tbb7+Vo0ePSkBAgJn2WadwHjNmzHlN49wW+Y7s3EJpqK+RwMDA5k1/R2fvbEr3Tr7HKdPzrKxD5tg6s87tI+sgPT3N7BM6HP/7zZgxwz46s+nTp9tHYtY1JuELeBgJXwAAAAAAAAAAgAujeREnWXq+/DXhy5TOAAAAAAAAAAAAALyCkyhF65HwBQAAAAAAAAAAAACXIuELAAAAAAAAAAAAAC5FwhcAAAAAAAAAAAAAXIqELwAAAAAAAAAAAAC4FAlfAAAAAAAAAAAAAHApEr4AAAAAAAAAAAAA4FIkfAEAAAAAAAAAAADApUj4AgDaXGZmlvzX756V4uISs+mxlgEAAAAAAAAAgItDwhcAAAAAAAAAAAAAXIqELwCgXcXFxcpP/vlp6dati11yZi1HBgMAAAAAAAAAgFOR8AUAAAAAAAAAAAAAlyLhCwDwuKqqann2f1+Up6f/zGy//8Pzpky1XMPXOV68ZIX85Ke/Ms/Vn9Pnbtq01fzc4cN58vNn/ktmvv62+XkAAAAAAAAAAHAcCV8AgMe9/e5HEtchTp6d8WuzXT/1GvuRU2lyd+PGLfLML/5FfvXMT6ToWLHs3LlbBg8eJD/+0VPSuXMnU/7ow/fZPwEAAAAAAAAAABwkfAEAHqWjdnNz82TShAy7RGRA/z4SHh5mn51Iy2+79Qaz1/V9u3fvKodz8+1HAQAAAAAAAADA2ZDwBQAAAAAAAAAAAACXIuELAPCosLAwiQgPl4WLl9slYo6dNXwBAAAAAAAAAIDnkPAFAHiUTs386CP3y4EDB+Xp6T8zW4e42DNO6Xw2nTolm+Txz5/5L5n5+tt2KQAAAAAAAAAAcARkZGQ0NjQ0SF1dnaw5UGYXA7hQ+9fOk/j4ePvs7BobG+2j48e6dzb9bDp7ZwsMCpW0lATzXE8pKKqQxPhI+wwAAAAAAAAAAMB92iLfkZ1bKA31NRIYGNi8BQQENO+dTeneyfc4ZXqelXXIHFtn1rl9ZB2kp6eZfUKHmKZCy4wZM+yjM5s+fbp9JDJ27FhG+AIAAAAAAAAAAACAW5HwBQAAAAAAAAAAAACXIuELAAAAAAAAAAAAAC5FwhcAAAAAAAAAAAAAXIqELwAAAAAAAAAAAAC4FAlfAAAAAAAAAAAAAHApEr4AAAAAAAAAAAAA4FIkfAEAAAAAAAAAAADApUj4AgAAAAAAAAAAAIBLkfAFAAAAAAAAAAAAAJci4QsAAAAAAAAAAAAALkXCFwBwXubMXSDP/Op3UlxcYpeIVFVVy7P/+6I8Pf1nZpv5+tv2IwAAAAAAAAAAoC2R8AUAtMqmTVtNMjcz86CEh4fZpU0WLV4uEydkyLMzfi2//c0vpPhYsUkMAwAAAAAAAACAtkXCFwDQKoMHDzIJ3anXXW2XHDf1usnmcaXJ4H79+khuXr45BwAAAAAAAAAAbYeELwDAo3R65507d0tKp2S7BAAAAAAAAAAAtBUSvgAAj3r73Y/MXqd4BgAAAAAAAAAAbYuELwDAI4qLS+SZX/3OHD/9D0+ess4vAAAAAAAAAADwvICMjIzGhoYGqaurkzUHyuxiABdq/9p5Eh8fb5+dXWNjo310/Fj3zqafTWfvbIFBoZKWkmCe6ykFRRWSGB9pnwFnl5mZJbPe+VCeevIxiYuLbS57deZb8vijD0i3bl1MWWuUVtRIYXGVfQYAAAAAAADA7RLiwiUmMtQ+A9pXW+Q7snMLpaG+RgIDA5u3gICA5r2zKd07+R6nTM+zsg6ZY+vMOrePrIP09DSzT+gQ01RomTFjhn10ZtOnT7ePRMaOHUvCF/A0Er7wdadL+M58/W2zZu/U6yabcwAAAAAAAAAA2pu/JnyZ0hkAcFGqqqql+FixfDnna3l6+s+at2f/90XzGAAAAAAAAAAAaDuM8AU8jBG+AAAAAAAAAAAA7Y8RvgAAAAAAAAAAAAAAVyHhCwAAAAAAAAAAAAAuRcIXAAAAAAAAAAAAAFyKhC8AAAAAAAAAAAAAuBQJXwAAAAAAAAAAAABwKRK+AAAAAAAAAAAAAOBSJHwBAAAAAAAAAAAAwKVI+AIAAAAAAAAA4OdWbjwqL767T3790rfy2ieZciiv0n4EAODtSPgCAAAAAAAAAODHNnx7TH7/2i75emWeOZ69KEd+P3OX1NY22M8AAHgzEr4AAAAAAAAAAPixTTuPmf3d13WRnzzRX2KjQyQrt0LyC6tNOQDAu5HwBQAAAAAAAADAjxWX1pp9ry5RMnxgvCTGh5rz6hpG+AKAG5DwBQAAAAAAAADAj40YGG/2f357r/z4txtlX1a5Oe/UMczsAQDejYQvAAAAAAAAAAB+LGNYosREBUtpea1k5VaasruuTZeoyGBzDADwbiR8AQAAAAAAAADwY2u3FklpeZ0kxofJlLGdTBnr9wKAe5DwBQAAAAAAAADAj32yMNvs77gmTW67Os0cr9x4VKqq680xAMC7kfAFAAAAAAAAAMBP7TlYJjv2lUpcdIhMHJUsyR3DpH+PGKmta5AVG4/azwIAeDMSvgAAAAAAAAAA+KlPFuSY/fVXpkhwUIA51sSvWrzmiNkDALwbCV8AAAAAAAAAAPxQ/tFq+WbzUQkNCZSp41PsUpHxwxIlJDhQtu8tMc8BAHg3Er4AgPMyZ+4CeeZXv5Pi4hK7pImWPz39Z2ab+frbdikAAAAAAAC81acLc6SxUWTymGSJigy2S0XCQgNl9BUJ5njRmnyzBwB4LxK+AIBW2bRpq0nmZmYelPDwMLu0iT626pu18qtnfiK//c0vpPhYsUkAAwAAAAAAwDuVV9TJ/FV5EhAgcvOEVLv0uImjksx+8VqmdQYAb0fCFwDQKoMHD5JnZ/xapl53tV1y3IZNW2XM6BESFxdrksETJ2TIzp27paqKKX8AAAAAAAC80ZdLc6WuvlHGDO4oyR1P7NyvrujbQeLjQs2Uzjq1MwDAe5HwBQBcFE3qVldVyYD+fewSkQ4d4qTSKquuJuELAAAAAADgbTTRO3vJYXN8y6RTR/cqHfk7YYQ9yncNo3wBwJuR8AUAXBRN6hYdK7bPAAAAAAAA4O0WfpNvpnS+rFes9O4abZeeypnWecXGo1Jb12COAQDeh4QvAOCihIWFSXyHOPsMAAAAAAAA3qyxUeTjBdnm+Eyjex1pyREmIVxVXS8rNx61SwEA3iYgIyOjsaGhQerq6mTNgTK7GMCF2r92nsTHx9tnZ9eotSubc6x7Z9PPprN3tsCgUElLSTDP9ZSCogpJjI+0z4Czy8zMklnvfChPPfmYWbNXp3R+8aWZZt1eXedXbdq0VRYtXi5P/t2jZk3fMymtqJHC4ir7DAAAAAAAAG1t6+4SmflRliQlhMk/P9FbAuzyM1mxoVA+nHdY+nSLkifv7W6XAmeWEBcuMZGh9hnQvtoi35GdWygN9TUSGBjYvAUEBDTvnU3p3sn3OGV6npV1yBxbZ9a5fWQdpKenmX1Ch5imQsuMGTPsozObPn26fSQyduxYEr6Ap5Hwha87OeGrWiZ41ckJYAAAAAAAAHiHf/vfrbJzf6k8dW8vmTwm2S49s/LKOvnOv6+VhoZGeeEXwyUhjkQeAO/lrwlfpnQGAFw0TezGdYiTf/npL83Wr18fkr0AAAAAAABeZs/BMpPsjYsOkatGNq3Pey5REcEy6vIEk6BYtOaIXQoA8CYkfAEA56Vbty7yk39+unl0r+PRh++TZ2f82mxTr5tslwIAAAAAAMBbfPR109q9N0zoLMFB55rM+biJdnJ4/qo8swcAeBcSvgAAAAAAAAAA+Lj8o9WyZmuhhIYEynXjOtmlrTN0QLzERoeYf2NXZqldCgDwFiR8AQAAAAAAAADwcZ8syDbTMl8ztpNERQbbpa2jy1BOGNE0ynfxaqZ1BgBvQ8IXAAAAAAAAAAAfVl5RJwu+yTeJ21snp9ql5+fqsclmv3zDUamvbzTHAADvQMIXAAAAAAAAAAAf9vmSw1JX3yhjh3SUhLhQu/T8pCVHSM/0KCmvrJNvthTapQAAb0DCFwAAAAAAAAAAH6WJ3i+W5prjO65JN/sLNWEk0zoDgDci4QsAAAAAAAAAgI9asCrfTOk8sHesdEuNtEsvjCZ8g4ICZOPOY1JSVmuXAgAuNRK+AAAAAAAAAAD4oMZGkU8WZpvjWy5w7d6WoiKCZfhl8dLQ0CiL1zLKFwC8BQlfAAAAAAAAAAB80Debj0r+0WpJTY6Qof3j7dKL40zrPH9lvtkDAC49Er4AAAAAAAAAAPigTxbkmP1tV6dKQIA5vGg6wldH+mbnV8q+Q+V2KQDgUiLhCwAAAAAAAACAj9mxr1T2HCyTuOgQuWpE06hcT9A1fJ1RvovXMK0zAHgDEr4AAAAAAAAAAPiYTxc2je69aWJnCQr00PBeW8uEb319ozkGAFw6JHwBAAAAAAAAAPAhum7v2m2FEhoSKNeNT7FLPadnepSkJUdIeWWdrNteZJcCAC4VEr4AAAAAAAAAAPiQj+ZnS2OjyJRxnSQiLMgu9ayrxyabPdM6A8ClR8IXAAAAAAAAAAAfUVxWK4tW50tAgMgtk1LtUs+bMCLJ/Dd0hK+O9AUAXDokfAEAAAAAAAAA8BFzluZKXX2jZAxNlIS4ULvU82KjQ2TogHizhu+StQV2KQDgUiDhCwAAAAAAAACAD6ipbZAvl+Wa49uuTjP7tjRxZJLZ64hiAMClQ8IXAAAAAAAAAAAfsGBVvpRX1MmgPnHSLTXSLm07oy5PkKiIYNl3qFyy8yvtUgBAeyPhCwAAAAAAAACAyzU2iny2OMcc3zq57dbubSkoKEAyhnU0x5psBgBcGiR8AQAAAAAAAABwuVWbjkr+0WpJTY6QIf072KVtb+LIZLNftOaINDQ0mmMAQPsi4QsA8IiZr78tT0//mdme/d8Xpaqq2n4EAAAAAAAAbe3ThU2je2+/pu3X7m2pT7doSe4YJiVltbJpZ7FdCgBoTyR8AQAXbc7cBVJ8rFh++5tfmE0tWrzc7AEAAAAAANC2tu8tkT0HyyQuOkSuHJ5ol7afKWM7mf2i1UzrDACXAglfAIBH9OvXR8LDw8ymx7l5VPABAAAAAADaw2f26N6bJ6VKUGCAOW5PE0YkSYD1n/1mS6GUV9bZpQCA9kLCFwBw0caOGSE7d+6W4uISM5VzZuZBmTQhw34UAAAAAAAAbSUnv1LWbS+SiLAguTajaaRte4uPC5Ur+naQ+vpGWbHhqF0KAGgvJHwBAB5RdKxYfv7Mf8m//PSXcjg3Xzp0iLMfAQAAAAAAQFvRtXsbG0WuHptskr6XysRRSWa/aM0RswcAtJ+AjIyMxoaGBqmrq5M1B8rsYgAXav/aeRIfH2+fnV2j1sRszrHunU0/m87e2QKDQiUtJcE811MKiiokMT7SPgPO38zX3zb7Rx++z+x1TV8d8fvk3z1qpng+k9KKGiksrrLPAAAAAAAAcD7KKurkP57fJdq0+K/f62PW8L1U6uoa5ed/3CE1tQ3ysyf7SEJcqP0I/E1CXLjERPL649Joi3xHdm6hNNTXSGBgYPMWEBDQvHc2pXsn3+OU6XlW1iFzbJ2Z72xzZB2kp6eZfUKHmKZCy4wZM+yjM5s+fbp9JDJ27FgSvoCnkfCFv9FpnJ9/8a9y/713SLduXUxZZmaWzHrnQ3nqycckLi7WlAEAAAAAAMCzZn1xUD6cly1XDk+Uf3iwj1166bzwzl6Zvypf7rgmTe6/satdCgDtx18TvkzpDAC4KJrQTUnpJAsXL7dLRL7dsVsiwsMlLOzMo3sBAAAAAABw4XQk7dzleeb41slpZn+pTRyZbPY6rbOT0AAAtD0SvgCAi3bfPbdL8bFieXr6z8zWmumcAQAAAAAAcOG+Xpkn5RV1ckXfOOmW6h2z9/XvGSPJHcOksLhGtu4utksBAG2NhC8A4KJpYvfpf3hSnp3xa7PpMcleAAAAAACAtqGjZz9ZkGOOb5mcavbeYtKo46N8AQDtg4QvAAAAAAAAAAAusnLjUTOKNjU5Qgb362CXeoerRyeLLlupv2NVdb1dCgBoSyR8AQAAAAAAAABwkQ+/PmT2d07xjrV7W4qPC5WBveKktq5BVm46apcCANoSCV8AAAAAAAAAAFxi254SycypkIS4UMkYlmiXepcJo5LMftFqpnUGgPZAwhcAAAAAAAAAAJf4dGHT2r03TugsQYEB5tjbZAztKCHBgbJ9b4mZehoA0LZI+AIAAAAAAAAA4AI5+ZWy4dsiiQgLkinjOtml3keTvZr0VfNX5Zs9AKDtkPAFAAAAAAAAAMAFPlmQI42NYpK9mvT1Zs3TOq8h4QsAbY2ELwAAAAAAAAAAXq64rFYWrzlipnHW6Zy93cBecRIfFyr5R6vl230ldikAoC2Q8AUAAAAAAAAAwMt9vviw1Dc0SsawREmIC7VLvVdAgMjVo5PN8aI1R8weANA2SPgCAAAAAAAAAODFamobZM7SXHN8y6RUs3eDSaOaEr4rNhyV2roGcwwA8DwSvgAAAAAAAAAAeLF5K/KksrpeBvfrIN1SI+1S75fcMUz694yRKut3X7Wp0C4FAHgaCV8AAAAAAAAAALxUY6PIpwtzzPEtk90zutcxcaQzrXO+2QMAPI+ELwAAAAAAAAAAXmr5hgIpLK4xI3uv6Btnl7rH+GGJEhIcKFt2FZs4AACeR8IXAAAAAAAAAAAv9fH8bLO/dXKa2btNWGigjL4iwYxUXrL2iF0KAPAkEr4AAAAAAAAAAHihrbuLJTOnQhLiQmXc0I52qftMHJVk9vNW5pk9AMCzSPgCAAAAAAAAAOCFnLV7b56YKkGBAebYja7o20Hi40Il/2i17M4ss0sBAJ5CwhcAAAAAAAAAAC+Tk18pG749JhFhQXL12GS71J0CAkQmjGga5btoTb7ZAwA8h4QvAAAAAAAAAABe5iN77d5rMzqZpK/bTRnbyeyXrz8q9fWN5hgA4BkkfAEAAAAAAAAA8CLFZbWydG2Bmcb55kmpdqm7JXcMkz7doqW8sk5Wbym0SwEAnkDCFwDgEVVV1fLs/74oT0//mdnmzF1gPwIAAAAAAIDzMXvRYalvaJQrhydKXHSIXep+E0c2TU29aM0RswcAeAYJXwDARdNk74svzZSJEzLk2Rm/NtvU6ybbjwIAAAAAAKC1amobZO6yXHN8+zVpZu8rMoZ1lKCgANm445iUlNXapQCAi0XCFwBw0Xbu3C1xHeJk8OBBdgkAAAAAAAAuxFfL86Syul6G9O8gqckRdqlviIoIllGXJ0hDQ6MsWVtglwIALhYJXwDARduwaat0iIuVn/z0V2Y652d+9TspLi6xHwUAAG51KK9S/v2PW+U7/75Wnnxmnfz+tV32IwAAAGgLOo3zZ4tyzPGtk31j7d6TTRyVZPZfr8wzewDAxSPhCwC4KDqdc/GxYsnMzJJnfvEvZjrn7t27ykeffGE/AwAAuNWL7+yVHftKzXR7hcU1snLjUXn1w/32owAAAPC0FRuOmnpXt9RIGdQnzi71LUP7x0tsdIhk51fK/uxyuxQAcDFI+AIAPELX7w0PDzPHk6zj3Nw8RvkCAOBy2ginnvn+QLOpDd8eM3sAAAB43qcLss3+tqt9a+3elgICRCaMaBrlu2j1EbMHAFycgIyMjMaGhgapq6uTNQfK7GIAF2r/2nkSHx9vn51dY2OjfXT8WPfOpp9NZ+9sgUGhkpaSYJ7rKQVFFZIYH2mfAedv5utvy9DBg5rX8NXRvrPe+VCeevIxiYuLNWWnU1pRI4XFVfYZAADwNs/8aaeUVdQ1J3ufeW6bdEoMk396vLc5BwAAgOfsziyXF985IB1iQuTfnuprl/qmvKPV8t+v7JHoyGB55gf97FL4ioS4cImJDLXPgPbVFvmO7NxCaaivkcDAwOYtICCgee9sSvdOvscp0/OsrEPm2Dqzzu0j6yA9Pc3sEzrENBVaZsyYYR+d2fTp0+0jkbFjx5LwBTyNhC/80aZNW80UztOf/p5J8GoCWD368H1mDwAA3On//G6THDxcYZ81mTw6WZ66r5d9BgAAAE/5vy9+Kxt3HJPHbu8uN1zV2S71Xf/y+82yL6tcfvJEfxk+sHXtqQBwLv6a8GVKZwDARdORvWNGj5CfP/Nf8vT0n5k1fe+753b7UQAA4EaVVfVSWFxrjsPDAiUspOn28UBOefPNKQAAADwjJ7/SJHsjwoLkmrGd7FLf5kzrvOCbfLMHAFw4Er4AAI+Yet1keXbGr8329D882byeLwAAcKeX3tsnZRW1MqR/B3njv0bLzN+MkrTkCDMK4xN7bTkAAAB4xodfN9WvrhufIqF2RztfN2FkkgQFBci67UVSXllnlwIALgQJXwAAAADACdZsLZRl6wskKjJYfjitab3e4KAAmf5IX9EZqd75Mkuy8ytNOQAAAC5OYXGNLFtXIEGBAXLTRN+fytkRFREswy+Ll/r6Rlm6tsAuBQBcCBK+AAAAAIBmJWW18tysveb4+/f3ktjoEHOsuqVGyp3XpktdfaPMeG2X1DcwtzMAAMDF+nzJYVOvumpEksS1qHv5g4mjmqZ1XrTmiNkDAC4MCV8AAAAAQLM/vrlHyivqTIPjyEEJdulxd12bbhK/mTkV8t7cQ3YpAAAALkRldb3MW55nZlG57epUu9R/DBsQb0b67s0qYwYZALgIJHwBAAAAAMbC1fmycccxiY8NlSfu7GGXnkinGtSpnXWK5w/nHTJr+gIAAODCzFuRZ5K+Q/vHS2pyhF3qP3QNX13LVy34Jt/sAQDnj4QvAAAAAECKSmrklQ/2m+OnH+ojEeFB5vh00pIj5P4bu0pjo8jvX98ltXUN9iMAAABoLZ3G+fPFh83xLZP9b3Svo3la59VHpIElQwDggpDwBQAAAADIs2/sluqaBrk2o5MM7B1rl57ZzRNTpV+PGMkrqJI3Zx+0SwEAANBay9cXSGFxjVkuozX1L1/VIy3KdCgsKauVzbuK7VIAwPkg4QsAAAAAfu6LJYdl254SSYwPk0dv626Xnp2uM/ejh/pIWGig+fmd+0vtRwAAANAany7MMfs7rkk3e3929dhks9clRgAA54+ELwAAAAD4MR2h+7fPDjYncEOCW3+bqAnih2/tbqZ2/oM9QhgAAADntmnnMcnMqZCEuFAZO6SjXeq/JoxIMvXRNVuKpKq63i4FALQWCV8AAAAA8FMt1+C9eVLTFM3n69pxTVNAFxRVy6sfNa0BDAAAgLNzRvfeOjnVJDr9XWx0iAwdEG/qpcvWF9ilAIDWIuELAAAAAH7qo/nZsi+r3KyZdv8NXe3S8/f0Q30kIjxIFqzKl407jtmlAAAAOB0d2bt5Z7FERQbLNWM72aWYNCrJ7BetOWL2AIDWI+ELAAAAAH5IGxrf/TJLggIDZPojfSU46MKHlsTHhsoTd/Ywx398c4+UV9SZYwAAAJzKGd173bhOEhpCE71j5KAEiYoIlp37SyX/aLVdCgBoDa4mAAAAAOBn6hsaZcZru8z+ruvSpVtqpP3IhbtqRJJppCspq5WX3t9nlwIAAKClwuIaWb6+wHS2u2FCZ7sUKsj6m2QMa1rPeP43eWYPAGgdEr4AAAAA4Gfe+TJLsvMrpWeXKLlzSrpdevG+f38vs/7aig1HZc3WQrsUAAAAjtmLDptOd1eNTJI4q96EE00alWz2i1YfkcZGcwgAaAUSvgAAAADgR3TN3o/nZ5tRJT9+uK8EXPhMzqfQdeh+OK23OX5u1l4z2hcAAABNKqvr5euVeab+deukVLsULfXuGi1pyRFmJPS2PcV2KQDgXEj4AgAAAICfqK1rkN+/vsuMlph2czfplBhuP+I5Q/p3kAkjk8w6vrqeLwAAAJp8tTzPJH2HXRYvqckRdilONnFUktkvWnPE7AEA50bCFwAAAAD8xOufZkpeQZX06xEjN17VdmvGfeeOHhIfGyobdxyTBavy7VIAAAD/pdM4f7Ywxxzfwujes5owIsmMgtZlQqqq6+1SAMDZkPAFAAAAAD+wbU+JzFmaK2GhgfKjh/p4dCrnk0WEB8nT1n9DvfrRfikoqjbHAAAA/mrpugIpLqs1UxZf1ivWLsXpxMeFyhV9O5jZaVZtKrRLAQBnQ8IXAAAAAHxcZVW9PPvGbnP82O09JDE+zBy3pYG9Y2Xq+BSprmmQP1j/bZ1GGgAAwF999HW22TO6t3WOT+vMbDEA0BokfAEAHjVn7gJ55le/k+LiErsEAABcajrKtqikxqyve/WYZLu07T18a9M6wTv3l8qXSw/bpQAAAP5Fl7nIya+U5I5hMmZwR7sUZzP6igQzM832vSVSWFxjlwIAzoSELwDAYzTJu+qbtfYZAADwBtrAuGj1EYmKDJYfTuttl7aPkOBA+fHDfc300X/77KBZPxgAAMDffGqv3XvzhNQ2XVbDl2g9cvywRDNLzIJVjPIFgHMh4QsA8JiPPvlChgweJOHhbT9NJAAAOLfyijr545t7zPF37+ohsdEh5rg99ewSJbdOTjNrsP3+9V1M7QwAAPxKZk6FbNlVbDrfTW7HmVZ8wcRRTX+vhUzrDADnRMIXAOARmzZtleJjxTKgf1+7BAAAXGrPzdorJWW1MnJQgmQMTbRL29+913eRtOQI2ZdVLh/OO2SXAgAA+L6P5zet3Tt1fIqEhtAcfz7694gx02DnH62WHftK7VIAwOlwhQEAXLTMzCz5cu58efSR+xndCwCAl1i6rkDWbC00o3q/f38vu/TSCA4KkOmP9JWgwAB5b+4hM9IFAADA1+nas8s3FJi60PVXptilOB+T7VG+ixjlCwBnRcIXAHBRqqqq5eNPvpDrr7ta4uJi7VIAAHApFZXUyF/e32eOdd1enULwUuuWGil3X5cu9Q2NMuO1XVJXz9zOAADAt+navbqchU5NHHcJltbwBZNHJ5t1j5dvOGqWCAEAnF5ARkZGY0NDg9TV1cmaA2V2MYALtX/tPImPj7fPzq6xxQJmzrHunU0/m87e2QKDQiUtJcE811MKiiokMT7SPgPOj07l/OrMt+yzEz3+6AMyePAg++xUpRU1UlhcZZ8BAABPef7tA7L3YLmMujxe7rk+1S699LTK++wb++RQbqVMGp0oN07oZD8CAADgW6prGuSZP+2UuroG+ecnektSAjOiXagXrLrtHqtuO+2mdBl6WZxdCm+WEBcuMZGh9hnQvtoi35GdWygN9TUSGBjYvAUEBDTvnU3p3sn3OGV6npXlLG+k+R/7yDpIT08z+4QOMU2FlhkzZthHZzZ9+nT7SGTs2LEkfAFPI+ELf6fTO89650N56snHGPELAMAlMG9Fnrz03j6rfhcmf/jJEAkL9a6JnfIKqmT6bzdJXX2D/Nf0K6Rnlyj7EQAAAN+ha/e+OfugjBgUL//ynf52KS7E4jVH5E9v7ZHB/TrIv31vgF0KAKfnrwlfpnQGAAAAAB9RUFQtr31ywLqpFPnRQ328LtmrOiWGy4M3dzU3uL9/fRdT8wEAAJ+jS1jMXnTYHN86Kc3sceHGDe1o6rWbdx0z6yIDAE5FwhcA4FHdunWRn/zz04zuBQCgnWkC9Q9v7DbTB15/ZWfp1+N472Bv4/x+Otr39U8y7VIAAADfsGTtESkuq5XeXaOlf0/vrZO5RUhwoIwd0tHUd/VvCwA4FQlfAAAAAPABny3KkZ37S5tH0HqzliOQ5yzLlW17SuxHAAAA3E2Tkh/PzzHHt05ONXtcvIkjk81+0WoSvgBwOiR8AQAAAMDlsvMrZdbnB00i9ccP9zWjILydrjH8+O09zPGzb+yWyqp6cwwAAOBmG3YUSY5VN0vuGCajr+hol+JiXdYrVuLjQk29d8/BMrsUAOAg4QsAAAAALqZrxM14bZfU1TfK7dekSc8uUfYj3m/ymGQZ0r+DFJXUyCsf7rdLAQAA3OuzBU1r994yKdV0xoNn6N/yaqvuqBjlCwCnIuELAAAAAC72wVeHJDOnQrqlRso9U7vYpe7xw2m9JSoyWBavOSIbdxyzSwEAANxH62Rb9xSbus2kUU3JSXjOJHta52XrC6S+vtEcAwCakPAFAAAAAJfSRsUP52VLcFCATH+krwQFum8YSWx0iHz//l7m+I9v7pHyijpzDAAA4DYffZ1t9tdfmSKhITS9e5pOk92/Z4yUV9bJmq2FdikAQHHVAQAAAAAX0imcdSpnndL53uu7SFpyhP2I+4wclCDjhnaUkrJaeW7WXrsUAADAPQqLa2TFxgLTEe+mqzrbpfA0Z5TvojVM6wwALZHwBQAAAAAXenN2pmTnV5o1e2+dnGaXutff3dXTjPbV0RpL1tKABwAA3OWTBTnS2CgyaXSymdIZbSNjWKKEBAfKhm+Pmc6CAIAmJHwBAAAAwGV27i+VzxcfNo1dP364rwS4bybnU2jDqK7nq17+YL8UldSYYwAAAG9XWV0vX6/MM3Wy23ygI543CwsNlDGDE6ShoVGWrCuwSwEAJHwBAAAAwEWqaxrkD2/sNiNIHr61m3RKDLcfcb8h/TvI5DHJUllVL89aMQIAALjBl0tzpaa2wSxToevMom1NtKd1/npFntkDAEj4AgAAAICrzPz4gBQUVcvA3rEydXyKXeo7Hr+9hyTGh8m2PSXyFY14AADAy9XVN8oXiw+b41smpZo92tblfeMkPi7ULG9yILvcLgUA/0bCFwAAAABcQpOgOl1gRHiQPP1QH7vUt+g0fT+yYtMpEV//pCm5DQAA4K2WrDkixWW10rtrtPTrEWOXoi1pPXHiyCRzvMj6+wMASPgCAAAAgCu0nOb4O3f0kPjYUHPsi7Sx9IarOp8wfTUAAIC30TrKJwtzzPHt17B2b3u6Zkwns1+6rsCs5wsA/o6ELwAAAAC4wEvv7ZOikhqzzu0Ee0SDL5t2U1ezPvHO/aXy2aKmhlQAAABvsn57keTkV5p1e3X9XrQf/Zv37RYjJWW1sv7bY3YpAPgvEr4AAAAA4OXWbC2UZesLJCoyWH44rbdd6ttCggPlxw/3NVP2zfr8oFmjDQAAwJt8ao/uvXVymqmzoH1NGGVP67w63+wBwJ+R8AUAAAAAL6ajFp6btdccf//+XhIbHWKO/UHPLlFyx5R0qatvlBmv7ZJ6pusDAABeIjOnQrbvLTEd8iaPTrZL0Z4yhnaUoKAAWbutSMor6+xSAPBPJHwBAAAAwIv98c09Ul5RJ1eNSPLLqQLvvi5duqVGmkbV9786ZJcCAABcWh/Oa6qX3HhVZwkOYnjvpRAVESyjL0+Q+vpGs5YvAPgzEr4AAAAA4KUWrs6XjTuOSXxsqDxxZw+71L8EBQbI9Ef6mobUD746ZBK/AAAAl1L+0WpZuemoqZ/ccGWKXYpLwZnWefGaI2YPAP6KhC8AAAAAeKGikhp55YP95vjph/pIRHiQOfZHackRcu/1XaSxUczUzjrFMwAAwKXy2eIcUy+ZPCbZTOmMS2do/3iz5Mmeg2WSnV9plwKA/yHhCwAAAABe6Nk3dkt1TYNcm9FJBvaOtUv9162T08yavtqQ9+bsTLsUAACgfelSGwtW5UtAgFU/mZRml+JS0ddh4simUb4Lv8k3ewDwRyR8AQAXraqqWp793xfl6ek/M9vM19+2HwEAABfiy6W5sm1PiSTGh8mjt3W3S/2bNub9+OG+EhIcKJ8vPiw795fajwAAALSfOctypaa2QUZdniDJHcPsUlxKOtJaLVx9RBoamAkGgH8i4QsAuGiLFi+XiRMy5NkZv5bf/uYXUnysWObMXWA/CgAAzkdeQZW88WmmSXD+6KE+JsGJJp0Sw+WR27qZKRT/YI+ABgAAaC+6rIR2zFO3Xc3oXm+hy3/oTDAlZbWyeVexXQoA/oWWAwDARZt63WQZPHiQOQ4PD5N+/fpIbh7T6AAAcL40kfn713dJbV2D3DwpVfr1iLEfgeO6jBQzxXVBUbXM/PiAXQoAANB2ausa5fCRKnlvTpYUl9VKf6uO1rtrtP0ovMHEkU2jfBevOWL2AOBvSPgCADxKp3feuXO3pHRqqmgDAIDW+2h+tuzLKjejFO6/oatdipM9/VAfiQgPkq9X5pmprwEAANrKobxK+Zf/2Sz/8OsN8uHX2aasY4dQs4f3uGpEogQFBcg3mwulqrreLgUA/0HCFwDgUW+/+5HZ6xTPAACg9bJyK2TW5wfN8dMP95HgoABzjFPFx4bKd+7oYY7/8PouKa+sM8cAAACeNnd5rqmnaf1Dpw1WyzcclWMlteYY3iEqIlhGDIw3M+Xo6wMA/iYgIyOjsaGhQerq6mTNgTK7GMCF2r92nsTHx9tnZ9eoc/bZnGPdO5t+Np29swUGhUpaSoJ5rqcUFFVIYnykfQZcmOLiEpnx7AvSvXtXefTh++zSsyutqJHC4ir7DAAA//b/Xt0juQXVct34ZJkyLskuxdn89aODsm13qQy9LE6m3ZRulwIAAHjOn2cdMDOwPHFnD6ueliI//u1GycqtlB8+2FO6pUbYz4I32L6nVF798KB0T4uUH0xr6hyISyMhLlxiIhkJj0ujLfId2bmF0lBfI4GBgc1bQEBA897ZlO6dfI9TpudZWYfMsXVmndtH1kF6eprZJ3Q4vqTTjBkz7KMzmz59un0kMnbsWBK+gKeR8IU/yszMkldnviWPP/qAdOvWxS4FAACt9dbnB+Wjr7OlV5do+a8fX26X4lx0Db2nf73RjPD9p8f7yajLPVtPBgAA/iu3oEo+mHdIFq1uWhP27uu6SFx0sFWWLUUlNfKnfxsqnTqGm8fgPR7/tzVSWl7H6wP4MX9N+DKlMwDgoi1cvFzGjhlJshcAgAugI0Y+np9tpnCe/nAfuxStERcdIt9/oJc5/vPbe6WkjKkVAQDAxTmUWyl/eH23WbNXk73BQU1N6O/NzZKXP9hvkr1jh3QkmeilrhzeNFPOQjtRDwD+goQvAOCiVFVVS/GxYvlyztfy9PSfNW/P/u+L5jEAAHBmusbY71/fZXr3Tru5m3RKpOHwfI0clCBXjUiS8oo6+eObe+xSAACA83PwcIX896s75ce/2yjLNxRISHCg3HBVZ3nhF8PkZ383QG6c0NnMJvL4HT3kx4/0tX8K3mbiKDvh+01+8wg6APAHTOkMeBhTOgMAAKC1Xvlwv8xZmiv9esTIf/xwkNizPeE8VVbVy9O/2WhG3Pz9/b1k0qhk+xEAAICz25tVJu9+eUjWf1tkzsNCA+XacSly29WpEhsdYsrgLj+y6oXZ+ZXyi+9fJoN6x9mlAPwFUzoDAAAAANrNtj0lJtmrjYo/eqiPdSNoP4DzFhEeJE9bf0P1ij3VIgAAwNls31siv3p+u/zk91tMsjc8LEhuuzpNXvjFcHn41m4ke13smrGdzH4x0zoD8CMkfAEAAACgnemI1Gff2G2OH72tuyTGh5ljXLiBvWPl2nGdpLqmoflvCwAAcLJNO4/Jz/+4TX7xp22yZVexRIYHyZ3Xppupm6fd1FWiI4PtZ8KtrhqRaDpTLt9w1CyhAgD+gIQvAAAAALSzVz9qGoU6pH+H5hEIuHiP3t6UPNfR018uzbVLAQAARNZuK5Kfztgi//nCt/LtvhKJigyWe6d2ked/MVzuu76LREWQ6PUVOjp72GXxJtmrSV8A8AckfAEAAACgHW3ccUwWrT5ipiH+4bTedik8IST4+PTYb3yaKXkFVfYjAADAH+kaias2HZV/+n+b5bcv75A9B8skJipY7r+xqzz/82Fy13XpZoQvfM/EkUlmz7TOAPwFCV8AAAAAaCflFXXyxzf3mOMn7+nJ2nBtoF+PGLl5UqoZ0fH713eZhl4AAOBf9Pq/bH2B/Ph3G+V/Zu6SA9nlEmfVux66uZtZo/eOa9IkIoxEry8bOSjBjNretrdYCotr7FIA8F0kfAEAAACgnTw3a6+UlNWaBqiMoYl2KTzt/hu6SlpyhOzLKpeP52fbpQAAwNfVNzTKwtX58vRvNpg1/Q/lVkp8bKg8elt3ef4Xw+SWyakSGkKTuD8ICgqQ8cMSTfJ/4Tf5dikA+C6ubgAAAADQDnSUyZqthWZU7/fv72WXoi0EBwXI9Ef6SlBggLzzZZZk51fajwAAAF9UX98oX63Ikx/+5wb586y9cvhIlXTsECrfuaOHPPfvQ+XGCZ3N0g/wLxNHNU3rvGA1CV8Avo+rHAAAAAC0saKSGnnpvX3mWNftjYoMNsdoO91SI+Wua9PNSJ8Zr+0yewAA4Ft0CYcvlhyWv/+P9fIXq651pKhakuLD5O/u7inP/dswmXplColeP9a7a7SZ9SX/aLXs2F9qlwKAb+JqBwAAAABtTKcUrKyql8mjk2VI/w52Kdrandemm8RvZk6FGekLAAB8Q3VNg3yyIEee+uV6+etHB8warZ0Sw+Wpe3vJH/9tqEwZ18lM6Qs4o3wXrzli9gDgq0j4AgAAAEAbmrciT7btKZHE+DB5/I4edinaQ0CAmKmddYpnXctX1/QFAADuVVFVLx98dUi+98t18rfPMqW4rFY6J4XLDx7oLf/70yEyeUyyWdIBcGiHS60T6vIqOiIcAHwVCV8AAAAAaCMFRdXy2icHzPGPHuojYaHcgrU3ncZv2k3dpLFR5Pev76KhDwAAFyqvrJO3v8ySp365zuzLKuokPSVCnrbqV8/+dKhMGJkkgSR6cRqx0SEyuF8Hqaqul282F9qlAOB7aG0AAAAAgDagCcY/vLHbTDl4w1WdpV+PGPsRtLcbJzT9/fMKquSNTzPtUgAA4O1Kymrljc8y5Xu/XG9G9uoIX12u4ceP9JXf//MQGT8s0YzeBM5GOwQopnUG4MtI+AIAAABAG5i9OEd27i8168k9eHNXuxSXgjYEOyOsv1yaa6bYBgAA3quopMaszfvUr9bLpwtyzOjMnulR8k+P95P/90+DZeyQjiR60Wqjr0gw9cDNu4pNJwIA8EUkfAEAAADAw7LzK+Wt2QdNQ+SPH+4rIcHcel1quobyo7d1N8fP2iOvAQCAd9HlMF56b5/8/a/WyxdLDktNbYP07hotP3miv/z2/1whoy5PsJ8JtJ7Wxa8cniQNDY2ycDWjfAH4JlodAAAAAMCD6hsaZcZru6SuvlFuvyZNenaJsh/BpXbN2E4ypH8HM2rolQ/226UAAOBSyz9aLc/N2iM/+M8NMm9FnqlH6XIM//rkAPnN9Mtl+MB4+5nAhXGmdV74Tb7ZA4CvIeELAAAAAB6k68tl5lSY9eXumdrFLoW3+OG03hIRHiQLV+fLxh3H7FIAAHAp5ORXmpk3fvjrDbJo9RHTce6yXrHyi7+/TP7zHwaZjlqAJ/TvESPJHcPMTDx7DpbZpQDgO0j4AgAAAICHaKL3w3nZEhwUINMf6StBgSwu521io0Pk7+7uaY7/+OYeKa+oM8cAAKD9HDxcIf8zc5f86L82yrL1BWaq3Sv6xsn//dEg+eUPBsqgPnH2MwHPmTwq2ewXr2FaZwC+h4QvAAAAAHiATj2oUznryJR7r+8iackR9iPwNuOHJcrIQQlSUlYrz83aa5cCAIC2tjerTP7r5R3yf363SVZtOiqNjWJG8f7Xjy+Xf3/qMunbLcZ+JuB5k0cnS0CAyNJ1BVJv1d0BwJeQ8AUAeMScuQvk6ek/M9vM19+2SwEA8B9vzT5opojTNXtvnZxml8Jbff/+Xma075qthWZkEQAAaDu7MkvlP17YLj/5/RZZt63IlI0YGC+/+8crzDq9vbpEmzKgLcXHhcrA3nFSXlkna+33IQD4ChK+AICLtmnTVln1zVr51TM/kd/+5hdSfKzYJIABAPAXO/eXyuzFORISHCg/frivGTkA7xYVGWzW81UvvbdPikpqzDEAAPCczbuK5Rd/2ib/+oetsnlnsakjjbo8Qf7nnwfLvzzRX3qkRdnPBNrHxJFJZr9odb7ZA4CvIOELALhoGzZtlTGjR0hcXKyEh4fJxAkZsnPnbqmqqrafAQCA76quaZA/vLHbTEn48K3dpFNiuP0IvJ1OITlpVLJUVtXLs9ZrCAAAPGP99iKT5P2P57fL9r0lJtE7bkhH+f0/D5F/eryfdO0caT8TaF/jhnaUsNBAWf/tMbO8BwD4ioCMjIzGhoYGqaurkzUHyuxiABdq/9p5Eh8fb5+dXaO2CtqcY907m342nb2zBQaFSlpKgnmupxQUVUhiPBVtXBhN6r72+iyZet3V0q1bF1OWmZkls975UJ568jGTBPYGKzcelY8XZMu+rHLpkhIpYwYnyD1Tm35fX6JxfrowR7JyKyQhLtSsUUic7tUyTp12tHfXaPnxI33tR32Hv8R5KK9SXnx3n2TmlEt0ZDBxulzLOMWqxlVW18vA3rHyzPcH2s+AW2jC/u//Y71p8IsIC5KI8CDp1yPGh9+3eyUnv8o6a5TU5Ah58p5ekt7Jt9abPh5npXUWYMUZ7pNxqt+/tsvMMKBriBOn+2mcew6WSVlFnXRLjbLi7EmcLuZvcep1VOO7rFecbN1dLPuzrTqSJTAwQDKGdjT3ayl0ioOX+Kf/t0kOZFdIcHCgdE+NlFsmpcrYIR3tR33Hu3OyZNWmQnOvrcvO3DY5zSfjBE7WFvmO7NxCaaivsa5rgc1bQEBA897ZlO6dfI9TpudZWYfMsd6L2Q+b8vT0NLNP6HB8HfsZM2bYR2c2ffp0+0hk7NixjPAFAFyc6upqKTpWbJ95p/zCanMTqslepRXd9+YekrVbfWu9Fl2DxrnZ1sbrw0eqTJxL1/nWuoT+GucR632sidG/fXbQfoZv8Jc41Z9n7ZUd+0rMSELidL+WcWqyV/liI64/0BEecTEh5lhfy8LiGvO+ffXD/abMl7z4jr5vS02jfElZnTnWMl9zPM46E6uvxqnvUX2v6nuWON1Pr5Uap1479dqi1xi91vga4vQtLePUuvxe6577s0U5JtkbFBhgps7948+Gyj882IdkL7yGth1oslfV1TWYe1G9J9V7U1+ibV7aVqJtYErbxDRObSMD4JsY4Qt4GCN84W/cMMJ34ep8c3OtvRh1tI5WcPWm1FclJYTJL78/0MT4xmeZdqnvIU7fQpy+xV/j1PXodIpCuM/j/7ZWSstrm0doP/PcNrP3VcTpW1rGqQMI7FtLn+MvcT50czdz3/ILK05Novkq4vQtJ8c58vJ4efz2HpIYH2Y/A/Aez83aa9bv9ZfPp8bYsi3s7+/vZZY0AXyZv47wJeELeBgJX/gbTfi++NJMs27v4MGDTNmmTVtl0eLl8uTfPWrW9D2Tp6f/zD5qW5WSKkUyXK4Z28lMo6VTcH69Ms9+1PekJkXIDx/sLYdyK60bmT12qe8hTt9CnL7FX+OMkByJl3X2o3CTvIDrpL4xlESojyHh61v8Jc7v399b0lMi5I9/2yM5R3Ract9EnL7l5DiTZLGESIn9KOBdiuVyKZfufvP5PLktTO9X9L6lPTw749f2EdC+SPiS8AU8goQv/FHLBK86OQF8JprwbY/K39FjNfK9X57aAP/T7/aXYZe17vN6Mdorzoqqennkp6vts+O0J6f26GxrxOlZZ4rztqvTZNpNXe2ztuMvcar2ivVfn90quw6U2mdNiNPziNO3tFec//7HrWaa2JZumtBZHrmtu33Wti5lnP17xsh//PDsdTZPIU7Peu3jAzJ78WH7rAlxel57xfnm7IPy8fxs+6xJ3+4x8n+fJk5PIk7POl2c6rXfjJLI8CD7rO20V5yXGnF6lo5y1dGuJ/O19+367UXym7/ssM+Oe+EXw6Vjh1D7rO34y/sW3slfE76s4QsAuGia2I3rECf/8tNfmq1fvz7nTPa2J63IajKwW2rThT41OULuvi69XZK97UlvTDTOHmlREhYaZNZI0jjbIwnanvw1Tn0fa4ztlUxqL/4Sp3rqvl7Sr0eMWS+UON3PX+L0F0/e00v6W69nTFSwWc9XX8/2Sva2JyfO2KgQs+mxlvkaf4lT36P6XtX3rL53idPd9Bqiceo1Ra8teo3Ra42vIU7fcmKcQaZOr3X79kiaARdK37PahqBtCb78vtU2L41T28CUtolpnPp5BeCbGOELeBgjfIHWo5eqbyFO3+JPvXF5TX0LcfoW4vQtxOlbiNO3EKdvIU7fQpy+hTiBtscIXwAAAAAA/ITToRIAAAAAALdjhC/gYYzwBS49/dxs3LRVtm3fIR3i4uTK8WMkLi7WftS37NmzT9as3SBhYWEybuxISUnpZD/iW4jTtxCnbyFO31JaViaLF6+Q0tJSGTliqPTu3dN+xLdUVlbJX2e+JQMG9JVJE8fbpb6nuLhEFi5aZsVbKQMH9pdBAweYHui+hjh9C3H6lurqalmwcJkcLSyUPtY1ZeiQKyQ0NMR+1HcQp2/ROJctXy2Hc3Nl4GX9ZcjgQc0jtHyJE2d+fr7Pfw/5Q5z+1BYGnIvXjvA9lK0Heta0M0ci6Wmp5vGLHeEb1LVr12f0H9JEUs6xGvshABfqR3/3sERENK2NcLGcLwXdO1tAYJDERnvm33dUVNVKZITvVdDhv76ev1iWW5X5yy8fIN/u2C1ffDlPEhM7SqdOSc0XWV+gFfkPPpptbljy8o7IJ599KUFBQdK9WxfidCHiJE43Ik7fivPo0UJ5/sWZkhDfQUJCQuSzz+dKamqKJCUl2s/wDU6yN9mqF0y9drJPNvipoqJj8uJLr0nHjvESGRlp6kP7DxyU/v36+FTjPHESpxv5S5xVVdXy8itvSH19vXU96SzzFyyR9es3S7++va24PduucSkRp2/FqfWEv7z8htTU1EhKSrJ8/sU8Uy/Sep8vaRln584pMverBbJl67fmeyg8PMx+lvv5S5zKX9rCgNZoi3xHaVmlNDbWm8/T2Tbl7FXL47raOqmtrbXPmkRGRDTnkyJafC+tWrXKPjozTfI6XnnlFRK+gKeR8AUurYqKSpk/f4ncc/etptfmqJFDJToqSj78aLbp2ZhqVfBbXmjdSm+y58yZL9dcPcGKcZgMGXK5dO2SLp9+Nse6kamVXj27E6eLECdxuhFx+lacavbnX8mA/n1k6nVXS39rr0ntTZu2mlEtvpIUra6ukZmvzZL4+A5y5x03mRh91abN28z+rjtvlr59e5kR2+vWb5INGzbLoEEDfCapRJzE6Ub+EqcmsXWtugen3SN9eveQsWNGyIHMLFmwcKlJtkRF+cZMY8TpW3GuWLna+v8Auf++O6RXrx7SqVOyLFu2UgZb9SFN/PqKHTt3SV5egTz80L1WnN1l9KjhZjabzVu2yxWXD7RiDbaf6W7+Eqe/tIUBreWtCd+IiHCpra2TurqmpK+e62yxznMuNuHrm12ZAQB+rda6aFZUVppjvWCOHTtS7rrzFvnkky/NTaqv0CREWVm5fSamcf47jz0oK1asNg1GvoI4idONiJM43UaX+NFOwJcN6GeXiPTs0c2U6Q2prwgLC5WRI4ea+sCxY8Vmir933/tE/s8//Vz+7ee/NkkYp9OlL9CpufU1VNrY993vPKSVI/ngw8/M+9pXECdxupG/xKn3ZXqNUboswrQH7pJu3bvIm7PeNyPvfAVx+k6cpaVlMnTo5dbHsanxvUt6qukgdvKILLcrL6+04mqaklRp0kGn6a6qqpKPPv7cZ76H/CVO5S9tYYCb6WdTR96npqaa2TI6duzYfL3xBBK+AACfolNJ9erZw6w/2LLiPmzoFXLllWPks9lzzVRUbqc3nNrDePnyVdYNzPEkRI8eXeW2226QeV8vlsLCIrvUvYiTON2IOInTjYKDg+Xuu24x04s6yiu0wSjA+hv41m2j1gmGDb1c/vraLPnz869KmfW6/vM//kBuvH6KvP/Bp7J7zz77me7Wu1d3yc8vkL37DtglTY2c0+6/Uw5lH24eYeh2xEmcbuQvcaanpUpDfYNsbhGPXlfvvP1ms1+8ZIVd6m7E6Vtx3nD9NWYGF0d5RYXpjBHoY/WhLl1SzQjttes2ms5uurSHJgVvu+UGyc45bB7zBf4Sp7+0hQG+QjuhtMUsWkzpDHgYUzoD7W/Pnn1mHZbdu/dJfHycGZG0ePFyM6WNM9WmbslJiWYklq69o73o3ebkOLt162oag/RmZUD/vuYmWyV27Cjbt++U+IQO0ik5yZS5CXESJ3F6L3+Js7i4RObMnS8bNm429a/+/fqaad98LU5t8NLRKs76ZXrD2bJ3sSYidATsFVcMNH+HFSvXyOrV68wIZ0/2Qm5r2rj16l/flAYrBmc6ux7du8rBg1kSHR1tRifFxMRIly5pUlJSKocOHZZBA/vbP+0eJ79vu1n1HV2vbt68RSdMtakNgjo6a+++/TLYem3dhjiJ041x6nepdhD6xvoO1VGQ3a3rp8bj63HqyJXomGiz9n23rumSkNDUqUinUI2KijKv++ArBklwcNN11S2I07fi1OTYe+9/al3/s6Vnz+6n1Idy8/JNYnDE8CGmDrj9210y+/O5ZlYUN8V68uupycEEqw777nsfy5IlK2XpspUybuwoGT5ssPXdXGrViUpOSHy7hS65osndjRu3mrVrk5ISTfuPr8Wp18yNm7aatbQPHsw2sWpd1hfbwoAL4a1TOp8LUzoDAPyaVnBnvfORdO6cYhpp/2fGn2X9hs0ybdpdplH6gw9nmwq/0tFLbl1z53RxLl/xjTxw3x2SezhfZr4+S8rLK8xzdSRWaGioOXYb4iRONyJO34qzqOiYvPDiTNOIEhsbK7Pe/lD+9tZ7csdtN/pUnEqvl889/6pJ/J6OTnmsjUL6t9Bk75KlK+WqK8e1SU/ktqYNm29b719ndIc22N537x1mfT4nge/QaZ/d5nTv25df/ZuMGjlc+vXvI8+/8KocOHB8Kr8ID3VQbW/ESZxupJ1O/vLyG3LkSIF0TkmRL+fMl2f/90WzdqQ/xJmW2lkmT7pSXp35lqlL6Out9LvWjdcT4vStOJX+3poMnTN3gcz9amHzVOuOCqvep+0IummyV6ddv+rKsa6qL5zp9ezaJV1+9cxP5bvffVj+/V//USZNHN+cmKivP/Hv4AZa33vxpZlm2ZXdu/fKc39+xVxrdJSrL8Wpvp6/2HQa0iSudkr9zW//IJkHD8m0aXf7VFsYgPPDCF/AwxjhC7Qf7Yk7x7pRuebqCTJq5DAZMuRyc8Py6WdzJCI8Qq6//hqZP3+JLF22yowU0Ep/bEy0jB0z0lU3o2eLUxupb7l5qmm011F3eoOzYdMWMz3l1ZOuMr2t3YI4iZM4vZe/xKl0xLK6686bpW/fXjJyxFDTI/7bb3fK/fffIZs3b/eJOHVk76IlK0wc69ZvlssG9DUjy1ras3e/VFRUSGHhMXMt/c5j0yQ5OdF+1D20kUtHPnRJTzNJ6xirLqAjfbUu4DT2qf37D8qChUvkxhumWPWFGLvUHc70vt1kvUfvuP1mqbM+w++9/4nkHM4zjb0rVq6WG6ZOMSP13YQ4idONcWpDfFbWIXlw2j3Sp3cP615khJlCdNGiZXLrzddb9/iBPh3nwoVL5bprJ0tSYkczbf6u3XtNxykdlXbl+DFmRJqbEKdvxam0LnCsuEQiIyJk587dJ4yOVHl5+ZJpxR4WGmrWfNXOjr169TCPucWZXs8F1us5aOAASUtNae7EqB0B5329SCZcNU46dHDX95DOGKFrYz447W4ZNWqYmZUoOipSUlKSTX2wQ1ysT8Sp71Ft67rn7lvN6zdq5FArzij58KPZ0rVrukyYkOETbWHAxfDXEb4kfAEPI+ELtB/9TKxfv0ni4ztIenqqKdPKfY/u3UwSItW6adHGIp0i7WBWtvTo0U2unTLZdY3y54ozKTlRbrvleklK6mimoYqLjZXbb7/R+i4KN891C+IkTuL0Xv4Sp9K1E7VBTJPa2iCi0x3rKCxNaOdYjz326P1myjS3x5mTkysbN26R7z7xkEkwLFi47JSkb2hoiHw6e475m3z3Ow+5MtnrqK6pkbKyMrluyiR5572PTdL3yJGjphG3Y2KCfGa9j7WR8J67bjNLQ7jN2d63mZkHrfrQjWZ6WF0zVBvmtZNG167ua5QnTuJ0Y5y6zvv2b3fK0CFXWPchISbpMGjQAMnKzpHVa9bL3Xfdakaf+XKcOoXsTTdeZ6ZR1SlUCwsLZfLEK830+efTCOoNiNO34mxm1XV1dORdd94iX3w5zyTUtFPj1q3fSu/ePWXJkhWyfuNmeeShe12X7FVnez1XfbNOhgweZJUHy46du+Uvf3lDMsaNksFWmZteT71fOWq9F6+4/DLTBqTXlcO5eVJq1f/Wb9hiXmOd3lljcnOcqra2TtasXW/auDomxJvfXztb6L3axx9/YZZjuX7qNa5vCwMuBglfEr6AR5DwBdqPVuB11NmyZatMY5DTU1N7w+sUlF/NW2Qq+32sGzRtPNI1wfSmzW1aE6feXHfv3lUuH2TF26enhFg3cG5DnMRJnN7LX+JUmnDQ9b06p6ZIx44JpkwbR3r36iELFy2X2NgYGTL4ctfHGR0dJWnpqZLSKVkuu6yfHDqUc0rSV19bXet2fMYYk8x3Mx3doNMw6hSMGtNbb39g1si8evIEibH+Ft26dzFxdu7cyf4JdznX+1YT3H369JIB1uurn1U9dyPiJE430lGDa9asN9dOp9OUXlf79O4lGzZukbKycpP09oc4NT4dza3XUH3Nz6cB1FsQp2/F6dDfXWcYGDlyqGk7+Gz2XFm1co1MmnSl6Uiu30u6hq/Wdd2oNa9n7966pm+8jBs3yirv6brXU39fTXpGRjatia4zt3z+5TzTQVPXKtbXVJPdOgWym+NUGod2XNy2bacMHjzQvJaqc0onsw68LsWiaxRrrG5uCwMuhr8mfBnDDwBwNa28hoaFyYcff968PonSm06dric757Bd4m7ESZxuRJzE6UY6clmngHvvvU/MaCuHNmTq9Hfbtu+wS9xNG326dU1vPr73ntvM+Usvv3HCmr49e3a3/iZNiRg306n6qqqqpKq62kzbqA1jOp31/gOZplNlRHi4K0dqO/zlfUucxOlG+t0yefJVJvGwd+9+u9Qun3Sl6XxSXe3+ARjESZxuFmbVcTWJVlpaZkbaa9IsIDBAdu7cYwZJadLXSZS6UWtfT60faZ3I7fQ127J1m1W/vd3UcadcM1Fuu/UG2bxlu8/EOT5jtHXtPGI63mq8SpNKOm2zdtTVGXwA+B8SvgAAV6qqqpa3Zr1vptR88IG7JPdwvsx8fZa5OVNBQYGm96rbaUV99udfycZNW4mTOF2DOInTjZw4dVo7bfjq17+PPP/Cq3LgwEH7Gdoo5tlZVtpLZVWVFBeX2GdipvR7972PT0jcny3p61Yt49SG3HBrW7bsG9MwNv3p78kTjz8oy1d8c8Lfxo2cODMyxvjU+/ZkxNmEON3FiXNA/77m2vLqzLfM9dSZzSssLLR5ZJabHcrOkZmvzZLevboTJ3G6hhNneXm5mXEgKjJCtmzZLn976z159OH7rbrCU7Jjxy6zDIabaPJP67UOf3w9NZ5bbr7ezFzj0PsVTfIGB7t7pKsTpy698uCD98jq1evkgw9nN9frdbpu7bwAwD8xpTPgYUzpDHievvf1hmT+giVy8GC2WTtRK7EbN28zDdNpaZ3NdFI6BdPcrxaYETsbNm2RMquif/Wkq8zUcG6xZ88+E8Pu3fvMVKm65sr27TslJibGTDdEnMTpjYiTOH0tzq5d0qRf395SYcX33vufSM7hPNNLfsXK1XLD1Cnm+W6hidsXX3pNqqqrzJpzAQEBZj2zvPwCuWxAP5PodWjjmE7vrOvW6VTP+jdxC42ztrbWNNg6WsYZGBhg1srcu/eAfO/vHjEjCHU6v5Ejhp6wbrG30+S0rjW8YeNmUz/Stehy8/JNnIMu628aNn3hfUucxOnGOKurq2Xe14vN+qZ6fUxOSpL8I0eav4d69exuplV9/4NPZdfuvabjlN7fXDl+jJmG1C1OF6dOB6vX08svH2Cm4SZO4vQ2mgB97/1PTYdxnb1E60P63WTiHDTAJAN16Qf9Ozz2yAPSo0dXUw8aNXKYmSXELTTOd979WHbt2isD+vc5MU4fe98uXrJSvvlmbfN1paSk9ITXs6WiomPywYefyeTJV0qn5CS71PtpbCe3hVVXVTfHmZTY0UyrPn/+Ylm6bJXoEiYrVqyW2JhoM9LXFxL5wIXy1ymdAzIyMho12atTVaw5UGY/BOBC7V87z7opjbfPzk4v3A7nWPfOpp9NZ+9sgUGhkpbi2Wn1CooqJDHePQ168D/zvl4kGzZskXHjRsqGjVslOztH7rv3DrOOZMuLpn5Gtm77VrZt2yFxcXEyadJ4V03ToxV5XVdGb7Z0hINOYzf1uqtl0sTxJ1TUidMdiJM4idN7tTZOlZubJ7oOVm1tnXm+TunnFtro98ab78nAy/qZxKYv07rCmrUb5cnvPmySuaejr6V2zNS1id1IGytf+svrpmFPGzKXLV8lPXp0k2n333VKct7N71viJE43xqmzD738yhtmnfe0tFRZumylREVGymOPPnDKtPiafNGG+dLSUhk+bIjoevDn0xB4KREncboxTqVta2/87V1Zv2GzXHftZGubdEqdr9D6vtL28eSkRLvEXZxkr3bcm/bAXVad58x1cze/ntoxQd+3Wp9z3rfaie+Rh+49pY6nr+eXc+bL6tXr5Ybrr5ExY0a46n3b2rYwHd2rnap279knXbuky5jRI6xrLgN74N/aIt+RnVsoDfVN08I7m34Wnb2zKd3rtcc5Vs650mPnvOU+oUOMOVYzZsywj85s+vTp9lFT8peEL+BhJHwBz9Kblb/OfMust6IjefUzsWrVWvl09hy54/abZMTwIc0XTjfTm7PXXn9bRo0abkbPqR07dpvppDLGjT7tDakbESdxuhFxEqdbaWOeTvn26CP3mwYwHQ2xZ+8BCQkOll69up8wutfNdGTvTOs1LShomob675546IxJXzfT6ca1g4JOva11H319X3vjHb2BkO88/uApyTO3Ik7idCNtZF+4cKn1ffuAaWTX71tNvGRlZct3n3hYkpPdmUA6GXESp5stXrJCMjOzTHzDhg32qTqfthfqqN2Co4VmhPLZkr1ut2Xrdvnmm/Xy2KP3m7qsJoBfeGmmOf7udx46JXYdxVzfUC+xMceTKG7gL21hQFvx14Svb1zVAAA+rbauVioqK82xXiTHjh0pd915i3zyyZey/0DTWl87d+6RX/7qd2ZkgFtpEkKnz3L0799HvvPYg2ZKHp0+VWl8GqfG61bESZxuRJzE6UZ6zayzYi2vqDBTHv+/3z8n77z7kbw6803TMKYNZJos1SmftZHQrXJz86WstEyeevLRM65B7AtxKh2Jo426SpP42rBpvdBmmkJ9XxOnuxCnb8Wp9ys6mELpuuE6wq5b9y7y5qz3feb7Vp0rTqUxaqwas1sRp2/FqbSOoB5/bJqst+p7c79aKPv2Z8rSpStNI7ub49Rkw8gRw6z6T5GpF+l3q44O/Zef/tJsCxcta/4edvvrWV5eKUFBTYkWpQleXXamqqpKPvr4cxO7cuLUzgxuS/Y6WtMW5iufTwCewRq+gIexhi/gWSEhIXLkyFHZtm2nDB48sLlS3zmlk7kx1WnfhgweZNb3Sk3rLKmdU8z6vm6jcemNybJlq8z0PM6aMxqXNox9NW+RmZJTpypKTbXiTEuRMPs5bkKcxEmc3os4fStOpddDTVhrw9iBzCxzvXzwgbvNSOa16zZJTk6uWf8rpXOypKenmikd3Sg6OkrSrN9f1x3WNYgPHcqRBQuXmXVBnfV5ddRHSoq749T1iZcsWSmdU1OaRzDrutm9e/WQhYuWS0xMtKSnWX8H4nQF4vStOHVNzDVr1ptrisah9HrTp3cv2bBxi+lkpGvD+0OcvXv3MOtM6pTc+po7o1rchDh9K06H/u7asW/kyKFyxeUDzfIeq1aukUmTrpSE+A6uj1Prslon+uiTz037SV7+EXnkofukX78+MmfO12b5FX2d3R5nQGCAzF+w1MSq7T+FhUVmeuqbbrhW1qzbIJ2tMl94PVvbFqajf33h8wl4mr+u4UvCF/AwEr7AxduzZ5/M/WqB7N69z9y09OzRTRYvXm6mtOnVs3vzBVTX1tEbtu7dupiG+aTEjq5K9p4cZ7duXWXT5m2mp+aA/n2bp9pM7NhRtm/fKfEJHSTFqtzrekpuSj4QJ3ESp/fylzh1CtE5c+ebta20PtW/X1/ZvGW7z8Wpo1q1d78mWJQ2DGnjzyeffil1tXVy1ZXjTAJUky163dy69VvT4KnHbko+lJaVybx5i6w6wEbTeJloXf87xDWt2aYxnynpqzG6Kc6T37fdrPpOTU2Nib1/vz7NU+FqfNrwt3ffftOJgTi9E3H6Vpw69e28rxfLN6vXmVGQ2kEoOiZaPvnsSzOKUL9XlX7fRkVFmb/H4CsGmSSEP8SpiXx97HwaOC8l4vS9OBcvWSkrVq6W+voG0yHM+d23btthvpc0fl3PV9vDo61YtZ1Bv5/cHmfnzp1MbLp++hOPP2jqgTo1d7hVX1pvvZ6aIIyOdvfrqaN5tZPmu+99bDoU6Rq+48aOkuHDBlvXoFIpKSkxr6deZ9wUp14zN27aKvMXLJGDB7NNwrpLl7RztoXpPYub4gTai78mfJnSGQDgVbSCO+udj0yvzJKSUvmfGX82N2LTpt0lq60b0w8+nC01NU1T1WhyV3s9utHp4ly+4ht54L47JPdwvsx8fZZZa0bpdEXOCDS3IU7idCPi9K04tcHrhRdnmkaU2NhYmfX2h2a93jtuu9Gn4lR6vXzu+VdPmM64a9d0s/ZX5sFDZs0z/Tuo6uoaK94gE7ObaGx/eu4Vk9iOiIiQV/76pmz/dqf9aBONS9cL1cbr003v7Aane9++/OrfZNTI4dKvfx95/oVXzbqoDv1buBFxEqcbVVVVy1+s75YjRwqkc0qKfDlnvjz7vy9KWmpnmTzpSnl15lvmGut834aFhTaPzHIT4iRON8apyc6X/vK6ZGfnSKfkJHnv/U9kydKV5jHtEBcVGSFbtmw3dcFHH75fpj/9lOzYscvMeuImZ4pTkwrXTpkk33vyUes79sS1bEOCg133mp4pzmFDr5BfPfNT+e53H5Z//9d/lEkTxzcnVDQp7EZfz19sOkdpElc7pf7mt38w9fdp0+72qbYwAG2LEb6AhzHCF7hwOsXmHOvG85qrJ8iokcNkyJDLpWuXdPn0szkSER4h119/jcyfv8RM16MjBXStxdiYaBk7ZqSrblzOFqc2Ut9y81TTaK+j7vQGZ8OmLVJWXi5XT7rK9LZ2C+IkTuL0Xv4Sp9IRy+quO2+Wvn17ycgRQ02P+G+/3Sn333+HbN683Sfi1ATooiUrTBzr1m8+YWSrTv2mowR0pO+2bTtkx8498s3qtXL7bTeZkR9uMvvzr2RA/z4y9bqrzdrL+n7dtGmrGbHSsi6gxzrSV0dE6IgXZ1ShW5zpfbvJeo/ecfvNZm1mbfTMOZxnGu911MsNU6eYkfpuQpzE6cY4tSE+K+uQPDjtHunTu4d1LzLCTJu/cOFSue7ayWbWIV1TcdfuvaZDkY7WunL8GDNSy02IkzjdGKd+r4gEyP333SG9eul01MmybNlKGWzVEzRBtv3bXWaE82OPPCA9enQ19QOtC3fo4K7vobPFqWvWOslPpR3fNFk4ZcpEkzR1k7PFqQltneHF6aypceq6xROuGue611Prq9rWdc/dt8qggQOs9+RQM/L8w49mm86bEyZk+ERbGNCemNKZhC/gESR8gQun7/H16zdJfHyH5jWEdJrGHt27mSSErkuijUV6U3YwK9u6Qesm106Z7LpG+XPFmZScKLfdcr0kJXWUQ4eyJS42Vm6//cZTeuh6O+IkTuL0Xv4SpzqUfdg0cGpSWxtEdHSHTmOsCe0c67HHHr3fJEPdHqeOTNm4cYt894mHTCKl5XTGeoOp60Zq466ue6bx3XH7TabMTXT6123bd8roUcObE7iBVmy79+yTy63X9ORlHfT11rUH3ZbsVWd732ZmHrRevxvNNLj5+QWmYV47aXTt6q5GeUWcxOnGOHW9SJ1ZYOiQK0wCSb97Bg0aIFnZOSaRdNON15npRXVq0cLCQpk88UoZNLD/eTX2eQPiJE43xqnLVWhcToc2Ham8efM267voMvOdpG0Ko0YNk/S0zuZxpd9XbnOuOJW29S9btkrefOsDmXLNBOu1v9znXk/Hjp275S9/eUMyxo0yyWC3xVlbWydr1q43bVwd7emZtbOF3qt9/PEXcoV17bx+6jWubwsD2hMJXxK+gEeQ8AUunN5o6agzvSnRxiCnp6b2+tc1Wr6at8hU7HXNFm080rV3dGSP27QmTr257t69q1w+yIq3T08z/ZLbECdxEqf38pc4lTYG6fpenVNTmhuLtHGkd68esnDRctG1FIcMvtz1cUZHR0laeqoZzXqmNWz1ddZRAroGWMtGMrfQ9+2AFklspSMFDx48JMOHXeHKOsGZnOt9q+sp9unTy/w99LOq525EnMTpRpHW/f6aNevNd6rTaUq/n/r07iUbNm6RsrJyE5+OctZri/4tzqehz1sQJ3G6MU7t6KVrZTu/e2GRJrp3yTCrnhBmxa6d3tzYEexk54pT6WO6dMuY0cPN6FhffD0duobtuHGjTFuRG+PUThhHjhyVbdt2yuDBA81nU+ksPdrhccXKNWaNYp3u2c1tYUB78teEL2P+AQBeRSuvoWFh8uHHnzevT6L0plOn68nOOWyXuBtxEqcbESdxupGOXNaRHO+994kZVebQhkwd8bpt+w67xN200UfXrHWO3b6G7ZlobE4jmNL1p3XaPm0o086Ry1esNlNSaodmN/OX9y1xEqcbacJo8uSr5PMv58nevfvtUrt80pWyd99+s0662xEncbqR1hFa1hN0NgHtKBZu1XmVJgv/OvMt18fa2ji1buTWzjWqtXHqCNmIcPfN0NPS+IzR1rXziOl469RjNUmk0zZrR12dwQcAzoWELwDAK1RVVctbs943U2o++MBdkns4X2a+PstU6FVQUKDpjex2WlHX9Qc3btpKnMTpGr4cp/aY1oYQ5ctxFhUdk+rqanPsy3Hq+rWLFi83CWwnzlXfrDMNmf3695HnX3hVDhw4aD9bGzk9O2tKe2kZp9IpGt997+MTEve+kPRtTZzHjhWbUen6OdbRD0uWrpSrrhx3QuOg2zhxZmSM8an37cmIswlxuosT54D+fc215dWZb5nrqVOX0OlG3fz94ziUnSMzX5slvXt1J04XxqnJIq0HOfwtzvLycrtEpMKq32qnMN00OfjBh59Z9YSxJma3IE7filM/dwUFhc2xOnHq2ssPPniPrF69zqy57NR3dfp1jRcAWoMpnQEPY0pn4Nz0vaw3mPMXLJGDB7PN2olaid24eZtpmE5L62ymk1q3fpPM/WqBafDdsGmLlFkV/asnXWVVdt0z3WbmwUMSEx3VfAOtsW/fvlNiYmLMdEO+EueBzCwrhoWyZ88+6dy5k0kW+WKcubl58vX8JVJTWyNJSYmmzBfjzMrKlr++9pb07NHdTHnmy+/bF//ymolTp/X11Th17cQ333pP0tPTzCgrX41Tf3ft4a/TEvbr29u8pk6cXbukmbIK6znvvf+JmQZYe8mvWLlabpg6xUxl7RYnx6mjWw9b3015+QVy2YB+JtHr0GuPTu9cUVFppnp20xSGrY1zz979VnwVUlh4TJYuWyXfeWyaJCc3fT+7QWlZmcybt8jEqVMW6igcJ85Bl/U3U3L7wvu2ZZw6MkdfT72m+lqcxcUlMmfufCvOzea7VusKuXn5PhendiCpra09YWp4X3zfakepxUtWmt+9vr7BfI8671v9HtLp8XWaXJ1VYNfuvabjlN7fXDl+jFl70S00qbB23UbZuHGruS/T11Xfy7t36/roA8w03L4QpyZX3nv/U9PBuKf12gUEBPhsnO+8+7Hs2rVXBvTv459xDhrQ3Hkxz/oOzrTq/Dr970cffy4P3HeHmd7YLYjTt+LUusHX8xfLF1/MM59FXZKlZZxJiR3NtOrzredovbampkZWrFgtsVb9UEf6+kJHG6C9+OuUzgEZGRmNmuzV0Q1rDpTZDwG4UPvXzrNuYuPts7PTC73DOda9s+ln09k7W2BQqKSlNK2H5CkFRRWSGO/+NUzgHvO+XiQbNmyRceNGyoaNWyU7O0fuu/cOs45ky4ugvue3bvtWtm3bIXFxcTJp0nhXTdOj00S99PLr0jEh3oyyatkI35Lb49RE0Rdffm0aCXbs2C1Fx4rl+3//uHVTEmM/o4kvxPnxx19It+5dZN++AzJp4niZcs1E+9Hj3B6n0pvo51/4q0RZN6BPfveR0yZP3B6nJnvf+Ns7cust15upjc/E7XEWFByVN2d9INPuv0sSE89cf3B7nE5yMLlTkjnX7139jJ6ONtbrSFCd+k2/t1JTU+xHvN/5xOlm5xOnrt/7wkszTYfLM31feSsdef/yK38TXTtak/Grvlkrjz82TdJSO9vPOM7N71tNDuoo8/79epsG2+UrvrGO+5i6UZg9JaPDzXHq6/nSX143DbUa57Llq6RHj27m+/fkzhZujlNpXX7N2o3WZ+5h05HoTNz+ffvyK29Y18RY05lx4aJlct21k2XCVePsZxynjfXaMF9aWirDhw0xn+nzadi7lJw4tU3QOX/qe49JfHwHc96Sm+NU2rbyxt/eNR3h9LW87tpJp02euDlOJ2mmHb2mPXCXdW08c13OX+LU7+Y/P/+qlFdUmE5hbkyCEudxbo5T7d13QObOXSCPPfrAWePUjjjaeWz3nn3StUu6jBk9wqpbMFAHOB9tke/Izi2UhvoaU39wNr12OntnU7rXuodzrJxzpcfOect9QofjbakzZsywj85s+vTp9lFT8peEL+BhJHyBs9NKvDbi3nbrDWYkr77HV61aK5/OniN33H6TjBg+pPlC6HY5h3PljTfelcqqKunbp9dZk75upSN2/jpzltx5x02mgVpvTP7y8usy3Hodx4webj/L/U5OmmlveO2Z+/ij004Y3eIr9HXV966OwNq/P1O++8TDrkqinItOm/XKq2/KrTdPlSFDLrdLfdOmTVtlg7U9+vB95rywsMjMPNA5pZMZxeML37ctk4O3W9eWfdZ7duHCpfLoIw/4VMMIcZ45Tu2EExsbe9ZODd5o8ZIVpuFS60Tq40++kB7du8rgwYPMua/Q5KCOIHPi1GkM//zCK2aE3f333uEzdSOdPl6nMNb6nn63ajLltTfe0Rs8+c7jD7pqhP3Z6Mjema+/bV5H9XdPPHTWpK9b6eczL++I3H3XLeb13Lpth3z11QL53pOPmVHqvuKz2XPNTEtTr5ts2hu0Xj9yxBCf+x5y6OuqHRt1NpthwwafMenrRvr66ajdgqOF8ph1zTxbMsnNLiTOnJxc83Pp6al2ifcjzjNzY5yOOXMXmL1+52pbmF5ndIYMnekuIaF1bckAWsdfE75M6Qx4GFM6A2enPfzXrF1vRjzoiB296OnUUdqLXEdParke79y5R57788tmNEh0dLT90+6iI3V05Mr9994uCxYuk0OHcszUmi0bFXTkw//8/s8m+eK2hmqlayfqNH2jRw4zcWmjrU6rqWsy9+59vLet2+PUBIRObdu/fx9z3tDQaBqLDh/OM9MvdU7tZKaVcnucjtCQEDOd1ogRQyQ8PFw+//wr83ouX7Ha+nzGSUlJiavj1Eb37JzDkm+9dwde1l/y8wvM1M469eS3O3aZaY61MdcXXs8jBQUmGTZk8CAzlb6O4tGe4kuWrjDfvz2t71ydGs3Nca5atcZ8/2gySb+DdGTyN6vXSUpKspki1+H217O1cWoyRkeNauJJrzlucyFxZmSMdmUCZvfuvVJaWiYDB/Y39+Nr1240yYiFVp3haGGh9O7Vw9T/3fx6qi1btpsRrzp6TOk6e4cP51rX0UNmqkKdFtft71t1KPuwZGUdMh2J9D2sHcJ0BgkdTaidpwYNGmBGMbk9Tm1o37hxi3z3iYdMHVDruDqFc8vPoC+8nlu3fmteMyeZre/bzZu3Wa/pZc2d/dwep36/6HeNxqR1I33fauJBO/6t37BFn2CmJdf6giZkdDSozsjk6k4aVkza8e2uO2+RL76cZzojazz6enftmm7WA3VrnPo6RUZGmmtm03Il0Waq5pesOq52VNXEviaV3P56Xkic4616wulGrXsz4vStOB37D2SaNpSB1jXjq3kL5Z13PzKdybX+p9cbnVHCZ75vgUvMX6d0JuELeBgJX+DsQkJC5MiRo7Jt204ZPHigaVhQ2gCvs03otG+amNCkUmpaZ0ntnGIq+W6UaFXYu3fvYiru2hB2uqSvfl+kplpxpqWYhKHbREdFmbUVW75GOvWxvn7du3WxS9wfpzZiaiOQ0sbajz/9Qg7n5JkppDSZtmTpSvN+1hGxbo7ToZVRXXNP166bPOlK0xj2+hvvWDfgMTJq5DDTKOjmOPXz16d3L7Meko7YWbh4mZkm6447bpIj+UdkmX2DrdM4uv31DLJi1bUHOyYkmPX5dFT6jTdMMfHr+1iTaPrednOc3azvmgHWd6zzvepcZw4cyDKJNOfmyu3fQ62NUxuG9HXVUQ/6mXUbf4lTdbC+Y+YvWCpr124wDZ1V1VVmWuqrJowz5wcPZpv13FI6uzvOhsYG+XLO/ObRK5ro1Snkb7h+iixatNx07tO1i93+emoScMmSldI5NaU5SaidxTRxv9CKU2NMT0t1fZy63mCa9fvrerZap9W67clJX1/4fGpHN+1k4nznFBYVyfZvd8mwYVc0X0PcHqfGph1vNdmi9u8/KJ9/OU/iYmOtz2oHM/pXv4O1Tq+zguiU3Predv4mbqS/u96rjBw51HTI0BhXWfefk6z6rr7ebo9T78H0M/rRJ5+b++08q177yEP3Sb9+fWTOnK9NJyp9vxKnOxCnb8Xp0KUtNIbt23fKD77/hFw7ZaKpH3362RyzLIR2PvaFOIFLjYQvCV/AI0j4Aqfas2efzP1qgRkJqZV5HVG2ePFyk0TSUR3OBTE5KdHcgGujglZ4kxI7uirZe3Kcidbv7zR86f50SV/ddKSZm5IPJ8epSTGHJkPXrN1gbs6SkjqahOGsdz6UIOu7S2N2c5zOSHMd2ZKTkyePPnKfSfhqAmLDhs3mhizFHjnoC3GWl5ebdW71fbt67XozCq2ivEIGDOhnGq3dHqf2CtdGeE36Xj/1ahk3dqRJZPfq2UPWrdtovX+TpFNykuvjTLZiqKqqki+++Fq6dkmT4cMHm+9bfaykpNR6nSvNlPNui1OnSp0zd75Z20rrR84IJId2RtFRzNohxZlG1Y3ftxcSp9LEg5uSD/4aZ7euXSRj3ChzHdl/4KBcc/UE6ZKeZmYH0TrQho1bTEJCZ0Rxc5wD+vc17Q1vvf2hGbGydt0G0/FE6wV79u6XmNho833rttdT1ybWEZ7OaE9Nmmm9Z968RaJrFDvvVa0DaqfGvfv2m85Ebo9Tv0u1s4JzfKakr9vi1HqOXhed102/g1p+D+Xm5ZvZQXT5GU30avJ39udzTYexlrMPeLuT43ToZ3TZ8pVy1ZXjZNLEDHOPpvU9HaGunXH1WO/PWv5NvNmZ4lTa2U87F+kMPhqfxq7XGY1Zn+/2OLUjtcamSwY88fiD5h5Fl2bRWXvWW9/L+npqfZ84vY+/xKltBlnWdSPOukY4v7O/xKnHes1cunSlmUWiX7/eplzrQXutOlF8hw5m1js3xQl4K39N+DZ1mwYAoI3oFKKz3vlIOndOMTcv/zPjz+bGetq0u2T16nXywYezzbqvSpO72ovcjU4Xp05FpA0IDr1p0XXOdBqxd9792NwAuM254tQpu7VRMCoywjR6auOu0gSwm5wtTu1dfM/dt5oGeaUVN70R1c1tzhanjlauqKyUN9963zz35//2j2ats4WLlp3wvnaDM8WpSd//8+O/l2FDr7Cf2SQwKNCMynKbM8U5cUKG9OvfWzZv2W46LChNwujU625c300bgl54caaJQddtnWV9z7z86t/MGqEOHXGl68QvWrzcPM+NiNM/4tTPoSbItC5UXX28A3aZFb/WiYKD3TWV3+nifOWvb8q4saPkV8/8xKwJ/4t//2eTyFb6vIZ6d11THFqffe75V01C1KGzYvTr30eef+FVM82vI8JDHYIvhdPF2ZImP3XdYh3B/dLLb5zxed7uQOZBefaPL5rObqejnd70M6mbJnt16t+rrhxrpnp2kzPFqcn7W26+3iTtHToVu46sc9v3kDpTnNpxQe9TdKr5v731njz68P0y/emnZMeOXc11JDc5XZx6b3LtlEnyvScfPaWeF2Ldb+tr7TbE6Vtxah1PZ4/SKZudep2/xKnXzNtvu1HiE+LNYAetN6l6qy5UV18vIS7qmArAOzHCF/AwRvgCx2lCc86c+WbEik4Dq2uade2SbqaqiQiPkOuvv0bmz19iRnvoGm460i42JlrGjhnpqgr92eLUBlxnFLNyRvrqOrfdu3c1FX63aE2ceqOyfv1mM1r7q691zZ0guffu2yU01D3fMefzeur3so46Ky4pkYlXZfjU66nrEutIUe1Zff+9d1ivZdO0lM7odLc4V5w6ZWPL13PhoqVSVloukyaO95nXs66uXm68fooUF5fKJ59+YRqRVq9eLzqK++abrnNdcnvT5m1mf9edN5tpz0aOGGoaTHSkvfaU1+8bfY/qaN55Xy9snhLNbYjTf+IcfMUgqamtlS+/nCc6IlLX0Jw7d4HccvNU18V6tji105DO/uHM3qLTdOuonQlXjfPY/VN70c5ti5asMKOR1ln1Hmdkq75XdSR6hVWu68Lr8gi6zq1OrX/D1ClmdgU3OVOcJ9O4tX6gs/foVM+nG1Xp7XR6cb0fWblqjfS06nra8a0lXe8+07p+6iwRH338uTxw3x1mphe3OVecDk1CaFJ78uQrzcgztzlbnJqw12nzH3vkAenRo6t5v2rd6Ux/C292pji1buvUb5V2xNCO1lOmTPSp15M43Rnn3n2ZsnPHbmt/wNzD6AxwToz+EKfeew0aOMDMcqIzohzMypYlZg3feFMn0msqgIvHlM4kfAGPIOELHKfv2fXrdT3XDmZUpNJpjnt072aSENpoe8ftN5ubbK3k6tQ1106Z7Lrkw7ni1MbbtNTOplxpQ5muy+KmZJJqTZw6uuNYcbG8+/4n1nM6uy7Zq1r7eupUTC++9JocO1Ys0+6/y3WNm+eKs3PnTjJ+3GgZnzGm+b3asvLqFq19PQuLjslf/vK66Yzx4LS7fe711CSDJoMvH3SZGf3bv38fs36mM0WnmxzKPixZWYdMUlsbRDQGHS2oo9D27880SUItj4mONq+jW5MPxOlfcd5w/TXW91GszJu/SAoKCs1MEl27ptk/7R6tfT2XLV8l77//qdx883WmA5zb6EjAjRu3yHefeMgkdFtOZ6zx6VT5V1x+meTnF5gRPpq8d+PrebY4T6ZxaycqN34+tS6nHVDvu/d2E9vHn3xxSpJQR/IuXrLCdFJ45KF7XZnsbU2cOv3451/Mk/c/+EyunnSlDLU+y26r+50rTr0HHTVqmKSnHb8/0/ev27Tm9dS23mXWc9586wOZcs0En3w9FXG6h8bwtVXX0fqArp2tcbZMhjrP8fU4tY1E49I2MJ3Ke9So4WZWJre1EQHejISv9UVEwhe4eCR8geP0xlkrtVpZ1zXLdFowpYkHXff1q3mLTGOYJj+1MVDXUnJjBbc1cQ68rJ/rRq+crLVx6lp9XdJTZcJVGa5L9qrWxqlro2qDrt6YuXFa3HPFOe/rxTI+Y7QrG25bau3rqesk6Xs3w4rZjZ/V1sQ5aGB/szaqjrpL7Zzi2gYFTSAtWbJSOrcY6akdhXQE+sJFy806g9phQW+qNJnv1vcwcfpXnNr5RNfY1k42OipW43aj1r6eOkX3+PFjzGvqRtHRUZJm1XW0A8KZ1rDVtQYHWOf63evW17M1cfoCXaYj1Xov6rVRE7l6PT052aJ1PX0f6xq+buykoFoTp9Yn0tNSZey4kSbe82mg9BbnilNfS7fXb1VrXk99/XSpjzGjh5vn+OLrqYjTPfR3TknpJF26pJlRuxqfxqnxthzp6y9xamddXcdXZ0BxY5yANyPhS8IX8AgSvsCJtLFPp/fbf+CgSaY4CYbEjh1l+/adEp/QwZXT85yMOI/HqTc2nToluTaZpFr1etqjzM6n4uZteN+eGKcmKrSh06385fWMjIw0a4TPm7dI+vfr09xoq8kHHZm0d99+k/R2O+IkTjdqbZz6XevGdUEd+vt3iIttPvbVZKi/xKl1OY1TY9RjbYw/XbJFE/faOcOtWhundtjU5JNbtTZOt2ttnFofdNta0y0Rp2/FqbRu4MSgcWl8GqfGq3Fr/P4SJ4C2468JXyaFBwC0KU2gPPjAXZJ7OF9mvj7LTGungoICm0eg+QLiJE43Ik7idKvJk66Ufv37yPMvvCoHDhy0S3UElu+MOFPESZxu5C9xtqQN0/fec5tZ2uKll98w6w76In+JMyAgwCyDcNWVY+WVV/9m1r73RcTpW4jTt/hLnKp7ty7ynccflCVLV8rX8xc3D37xNf4SJ4BLixG+gIcxwhc4lU6bpdPZrVu/SeZ+tUAqK6tkw6YtUlZeLldPuspM9ecLiJM43Yg4idONdPRDv769pcKK7733P5Gcw3lmfckVK1fLDVOnmKmsfQFxEqcb+UucJ9O4dQRsRUWla9eabg1/iVOTLToCKyQ42ExtnRDfwX7EtxCnbyFO3+IvcSpnBGxZWbl07ZpuYvdF/hIn4A38dYRvQEZGRqMme3V6pTUHyuyHAFyo/WvnSXx8vH12dk5CV50uuaufTWfvbIFBoZKW0rQelqcUFFVIYrxv3qijfezYsVveevsDKSkplcsHXSYP3H+nSTqcTN/DW7d9K9u27ZC4uDiZNGm8dSFzz9qnxHki4nQH4jyR2+MsLi6RN/72ruzZu9+sO/zoI/dL1y5p9qPH+UucKjc3T1asXCO1tXVy5fgxkpqaYj/i/YjzVMTp/YjTt+gU3O++/4msX7/ZzBSh10+9jvoa4vQtxOlbiNO3aDvmqm/WmumLa2pqzfX/1luuN7NE+BJ/iRNwq7bId2TnFkpDfY3pAOlsmsx19s6mdK/fE86xcs6VHjvnLfcJHY4vHzJjxgz76MymT59uHzUlf0n4Ah5Gwhf+pqDgqLzx5nty1x03mzVNZ739gXTv3lUmXDXOfoZvIE7idCPi9K04db0njVN7+o/PGC1r1m6UjRu3yOOPPSAhIb4zUwdxEqcbESdxutVns+eaeG+4foocPJgln1rn333iIYmJjraf4RuIkzjdiDiJ04327jsgX3wxT6ZNu1vCQkPNlNTXXDPRrP3uS/wlTsCt/DXhyxq+AICLkp19WOLjO0iXLmkSGhoiQwYPkmPHiuVQdo5UVVXbz3I/4iRONyJO34pTp/4qtuIafMVAc0PRv19vCQ4OlsOH80y8LW8e3Iw4idONiJM43UivkTk5h2XokMvN9TM9PU3iO8RJft4RKSgoNB2OfQFxEqcbESdxutXu3fukT59eZgpqnfa/b9/eUlhYJDmHc6W2ttZ+lvv5S5wA3IU1fAEPYw1f+JvyigpZtXKNGU2nDWEfffy5ZB48JFlZ2fLp7DlmCrzOnTvZz3Yv4iRONyJO34pT6wFr1m00yYf09FRZtHiFrN+wSXSE89y5CyU3L9+sq6iPuxlxEqcbESdxupGONtiy9VszfXXPnt1k85btsmTpSivOQlm8dIVs277DTDfq9vXfiZM43Yg4idOtCouKZJ11De3Xv4+UlpbJ7M/nmg66u3btkS/nzrfi727WsnU7f4kTuJS0Tq70O/R8sYYvUzoDHsGUzvB1zvvTaeDS47VWJXfuVwvMaIjLBvSTaQ/cZdYt2Wrd0Hzx5dfy1FOPuW6aIuIkTuL0Xv4Sp9Jp3zQOR25uvrzz3sdy5EiBhIWFylNPPi6JiQmm8eiFF2fKzTdPteJ33zRixEmcxOm9iNO349R4PvjwMzmQmWVGJH33iYfNVNY6Gu3VmW/KwMv6u3KJBOIkTuL0Xv4Sp7bhtWz895c49fVdsHCprFy1xiRCJ0+6SqZeN9k8tmjxctmxc7c88fiD4rYlEvwlTuBS0DadC+F8Hk/HX6d0ZoQv4GGM8IWv27N3v8yZO1/69W2a2k4vWmmpneWqK8fJ0aNFMmhgf+ncOcU8NywsTDZt3iaXDxwgkZGefd+2NeIkTuL0Xv4SZ0VFpbzx5ruSkpIsMTFNyero6CgZM3q4VdZJKisrZeyYEaY8PDzM/F06xMVKWlpnU+YWxEmcxOm9iNO34tTG6VnvfGhdO0MkKamjKdN4hg69Qvr1621Gmo0fN9pcW3XTa6rGrtdbNyFO4iRO7+UvcarVazbIho1bpHevHiYZ4C9x6tarZ3cZN3aU5BzOk9Ejh5mRrnrPFmhtO3fukcGDB7luNLO/xAm0Fyfv4Tj5/Fz0s9bSyef+OsK3aVgEAACtdOhQjqxfv1neevtDqa4+cW3MuLhYk1jRmzi1a/de01gWE3O8d5JbECdxEqf38pc4i4qOyYH9B+XlV/5m1oJqKSoywqwlqY1FSve6ZlRqWlOi202IkziJ03sRp2/FWV5eYZY7+Nub78n2b3fZpU0iIyKk8GjT2oOqsrJKdu/ZJ716dTfnbkKcxEmc3stf4tTExf4DmbJw0TIz25Bzb6L8JU6TzA4KMq+zPk83PU5KSjTJbzfxlziB9uB8Tloe62DUlsdn2073My3/LX/HCF/AwxjhC19WU1MrCxYskRuuv0Z2794ru3bvM1PZaQVXxcfHWRXg5bJ4yQpZv36TuWl58IG7xRkp4RbESZzE6b38JU61zvr9NZ5u3brI7M+/kj59ejbHoXttLPvok89N7/H585fI9VOvduWoAOIkTuL0XsTpW3Hu3rNfjhUVy5Xjx8iHH802o5edEXY6I0ZlVZW88+5HsmvXXrNMwvBhV8joUcPPa1SCNyBO4iRO7+UvceoUvytWrJY7b7/J3JeUWOfOyFB/iVNjiesQJ598+oWsXbtRllvP0xk17r3ndtdNc+wvcQJtyclzqJNzHs6xk8RtmcxtuTnPc7Q8Vi2/Qyur6jye72ANX8APsYYvfNGmTVslPCJcunZJN9OoTr3uavN+fOXVv0lMbIw8cN8d5qZFaU/HvXsPmGPtodpybZ6zqaltkCNFVVJb12CXtL+SklLz+2ovzPwjBZKclGh9BkWysg6ZZJJO26cVeqWfTa3EK50m9nwu3pea/t41NTWmAZM4idMt/C1OnQ7s6NFCibC+e7Uj2ZGCo3LsWLF065re/H2rdM0vfX5UVGSrv2+9AXH6Vpx67S8sPCYdO8abkZLE2YQ4vZs/xllaVm7K4qz6u8aYl5cvqdb1s+Ua9xpjVXWNhIeFSmhoqF3q/YjTt+LUulyBdd2Mt66f5XadjjiJ09u1jLOhodG6thRJp07JUm3FcvDgIYmNjZbk5KTmexN/iVPbjrROrNdObWtxy72Zv8TZHqIjQySxw/E6FfyPfp5O3p9pa/l4S/qZcj5XzvHpNudxzXckJUSZc09hDV/ADzHCF77oYNYhM/JBe51edlk/swZJaGiIDBo0QFatWnvCCDu9yHXsmGA2PW6t4rIaqaw+Pi3OpaC9bIuLS0zDvN5wOhdvnQr22LFjZvopTTY5F3D9G+jmXLjdora2ziQedOrbWOtGmziJ0w38LU6NJSoqyvQK1xg0ca319by8I2aKav2+VbrXhIT+LdyEOH0rTq2jFhQcNb+7fkaJkzjPRBv8tJNfaEig1Dccb/C4FPzx9Yyx4gm39io8PNzElHs4T8LCwyTMTjZoQ3VYWKirktqKOH0rTv0s6tTputf1somTON2gZZzaOUivISo4OMgc5+cXmAFX+pg+x1/i1E0T2tqOpMdu4S9xtget+0WGB1vvdf4u/kjrLs7+5E3r3Lpphzb93Gg9W68Luunnydm0nq7flU49XH9Wf8Y5Ph0zwje8qX7vKazhCwDwCf379TGJ0NzcfLukiVZsv/P4g1JaUnratTTPR8MZLtDtKToq2jTO6wiOlrRC36VLuqnMZ2cfNpURN3N6m2rv05aI052I0z/i1LKkxI6mQ0rmwUMX9X3rDYjTt+LUm29NautInZaI053aMs4OMU2N+boPDwsye6esvfn766k0Rh2tlGNdP0vL3D3jG3H6VpyqQ1ycFB8rOaVuR5zu5O9xamK3a9d0KSkpk/z8I2dMULgFcfpWnO2Bv5H/0de85aafI2fTZK1uWq51Gx08p5t2aNNkr5Zpndyhx1qmj+lznOdrmf4bzr/X8r/R8r+tm78g4QsAOCcdTafrk6zfsNkuOa456atrmqxcY5e6kyaOoiIjpLj41AaUlkklnfbPzbRHXFyHWDlGnMTpIsR5YhJCO+DoTYxbEadvxak0AVFVVWWmJ2yJON2preIMtkd2BFr/jjfw99dTaYyabHFGKrkZcfpWnDraXhtoT+6Mq4jTfYjzeJKwtLRcyuwp2d2KOH0rTsDT9HPj7HXTurSzdxKzmrzVpK2O4NX75vOlP6M/q/+G/lst/+2W/03dlLP3dUzpDHgYUzrDV0VHRcnS5atk4GX9TG+qlnTa1BHDh0j37l1NA9mFqKiqM9O8XGpaSSgsOiY6TezJFQ4915tR/YxfaJzeIjg4xCTGnIpRS8TpPsTpP3FqbNrwoNOPasxuRpy+Faf2rq6srDI32RpTS8TpPm0Vp07pXFKu9x7BUm3V+4KDmn6+qubSLOvB69lEp1XVNQr1eW5GnE18JU793GmMzrIdJyNOdyHOJtpRNT6+wyltKm5DnE18Jc72EGPVAZ16H/xDy3yG5h6dTb/n9Tvfk9/3+m/pvbb++/qZVZrviIo4PpOQ1u11uxhM6QwAcJ1Nm7bK8y/+1VRoW0pJSTYNXjt27rZLTqQXV60Mu0VJSalkZmZJXd2JDYw6/aauuVJWfvrppFpevN1Ae//v258p1dUndurSG5MzjWZWxOmdiJM4FXF6J3+JU2+iMw9mnXE6UZ3xw7nJbok4vVN7x3mstOnzofuq6nqzd8raEq/n2eNUxOmdcnJyJf9IgWksbclf4tQEi15fTzeaWRGndyJO4lTECfgn/Qy13LTeppvWWXQtXu0g0RafG/039d/W/4b+txob/XNqZ0b4Ah7GCF+4XW5evsyfv0QOHDgogwYNMKN3lSZz9aK56pu1MviKQR7veZtfWC3ZeUWmUVzf+m29VVfXSmFRiVlXMTIyyqoYBDY/FhAQLMeKSyUqSntwBpzwc27bamrrpaioWErLyk2cgdZ3iPNYYFCwFFlxnhy/GzfiJE43bsRJnG7crNtGKbZi0eukjl4OCQkVq4ZqHgsMDLbir7DqCFoecsrPumkjzraJs7pGG11E6ur13ub0z2mLjdeTON24NTQ0SokVy7FjpeY8PNy6T7LuTvTYX+LUa2ZVTa31ndFgRgO1/Dm3bcRJnG7ciNO34rwU27GSCiksLpNOibESEkxy3Nc5uQylxy2TvU4ytq05A5JKSisk0h7hq8lgZ3POL4QbRvgGZGRkNOofXddIWHPA/YvjA5fa/rXzJD4+3j47u5O/BJ29szm9UJwvR90Cg0IlLSXBPNdTCooqJDE+0j6Dv8s5nCsff/KFuQhXVlSa9Xl1nV6lU4e9/MobcsMNU6RXz+6mzFMOHamU9Vv2y8hhl8mFXXbPz5GCo7Jo8TIJDgo2o7FuveV6iYgIN49VV1fLRx9/IePHj5b0tFRT5lblFRXyxRfzRKeozs7OkTtuv8lMOaT0O+Wzz7+S3r26y8DL+psytyJO4nQj4iROt5r39WJz07p7z16ZcNU4GdC/b/NN7LbtO2TP3gNy843XmhttNyNO4nQj4vStONev3yyHc3PNWtIDBvSTsWNG+F2ch6xr6rJl38jtt93g+mlTiZM43agt47SqyFJR0yiRoQHW95hdeIn4y+vZ3g7nFkhBUbFMHNVLQtw9YzvOoWVuQ+9/da+JXifZe/LyRm2torJaGhvqTAJYN/08a33J+Vw7+/ORnVsoDfU15t9xtpb/rrMp3Tt/E6fMOVd67Jy33Cd0iDHHasaMGfbRmU2fPt0+akr+MsIX8DBG+MLtgkOCZfu2nXLD9deY0b4rVqyWXr26y4KFy6Rnj25SU1sru3btlYED+zdfsC5WeUW17Nhz2LwXGxobJC721LVRPE0rGvv2ZUpGxmg5Wlgkmzdvk/T0VFm7dqOkpXU2HaEOZh6Snj27eyzOSyHEijPz4CG5zF57eenSldKlS5ps2rTNTNEdFRUlW7d9K31697IqQO5tKCJO4nQj4iROt6qtrZOKigoZO3q4fPX1Iiu2SCk6ViyF1vW0S5d02bJ1u3RO6WTK3Yw4idONiNO34tQ2gNzcPLl68gRZtnyVVFXXSKB1Ddm394B1b9bdXFd8Pc7u3bvJ7r37JDIyUhISmjpSuRVxEqcbnW+ctfUiNXWNUlUjUmltZZWNUlIlUlwuUljaIEdKRPKPNcjhokbJs7aSCpFc6/xIcYMUlel5o5Rbz6+obpTqOuvfs/6thsYA0ZEB1n+2zfjL69meysorTcJXp8PWZW4S4jzbng3vo58jZ9N8o26hoaHtMrL3ZLpcn7bnasJZ986mWh6fD9bwBQC4TkR4uISFh5pp0u69+3aJtyqz//F//0e0N5Sub3v5oAFmFPDRo4X2T1w8rUQfK62U68b3lfx8z/27ZxNmVThCw0LNWsVTrp4osXEx8vKrf7N+lyBTGendq4cZBVxcbN2NuJhWKnSNr6MFhaaHqvZUff2Nd6SosEiio6OkS3pnqautk7z8fPsn3Ik4idONiJM43SouNkaKS0olJaWTGVm2cOEyWbx4uSQlJZmkg86O8e2O06/57ybESZxuRJy+FWdsbLRUVFZKRGS4mTli+7c75cMPZ0tScqK5tvhDnLrE0ID+fcyIZm04djPiJE630WEokVExUlHdII1BEXLN1Jtlx74j8tlX6yQwKlVyioIkqdsw2bS3Qjbtq5WN++plR1a97MttkEMFDSaxe6yi0SRva+saJChIJDpcpGNMgKQlBEiXpABJTRDpkhggKfFB0iEqUEKDA6S+McD8TFF5o+Qea5TM/AbZmVUnG/fWybaD9bIru14O5DVI9lHrv1HcKIVljVJa2SiVtY1Sd/qlzc/JX9637Uk7Z4WHBcqwgWmSe+TUdffhOzTB62iZ8NW25EuR7HXof1t/B/1dnN/L0fLYl5DwBQA/pRe2DRu3yN/eek9mf/7VCYnNpMREOXKkwPSCOlZUbFV8Y2T37r2i69127JggqZ1TZMfOPfazvV9WVrbMmTtfFixcekKiukNcnBQVHrMu/PVSUqxr9kbKwYOHpKqq2ozGSkrsKAcys+xne78zxZmUmCBHCwtNBedYcbFERkaY0dslJaVmFFrv3j1kpw+8nsRJnN6MOH0rzrKyclm0eLmJVacTdW4W3RxngxWCNpBV1zY1yh3VERiFFTJ/0Tfy5VdLZOfu/aZeoGJioqSmplqqa2rMGpIBgQFmeYScw4fN30IbxHIO50llZaV5vrc70+tJnMTpzYjTt+Ksra2VFSvXyBdzvpatW781jeQqNDTMLEGj92G6vI7OQqQdjDIzD/lVnN27dTUjugutezc3IE7i9OY463T0ba2YUbTF5Vadr6RB8orqJTOvRuYt3yMff71dFq49LBv31cqmfXWy/0iwSGQ3OZBXK/nHGiUgJE6CQqMlP79IAgMaJT0lQarLjkh0SIV0TQqQtI4B0jk+QDp1CJDE2ABJiA6QDpEisZEBEhUWIGEhYv3dtLOk/QvZggIbJTS4USLDrO/48EbpEGX9bJRVv7b+jU4dRFI7BkrX5EDr3Ho8IsD8G9af3IwgLihukJyjDbLvcINsz6qXTfvr5Vtrv8c6z8yvl8OFmhjWEcTWVlIjy1ZusF7PBT79vgXam35OnE3vh3WvA2ouxuLFi2XJkiX22YXR36Hl7+RsvoopnQEPY0pnuMXX8xfL8uWr5fLLB5he4V98OU8SEztKp05JUlFeIXv3HbAe/0b69u0ljzx8n+w7kGlG/fbs2U369Okp3bqmmzUKPKGuvkH2ZxVKzy4dZZ+1T+2cZD9y8Xbt3msSD7169bAq5kWyeMkK07tLk9bVVVVyKNu6kdm4Vbp1S5ebbrxWsnMOm4al9LTO0tWKMaVTssfibEtni7OmplYys7Jl3979pjHsnrtubSrLzDLTdCcnJUp3a0+c3oM4iZM4vZcmbz/8aLbpGKSzYui1NCcn1zQCNTQ0tnucWl20LqNSW98oNXUi1XUBUlXTKJXV2pDXaBrBSivFjK7QRq7C0kYpKNGGMZHconozauJwYaPk6VR6VrlOpafPO1JYLavW7ZCg8ATrLjlBtu87KnsPlUtlY7QUV4aYkRS5R2tkz4EjMm78JEnr2lu27siU6LhECQmPkW49ektAUKiZ1k9/Px2p0WDXbQNPbuG7hM72emqP8AMHDkppaZls2rRV7r37Nut17CrfrFlnXk/9Ga0nhVs/5+2IkziJ03vpdeLjjz+3vivrRTverlm7QXbs2GXdn3Q1HVL1GqJJBk043XTDtTJs2BWy1nqO3qfo/Zs/xKlr4usMTHFxx9e181bESZztHWedVQesrbfqf7VW/a+mKZFbpnW/8qZ6ndb7tJ6n0ydnFzbI0VIx5Toitrxak78B1s81yJp1m6Shvk7iYyNl3+4dUph3UPr36iTJCeGSl23VbeurZMe3WyRj9GDp2yvdOt4mKckJktAhWrp0SZXoqPaZrjfQqmNrsjckWEzyODxUJDIsQKLCA0wiWBPLcZGBEm49bt2KWHXlADMtdLUVZ3F5naxYs0Oq6iMkJCZVdmcek2/35klgaKzUSajkHy2X4rIqWbN+q1w9eZIMHXqFrF9nvZ4pSa5633qLqqoaqayskIS4SCkqrpSuqfH2I/AlTv5COfkLzTVqXU3bAy7UN998I5MnT5Y33nhDrr32WklPT7cfOT/acUPp76THLTfl7FvDDVM6B2RkZDRqsNprZc2BMvshABdq/9p5ViWgdRewk78QnX3LL0dn72yBQaGSlpJgnuspBUUVkhjv7jV/cH60x+JfZ74lt916g1mvVt9nq1atlU9nzzFT1+i6JK/+9U25dspEa5tkLkz6/mt54fKkyupamb9it1wzro98be1HDL3MfuTi6O+so5cvu6y/VTHvbsq0YUh75g4ZfLl1E5Ykn342R0aPHi5jRo8wsenfQrVFnG3lXHHqiLL33/9UuvfoKtdZr6dWuIjTexEncRKnd9u6dYfk5ByWKdY1Un937SQ0+4t5WomT8RmjzXWltXGaRKjZGs1en6p7XafMKdMkcn1907k26DU/bh3UWcfWvywBgSJB5p9vlKDAALH+ZxLOWqQjL/S/3bRvWvvM7LVMn2ud6/P1Z1vauy/TzPYxetQw8/Nad1i2/BvztDHjRsuatRulrLxKMqzjyMiopt/Peh/oJFIas8bSaJK8urfqs2bfFJ/uA6zfR38X/X2b9tZmBRGk5bq3H9PnBVsn+vtrmf6u+js7P3exzvZ63nTjFPly7nzT4e3uO28RTSApfb+7oXNCS8RJnMTpvQ5mZZsE0c03TRVdb662tla++mqhmSFC783Wrtsou3btldtvu1FSU1PMzxCn9yJO4ryYOK2vN1Nn0jqfzryiHfrqG7QeaB3XaV1Lk5dWHdCqG+peO9YFa33J+s8115OsOpPW8Zy6lJ4HBweY5+nx6eTlHZHt23fKVVeOlaDgIOvfrpNvvlknR48WyaSJ4+XbHbtMcnvSxCslKampTVI78nlTJ77WODnO6po6Wb12kxQdK5ORo0bIvn0HJS//qAwefIVEx8Q01b31b2z9/UJMkjlAQoOtvXXcVNZobYEm+axJaJyo6Fip9R4qkF5dO8reg0dl/PAe9iPwJU33fsdzGTorlB5fzIC4w4cPW5/Dwdb96BFznpaWJps2bZKOHTua8wuhs6FofVLv0fU7Wo+drbWycwulob7G/Lyz6c+f7t/Tvf4dnGPlnCvnb+YcO/uEDsc7lcyYMcM+OrPp06fbR03JX0b4Ah7GCF+4gU5Zs2bteunRo5t0TIg3F54uXdJMj8WPP/7C9GIcO2akDB8++IQLlXPsaW01wlc/M9r7NjY2VpKTE02Zrq+YltrZjDzr3DlFRo4YKgP6922XONvKueJMSuooQwYPtLZBpmKjiNN7ESdxEqd3y8s/Irl5BdKzZ0+pawyUxoAQ6da9p+zLzJWCwnIZOmKM9Oh9mZRXB8gxnTaurFEKS0WOltqjK4qtG9jCeskt0lG2TWuO6YhaHYWrozF0OuXKmkapsTankUkb8QLNNHcBZhSDGcEQGShxUQFmuru4yKYRDbpFW4/p4zodnm4RoU0/ExaiU+gFmIaqEE2oWi+DdV9qvQZ2YCcpKio2I7W7detiXiftod2la7ocyDxolRfK4CsGSN/e3SQuNrJ5hIX+tyKs/5budaSF/vejwnWttuO/n/6u+nvH2r9juPVcjUsbJvVX0WT2/2/v7oPsqMoHjz954S28JBMhZGZCEgIhARTJC0xCeBFRonGzYWPVD9YqUQqUaNDfzy3XXYStStUaS9xC3arEhHKVUtct/cOpDHEBcYMIFGQgL4qAIJJAyMwdAiYQ8kLCZLLnOX3Ovaf7dt+XmTvJ3Dvfz1TX7e7bc7tP39unz+mnz2ntWe/wB0dtS+UDtqWyyN4DUUsV3V//NPvtTTP0uJbJb++NWi7rc960a0JdVv9HWzhrS+eDZp8esp+pZQ4NOuuNbFrOHiFvvvW2vLVrl8yYcb5Np3b5Nf38c+2jK3LdPTagPevSj5jfdqHiXY+/21273pY33ySdpLO+DJd06rOIt21/TWbOmC6jR4+258nzzptq86fnX/ibXHnFPPmoOYdqLxEe6Ry6SOexS6cpftoyqJYddLxPy032pjlzrteAqQZJzXlfu/3VQKmWLT7ojV61RxR9jMX7h8V2b6yvWgY7YMoeOq5liP3mdfe7B6WrZ6+Mn9BqymejzDIjZELrVNm7v09efKVbpl90qUyd/mEZfXKTKfdpOcWU/faPkN2mbKJlPx20vKeDdinsW9vqc2e1e+Tcnmhce1vRce1tRefvfq/PlGdG2O3Q7dFt1qKL3hin5SYtQ2lL1qbTorLVGbEyoJbHTPnPlPtscNIsr8HfUrt///4DtrezKVOnmO9ypFl+pEya1Cq79+yRbdteM+W+D8v0C86T8U1j3X/U5+82mU69qfCc1mb55z93yRuvvyazLpkh553bLM1nnW73p20tbMqtuk91v5tfmv1dablSW1O/a3vQMecr893m/qnfeZ8tr2rr6QPmfS2Dag88Wv48qjdpml2mQfnhwrfw1Vbje/bSwrfRaX5s8+S+6Nm9OvSH3lhz7bXXyquvvio33XSTXHzxxfL000/LM888IzfffHO/8x6/bfr/yaFStPAFhiFa+KJerP/d7+3djbd88T/mT8L6e3vkD3+0F1Fu/9IX5OTgJDOYtIVv53Pdsve9fXLG2PFy9MQJ7p2B0ztvu7velI98ZKa9WO3pBSS9W/fii2fGTqbHkraG0jtua2Eop7OW6i2dWinvz1dcz9+nyUZMYdZNlNEov9tyaW7E4zMt/2r0fMi3uj34/iF5+eVXZNq558i4sWfY/aC74tCh9+2z8c+bNkWamyfIqBF6l2/UKlX3lG9toUHWaN8VyoFDkXaT+ugfn7QtfCdOLJyX9ULZhkefkEsuuUimTjnHzT1+TPHY5rV6Ec22hnbTOq7fWbSMjkd7XFsd2/K1vpqZ+w++b77PV833OUmaxo2134/SZ7e98OLLMvmc1vxNDPXs4Pvvy/N//ZtMn36ejBsXtYRU+nt+4YWXGj+dwff5oTM/VLPy1/FSSTqHy/eZlk493uvpK+7tPSLP/fVFaTZ5bXPz2W5uNP95c3yOaxorUyeX7sawmvLX8VKLdIaGapprnc5QLeuPAzWY6QzZ87b+6XlcBzMvumlL39TfwAh7Y5ye2+24XULzADNmdpWdNiNaBhPXujXfyFVnud0Z7tX8PPPa+0GvbN7yF5PftNje0Txtwaate8/8UJNcMH2a+f+ojKcbZS/s67a5MqD/sdppu526oL7q7Gibo2CAbph/PbYOm3T+vw2PmbScn++tR+n8xx570nZRrWW/ejfY6TQ/f1sW1ZsL9cZNLadqDzj2ZkPztep7SusHdV4UqUjvBweld1+3PT7PnzJBLphKwLfR6HerfAxD88be3l7bGE5bvfbHnXfeKd/73vfkrLPOMvW0l+3nXnjhhbJr1y751re+Jffcc49bsjq6jdrK19+kpPmu38YoDy6vHlr4EvAFaoyAL+rFnj3vyJq199vWvAuvvzZ/ktNnZf2vn/1v2zWatvo9Vl56fb+8/I/XZeq0GfkTYS18YErcTzz5tIwxhY25cy+V0S643WsKIdo15fTzp0mr63rpWNPumbSVVS0M5XTWUr2ls7/fcT1/n9WkuVF+t+XS3IjHZ1qaGz0f0lOTvVZoBu1mVJ91r13cnXHGaW4Jsd3d7d79jiy44nI3p74Nl3T+9a8vybbtO+SKK6+UprGFMvHLf/+Hbek8r22Om1PftAvD7a/tkKuuvkLOOO1UO0+P5W2vvtrw6VT++5wzd3bNyl/HU7l0DpfvMy2d/S1/HU87dnbJ1q1/lfltc2NB7K6uHnll2za5cn6bjC7RX2i9pHmg6QwN5TTXMp2hoZbmwUpnSFMbBW59YNSMa4HMXUM7FvTGxWee3SpXXdkmZ08o9Ea2sysnf3v5FfnYVVeIdvdc70jnsUmn/nS11XYD7MqK7H33Hdm7d49cfdk022oajSUZxxhod84vvPCC7cpZP+fhhx+WhQsX2vkPPfSQLFq0yI5rq9e2tjY7Xq2BdutMwBcYhgj4op5oQff++39ln7m45N9/Wk488QT7jL6fmnk3mOljGfDd+fYH0rNrt0yeVLg7uFbe2/uetK/7v3LaaWPk05/6pIwZc4o5QR+Rjgcelg9/eKZtNdAISCfprEekk3TWo77eI7LhsSdl26vbZfG/WygtrsXHc8+9KG+8sVM+85nr7XS9I52ksx6RTtJZj7Tev+nZrdL5zBa5/pMfs12n6sXBN3bslI2dm23d7ISTTnRL1y/SSTrrEekknei/3Xv2yr79B+XC8ybIqScR8G00ejz5QYO0Omjw86STqu/ZSz9jzpw5snXrVrntttvkJz/5iXsncuutt8rPfvYzufTSS2XLli32uK3WoUOHbHzFdzmtn+GHShDwBYYhAr6oN925Hrn//v8jR8zva/68ufLGG122K+cb/+U/5Lt6bgTvvrtXfv7L38iuXW/Z5xO/t2+ffTbhLV/4nJxyysluqfpHOklnPSKdpLMe2buOf/+oPPanJ+Xiiy+0rZe1a7+b/mWpnHvuZLdU/SOdpLMekU7SWY+07r9x4yZZ98CDMnnyJLnowhny7Katct3Hr5Y5sz/qlqp/pJN01iPSSToBFNNjSQcft9Aymz7eSbtNrtbq1avljjvuMMfkZHnxxRfl1FMLPbuo/fv3ywUXXCDd3d02GKxB4WppDFSfEexb+IaB2koQ8AWGIQK+qEeHD38gW//8nLzyj20y+ZxJMq9trm3t22j0GHr+hb/ZZ9WNHTtWrr32Sjnl5MYJPniks7GQzsZCOhtPT8+b8tTTz5qKY69cdeU8aWmp326rSyGdjYV0NhbS2Vj0xqknntwo7733nsyZfalM1+eDuguFjYR0NhbS2VhIJ4BKhDEMDfbqoK17q21ApF0tt7a2yp49e+Txxx83x+J0+7zeRx55xL5//fXXy/e//3156aWX5Nprr5UzzzxTtm3bJqefXgiOVkK3T1v5+ha+BHwBlEXAFwAAAAAAAAAANKowhqHBVI0xjhkzJh/grNSaNWvkq1/9qixevFgeeOABuemmm+Q3v/mNezdy4403yq9//Wv7LF99pu93v/tdufPOO927ldFtPXDggG2B3KgB35FuHAAAAAAAAAAAAAAyhcHLkA9uVkqDxffee68d/9KXvmRffcveP/3pT/LYY4/Z8Q0bNthXv8yPf/xj+7/VyNq2rLTUIwK+AAAAAAAAAAAAAI6Zjo4OefXVV2XChAm29a4Ku4TWVsMhbQWsXTrv3LnT/i/iCPgCAAAAAAAAAAAAKKtWrWVXrlxpX7/85S/nA73XXXedfb3mmmvkE5/4hB33r9od82233WbHV61aZV8rVatWyUMZAV8AAAAAAAAAAAAA/aKB02q6WX7llVdk8+bNdvzWW2+1r+pHP/qRfO5zn5OzzjpLzj77bLn55pvtPM8v++ijj0oul7PjldBta6TgbhoCvgAAAAAAAAAAAACqpoFUHapp4fvQQw/Z109+8pMydepUO64mTpwov/rVr2TXrl3S09MjP//5z23g1zv//PPlYx/7mB33n1EJ3Ta/nY2KgC8AAAAAAAAAAACAqoQB1CNHjrix8n7/+9/b11NOOUV++ctfyuOPPy7bt29P/Qydp+/pMr/4xS/ktNNOs/MffPBB+1qJ8HMbNehLwBcAAAAAAAAAAABA1XzL2Uq7dD506JBs2LDBjj/wwAO222Z9Zu+0adPsc3rHjRsn+/bts4OO6zx9T5f5whe+IL/73e/s/z788MMVB5l9l86NGuxVBHwBAAAAAAAAAAAAVMwHT8OAbyVB35NOOsm22P3jH/8oa9eulW9+85uyaNEiOe+882TUqFHy7rvvyg9/+EP5wQ9+YMd1nnbl/JnPfMYuq/+j/6vPAdb3yvHbFQZ8/WsjGbFgwYKjmtDe3l559rV9bjaA/tq+6Q/S1NTkpkoL+7T34/rqBz02/asfRo46UVonjrfL1srbew64MQAAAAAAAAAAgNLCOEY0HJHTTztFxp4+xi1RPe3q+VOf+pRt2fvBBx/I/v375ZFHHrHP+u2vw4cP25bAGhweOXKkHcLgbyW6enZL35HD+f/3nxF+lv88fdX94seVn1Z+v/lx/zp+3Ol2XGnAu5xvfOMbbkxk/vz5BHyBWqvXgO+ZTf3PhI+net52ACiHPA5AIyFPA9BIyNMANBLyNAD9kYxlaFBVx/W5vANx9dVXyxNPPGHHr7rqKvvs3oE4ePCgDbz6gK8PzvpgbCXqIeBLl84AAAAAAAAAAAAAqhIGOzX4qbRl7kCsXLnSjYnce++9bqx//LakBWYbDQFfAAAAAAAAAAAAABULA6dhMFWDrGGL1mppq96FCxfaZ/Zedtllbm71dBt0W8Jt88LxRkHAFwAAAAAAAAAAAEDVwoCqb0mrz80diDVr1thhIHQbwm3yQ6Mi4AsAAAAAAAAAAACgKmEA1QdUNcCqz/MdSNfO5557rpxzzjluqnq6bt2GMNjrheONhIAvAAAAAAAAAAAAgH7xQVUdNMiqg7aw7e3tdUscOwcOHrLr9tsRblu9GD9+vBtL19zc7MYKCPgCAAAAAAAAAAAAqJoPpPpgr38dNWqUHDp06JgGfXVdb+/ea9cdbku4jfVgxowZbiydtoBOIuALAAAAAAAAAAAAoF/CQKoPsoZB34F071wpXYeuywd7w0Cvqpdgr7rssstkwoQJbirurLPOkrlz57qpAgK+AAAAAAAAAAAAAPpNA6rhEAZ9fTD26NGjbuna0c/0QWVd14gRxV0561BPNB033nijzJ49W5qammT06NH2Vadvuukm+34SAV8AAAAAAAAAAAAAAxYGWX3AV4e+vj45ePBgTVv76mfpZ+pn+/Ukg731SoO811xzjXzxi1+Ur33ta/ZVp3V+GgK+AAAAAAAAAAAAAAbEB1h9sNUHX33gV1/1ObsapD18+LAN1FZL/0f/Vz9DPyv87HCdOij/2ugI+AIAAAAAAAAAAAAYMB9s9YMGYP3gW+Hq/CNHjtigrQ7aJbMGb3Ve2O2zjus8fU+X8cvrPP0M/3nhOsJ16zBcEPAFAAAAAAAAAAAAUDM+2OoDr2FQ1gdqtXtifU9b7frn/B44cED2799vBx33z+fVZXRZ/Z9SgV6/zuFmxIIFC47qTtLo+LOv7XOzAfTX9k1/sA/PrkTyThX/6gc9Nv2rH0aOOlFaJ463y9bK23sOyJlNY9xUfannbQeAcsjjhrkta+WWzja5/yuzzMRWWXXrWtkcvVNkzvL75I7ZbiLF5jW3y9NtukxO1t/dIS3fWSbN61fIXTuXuM+PdKfMk9yDctdqkeXfWSQtblZIP3vVJjdRRssNK2Tl4mY3lVBmPZl0P63eakZmyR0/XSZzorkYgsjTADQS8jQAjYQ8DcBg8rEP5cd9DCRtPE0YyM0a9/75zsGa52ldPbul78jhogBzGGgOt8Wnw88L05WWXn0dP+50O94f8+fPJ+AL1BoB34KXXv67zJxxgZsaHLXf9uiCupS5cB7RZTtkyndWSOzadf7Cs2qWpcn3ndSL6iXpRfoV0p5zk4G0C+j289cFCzcvkZUVXkSP/ndixoXzaDs2trl16gX6uzuk272r4oGHrCBFfN/YgEFX9jaWez+usnXWVvy3Y7dXllXx/Q5Eym9jbnzdRb8HL1wu9tsNVPHb8Z9RHHxK/G7yir+r5O85c9sNv2ypgFO0LRnHq5eVdlVN+muMSvcQU6P8rqLjUenvMhbw7ZT5RflydGy9vlS3I54X6PGxdOd90m1eW9a5Y2TuElna1WGXKT53uOPUbG93Lv2YC/m06/EXBZPdG7FtcrMMXa59UvljNlXqcejT6wK9mfkPhgryNNSUzZOfkXk2f42Xw0pLz6OAapGnobREuTAo52XXb4Kb12L1k5R6bKL+UroOxU1xKI88rT+yj/NI/P3Sx2mp61WVlnNKr6/A1fuKrs9kySg7JerH2etL0PyrfXJR/S6ZN5au11WaVl2uxLUgJ14/zcqLQ+W/r8xti31mcf7c6Pm3j4EoP542L4sPnqowuOr58cHI0wj4AsMQAd+CW269Xf7tX++Qj17yETen9mq/7dUWohIn+NiFJzNtT+KSffIuKgyWknVxKtqWXL4A4S6AS/zieFR4qbSgUGI/2DT1ROmWRHqVK/BJfnv0s4oLV9E+KASV7fZ1NUtLq9nuxD7J76+KA2+VrbO2SuyzQZVWUC/+Ddi0F91gkPjtpBa63We1VvhbzRdck7+1lO10y8YLv+m/36RKvsvoN+U/J/03kZea9uOPSvcQkszf8/Oqz+8qOh6V/i472+QOWSvtk5ZI87qOfKUxKaoMR8ePnieWdq2Q1XK7C/jeLrLanz90maiFr89788HarONA01mmhW+1Ad80ul90m7PeL4j2VdE52HJ5SK5UBRzHC3kaaiotX65Ieh4FVIs8DdlceSRfh4qms4MriXJgMn+z9abguoIrgzbn657R/+froonlbdmz8/IhV9fB0EKeVq1k/S15nCen48dp0TWN5HEesNc2NpULgJZeXyhad67CAK3Lz3LpNzsX0p+9vhibzq3F1/fsfHet0e6+UuW8StMazU+vNxbErx2VyzPd/si8RlZm2xLpLFrXMMq/fSzES06X44OoXnJ6MPK0egj48gxfAIPm/p/eJz/6n6vkpZdednOGBj2R37ImvDtLT8a3y13rC3eRSac5wd5qltPh7gdjrbns/2uhZu6sopPt5nUd0j13SaEQMXuJLG3eKk9vcdNaYDGfqYW6OXPdvAGbJUtvaJbunT12qnv9fanBsjlfWWG3pT1MZ6ZZMt9s3+b2eNrV5k6z71wauzc9I93Nl8ucsNDUvEiW6/aY5ZL/G2qZe3lxYaX1cpnX1ZkIaOTMOs32zw1X0j/F64y++/x3Hf4u7He1VtabwlXWb0ELXoX/NRsZCH9ndrk1D8bWFfu9JbZj1Xpd9wqp6KvKbZWNuWaZF9s/zbJ4+RJpyT0jm0t+RvQ9l9Ysc9qq3PfNs8xvwhRqY8dZknnfFPK1whCvYJhtNwXfpdIhq7N2gCkAa+VkzvLiipCn+3zVJlOoX954hWIcHzXP74qEx6OvmBY0t+qK9UaK++z5tTBo3h4tU2Rnh7Rvykm7q6BvXq15jI7r57v8ZpNZr6sUa/7e0qbntsL7dtC7tnMd9vzl58XzMP/ZfgjXVxjiLXoT+a8Z9LjuXhfkq/nB7Qt3Dr3FtnQ2Fea5mrbksmbdeg78qQa5o+mK8lIAdSEqh0fDXet2uLkqyrdW2TK3jptjf31Qns/nqZr3FPKoZF4GALXRI6+b7GWOKVdFojqVr7MnbV5j8qjmJbLc1YvKXVeI3l8WBDaiMmI0bfK5dr2pdkm+rtSy2IyXrRsCqMoWvXY1S5bmD9RmWbx0VqFuuEV7VQrfj67d2Wtq5jjd3KkB18JxWnT90NuyVlaZ/8269pFXcn0BU6da3TkxXq/NEF3zMuWm1pT153ImFeG1qKg+m+vKymhcHXN1T8r1PZ9v3V7I90xde6Wp60bTUd0xX26rIK2lrt3aoGq+bGj2uQbTlxauHZXKM+01V+1hKqtBRJlts69B/m6vFeTXNbzy77QAaTVD8n8QIeALYFDpxeh7/scPZNu27W7O8WcrXZuCoKINmIUnY3MCNid7f1H9jtYOuSsM9E3SC8n3ycobJrsZXk66u8zJeNJEN620xao7oTvzluvnLpP5brq2XKHRXrBP0kBaMriWbY4pYBQHDF1ByFVcW1pNWnOmMJMokLYsXiH3l7n7TIMnEhZuLa0I98QLuPr9yOUyf5KbHoD4OrXAqAXXZYWgSZcp9MWClFulXVvh2feXmUJWIQhp77Kzd2O634lZNgzOFNnUYVuS2M9abioB6+7LByE2r/EBimg7pnQWusQpq7nZ7LWctK8Lt9uIFY6z6PcZ/+0XiwLuS2/IKMymmixLNeC8yVRMkpUVz1WOfKApLlFRCmnAx7UKzrxrNB8QLpd+oHK1z++Sso7H6NzSL+Z8pQFprWTmA8Um/7F3U/vp4I7yeEBW74J2y3zHHM/B/6y0nxmnN29En6dDFISOz9MArVvYis5J/j37mdrrRbB8YXDbaPO1wvScrySXc4P9Pvznkw8AjUIv3NnWF/ZYXyHzukrdbGPKRp2T88vqBdToRjTNGwp5VKXlYgCozkSZYrKXwnUAV0+PXStwTP2mPXajarnrCvE6ebEo2BzdLOjp9uRk46YGjBgAx8tsrbvEb0Lv7irc1GHHmyebo7fA1int9ci063PRsRtnyi/a2vMrbW46W+n1eTlZv/oZmbd8iUxxc0q7PKpHpq3fXYsq5CtR3hTPe+Km3GDqzlouS17fS23IEIrvr4rSmnnt1oh9d+ENM44NZqfZKu3lGh+U2TZbhw2CxfEby4dv/h0GbsPBS3tPBxQj4Atg0OnF1/++8nuyZcuf3ZzjbHabOTGbgoi7aG9PrnN1XkF48k4GPucsLn1hP1m4aZ4UTDcvksVZQar+0rvztMBhK3xphYN+ap4l8xKFiu71HfbO46U+DaaQpBfpY624Eq1gI8WtsGxLrpQ7nPXutlwQILeBEpO26lNUZp3urrvCXXmmAGmDlB1BazBT8c4HOqO7FaP/L74bc85Xsgt8Vmy/6e8t5wrzWigOK/hmO5ZmVd7TmDRoMGZT2Iolo0VbbBkd9I7GHukOl0204ota6vltrYJr+bh5tb9rMi6tEBxj3mvJ7UgUsrVy0mEKw4W734tphcj8fmJ3vFeoKO3RQOsfWLXO70oej1qpM+M20LvDHH/N9qKh/X3H/keHqKVaqp0d9vwQ+z89PoLfenRThjm22nukpQanjsoUp0P3UfE+CQefr5ltTe5f+0bavknPfwDUIxfgyLe+cOU2O54uXNb2VtJl8mI7DQCDLQpO6GM5ojJJ1I182k0mRa15nZLXFcznT9EbWYJyT/xGW1929KKAMYDB5IKBQUtRMcdxrKyi1zncaFLR9TZD5+XK3jgcKLc+vQ7WWpzfZGlZvKjEujVQukLmdfoemvTRRonAacwsWVxyxRPNtvoenaJ8s+SlmDJpLXfttpSsfDntO0pVyfduWxlrPVgSPdORf4cI7FaPgC+AYSjezUhupw+WeomTq7trreqA1yBJdpGpXW3q8yOrDm6VFQUeu01BJ7pgnt562LZus60nXOstF0iIB8mClmJ+0FZmseCqo4HmfLfOUevS7Lv8Sim9ztSAo/2uK5F1150brYa9c9AUbMP/LVEJSJVv9ebSaD7RBpySwaii1nPawsUsG7YONoXX/Ge5Qb/XtO69y2lZfHvQombgbEtoDdJntqbUQNBaWwBPPge6Iilp14HWP/Bqmt+VPB71IuEKWWwrdm22Ir3Y5I35VropQ+o5QO9qjrXO1XUUPiffUje3VV5vM8drrCIZBK4TXTrb4GxC/NwUBaGT56tCC+J4WjJb9+p+y88PW+oW9nE+DVa478vchAOgvrhuA4vL6AAwFEXB2PZJvuy4Qqa0m/JQUb3I3cyS2Vo3i5bUXoesAAAMsUlEQVTTokdc2M835b2cKXdl9q4EYJDpMb9WNvfnxnMj6kEuEfizXS9fXuJm92qZbbSthftxrSSN9r7mbmaJ8rkl8rqpP/b/hvlo+5b7fG35RJPPlQn6DgLbo8wmU18t2k/p10T7zbYyLuw38m/UCgFfAINOL/L+t7v+q8yefambc/xphSrqLlYrWFndyvZP8nkVGlCupWQXmToUAlJR0DH7mRlVCltDp3R9nZTvXnN5GCjOYJ9PktYtSdSts33WsOvOuZJni1Qkc50NJF9oXGa7oE52PxvnWhPHuvgplt69dyVc65uUrp2j7nGTLXgD5r3uMCBvu5vVYE6JrnP8s1TKdK8L1EJt8rtQ8fGoN6bku/OzFep4ADUcSlas88FaDcRGFyDt//jAbfMiuSOWt2tAdoWs9MFTDRoHQdp4kDVntjMZ5C50l1qY54LkSebYzmzdq62R8/OPfWUfAACgX9Ke7VnUm5RR4jE3pa8rJOpFpiy3VG/SDbqQjt+wruU1NwqgxgrB3rCrXivZu4he53CjXj7Yqzf85qtZOdf1cvq1jejZuoV6U/56S4n16bPCJasr4mRds4Kb9qOuiMPWrqa+WEndOFPiWk65OnQF+7Za+WBv2s3DZbudDlS1bVGjJPJv1AoBXwCDSgsK/+U//yeZNu1cN2eI0ECmBrDWmwpWojvnopNrWouCVFE3G/FuO6MTc/V37PZX1GVd6rNPDS28VFJwKzCVVO3C1Hxe1KVJuK9ytlvN1CCDbaGa6Co4Q1r309qts+g6XXfOtQ7e6TpTA46Zz+lISguspz1vpQK2dUqyW+XKC6q2oJ/arWwVwf9kS+dUiVbIlcp37XyfbHSzrETX6nHmt9W+tXDnpFY+7HN7b8/uesgFjUo9SwXov8HL74oEx6Ne2MufU8KW/LYCWgjA6lCyJXrQSja1hW+aLR1yl7vTOPnoA23pXFif5n39zB/ssd1jg8Urv1NoPZ0fMlv4Ahh20nrcqbjcBgBDk73AX3Q9otx1Ba3nleqBLKuuWmGgAkDlbKB0reT02bSJYG/aNSfb01xwzOs1urvWTbQ328bqOja4GPS45B5Voz0oaZ007HlKB21VXHp92tgl+v/o86IembrXrYiuEcbqmmaoVSvgSqVdFyuhkn1bnai+v6pLe8ZKv6YUf9ZuttLbVuK6gkX+jYEj4Atg0Ggh4t/+9Q6ZOXOGmzOU6B1UUdeZacHYQve15mSszwxNeXZDGtsSMrxr1z0ntpYtiMux3eiKXqiPBwGjO9Wag2fSVkaDr7aFZtH/Rq3RtICYbL2Z9byLmFL7Rrt1NmlYta6/3TlnCNdp7xbcGnQ3XM137dNeuHNR75bs712M9re4OvjNtVcelG9ZvMS25L0rGch3aS3VItuvq1yXNMXB/upEXTvnEoX36O5PX2EpMNt0t6l8iH9Or/9elpUIaGnXPxoQHoyuzQE1iPldXvJ4NMeM3snrWsjbG3Zs5dxX+Astdf3gt80eV671rq2YBq1kU1v4prG9BSwTcZ+VeeOSBlwqumkkYYvZprufkXn2Tvac2Wa9S31Fha14Cxc/itKQvzvd7KP+bBeAIcrdhJgso9txABhi3M2tttcqy9dpwjJjVNbL9+YSKH1dISqXbl4d1D9N+ac93zV0cV01eu5kDXvOAmCYepV7xFrqtQp3zamQD7hn/Lp6ld68n9maNBmAdctoD0qZ10VKri9+s7DvkUmvofQ3uGuvFcZ6lfPXZap45nCelvMkuC5m2HwvI9BZZt9Wyz4+TPRxSNm9xdleFpLP5k1TctuK8+d8b3b2eiv5NwZuxIIFC4729fVJb2+vPPvaPjcbQH9t3/QHaWpqclOlHT161I0VxvXVD3ps+lc/jBx1orROHG+XrZW39xyQM5vGuKnaeenlv8vMGRe4qcExoG3Xi836/IpY4UovhHfIlBsm2mCwpc8+TDvp60Xl/MVqN0/Zz/XBN+1qKb1Vkg3ASkqXL5lMJfHu6PkYlQS1ogCvm1BZ6aiA/Sy90y1zP8QvuGmhsVAI1X2aFgyN75vk/rDd2nRenl9ncrq0ytbp96ne2WiFXfCkfL+p2+iCDVqobTaFMjEFcP1+wmWLtz3aPr9scju0gp9bt0OWZtxZWCyRDpX4vsNtjQnTHPvtBqr57ehntE8uXt79ToorQ8XfVez3k/L7itHtb+tM324n+rye0r+JXEbarcLvJvkbyPqd6PO6MitiVRis/Bn9VKP8ruLjUY+l5SKr707mB7oefW5bMo9Inid0OXNOy69b3++QFtcFoG5He2vhRonkb9f+3sPzSFEemvV7T25HJL/s3K1mP6bkcbp/1zXnn8Ft99POJYV9Yuln32fyz2g7dJnVcrs7xsO0YigiT8NAhflSVF7y5+CwbBWOR8va/CRZrtR8OMx3gSqRp6G0RLmwqE5VnFfFlLuukKi7aSAo/Jx8PmdlBJWAAHladeLHWCg83uL5QKHumMgfAvH6pVcmv8jLWl9SVF/b2Jb1flLG+pP14wrLVclymRffp2G+l7a9FaY15ZpNlH+668EpdXyvkK+W2l9p+6b0tmWnM0L+XRuDkad19eyWviOHZeTIkflhxIgR+Vc/KH318R4/z08rH//x4/51/LjT7Xh/zJ8/n4AvUGsEfI+tAW27nuA727jIg6HHFjirCfiiUVHpHq7iFUqt8IWB2agCmRbwjdPAyNNtYcVTP7dDWpaKvfs6WbmMArLLZF7nWnsDSfLCYbxCr/+7RF6/u0zgWcpcrExKVLiLtiGT7hMCvkMdeRqARkKeBqCRkKcBaCSDkacR8AWGIQK+x9ZAtr34QjhwPBTfDWhbr1TV+huNikr3MKVBz9UmW8hsWV9ZwBcYasjTADQS8jQAjYQ8DUAjGYw8jYAvMAwR8D22+rXtvvXQkOrCLWoNFeuSN6HyVk7lhd3hpcnu9mUISHRdVWQAXVcfN8k0+d9moqVbsWPctUsj7vshjko3gEZCngagkZCnAWgk5GkAGslg5GkEfIFhiIDvsUWBFEAjI48D0EjI0wA0EvI0AI2EPA1AIxmMPK0eAr4j3TgAAAAAAAAAAAAAoM4Q8AUAAAAAAAAAAACAOkXAFwAAAAAAAAAAAADqFAFfAAAAAAAAAAAAAKhTBHwBAAAAAAAAAAAAoE4R8AUAAAAAAAAAAACAOkXAFwAAAAAAAAAAAADqFAFfAAAAAAAAAAAAAKhTBHwBAAAAAAAAAAAA4BgYMWKEG6udEQsWLDja19cnvb298uxr+9xsAP21fdMfpKmpyU2VdvToUTdWGNdXP+ix6V/9MHLUidI6cbxdtlbe3nNAzmwa46bqSz1vOwCUQx4HoJGQpwFoJORpABoJeRqARjIYeVpXz27pO3JYRo4cmR80aOtf/aD01cd7/Dw/rfy4vobj48edbsfVc889Jxs2bHBTxa677jq55JJL3JTI/PnzaeELAAAAAAAAAAAAAEPB888/78bSpb1PC1+gxuq1hS8AAAAAAAAAAEC9q/cWvjt27JDf/va3bqrYZz/7WZk8ebKbilr4EvAFaowunY8tupwB0MjI4wA0EvI0AI2EPA1AIyFPA9BIBiNPG6yAr3/VIQz4qqeeeko6OzvdVEFbW5tcccUVbipCl84AAAAAAAAAAAAAMIRcdtllcvbZZ7upiE7r/DT5gK+PMgMAAAAAAAAAAAAAjo8TTjhBPv7xj7upiE7r/CSN8dLCFwAAAAAAAAAAAAAGQblGt1nvT5w4UT796U/LRRddZF91Okss4DtC+twYAAAAAAAAAAAAAOB4mTlzpixcuNC+pnnnnXfsayzge/rJo9wYAAAAAAAAAAAAAKAapVr0+veSr/31l7/8xX5GLOA77pTifp8BAAAAAAAAAAAAAEPLU089JUePHo0CvjbyO3KkjBsz2r4JAAAAAAAAAAAAABi4tJa8A23l29vbKxs3brQx3nzAV4eTTxwl537oRLsQAAAAAAAAAAAAAKB2+hvgTfr2t78tb731lv28fJfOdmLkSPnQaSfIKTT0BQAAAAAAAAAAAIBB09/g75///Gd54oknbGy3KOCrw+jRo+WillNl8nha+gIAAAAAAAAAAABANdICueG8tPcroc/rveeee+TrX/+6jBo1Kh/fzQd8lZ95wgmj5ewzTpSZZ58kLWNPkFNPMG8e7YsWAlDSqFGxwwoAAAAAAAAAAABIVS74u3fvXuns7JQ1a9bI5z//eVm3bp309fXl47pqxIIFC47aMUcjw0oX1HH/6uf7VwAAAAAAAAAAAADA4MgHdN2rb9WrXTmrzICv54O8BHgBAAAAAAAAAAAA4PjSAK8fCkT+P2lUprpOfDDmAAAAAElFTkSuQmCC;" vertex="1" parent="ihhVtPH77ZfG2zRs3wzk-42">
          <mxGeometry x="12" y="163.69" width="236" height="118.61" as="geometry" />
        </mxCell>
        <mxCell id="ihhVtPH77ZfG2zRs3wzk-51" value="HDS UI" style="rounded=0;whiteSpace=wrap;html=1;" vertex="1" parent="ihhVtPH77ZfG2zRs3wzk-42">
          <mxGeometry x="60" y="290" width="140" height="22" as="geometry" />
        </mxCell>
      </root>
    </mxGraphModel>
  </diagram>
</mxfile>
